<svg xmlns="http://www.w3.org/2000/svg" xmlns:xlink="http://www.w3.org/1999/xlink" viewBox="0 0 137.79 26.95"><defs><style>.cls-1{fill:url(#未命名漸層_5);}</style><linearGradient id="未命名漸層_5" x1="158.24" y1="-14.68" x2="-29.06" y2="45.55" gradientUnits="userSpaceOnUse"><stop offset="0" stop-color="#a79671"/><stop offset="0.55" stop-color="#f5f2ca"/><stop offset="0.78" stop-color="#d3bd91"/><stop offset="1" stop-color="#b69061"/></linearGradient></defs><title>booking</title><g id="圖層_2" data-name="圖層 2"><g id="圖層_2-2" data-name="圖層 2"><path class="cls-1" d="M25.1,22s2,1.42,3.19,2.46c-.09.32-.39.47-.82.47H.27L0,24.05H15.41A118.77,118.77,0,0,0,19.89,9l3.9,1c-.13.37-.49.63-1.19.63a74.58,74.58,0,0,1-6.4,13.38h7.16ZM1.52,7.34,1.28,6.5h21l1.74-2S26,5.86,27.17,6.87c-.06.32-.37.47-.83.47Zm4.36,2c7.7,8,5.75,15.38,2.89,12.68,0-3.92-1.8-9-3.35-12.56ZM10.78.06c7.43,2.49,5.33,7.4,2.8,5.63A14.52,14.52,0,0,0,10.45.23Z"/><path class="cls-1" d="M48.84.93l2.68,2a2.58,2.58,0,0,1-1.31.61V14.62a3.45,3.45,0,0,1-1.94.64h-.4V13.52H41.23V22c1.71-.64,3.9-1.48,6.12-2.41a20.2,20.2,0,0,0-2.5-3.86l.4-.2c8.16,4.87,6,10.82,3.53,8.61a10.79,10.79,0,0,0-1.09-3.88c-1.77,1.16-4.36,2.84-7.28,4.52a2,2,0,0,1-.79.87l-1.53-2.75c.7-.41.83-.61.83-1.28V1.13l2.68,1.1h6ZM41.23,7.46h6.64V3.07H41.23Zm6.64,5.19V8.3H41.23v4.35ZM64.56,2.93a2.34,2.34,0,0,1-1.25.58V18.62c0,1.71-.36,2.82-3.41,3.11A2.35,2.35,0,0,0,59.29,20a4.56,4.56,0,0,0-2.41-.87v-.43s2.81.2,3.42.2.67-.17.67-.61V3.13H55.33v23c0,.29-.82.87-1.89.87H53V1.16l2.46,1.13h5.18L61.82,1Z"/><path class="cls-1" d="M86.63,11.72c-.21.23-.55.29-1.12.32a36.7,36.7,0,0,1-3.42,4.46l-.36-.2c.36-1.25.88-3.22,1.22-4.67h-2.8v12c0,1.68-.4,2.9-3.29,3.13a2.35,2.35,0,0,0-.55-1.59A4.21,4.21,0,0,0,74,24.37V24s2.71.17,3.23.17.64-.17.64-.52v-12H73.35l-.27-.84h9.68l1.41-1.33ZM98.66.46s1.83,1.37,2.93,2.32c-.09.29-.4.44-.8.44H94.67A24.62,24.62,0,0,1,92.3,6.53h4.41l1.16-1.22,2.56,1.88a2.18,2.18,0,0,1-1.07.47v13a3.37,3.37,0,0,1-2,.7H97V20.19H89.16v.7c0,.26-.94.81-2,.81h-.39V5.48l2.52,1h2.07c.16-.9.34-2.21.46-3.31H85.72l0,0c-.18.23-.58.26-1.22.29A28.39,28.39,0,0,1,80,6.85c2.47,1.88,1.37,4.2-.48,3.24-.67-1.71-2.87-3.74-4.72-4.78L75.06,5a12.12,12.12,0,0,1,4.23,1.36A38.48,38.48,0,0,0,81.7,3.16H74l-.27-.81h8.13L83.28,1l2.26,2.08-.19-.66H97.08Zm-15.56,26A21.58,21.58,0,0,0,90,21.09l3,1.77c-.15.23-.49.26-1,.11a25.63,25.63,0,0,1-8.68,3.89Zm6.06-19v3.36H97V7.4Zm0,7.63H97V11.57H89.16ZM97,19.38V15.87H89.16v3.51ZM94,21.2c8.56,1.51,7.56,6.62,4.88,5.4a17.54,17.54,0,0,0-5.15-5.11Z"/><path class="cls-1" d="M112.82,19.06c.91,3,.36,5.25-.52,6.26-.61.7-1.86.87-2.34.18a1.46,1.46,0,0,1,.63-1.89,6.36,6.36,0,0,0,1.71-4.55Zm-2.77-3.69a3.74,3.74,0,0,0,.94-.32,29.63,29.63,0,0,0,5.27-5.45c-1.25.35-2.8.76-4.42,1.1a1.74,1.74,0,0,1-.76.67L109.89,8.5a2.71,2.71,0,0,0,.8-.29c1.91-1.63,4.32-5.83,5.2-8.09l3.23,1.65a1,1,0,0,1-1.12.38,35,35,0,0,1-6,6.44c1.38,0,3.2,0,5.09,0a30.56,30.56,0,0,0,2.1-3.31l3,1.89a1.09,1.09,0,0,1-1.19.32,44.19,44.19,0,0,1-8.59,7.91c1.89-.11,4.63-.32,7.49-.55a19.85,19.85,0,0,0-1.79-3l.36-.17c6.22,3.22,4.24,7.34,2.26,5.66a9.17,9.17,0,0,0-.58-1.92c-1.92.58-4.94,1.45-8.23,2.27a1.43,1.43,0,0,1-.76.6ZM116,18.48c4.14,3.86,1.52,7.6-.16,5.6a14.27,14.27,0,0,0-.27-5.49Zm3.44-.67c5.39,2.84,3.16,6.9,1.28,5.13a10.57,10.57,0,0,0-1.62-5ZM137.79,6.29a2.32,2.32,0,0,1-1.34.5c-.36,11-1.19,16.88-2.83,18.59a4.86,4.86,0,0,1-3.69,1.39,2.14,2.14,0,0,0-.54-1.65,7.39,7.39,0,0,0-2.74-.93V23.7c1.24.11,3.22.29,3.89.29a1.57,1.57,0,0,0,1.25-.41c1.28-1.1,2-7.13,2.35-17.11h-7.62a27.32,27.32,0,0,1-4.41,6.7l-.46-.26A47.15,47.15,0,0,0,125.88,0l3.72.9c-.12.38-.49.61-1.16.64-.45,1.39-1,2.75-1.52,4.06h6.88l1.37-1.42Zm-11.33,4.44c7.19,3.8,4.84,8.94,2.47,6.91a15,15,0,0,0-2.83-6.73Z"/></g></g></svg>