<svg xmlns="http://www.w3.org/2000/svg" viewBox="0 0 229.6 70.57"><defs><style>.cls-1{fill:#fff;}</style></defs><title>簽名</title><g id="圖層_2" data-name="圖層 2"><g id="圖層_1-2" data-name="圖層 1"><path class="cls-1" d="M6,10c.08-2.88.09-4.69,0-5.44a1.7,1.7,0,0,0-.35-1c-.28-.18-.39-.33-.34-.44s.26-.14.51-.07A2.71,2.71,0,0,1,7.46,4.44a2.21,2.21,0,0,1,0,1c-.07.29-.14,1.93-.21,4.93-.15,3.5-.19,5.47-.12,5.93a3.16,3.16,0,0,1-.21,1.95.53.53,0,0,1-.43.2.93.93,0,0,1-.65-.2c0-.05-.08-.07-.1-.07A10.35,10.35,0,0,1,3.87,16a12.28,12.28,0,0,1-2.08,2.12.76.76,0,0,1-.58.05A1.74,1.74,0,0,1,0,16.8,1.48,1.48,0,0,1,.26,16a7.28,7.28,0,0,1,.84-1q.25-.19-.15.42a2.35,2.35,0,0,0-.36.83.56.56,0,0,0,.18.61c.1.08.28,0,.54-.13A56.78,56.78,0,0,0,5.9,13.11C6,12.25,6,11.22,6,10ZM4.1,9.2a1.35,1.35,0,0,1,1.05.93.54.54,0,0,1-.1.51,1.89,1.89,0,0,1-.72.49,3.38,3.38,0,0,0-1,.64.85.85,0,0,1-.43.29c-.12,0-.19,0-.21-.05s0-.14.11-.24a2.12,2.12,0,0,0,.69-1.59A.72.72,0,0,0,3,9.84a2,2,0,0,0-.66.07c-.14,0-.22,0-.23-.07s0-.16.15-.22A2.87,2.87,0,0,1,4.1,9.2Zm0,6.5a1.9,1.9,0,0,1,.28.24c.62.33,1,.44,1.23.34s.17-.08.18-.24,0-1,.08-2.39C5.27,14.33,4.68,15,4.1,15.7ZM14.15,9.06c-.27,3.29-.26,5.3,0,6a1.68,1.68,0,0,0,.62,1,3.82,3.82,0,0,0,2.92.2,4.92,4.92,0,0,1,1.72-.2,1.57,1.57,0,0,1,1,.81.76.76,0,0,1-.26.8.73.73,0,0,1-.69.18,3.39,3.39,0,0,0-1.23.22,16,16,0,0,1-2.54.73c-.24,0-.36,0-.38-.08s.09-.17.26-.24c.46-.21.87-.41,1.23-.61.15-.1.22-.2.2-.29s-.26-.18-.74-.2c-1.2-.08-2-.34-2.26-.78a2.73,2.73,0,0,1-1.18-2A42.68,42.68,0,0,1,13,7.76q.48-4.9-.16-5.86c-.08-.13-.09-.22,0-.29s.31,0,.64.07a2.47,2.47,0,0,1,1.13.74,3.16,3.16,0,0,1,.05,2.19c-.17,1.44-.31,2.75-.41,3.93h.15a8.57,8.57,0,0,0,2.72-.9A2.21,2.21,0,0,1,18,7.4a2.69,2.69,0,0,1,1,.24,1.08,1.08,0,0,1,.41.42.38.38,0,0,1,0,.36.77.77,0,0,1-.51.3A8,8,0,0,1,14.15,9.06Z"/><path class="cls-1" d="M30.74,14.14l2.64-1.79c0,.05,0,.16-.1.32-.87,1.06-1.6,1.93-2.18,2.61a7.43,7.43,0,0,1-1.67,1.2c-.1.1-.14.07-.12-.07a10.23,10.23,0,0,1-1.77-.3c-.26-.06-.38-.17-.36-.31s.31-.2.79-.2a8.55,8.55,0,0,0,1.69-.78q.36-1.75.9-4.83c-.07,0-.11,0-.13,0a5,5,0,0,1-1.92,0c-.41-.11-.62-.22-.64-.31s.21-.17.69-.17a8.91,8.91,0,0,0,2.16-.93,6.93,6.93,0,0,0-.11-2.57,1.46,1.46,0,0,0-.46-.29c-.17-.06-.22-.13-.15-.19a.53.53,0,0,1,.38-.08,2.11,2.11,0,0,1,.64.22q.72.46.72,2.4A.73.73,0,0,1,32.07,8a1.58,1.58,0,0,1,1.36.42.29.29,0,0,1,0,.31,7.71,7.71,0,0,1-1.8.88A19.16,19.16,0,0,1,30.74,14.14Zm4.15-4.62a1.83,1.83,0,0,0-.35-.76c-.12-.14-.16-.22-.11-.24a.53.53,0,0,1,.41.12A2.57,2.57,0,0,1,36,10.21a6.93,6.93,0,0,1-.1,3q-.82,3.88-2.62,5c-.25.15-.39.2-.41.15s.22-.34.64-1A14.73,14.73,0,0,0,34.89,9.52Zm5.16-2.15c-1.63.78-2.72,1.1-3.28,1S36,8,36.3,8a6.34,6.34,0,0,0,2.11-.64c.53-.29,1-.54,1.51-.75a18.07,18.07,0,0,1-.28-3.91c0-1.19-.23-1.88-.54-2.08s-.28-.24-.23-.34.24-.11.46,0a1.94,1.94,0,0,1,.9.52A2.25,2.25,0,0,1,40.92,3a8.7,8.7,0,0,0-.08,3.15.29.29,0,0,1,.16-.1,3,3,0,0,1,1.41-.65,1.12,1.12,0,0,1,.79.34c.24.32.17.64-.21,1-.64.57-1.25,1.15-1.82,1.73a22,22,0,0,0,1.9,5c1-1.93,1.3-3.32,1-4.15Q43.92,9,44,9c.09,0,.21.09.38.25a2.74,2.74,0,0,1,.75,2,5.88,5.88,0,0,1-1.57,3,2,2,0,0,0,.16.24.17.17,0,0,0,.07.12q2.2,3.15,3.08,3.3c.21,0,.33-.37.39-1.25,0-.6,0-.91.07-.92s.17.1.18.31a20.41,20.41,0,0,1,.72,4,.34.34,0,0,1-.36.22l-.2-.05c-1.47-.49-3-2.25-4.75-5.3a2.27,2.27,0,0,1-1,.56c-.29.1-.45.13-.46.08s0-.16.25-.27a5.06,5.06,0,0,0,.85-1,25.61,25.61,0,0,1-2.08-5.1l0,0a23.76,23.76,0,0,0-1.77,1.9c-.22.28-.31.44-.26.49s.19,0,.41,0a1.58,1.58,0,0,1,.77.1.93.93,0,0,1,.49.36,2.81,2.81,0,0,1,.48,2.83,3.28,3.28,0,0,1-1.46,2,4.26,4.26,0,0,1-3.33.48l.64-.14A3.72,3.72,0,0,0,38.56,16a4.56,4.56,0,0,0,1-3.25.54.54,0,0,0-.61-.44,3.28,3.28,0,0,0-1.9.81c-.43.34-.72.39-.87.14a.56.56,0,0,1,0-.49,1.79,1.79,0,0,1,.65-.63,25.48,25.48,0,0,0,3.46-4A2.21,2.21,0,0,1,40.05,7.37Zm6.35-4A1.67,1.67,0,0,1,47,4.91c0,.27-.08.44-.2.51a.57.57,0,0,1-.41,0A2.78,2.78,0,0,1,45.25,4.1a5.89,5.89,0,0,0-1.31-1.56c-.17-.13-.23-.23-.18-.29s.16-.08.31,0A5.83,5.83,0,0,1,46.4,3.37Z"/><path class="cls-1" d="M64.71,11.89c-.1-.15,0-.23.31-.24a16.34,16.34,0,0,0,2.13-.49c0-.6.06-1.2.07-1.78a9.62,9.62,0,0,0-1.17.53,2.44,2.44,0,0,1-1.47.17q-.73-.13-.84-.39c-.07-.16.06-.23.38-.22a1.46,1.46,0,0,0,.67-.14,23,23,0,0,1,2.46-.83c0-.57,0-1.13,0-1.66a10.31,10.31,0,0,0-2.15.87,3.61,3.61,0,0,1-2.23.35c-.6-.15-.93-.32-1-.52s.08-.31.49-.26a4,4,0,0,0,1.17-.22c1.47-.52,2.73-.92,3.77-1.18V3.64a4.21,4.21,0,0,0-.82.36,1.3,1.3,0,0,1-.59.2,2.51,2.51,0,0,1-1.69-.39c-.34-.25-.5-.4-.49-.47s.21-.14.52,0l3.07-.63c0-1.14-.23-1.68-.69-1.64-.17,0-.22-.1-.15-.31a1.43,1.43,0,0,1,.36-.52A1.08,1.08,0,0,1,67.61,0a.92.92,0,0,1,.72.29,9.28,9.28,0,0,1,0,2.22,8,8,0,0,1,3.18-.29,1.71,1.71,0,0,1,.66.66,1.63,1.63,0,0,1,.21,1.59,2.33,2.33,0,0,1,1.36-.12,1.47,1.47,0,0,1,.84.46c.16.18.17.33.05.44a.58.58,0,0,1-.51.07,5.72,5.72,0,0,0-2.43.34,21.62,21.62,0,0,1-1.93,2,1.92,1.92,0,0,1,1-.07,1.32,1.32,0,0,1,.7.34c.12.13.14.24.07.34a.49.49,0,0,1-.38.1A8.71,8.71,0,0,0,68.38,9q0,.88,0,1.71a7.67,7.67,0,0,0,1-.51,1.25,1.25,0,0,1,.85-.32,1,1,0,0,1,.66.15.69.69,0,0,1,.24.37q0,.16-.36.39A13.55,13.55,0,0,0,68.33,12c0,.5,0,1,0,1.51a12.51,12.51,0,0,1,1.89-.34c.34,0,.52-.13.52-.29s-.06-.45-.34-.86,0-.28.69.12a7,7,0,0,0,1.95.76.71.71,0,0,1,.59.49.64.64,0,0,1-.13.53c-.15.18-.44.22-.87.1A5.74,5.74,0,0,0,71.35,14a17.68,17.68,0,0,0-3.15.44,20.06,20.06,0,0,1-.74,3.78l.28.05c4.53.51,7.18.95,7.94,1.34q.36.22.36.3c0,.06-.12.12-.38.17a21.18,21.18,0,0,1-2.56.36c-.48,0-.86.08-1.13.13a12.64,12.64,0,0,1-4.54-1,67.38,67.38,0,0,0-6.54-2.32,5.6,5.6,0,0,1-3.82,2.63,2.88,2.88,0,0,1-1.18-.05c-.12-.08,0-.13.31-.14a5.71,5.71,0,0,0,3.51-2.74,7.19,7.19,0,0,0-2.41-.24,3.33,3.33,0,0,1-.94-.07q-.21-.06-.21-.15c0-.11.09-.18.26-.2a8.15,8.15,0,0,1,3.64.13q2-3.73,1.05-5.28a.71.71,0,0,0-.64-.19,1.54,1.54,0,0,0-.82.27,9,9,0,0,0-1.77,2.1,1.51,1.51,0,0,1-.36.63.32.32,0,0,1-.31,0,.82.82,0,0,1-.28-.54.92.92,0,0,1,.31-1,20.62,20.62,0,0,0,1.71-4.59c.06-.23.05-.37,0-.42s-.16,0-.33.1a4.37,4.37,0,0,1-1.23.46,1.32,1.32,0,0,1-.85-.09c-.24-.15-.2-.26.13-.32a5.82,5.82,0,0,0,1.46-.68q.94-.64,1-.93c.14-.39.35-.6.62-.61a1.54,1.54,0,0,1,1,.34.94.94,0,0,1,.41.73,1.35,1.35,0,0,1-.53.88,13.18,13.18,0,0,0-1.31,2.66c0,.18-.07.28,0,.3s.19.08.41.07a1.91,1.91,0,0,1,1.59.41,2.25,2.25,0,0,1,.64,1,8,8,0,0,1-.75,5q1.11.25,2.52.69a18,18,0,0,0,3.3.78l.29.05a16.1,16.1,0,0,1-.21-3.49,7.65,7.65,0,0,0-2.77,1.1c-.24.16-.43.19-.59.09a1.52,1.52,0,0,1-.46-.41.85.85,0,0,1-.18-.59v-.05c0-.06,1.37-.88,4.05-2.44v-.53A4.51,4.51,0,0,1,64.71,11.89Zm2.39.95-1,.69c-.67.45-1,.7-1,.75s.29.07.67,0,.85-.27,1.33-.39a4.33,4.33,0,0,1,0-.53Zm1.23-8.91V5.62a13.53,13.53,0,0,1,2.18-.57c.47-1.25.65-2,.53-2.24a.21.21,0,0,0-.18-.1,7.84,7.84,0,0,0-2.53.59Zm0,4.25a1.61,1.61,0,0,1,.36-.1,10.88,10.88,0,0,0,1.38-2,8.37,8.37,0,0,0-1.77.46C68.35,7.06,68.36,7.63,68.38,8.18Z"/><path class="cls-1" d="M88.61,5.71a.24.24,0,0,1,.18-.07,4.63,4.63,0,0,1,2.59-.85c.49.13.75.3.77.51s-.08.32-.39.39a3.5,3.5,0,0,0-.79.19,24.73,24.73,0,0,0-5.8,2.49,3.25,3.25,0,0,1-2.2.2q-.54-.16-.54-.42c0-.13.24-.22.72-.29A49.52,49.52,0,0,0,88.61,5.71ZM87.43,13c0-.05-.19-.07-.51-.05a3.22,3.22,0,0,1-1.13.07c-.46,0-.51-.12-.15-.22A16.76,16.76,0,0,0,88,11.6a3.58,3.58,0,0,1,1.72-.42c.24,0,.39.07.46.17s0,.45-.43.71a18.09,18.09,0,0,0-2,1.49l-.08,0s0,0,0,0a7.25,7.25,0,0,0-1.79,4.57,2.12,2.12,0,0,1-.21,1,.53.53,0,0,1-.38.24c-.17,0-.33-.18-.49-.53a3.35,3.35,0,0,1-.13-1.52v-.05a9.78,9.78,0,0,1,2.75-4.15A1.27,1.27,0,0,0,87.43,13Zm.87-4.42A1.9,1.9,0,0,1,89,8.2a2,2,0,0,1,.87,0,.82.82,0,0,1,.41.25.34.34,0,0,1,.08.29c0,.11-.14.23-.36.34a7.25,7.25,0,0,1-3.72,1.25,1.6,1.6,0,0,1-.64-.22c0-.1.19-.18.62-.25A7.07,7.07,0,0,0,88.3,8.57ZM89.58,14a1,1,0,0,1,.75-.26,1.15,1.15,0,0,1,.69.31.85.85,0,0,1,.36.66,2.55,2.55,0,0,1-.9,1.08,10.09,10.09,0,0,0-1.61,1.58c-.16.21-.21.37-.16.47s.37,0,.8-.2a12.65,12.65,0,0,0,1.36-.76c.2-.08.31-.08.33,0s-.09.24-.36.54a7.15,7.15,0,0,1-2.46,1.88,1.26,1.26,0,0,1-.62.17.64.64,0,0,1-.36-.29,1.18,1.18,0,0,1-.17-.54.68.68,0,0,1,.28-.56,14.26,14.26,0,0,0,1.66-2.27c.16-.23.2-.38.13-.44a.41.41,0,0,0-.31-.08c-1.23.33-1.87.49-1.92.49-.24-.08-.2-.18.1-.29A9.08,9.08,0,0,0,89.58,14ZM88.07,1.27a4.49,4.49,0,0,1,1.54.51.87.87,0,0,1,.38.59.51.51,0,0,1-.25.44,1.15,1.15,0,0,1-1,.07,1.68,1.68,0,0,0-1.38.27c-.14.06-.21.07-.23,0s0-.1,0-.17.34-.4.51-.61a.48.48,0,0,0-.2-.66,2.42,2.42,0,0,1-.46-.61c0-.13,0-.2,0-.22s.13-.05.23,0A2.74,2.74,0,0,0,88.07,1.27Zm9.15,15.84s0,0,0,.08q-2.64,3-5,2.9c-.21,0-.32-.05-.34-.14s.24-.21.72-.27c1.2-.38,2.46-1.5,3.8-3.37a11.6,11.6,0,0,0-3.13-2.13,1.37,1.37,0,0,1-.57-.29q-.18-.09-.15-.24c0-.07.16-.09.33-.08a9.25,9.25,0,0,1,4,2A14.76,14.76,0,0,0,98,12.33c.07-.37,0-.62-.08-.73a.64.64,0,0,0-.51.09,8.33,8.33,0,0,1-2.61,1.2c-.26,0-.4,0-.41-.1s.1-.22.36-.29A3.56,3.56,0,0,0,96,11.77a5.16,5.16,0,0,1,1.89-1.25,1.79,1.79,0,0,1,.93.2,1.51,1.51,0,0,1,.61.71,1.39,1.39,0,0,1,.13.65,10.61,10.61,0,0,1-1.64,4.11s-.06,0-.08.09c.34.22.68.4,1,.57l.39.19q3.92,2,4.56,2.83c.19.23.27.37.26.42s-.19.06-.47.05-1.21-.1-2.56-.25C100.39,19.93,99.14,18.94,97.22,17.11ZM93.38,3.69c.05-.17.19-.25.41-.25a1,1,0,0,1,.69.3A2.53,2.53,0,0,1,95,5.62,5.4,5.4,0,0,1,93.74,9q-.39.38-.57.27c-.13-.06-.21-.23-.23-.49a2.47,2.47,0,0,1,.9-1.93,2,2,0,0,0,.33-1.19,1.79,1.79,0,0,0-.64-1.56A.4.4,0,0,1,93.38,3.69Zm5-2.54A.77.77,0,0,1,99,.73a2.26,2.26,0,0,1,1.1.54,1.16,1.16,0,0,1,.44.78,1.55,1.55,0,0,1-.34.61,11.39,11.39,0,0,0-1.84,2,1.24,1.24,0,0,0-.11.81q.24.56,1.41.63a5.88,5.88,0,0,1,2,.3c.37.19.57.42.59.68s-.22.5-.7.49a13.55,13.55,0,0,0-3.3.61c-.21.06-.32.05-.34,0s.26-.29.88-.54c.12-.14.17-.25.15-.31s-.18-.35-.54-.54a2.27,2.27,0,0,1-.82-.81c-.22-.47,0-1.44.62-2.9.1-.26.12-.42,0-.47a.41.41,0,0,0-.39-.07c-.44.16-.88.3-1.3.42-.71.19-1.09.24-1.16.14s.06-.18.34-.29A9.78,9.78,0,0,0,98.4,1.15Z"/><path class="cls-1" d="M5,51a2.56,2.56,0,0,1,1.84,1.76.84.84,0,0,1-.2.9,4.31,4.31,0,0,1-1.31.86,7.47,7.47,0,0,0-1.77,1.29,3.6,3.6,0,0,1-.78.62c-.21.06-.34,0-.36-.08s-.05-.24.12-.42A4.76,4.76,0,0,0,3.7,54,4.58,4.58,0,0,0,4,52.67C3.67,52,3,51.79,1.89,52c-.22,0-.34,0-.37-.16s.06-.24.33-.35A5.35,5.35,0,0,1,5,51ZM3.74,62.24c.13.06.15.25,0,.59a3.06,3.06,0,0,0-.45,2.23c.24.41.49.62.74.62q1.39,0,5.7-7.11.17-.32.33-.27c.08.05,0,.25-.13.58a28.92,28.92,0,0,0-1.11,2.9,32.15,32.15,0,0,1-2.58,5.85,2,2,0,0,1-1.72.86,2.75,2.75,0,0,1-1.85-1l0-.08c-.65-.91-.41-2.47.74-4.69Q3.58,62.24,3.74,62.24Zm5-20.54a6.52,6.52,0,0,1,1.76.39,1.64,1.64,0,0,1,1,1.21,1,1,0,0,1-.21.9q-.36.34-1.35,0a3.07,3.07,0,0,0-1.48.23,2.62,2.62,0,0,0-1,.55c-.27.29-.47.39-.58.31s-.15-.21,0-.39l.54-.55A1.29,1.29,0,0,0,7,42.63,9.19,9.19,0,0,1,6,41.11c-.13-.26-.15-.44,0-.55a.48.48,0,0,1,.58.12c.13.13.28.28.45.43A3.51,3.51,0,0,0,8.7,41.7Zm9.52,4.8c-.22-2-.62-3-1.19-3.28-.33-.16-.48-.32-.45-.51s.26-.22.61-.19a4,4,0,0,1,2.26.86A2.25,2.25,0,0,1,20,44c.3.55.36,1.92.17,4.1a58.6,58.6,0,0,1,6.43-1.79,35.9,35.9,0,0,0,.95-6.1c-.17-1-.71-1.48-1.64-1.4-.22,0-.35-.09-.37-.2s.05-.28.24-.39a2.19,2.19,0,0,1,1.11-.62,3.15,3.15,0,0,1,3.2,1.75q.66,1.61-1.19,6.45a3.21,3.21,0,0,1,1.77.08c1.2.6,1.81,1.07,1.84,1.4a.87.87,0,0,1-.41.9,1.56,1.56,0,0,1-1.35,0,6.12,6.12,0,0,0-2.67-.39,74,74,0,0,1-3.44,7.15,21.49,21.49,0,0,1,5.08-.9,4.07,4.07,0,0,1,3.57,1.29.61.61,0,0,1-.16.9,1.19,1.19,0,0,1-1.23.19,13.82,13.82,0,0,0-6.16-.11q-5.7.73-8.41,2.85a9.73,9.73,0,0,1-5.29.62c-.52-.07-.76-.2-.73-.39s.3-.32.65-.35a13.92,13.92,0,0,0,2.46-.82,29,29,0,0,1,9.19-3A37,37,0,0,0,26.21,48h-.08A15.59,15.59,0,0,0,20,49.71c0,.23-.06.48-.08.74-.17,1.46-.39,2.82-.66,4.1-.19.65-.34,1-.45.94s-.27-.13-.25-.47a39.5,39.5,0,0,1-.24-4.46,7.76,7.76,0,0,0-1.64,1.22,3.71,3.71,0,0,1-1.23.78,2.67,2.67,0,0,1-2.59-.51A2.47,2.47,0,0,1,12,50.76c-.14-.52,0-.57.54-.16a1.79,1.79,0,0,0,1.1.36,2.15,2.15,0,0,0,1-.36c1.23-.65,2.43-1.22,3.61-1.72C18.23,47.87,18.22,47.08,18.22,46.5ZM16.74,61.81c.33.14.37.63.12,1.49s-.19,1.3,0,1.48a.56.56,0,0,0,.49-.07c.36-.21.72-.41,1.07-.59s.41-.18.49-.08,0,.33-.2.51C17.07,66,16.17,67.1,16,67.75A3.54,3.54,0,0,1,15.3,69c-.16.24-.3.34-.41.31s-.37-.15-.61-.47a2.88,2.88,0,0,1-.62-1.52c-.08-.94.47-2.11,1.64-3.51a10.84,10.84,0,0,0,1.07-1.64C16.51,61.92,16.63,61.79,16.74,61.81Zm11.77-1.13a8.56,8.56,0,0,1,4,2.15,4.62,4.62,0,0,1,1,2.3,1.2,1.2,0,0,1-.42,1,1,1,0,0,1-.82.31,1.85,1.85,0,0,1-.82-.27,1.64,1.64,0,0,0-.94-.35,4,4,0,0,1-1.11-.27c-.13-.08-.19-.14-.16-.16s.16-.12.41-.12a3.35,3.35,0,0,0,1.11-.12.46.46,0,0,0,.28-.42v0Q30.77,63,27.9,61.15c-.28-.18-.36-.36-.25-.55S28.07,60.5,28.51,60.68Z"/><path class="cls-1" d="M58.71,54q-.95,2.63-2,4.89Q53,67,45.71,68.34c-.31.08-.47.08-.5,0s0-.13.21-.24a31.9,31.9,0,0,0,4.18-2.85q3.66-3.2,7.1-10.58a15.16,15.16,0,0,0-4.76,2.77,3.68,3.68,0,0,1-1.44.78,3.19,3.19,0,0,1-2.91-.7A2.38,2.38,0,0,1,46.73,56c-.11-.59.1-.65.62-.15a2.54,2.54,0,0,0,2.66.08A58.12,58.12,0,0,1,57.39,53c.39-1.1.74-2.2,1.07-3.32l-2.38,1c-.6.29-1,.35-1.19.2a.7.7,0,0,1-.12-.78,1.83,1.83,0,0,1,.9-1q.94-.59,3.65-2.5c.19-.83.39-1.65.58-2.46l-3,.94a3.69,3.69,0,0,1-3.32-.31c-.63-.5-.64-.75,0-.75a15.55,15.55,0,0,0,3.69-.5q1.4-.39,2.91-.75.49-2.37.78-4.65c.08-.75-.16-1-.74-.74-.35.18-.51.11-.49-.23a1.23,1.23,0,0,1,.66-.94A2.43,2.43,0,0,1,61.58,36a2.28,2.28,0,0,1,1.15.66,1.93,1.93,0,0,1,.49,1.52,22.26,22.26,0,0,1-1,4.07,28.77,28.77,0,0,1,3.45-.94q2.22-1,2.58-.78a2.18,2.18,0,0,1,.74.74,1,1,0,0,1,.08.9,1.38,1.38,0,0,1-1,.58,11.11,11.11,0,0,0-2.26.94,3.22,3.22,0,0,0-.45.23c-3.17,1.7-4.76,3-4.76,4.07,3.39-1.15,5.38-1.57,6-1.25a1.61,1.61,0,0,1,.58.7c.1.29-.05.6-.46.94a39.72,39.72,0,0,1-5.45,3.55q9.48-2.3,11-1.48c1.29.7,1.94,1.26,2,1.68a1,1,0,0,1-.49,1,2.17,2.17,0,0,1-1.56,0,8.1,8.1,0,0,0-2.38-.74q-4.68,0-5.82.43a51.66,51.66,0,0,0,7,4.73,61.94,61.94,0,0,1,9.39,6c.27.26.4.45.37.55s-.3.11-.74.08l-2.21-.27q-3.86-.59-8.29-5.16a15.88,15.88,0,0,0-1.56-1.45,32.27,32.27,0,0,1-4.51-4.41A25.85,25.85,0,0,0,58.71,54ZM58.21,69c-.1.39-.21.6-.32.63s-.47-.32-.74-.94a5.73,5.73,0,0,1-.45-4.3,11.74,11.74,0,0,0,.2-2.77,3.76,3.76,0,0,0-.37-1.88c-.05-.23,0-.39.09-.47s.34,0,.53.28a6.39,6.39,0,0,1,1.31,4L59.73,63a8,8,0,0,1,3.08-1.21,1.64,1.64,0,0,1,.9.39.94.94,0,0,1,.21.7c0,.26-.22.43-.58.51l-1.15.27a10.88,10.88,0,0,1-3.77.47v.16a11.38,11.38,0,0,0,0,1.71,10.52,10.52,0,0,1,0,2.43l.37-.16q3.36-1.61,5.21-1a1.87,1.87,0,0,1,.82.55,1.45,1.45,0,0,0,.73-1.09,60.48,60.48,0,0,0,.41-7.54c0-.6-.09-1-.28-1.13a4.23,4.23,0,0,0-2.3.27c-2.21.73-3.5,1-3.85.94s-.65-.37-.62-.47.22-.29.57-.31a9.06,9.06,0,0,1,1-.24q4.88-1.36,5.78-.86a3.58,3.58,0,0,1,1.44,3.09c0,1.4.09,2.82.2,4.26.3,2.42-.08,4.17-1.15,5.27a1.08,1.08,0,0,1-.73.35,1.83,1.83,0,0,1-1.48-.9,7.18,7.18,0,0,0-.78-.78,10,10,0,0,0-2.34.16c-1.26.31-1.93.47-2,.47A1.74,1.74,0,0,1,58.21,69Zm1.28-17.3c.87-.55,1.86-1.19,2.95-1.92s1.63-1.25,1.6-1.4-.38-.19-1-.08a13.63,13.63,0,0,0-2.74.7C60,50,59.73,50.85,59.49,51.74Zm1.84-6.64a1.69,1.69,0,0,1,.49-.39c.77-.58,1.14-.94,1.11-1.1s-.49-.3-1.15-.12A11.32,11.32,0,0,0,61.33,45.1Z"/><path class="cls-1" d="M107.61,57.09c.08,1.66.12,3.06.12,4.18,0,1.72.12,3.59.29,5.62a5.74,5.74,0,0,1-1.28,3.48.88.88,0,0,1-.73.19,1.07,1.07,0,0,1-.82-.58,8.25,8.25,0,0,0-2.1-1.49,19.32,19.32,0,0,1-2.29-1.56c-.3-.23-.4-.4-.29-.51s.67-.06,1.6.36c1.37.54,2.35.66,3,.35a.46.46,0,0,1,.21-.16q.69-.85.57-6.84c-.08-1.9-.11-3.84-.08-5.82q-6.6,6.22-13.12,8.32c-.5.14-.74.15-.74,0s.13-.32.49-.5q6.77-3.53,13.41-11.64c.06-1.05.1-2.09.12-3.13a29.87,29.87,0,0,0-7.79,2.19,4.69,4.69,0,0,1-3.61,0c-1.06-.39-1.65-.78-1.76-1.17s.18-.55.94-.4a6.14,6.14,0,0,0,2.18-.23q8.45-2,10.09-2c.08-1.82.17-3.69.28-5.59.14-2.05,0-3.25-.33-3.59s-.31-.37-.28-.47.3-.27.65-.27a3,3,0,0,1,2.51,4,15.88,15.88,0,0,0-1,5.59c2.19-.39,3.77-.72,4.76-1a4.21,4.21,0,0,1,2.46,0,2.71,2.71,0,0,1,1.52,1c.24.36.24.63,0,.82a1.13,1.13,0,0,1-1,.11q-1.72-.49-7.87.67a4.61,4.61,0,0,0,.16,1.83,4.53,4.53,0,0,1-.33,3.25C107.46,53.74,107.5,55.37,107.61,57.09Zm2.87-.35a28.88,28.88,0,0,1,7.91,2.18,6.6,6.6,0,0,1,3.45,3.44q.85,1.76.57,1.92c-.27.15-1.43-.51-3.48-2q-6.12-4.29-8.62-5.11-.5-.2-.45-.36C109.92,56.74,110.12,56.71,110.48,56.74Z"/><path class="cls-1" d="M171.74,62a1.57,1.57,0,0,1,.69.76.39.39,0,0,1-.08.46c-.1.13-.29.12-.56,0a4.83,4.83,0,0,0-2.79.22c-.45.15-.68.19-.7.13a.15.15,0,0,1,.08-.17c.56-.38.85-.64.85-.79s-.06,0-.16,0l-.25,0a13.19,13.19,0,0,0-6.44,1.27,2,2,0,0,1-.74.27,3.91,3.91,0,0,1-2.28-.54c-.26-.18-.35-.32-.29-.44s.27-.17.59-.07a2.15,2.15,0,0,0,.77,0c1.46-.37,2.23-.56,2.34-.56.59-.15,1.36-.3,2.3-.46,0,0,.05,0,.11,0-.06-.64-.08-1.27-.08-1.91a4.43,4.43,0,0,1-2.23-.27c-.16-.13-.1-.19.15-.19a8.67,8.67,0,0,0,1.82-.49.57.57,0,0,1,.23-.07c0-.51,0-1,0-1.52a.1.1,0,0,0-.08,0,8.11,8.11,0,0,1-1.61.29.87.87,0,0,1-.44-.24c-.05-.1,0-.18.26-.22a1.68,1.68,0,0,0,.38-.18,6.29,6.29,0,0,1,1.51-.58c0-.42.06-.84.06-1.25a4.12,4.12,0,0,1-2-.07c-.14-.11-.1-.18.12-.2,0,0,.65-.26,1.88-.7V52.81a5.22,5.22,0,0,0-1,.34,2.67,2.67,0,0,1-2,.22c-.22-.11-.33-.22-.33-.32s.13-.14.33-.12a5.52,5.52,0,0,0,1.26-.27c.6-.21,1.16-.39,1.69-.54,0-.45-.05-1-.1-1.63a13.1,13.1,0,0,0-1.8.41,11.58,11.58,0,0,0-4,1.69,6,6,0,0,1-3.76.24c-.33-.06-.48-.17-.47-.32s.19-.2.47-.22a8,8,0,0,0,2.33-.58,5.27,5.27,0,0,1,.9-.34,20.64,20.64,0,0,1,6.15-1.57,1,1,0,0,0-.57-.61c-.2-.09-.3-.2-.28-.31s.16-.14.39-.13a2.44,2.44,0,0,1,1.69.79q.87-.18,3.66-.54a10.85,10.85,0,0,1,4,0,2.11,2.11,0,0,1,1,.75.41.41,0,0,1-.13.59.92.92,0,0,1-.87.1,15,15,0,0,0-7.21-.25,4.19,4.19,0,0,1,.08,1.47,6.65,6.65,0,0,1,2.61-.56,2,2,0,0,1,1.49.71,1.71,1.71,0,0,1,.46,1.58,5.92,5.92,0,0,1-2.74,3,.71.71,0,0,1,0,.29c0,.17-.32.25-.79.25a7,7,0,0,0-1.39.19c0,.48-.08.94-.1,1.39a2.7,2.7,0,0,1,1.64-.34,1.18,1.18,0,0,1,.67.37.64.64,0,0,1,.1.54c0,.21-.22.32-.49.34s-1,.17-2.05.41c-.09.64-.18,1.27-.28,1.91Q170,60.87,171.74,62Zm-8.28-16.55a9.83,9.83,0,0,1,.2,1.25c0,.21-.08.32-.15.34s-.21-.08-.38-.27a4.23,4.23,0,0,1-.67-.95,5.48,5.48,0,0,0-1.46.83,1.54,1.54,0,0,1-.82.36,1.33,1.33,0,0,1-.85,0,1.69,1.69,0,0,1-1.15-1.34c0-.35.08-.36.36,0a1,1,0,0,0,.66.29c.05,0,1-.29,2.87-.88a8.69,8.69,0,0,1-.28-1,2,2,0,0,0-.36-.78c-.12-.18-.14-.3-.07-.36a.5.5,0,0,1,.38,0,3,3,0,0,1,1,.63,2.74,2.74,0,0,1,.49,1.07,18.77,18.77,0,0,1,4.31-.8c.27-.6.46-1.06.56-1.37a5,5,0,0,0,.2-1.32,1.26,1.26,0,0,0-.35-.63c-.11-.1-.13-.17-.08-.22a.51.51,0,0,1,.36.05,2.73,2.73,0,0,1,1,.71,1.47,1.47,0,0,1,.46.85,4.22,4.22,0,0,1-.8,1.76,3.89,3.89,0,0,1,2.36.07c.69.46,1,.79,1,1a.51.51,0,0,1-.31.51.94.94,0,0,1-.85-.07,6.43,6.43,0,0,0-3.15-.49,11.57,11.57,0,0,1-1.59,1.44c-.17.12-.26.15-.28.1s0-.13.13-.24a8.21,8.21,0,0,0,.82-1.25A12.62,12.62,0,0,0,163.46,45.41Zm-3.13,8.28c.07,0,.19,0,.36.05a3.27,3.27,0,0,1,.92.53,2.62,2.62,0,0,1,.46,1.32,9.43,9.43,0,0,1,.16,1.34c0,.2-.09.3-.16.32s-.18-.07-.36-.27a4,4,0,0,1-1.05-2.32,1.47,1.47,0,0,0-.28-.66C160.28,53.84,160.26,53.74,160.33,53.69Zm4.56-6.25a6.29,6.29,0,0,1,2.36-.64,1.25,1.25,0,0,1,.62.34.94.94,0,0,1,.13.54c-.06.2-.22.3-.49.32s-.64.13-1,.19c-1.76.39-2.92.39-3.49,0-.15-.11-.1-.18.16-.2ZM166.38,55a10.92,10.92,0,0,0-.1,1.15,2.6,2.6,0,0,1,1.43-.14.69.69,0,0,1,.31.14A10.09,10.09,0,0,0,169.64,53c.15-.52.18-.86.07-1a.41.41,0,0,0-.33-.2,8.21,8.21,0,0,0-2.87.61c0,.41,0,.84,0,1.3a1.06,1.06,0,0,1,.69-.08,1.34,1.34,0,0,1,.61.27.69.69,0,0,1,.16.49.5.5,0,0,1-.41.32A6.14,6.14,0,0,0,166.38,55Z"/><path class="cls-1" d="M195.77,49.38c0,.16-.14.28-.36.34a4.46,4.46,0,0,0-1.33.59c0,.44.06.88.07,1.32,1.3-.36,2.47-.65,3.51-.86a2.08,2.08,0,0,1,2.16.66,1.46,1.46,0,0,1,.54,1c0,.72-.77,1.76-2.26,3.13a1.29,1.29,0,0,1,.74.34.64.64,0,0,1,.16.49q-.06.28-.54.27a10.53,10.53,0,0,0-3.79.68c.05.94.05,2.15,0,3.61-.12,1.73-.42,2.76-.9,3.1a3.74,3.74,0,0,1-2.23-.19q-2.28-.59-2.46-1a.19.19,0,0,1,0-.17s.11,0,.23,0a4.81,4.81,0,0,0,3.8-.39c.39-.71.55-2.22.48-4.51a18,18,0,0,0-2.64,1.17,2.93,2.93,0,0,1-1.54.51,2,2,0,0,1-1.69-.73c-.13-.17-.19-.28-.18-.34a.37.37,0,0,1,.36-.1,23,23,0,0,0,5.67-1.2c-.09-.7-.14-1.19-.16-1.49h0c-1.57.34-2.61.39-3.13.12-.15-.11-.1-.17.16-.19a20,20,0,0,0,2.95-1.1c-.06-.55-.09-1.08-.11-1.59a13.87,13.87,0,0,0-1.69.78,3.11,3.11,0,0,1-.9.35,2.71,2.71,0,0,1-1.87-.25c-.37-.23-.55-.37-.53-.44s.16-.09.38-.07A3.66,3.66,0,0,0,190,53c1.18-.45,2.24-.81,3.16-1.07,0-.46-.06-.88-.08-1.27l-.1,0a3.9,3.9,0,0,1-2.18.2c-.14-.1-.1-.16.1-.17a8.74,8.74,0,0,0,1.62-.73,4.8,4.8,0,0,1,.54-.32v-2a5.36,5.36,0,0,0-.9.56A13.82,13.82,0,0,0,189.87,50c-.17.28-.34.43-.51.44a.65.65,0,0,1-.57-.17,1.11,1.11,0,0,1-.25-.75c0-.46.06-.74.23-.86.48-.5.93-1,1.36-1.51.25-.28.42-.38.48-.32s0,.3-.2.66c-.38.54-.44.88-.18,1a1.42,1.42,0,0,0,.77-.27A15.88,15.88,0,0,1,193.08,47c0-.88,0-1.56,0-2a.62.62,0,0,0-.31.07,20.25,20.25,0,0,0-5.12,2,3.76,3.76,0,0,1-1.16.48,3.66,3.66,0,0,1-2.46-.36c-.31-.18-.43-.33-.38-.44s.28-.19.64-.12a2.69,2.69,0,0,0,1.1-.2,59.33,59.33,0,0,1,7.74-2.34.91.91,0,0,1,0-.27c0-1.25-.28-1.85-.77-1.78-.14,0-.21,0-.23-.13s0-.25.2-.36a.94.94,0,0,1,.59-.22,1.94,1.94,0,0,1,1,.41,1.92,1.92,0,0,1,.67.83,1.42,1.42,0,0,1-.18,1.22q4.59-1.14,6.2-.26c.45.22.7.46.77.7a.41.41,0,0,1,0,.47c-.09.11-.28.11-.59,0a4.52,4.52,0,0,0-2.57.27c-.44.16-.67.21-.69.14a.18.18,0,0,1,.08-.19c.39-.3.59-.5.59-.61s-.11-.08-.28-.08a13.05,13.05,0,0,0-3.7.49,13,13,0,0,0-.15,1.81,4.87,4.87,0,0,1,2.87-.61,1.63,1.63,0,0,1,1.08.56,1,1,0,0,1,.31.56c-.07.38-1,1.1-2.64,2.17A.49.49,0,0,1,195.77,49.38Zm-1.69-2.3v2a1,1,0,0,1,.92-.29.53.53,0,0,1,.38.1.94.94,0,0,1,.16-.2,13.69,13.69,0,0,0,1.07-1.59c.21-.34.25-.54.13-.61a1,1,0,0,0-.59-.09,6.61,6.61,0,0,0-1.38.41A3.67,3.67,0,0,0,194.08,47.08Zm1,9.33a11.15,11.15,0,0,1,2.12-.71,8.54,8.54,0,0,0,1.29-4.27c0-.08-.13-.12-.29-.12a13.2,13.2,0,0,0-4,1.1c.06.44.11.92.16,1.46a1.58,1.58,0,0,1,1.25-.32,1,1,0,0,1,.67.3.66.66,0,0,1,.15.51c0,.2-.16.32-.43.37a6.85,6.85,0,0,0-1.51.48c.05.46.08.93.1,1.42C194.79,56.55,195,56.48,195.13,56.41Z"/><path class="cls-1" d="M216.57,48.76c0-1.15,0-2,0-2.56,0-1.2-.26-1.93-.72-2.17-.19-.1-.28-.21-.26-.32s.16-.14.39-.12a5,5,0,0,1,.71.17A2,2,0,0,1,218,44.91a3.52,3.52,0,0,0,.11.44,47.88,47.88,0,0,1-1,7.86,22,22,0,0,1,5.76-1.61,11.36,11.36,0,0,1,4.08-.37,2,2,0,0,1,1.1.68.45.45,0,0,1-.07.64.9.9,0,0,1-.88.17,13.3,13.3,0,0,0-6,.22q-5.38,1.17-7.23,3a6.49,6.49,0,0,1-3.75.56c-.35,0-.53-.12-.51-.27s.19-.21.46-.26a8.61,8.61,0,0,0,2.13-.78,24.78,24.78,0,0,1,4.33-1.81C216.44,51.93,216.47,50.39,216.57,48.76Zm.2,7s0,.1-.05.25a10.67,10.67,0,0,0-.74,3.85c0,1.34.09,2.13.41,2.37a.79.79,0,0,0,.64.05c1.1-.06,2.9-1.27,5.41-3.61.1-.12.18-.17.23-.15s.05.15,0,.29c-.34.43-.65.82-.92,1.18q-3.18,3.9-4.8,4a2.09,2.09,0,0,1-1.23-.34,2.34,2.34,0,0,1-1-1.93,5.33,5.33,0,0,1,.31-2.1,9.7,9.7,0,0,1,1.59-3.74C216.66,55.75,216.72,55.71,216.77,55.72Zm2.72-8.84a1.21,1.21,0,0,1,.44-.29,2.8,2.8,0,0,1,2.46-.61,1,1,0,0,1,.54.44c.13.26,0,.55-.52.85-1.24.88-2.16,1.58-2.74,2.08-.29.26-.38.47-.28.63s.32.07.79-.09a4.33,4.33,0,0,0,1-.49,1.3,1.3,0,0,1,.72-.27,2,2,0,0,1,.77.07.32.32,0,0,1,.18.3.62.62,0,0,1-.31.34,17.22,17.22,0,0,1-2.77.88,1.81,1.81,0,0,1-1,.07.65.65,0,0,1-.47-.29c-.18-.26-.12-.55.21-.86l2-2q.65-.63.54-.81s-.1,0-.25,0a4.65,4.65,0,0,0-1.13.31c-.41.13-.63.17-.64.1S219.22,47.08,219.49,46.88Zm1.08-3.36,1.59-.74a2,2,0,0,1,1-.12,1.12,1.12,0,0,1,.7.34.85.85,0,0,1,.12.54.45.45,0,0,1-.48.34,9.16,9.16,0,0,0-1,.22c-1.88.52-3.1.56-3.67.12-.15-.11-.1-.18.16-.19A8.3,8.3,0,0,0,220.57,43.52Zm2,10.32q-.19-.15-.18-.24c0-.07.13-.12.34-.17a1.67,1.67,0,0,1,1.33.19c.41.26.61.5.59.71s-.39.89-1.1,1.59a5,5,0,0,1-1.52.83c-.35.19-.53.36-.51.51s.24.3.67.37a13.91,13.91,0,0,1,6.59,2.61,2,2,0,0,1,.84,1.29q.06.51-.18.69a.79.79,0,0,1-.41.07,5.62,5.62,0,0,1-1.56-1.07,14.48,14.48,0,0,0-1.87-1.37c-3-1.69-4.9-2.29-5.72-1.78-.32.16-.55.19-.67.09s-.09-.18,0-.34a.79.79,0,0,1,.69-.46,4,4,0,0,0,1.33-.78,4.91,4.91,0,0,0,1.7-2.1A.58.58,0,0,0,222.54,53.84Z"/></g></g></svg>