<?xml version="1.0" encoding="UTF-8"?>
<svg id="_圖層_2" data-name="圖層 2" xmlns="http://www.w3.org/2000/svg" viewBox="0 0 481.22 41.76">
  <defs>
    <style>
      .cls-1 {
        fill: #231815;
      }
    </style>
  </defs>
  <g id="_圖層_1-2" data-name="圖層 1">
    <g>
      <g>
        <path class="cls-1" d="M3.42,22.71c.27,.14,.57,.24,.88,.3,.51,.1,.94,.12,1.18,.04,.09-.03,.19-.08,.31-.14l.29-.15c.07-.04,.17-.07,.32-.1,.27-.11,.53-.07,.79-.12,.13-.03,.26-.04,.38-.04,.16,0,.31-.03,.45-.09,.19-.06,.39-.12,.58-.2,.19-.07,.39-.15,.58-.24,.27-.11,.63-.24,1.09-.39,.46-.14,.95-.27,1.47-.39,.52-.12,1.03-.22,1.51-.3,.48-.08,.87-.13,1.16-.13h.11s.02,.01,.03,.02c-.03,.2-.13,.41-.28,.65-.17,.27-.37,.53-.58,.79-.22,.26-.45,.52-.69,.75-.25,.25-.44,.44-.58,.6-.16,.2-.32,.39-.49,.56l-.98,1.04c-.16,.17-.34,.32-.56,.46-.56,.45-1.24,.89-2.03,1.29-.25,.15-.55,.34-.89,.57-.36,.25-.61,.52-.73,.8-.04,.08-.05,.17-.05,.28,0,.27,.14,.56,.43,.88,.29,.32,.56,.48,.82,.48,.19,0,.37-.05,.51-.16,.13-.09,.26-.19,.39-.3,.09-.06,.16-.12,.24-.18,.07-.06,.14-.12,.2-.18,.05-.05,.1-.09,.16-.13,.06-.04,.12-.08,.17-.1,.09-.05,.17-.07,.24-.07,.11,0,.23-.02,.4-.05,.07-.03,.16-.05,.24-.06,.11-.02,.23-.06,.34-.12,.7-.31,1.32-.61,1.83-.87,.49-.25,1.13-.48,1.89-.69,.38-.15,.77-.3,1.13-.46,.36-.16,.73-.28,1.13-.37,.13-.05,.27-.09,.44-.12,.17-.03,.34-.04,.49-.04,.23,0,.57-.06,1.04-.18,.45-.12,.79-.2,1.03-.27,.13-.06,.28-.1,.45-.14,.19-.05,.36-.1,.53-.16,.39-.14,.72-.21,.98-.21,.13,0,.24,.04,.34,.12,.11,.09,.22,.21,.34,.36,.05,.05,.09,.11,.12,.18,.05,.1,.1,.19,.17,.25,.05,.05,.09,.11,.13,.16,.05,.06,.1,.13,.16,.19,.11,.12,.22,.22,.32,.29,.14,.07,.17,.1,.17,.1l.03,.03s.06,.03,.06,.04c.02,.03,.06,.05,.12,.09,.06,.06,.13,.12,.23,.19,.08,.06,.16,.15,.24,.25l.03,.03c.1,.08,.19,.17,.26,.26,.09,.11,.19,.21,.31,.3,.22,.17,.44,.33,.65,.46,.45,.29,.84,.32,1.12-.08,.13-.18,.19-.36,.19-.54,0-.35-.14-.68-.41-.97-.16-.17-.26-.29-.33-.39-.1-.1-.19-.24-.26-.4l-.03-.04s-.04-.06-.04-.1c0-.08-.01-.16-.04-.23,0-.08-.02-.14-.04-.19,0-.04-.02-.07-.04-.12v-.05l-.03-.04c-.1-.14-.22-.23-.34-.26-.18-.08-.37-.19-.57-.34-.1-.05-.19-.11-.26-.18-.09-.08-.17-.14-.29-.22-.13-.06-.27-.12-.4-.19-.14-.07-.28-.14-.42-.2-.13-.05-.25-.12-.37-.19-.12-.07-.25-.15-.37-.23-.11-.09-.29-.24-.55-.45-.26-.22-.54-.44-.85-.68-.3-.23-.58-.44-.82-.61-.37-.26-.47-.29-.53-.29-.07,0-.23,.03-.23,.32,0,.35,.14,.74,.43,1.2,.13,.23,.27,.44,.4,.62,.1,.13,.18,.26,.25,.38-.92,0-1.85,.02-2.77,.06-.9,.04-1.8,.16-2.7,.34,.22-.39,.44-.77,.65-1.13,.22-.38,.51-.74,.86-1.08h0c.09-.02,.18-.05,.29-.11l.04-.03c.08-.08,.12-.19,.12-.32,0-.24-.08-.45-.24-.62l-.19-.2-.03-.07-.03-.03c0-.06,0-.07,.02-.07l.07-.02s.12-.05,.3-.12c.1-.03,.19-.04,.27-.04h.72c.17,0,.36-.01,.53-.04,.05,0,.14-.01,.46-.1,.16-.06,.29-.1,.42-.13,.13-.05,.26-.1,.38-.12,.28-.06,.61-.05,1.08,0,.26,.03,.5,.06,.72,.09,.63,.06,1.27,.08,1.88,.07,.61-.01,1.23,0,1.84,.06,.22,.03,.42,.06,.61,.09,.18,.03,.39,.07,.6,.13,.23,.06,.43,.1,.61,.13,.18,.03,.39,.05,.62,.05h.18v-.14s-.01-.09-.04-.13c0-.22,.04-.33,.06-.38,.05-.09,.1-.16,.14-.21l.12-.13,.03-.04c.04-.08,.05-.18,.05-.32,0-.25-.11-.46-.33-.6-.19-.12-.43-.23-.72-.32-.22-.06-.5-.12-.86-.18-.04,0-.07,0-.1-.01-.05-.02-.1-.03-.16-.03-.06-.03-.11-.05-.14-.04l-.04-.03c-.27-.12-.53-.19-.8-.19h-.21c-.05,0-.1,.01-.15,.04,0,0-.01,0-.06,0h-.04c-.1,.03-.21,.04-.33,.04h-.41c-.13,0-.25,0-.37-.02-.13-.02-.26,0-.38,.02h-1.15c-.39,0-.79,.01-1.18,.04-.75,.06-1.52,.03-2.3,.09-.38,.03-.77,.07-1.15,.11-.36,.04-.72,.12-1.06,.22,.05-.28,.08-.52,.11-.73,.03-.23,.05-.45,.08-.65,.05-.42,.11-.72,.15-.86,.12-.2,.3-.35,.54-.44,.26-.1,.69-.16,1.26-.19,.29,0,.63-.08,.98-.22,.21-.05,.35-.1,.44-.13,.06,0,.11-.02,.14-.04h.07c.09,0,.17,.01,.22,.03,.06,.03,.12,.06,.16,.07,.04,.01,.08,.03,.16,.07,.11,.03,.21,.06,.3,.09,.11,.03,.23,.05,.35,.05,.11,0,.43,0,.51-.23v-.03c.04-.05,.05-.12,.05-.19v-.27c.02-.05,.04-.1,.04-.13,0,0,.02-.01,.03-.02l.07-.06s.07-.04,.09-.08c.04-.04,.06-.11,.06-.22,0-.66-.35-.9-.64-.98-.82-.23-1.66-.18-2.37-.02-.38,.09-.78,.16-1.19,.22-.09,.02-.18,.03-.27,.02-.12-.01-.25,0-.37,.02-.05,0-.09,.02-.12,.04h-.15s-.06,0-.06-.07v-.09s-.04-.04-.04-.04v-.13c0-.16,.02-.33,.06-.49,.04-.18,.07-.37,.07-.55,0-.17-.07-.37-.21-.6-.13-.21-.28-.43-.44-.64-.17-.22-.35-.41-.54-.57-.44-.36-.8-.35-1.06,.13-.12,.23-.18,.42-.18,.59,0,.12,.01,.21,.05,.27,0,.03,.02,.06,.04,.08l.14,.16c.09,.15,.14,.34,.14,.6,.03,.14,.04,.26,.04,.36v.3c0,.11,0,.27-.02,.47-.01,.19-.04,.33-.09,.44-.07,.19-.26,.33-.57,.43-.35,.11-.72,.21-1.09,.3-.41,.09-.8,.14-1.17,.17-.37,.03-.66,.04-.85,.04-.28,0-.53-.04-.73-.12-.19-.07-.26-.09-.3-.09-.22-.07-.39-.11-.79,.28-.27,.27-.33,.38-.33,.47,0,.06,.02,.16,.19,.43,.29,.4,.71,.67,1.25,.79,.51,.12,1.01,.18,1.49,.18,.36,0,.79-.04,1.28-.13,.48-.09,.88-.2,1.18-.35,.04,0,.07-.02,.1-.05,.03,0,.06-.02,.08-.03,.01,0,.04,.02,.08,.06,.01,.04,.02,.08,.02,.14,0,.05,0,.09-.02,.14-.01,.06-.02,.12-.02,.17-.06,.12-.08,.23-.08,.3-.03,.13-.04,.25-.04,.38,0,.1-.02,.21-.08,.37-.05,.3-.13,.53-.22,.68-.09,.13-.24,.24-.44,.33-.21,.1-.44,.17-.69,.23-.25,.06-.5,.1-.74,.13-.24,.03-.44,.04-.6,.04-.3,0-.59,.08-.89,.23-.05,.03-.11,.05-.17,.08-.07,.03-.14,.06-.23,.09-.13,.06-.3,.11-.51,.17l-.66,.18c-.18,.06-.37,.1-.57,.13-.21,.03-.42,.08-.6,.13-.6,.09-1.23,.22-1.85,.39-.67,.14-1.28,.21-1.82,.21-.23,0-.46-.04-.7-.13l-.33-.09c-.12-.03-.25-.05-.36-.05-.28,0-.76,.12-.76,.92,0,.3,.1,.56,.3,.79,.19,.22,.42,.4,.7,.53Z"/>
        <path class="cls-1" d="M32.25,37.5c-.49-.14-.98-.26-1.44-.35-.23-.06-.45-.1-.68-.11-.21-.01-.38-.04-.52-.06-.41-.06-.81-.14-1.19-.24-.4-.1-.82-.17-1.23-.2-.45-.06-.93-.03-1.35-.09-.22-.03-.43-.06-.65-.11-.19-.04-.39-.11-.58-.21v-.02c0-.16,.04-.46,.12-.89,.08-.43,.18-.89,.29-1.39,.11-.48,.22-.95,.35-1.4,.12-.45,.21-.76,.26-.93,.06-.19,.09-.36,.09-.52,0-.37-.13-.78-.39-1.2-.2-.33-.44-.6-.7-.78-.26-.18-.54-.32-.84-.41-.3-.09-.62-.14-.96-.16-.89-.04-1.89-.03-2.81,.09-.58,.07-1.16,.18-1.7,.32-.19,0-.4,.06-.61,.18-.1,.03-.2,.05-.29,.06-.1,.01-.22,.04-.35,.07-.16,.03-.32,.06-.47,.09-.15,.03-.31,.06-.47,.09-.38,.06-.76,.11-1.12,.15-.37,.04-.76,.13-1.16,.25-.25,.09-.55,.19-.9,.3-.35,.12-.72,.23-1.11,.35-.37,.14-.74,.25-1.09,.32-.54,.11-.96,.12-1.09,.08-.11-.06-.2-.09-.27-.1-.23-.12-.42-.18-.57-.18-.49,0-.76,.28-.76,.79,0,.13,.03,.29,.09,.47,.05,.2,.1,.44,.14,.72,.04,.28,.07,.57,.08,.88,.01,.3,.02,.6,.02,.88v.74c0,.06,0,.2-.02,.43-.01,.23-.02,.47-.02,.69-.03,.23-.04,.47-.04,.71,0,.28-.04,.33-.05,.35-.11,.14-.27,.21-.5,.21-.17,0-.28,.01-.36,.05-.07,0-.16,.04-.28,.1l-.04,.03s-.04,.03-.04,.04c-.04,.02-.07,.04-.1,.08-.05,.02-.08,.04-.1,.05l-.14,.07c-.07,.05-.17,.1-.31,.15-.1,0-.22,.04-.38,.09-.2,.06-.38,.13-.55,.2-.16,.07-.32,.13-.47,.19-.22,.06-.43,.12-.64,.17-.21,.06-.41,.12-.6,.18-.17,.06-.34,.12-.54,.2-.19,.07-.4,.15-.62,.24-.45,.19-.83,.29-1.13,.29-.1,0-.18-.02-.23-.07-.06-.06-.12-.11-.16-.15,0-.03-.02-.06-.03-.07v-.05l-.17-.17h-.04c-.05-.04-.12-.05-.18-.05-.17,0-.32,.12-.46,.4-.09,.25-.13,.47-.13,.66,0,.36,.2,.73,.6,1.12,.4,.39,.76,.58,1.1,.58,.12,0,.34-.04,.69-.11,.33-.07,.68-.16,1.05-.26,.37-.1,.71-.2,1.03-.31,.45-.14,.56-.22,.61-.28l.03-.04s.05-.08,.14-.18c.07-.07,.13-.12,.18-.13,.1-.03,.2-.05,.28-.06,.07-.01,.16-.02,.26-.02h.05c.16-.06,.37-.04,.52-.09,.11-.03,.25-.07,.42-.13l.04-.02c.06-.05,.13-.07,.19-.08,.1-.02,.19-.06,.26-.13,.13-.05,.27-.11,.42-.16,.15-.05,.3-.08,.44-.08l.06,.04h.1c.09,0,.18,0,.26-.03,.07-.02,.15-.04,.24-.07,.08-.03,.16-.06,.23-.09,.07-.03,.14-.06,.16-.08,.11-.03,.26-.06,.46-.11,.2-.04,.42-.09,.63-.13,.21-.04,.43-.07,.64-.08,.21-.01,.37-.02,.48-.02h.81c.28-.06,.54-.02,.73-.14,.05-.02,.19-.04,.56-.07,.32-.03,.73-.05,1.2-.06,.48-.01,1-.03,1.58-.04,.57-.01,1.16-.02,1.76-.02h7.78c.48,.03,.94,.06,1.37,.11,.51,.05,.72,.11,.78,.13,.14,.09,.3,.17,.49,.23,.22,.06,.43,.1,.62,.11,.18,.01,.37,.04,.61,.07,.42,0,.81,.06,1.15,.17,.1,.02,.19,.06,.28,.1,.09,.04,.19,.09,.3,.15,.11,.06,.21,.11,.3,.17,.09,.06,.18,.11,.27,.17,.19,.12,.36,.22,.52,.31,.17,.1,.32,.15,.46,.15,.42,0,.6-.22,.68-.41,.1-.23,.16-.5,.16-.77,0-.47-.18-.87-.52-1.17-.33-.28-.73-.52-1.22-.7Zm-12.39-5.19c-.01-.18-.02-.36-.02-.53,0-.22,.01-.4,.04-.53,.05-.2,.11-.33,.17-.38,.09-.05,.22-.09,.37-.12,.16-.03,.34-.06,.51-.08h1.65c.12,.02,.23,.07,.32,.13,.02,.02,.1,.07,.1,.25,0,.2-.02,.56-.06,1.07-.04,.51-.09,1.05-.16,1.6-.07,.55-.14,1.08-.22,1.56-.08,.46-.15,.78-.23,.94-.41,.16-.88,.24-1.4,.24h-1.17l.08-1.76c.03-.62,.04-1.22,.04-1.79,0-.21,0-.4-.02-.6Zm-2.03,.53v1.15c0,.31-.01,.63-.04,.97-.03,.33-.05,.64-.08,.93-.02,.25-.06,.45-.1,.58-.19,.05-.5,.08-.93,.09-.48,.01-.81,.02-1,.02-.38,0-.68-.05-.88-.16-.16-.09-.25-.37-.25-.83,0-.29,.01-.58,.04-.88l.08-.93c.03-.3,.04-.56,.04-.8s.01-.42,.04-.59c.05-.33,.13-.57,.21-.71,.14-.15,.35-.23,.63-.26,.31-.03,.78-.04,1.4-.04h.29c.06,0,.13,.02,.23,.08,.06,.03,.14,.08,.18,.25,.04,.17,.07,.37,.1,.6,.03,.17,.04,.34,.04,.52Zm-4.97-.57c-.02,.17-.05,.45-.07,.85-.03,.46-.06,.94-.08,1.43-.05,.58-.1,1.04-.12,1.38-.03,.18-.04,.33-.04,.46,0,.09,0,.12,0,.12l-.03,.04c-.04,.1-.13,.17-.28,.22-.19,.06-.39,.12-.61,.17-.2,.05-.41,.08-.62,.08h-.49c-.06,0-.09,0-.1,0,0,0,0,0,0,0l-.03-.02c-.06-.03-.09-.06-.09-.09,0-.08,0-.16,.02-.24,.01-.1,.02-.17,.02-.21,.06-.25,.09-.41,.08-.5,.05-.55,.08-1.11,.08-1.66v-1.65s.01-.09,.09-.13c.11-.06,.15-.07,.14-.07h.05c.31-.12,.67-.17,1.06-.17h1.04Z"/>
        <path class="cls-1" d="M6.17,9.03l.23,.48c.07,.15,.13,.27,.19,.36l.05,.07h.09c.55-.07,1.1-.11,1.63-.14,.54-.03,1.08-.04,1.6-.04l.31,1.31s.04,.1,.07,.29c.03,.17,.07,.33,.13,.49,.02,.05,.04,.1,.05,.16,.02,.1,.07,.19,.12,.25,.08,.13,.18,.2,.29,.2,.21,0,.33-.22,.37-.29v-.04c.09-.32,.1-.42,.1-.47v-.25s-.05-.04-.05-.04c0-.04-.03-.07-.05-.09-.04-.15-.07-.27-.07-.36,0-.22,.04-.47,.11-.73,.05-.14,.11-.27,.16-.38,.04-.09,.1-.15,.17-.19,.38-.14,.74-.27,1.08-.37,.33-.1,.69-.18,1.05-.23,.05,0,.14,0,.39-.1l.16-.09,.04-.03c.07-.07,.08-.14,.08-.19,0-.08-.03-.18-.1-.32l-.03-.04s-.04-.04-.04-.04v-.1c.1-.01,.18-.03,.27-.11,.09-.04,.27-.13,.27-.29v-.06l-.19-.2c-.03-.06-.06-.11-.1-.15,0-.01-.03-.04-.06-.09-.06-.13-.12-.21-.2-.26-.11-.14-.3-.21-.55-.21-.21,0-.4,.03-.58,.1-.16,.06-.34,.11-.55,.18-.1,.06-.19,.1-.27,.12-.09,.03-.19,.08-.29,.13-.14,.05-.31,.1-.49,.15-.06-.22-.1-.43-.1-.62v-.78c0-.27-.03-.52-.09-.75-.06-.25-.2-.46-.4-.61-.16-.17-.31-.27-.46-.3-.1-.02-.19-.06-.26-.11l-.04-.03h-.05s-.09,0-.13-.02c-.05-.01-.09-.02-.14-.02-.05-.05-.11-.09-.15-.08,0,0-.02,0-.05-.05l-.04-.03s-.04-.02-.1-.15c-.06-.13-.07-.16-.07-.16v-.06c-.12-.23-.26-.34-.43-.34-.14,0-.34,.09-.6,.29-.34,.25-.41,.36-.41,.46,0,.11,.02,.19,.06,.25,.03,.07,.06,.11,.07,.12,.01,.01,.02,.04,.04,.08,.02,.04,.03,.06,.03,.05,0,.04,.01,.09,.05,.17l.03,.05c.01,.05,.05,.09,.07,.12,.06,.06,.15,.14,.21,.13l.04,.04h.06s.07,0,.09,.01c.05,.02,.09,.03,.13,.03,.15,.05,.28,.17,.39,.36,.29,.5,.43,1.1,.43,1.8,0,.21-.07,.35-.21,.44-.26,.13-.64,.22-1.13,.27-.51,.04-.92,.06-1.22,.06h-.37c-.09,0-.19-.02-.32-.07-.07-.21-.22-.24-.29-.24-.4,0-.43,.28-.43,.36,0,.11,.04,.25,.11,.43,.07,.16,.14,.33,.23,.5Z"/>
        <path class="cls-1" d="M17.48,8.15c.17,.06,.31,.09,.43,.09,.09,.03,.18,.04,.27,.04,.07,0,.15,.01,.26,.04l.49,.09c.15,.03,.29,.07,.42,.12,.28,.12,.41,.3,.41,.56,0,.16-.02,.33-.06,.49-.04,.18-.07,.36-.07,.51v.3c0,.07,0,.13,.04,.18l.02,.07c.08,.13,.26,.2,.53,.2s.54-.24,.78-.72c.23-.39,.37-.74,.42-1.01,.03-.07,.06-.15,.07-.26,.01-.07,.03-.13,.05-.18,.03-.06,.06-.14,.09-.24,.02-.07,.05-.12,.1-.18,.14-.2,.39-.36,.73-.47,.35-.11,.65-.17,.88-.17,.31,0,.63,.07,.98,.21,.08,.03,.24,.07,.45,.13,.1,.03,.23,.05,.42,.05s.36-.12,.55-.36c.17-.23,.25-.43,.25-.61,0-.55-.25-.95-.76-1.19-.64-.31-1.22-.41-1.74-.29-.13,.03-.27,.08-.4,.13-.17,.06-.28,.11-.35,.14-.01,0-.06,.03-.22,.03-.03,0-.06,0-.06-.12,0-.14,.03-.35,.08-.62,.03-.12,.05-.22,.06-.31,.01-.08,.03-.18,.06-.29,.05-.23,.1-.45,.14-.66,.04-.21,.06-.44,.06-.68,0-.42-.03-.72-.09-.89-.07-.19-.18-.34-.36-.45-.12-.06-.18-.09-.23-.1-.05-.03-.1-.05-.14-.06-.04-.01-.08-.03-.15-.07-.1-.03-.2-.07-.3-.12-.11-.06-.23-.11-.36-.17-.04-.03-.13-.09-.38-.22-.08-.04-.14-.06-.18-.06,0,0,0,0-.05-.02-.06-.06-.12-.07-.17-.07h-.04c-.16,0-.3,.1-.41,.29-.09,.17-.14,.32-.14,.46,0,.18,.05,.33,.16,.45l.12,.13,.06,.04s.06,.04,.08,.08l.02,.05,.04,.03c.12,.08,.23,.17,.32,.27,.07,.09,.11,.23,.11,.43v.28c0,.09-.01,.19-.03,.28-.03,.09-.06,.19-.08,.29-.03,.1-.06,.23-.08,.37-.06,.21-.1,.41-.15,.62-.04,.21-.06,.44-.06,.68,0,.4-.08,.66-.19,.73-.15,.05-.27,.08-.36,.08h-1.31c-.12,0-.23-.01-.31-.04-.11-.03-.24-.05-.39-.05-.25,0-.45,.14-.6,.42-.13,.25-.2,.51-.2,.76,0,.17,.08,.39,.46,.53Z"/>
        <path class="cls-1" d="M68.26,15.22c-1.5-.53-4.26-.53-8.11,0-.32,.06-.66,.09-1.01,.11-.35,.02-.64,.02-.86,.02h-.68l-.04-1.77c0-.52,.01-1.02,.04-1.49,.03-.46,.07-.78,.12-.95,.12-.4,.12-.76,.02-1.04-.11-.29-.33-.54-.63-.71-.16-.14-.32-.27-.46-.38-.12-.08-.19-.18-.24-.3l-.02-.03s0-.11,.12-.2c.12-.09,.45-.3,1.37-.71,.06-.02,.18-.07,.63-.29,.33-.16,.7-.33,1.11-.5,.42-.21,.77-.37,1.08-.5,.39-.16,.48-.18,.5-.18,.09,0,.19-.04,.31-.14,.1-.08,.18-.15,.26-.23,.2-.29,.16-.63-.12-1.01-.26-.35-.68-.7-1.28-1.06-.26-.14-.51-.3-.74-.47-.22-.17-.42-.34-.58-.51-.24-.25-.47-.41-.7-.47-.26-.07-.46,0-.58,.22-.1,.08-.24,.25-.08,.56,.1,.19,.36,.47,.77,.85,.22,.26,.39,.48,.53,.65,.09,.11,.12,.18,.13,.21-.09,.09-.29,.25-.77,.51-.54,.3-.78,.38-.85,.4-.06,0-.15,.02-.45,.14-.21,.09-.45,.21-.72,.35-.49,.23-.98,.42-1.48,.58-.51,.16-1.22,.36-2.09,.58-.39,.06-.75,.15-1.06,.27-.3,.12-.49,.19-.55,.22-.03,.02-.11,.05-.3,.1-.16,.04-.35,.08-.56,.11-.88,.15-1.58,.32-2.08,.53-.56,.23-.83,.5-.83,.83,0,.09,.04,.26,.34,.31,.16,.03,.45,.05,.91,.05h0c.58-.03,1.55-.14,2.88-.33,1.34-.19,2.32-.39,2.89-.59,.08-.02,.11-.01,.12,0,.01,0,.03,.04,.03,.13,0,.11,.04,.25,.11,.43,.07,.17,.18,.35,.34,.54,.14,.15,.23,.4,.27,.74,.04,.37,.06,1.17,.06,2.37-.03,1.09-.05,1.83-.08,2.19-.02,.28-.06,.39-.07,.42-.05,.02-.16,.05-.4,.08-.21,.03-.41,.09-.58,.18-.22,.03-.46,.08-.73,.15-.27,.07-.52,.12-.76,.15-.23,.03-.46,.08-.69,.13-.24,.06-.44,.15-.59,.27-.16,.05-.39,.12-.7,.18-.32,.07-.66,.11-1.04,.11-.47,.03-1.04,.13-1.69,.29-.65,.16-1.39,.4-2.2,.72-1.38,.46-2.36,.73-2.93,.8-.53,.07-.9-.05-1.15-.36-.21-.24-.39-.36-.56-.37-.11,0-.2,.04-.28,.12-.18,.19-.26,.6-.26,1.29,0,.42,.03,.72,.09,.91,.07,.21,.22,.37,.42,.46,.36,.28,.87,.4,1.54,.33,.64-.06,1.46-.27,2.45-.62,1.28-.46,2.39-.82,3.31-1.06,.92-.24,1.75-.44,2.45-.58,.36-.06,.81-.15,1.34-.28,.53-.13,1.03-.24,1.5-.33l1.41-.42-.12,2.97c-.03,.89-.07,1.7-.12,2.4-.05,.7-.1,1.13-.12,1.29,0,.19-.01,.77-.04,1.93-.03,1.09-.06,2.35-.08,3.8-.03,1.53-.07,2.94-.12,4.21-.05,1.27-.11,2.15-.16,2.65-.06,1.13-.08,1.89-.06,2.27,.02,.42,.12,.67,.32,.76,.07,.08,.15,.1,.21,.1,0,0,0,0,0,0,.14,0,.27-.11,.42-.34,.19-.29,.39-.85,.61-1.71,.25-.84,.42-1.89,.52-3.11,.1-1.21,.24-3.62,.43-7.17,.19-3.73,.33-6.32,.41-7.77,.11-1.87,.17-2.27,.2-2.35v-.05s.1-.14,.42-.23c.33-.1,.99-.18,1.96-.23,.36-.03,.7-.06,1.05-.09,.35-.03,.63-.07,.81-.13,.18-.03,.54-.05,1.07-.06,.53-.01,1.08-.02,1.66-.02,.95-.03,1.63-.02,2.03,.02,.39,.04,.84,.19,1.35,.44,.68,.3,1.17,.44,1.48,.42,.34-.02,.59-.19,.72-.49,.19-.4,.11-.82-.25-1.24-.33-.39-.83-.71-1.48-.96Z"/>
        <path class="cls-1" d="M114.64,36.7c-.23-.18-.44-.32-.64-.41-.18-.08-.31-.15-.4-.21-.39-.2-.88-.43-1.47-.68-.56-.24-1.15-.49-1.74-.76-.6-.26-1.17-.53-1.71-.82-.53-.28-.92-.54-1.17-.77-.08-.06-.15-.1-.2-.15-.06-.05-.13-.1-.23-.17-.12-.06-.17-.11-.19-.12-.05-.06-.12-.1-.22-.14-.18-.14-.46-.44-.82-.88-.37-.45-.76-.95-1.14-1.47-.38-.51-.73-1.02-1.06-1.51-.33-.49-.56-.85-.69-1.07-.06-.13-.14-.24-.23-.34-.07-.08-.15-.19-.22-.35l-.02-.04-.04-.02c-.08-.04-.15-.13-.2-.26-.07-.17-.17-.33-.29-.5-.13-.14-.26-.29-.38-.45-.12-.16-.26-.32-.38-.45-.27-.4-.49-.76-.65-1.07-.13-.28-.26-.58-.39-.88-.12-.29-.17-.58-.17-.88,0-.28,.02-.56,.06-.83,.04-.26,.11-.5,.22-.73,.09-.26,.18-.33,.22-.36,.09-.05,.23-.09,.4-.11,.32-.03,.78-.21,1.41-.54,.6-.32,1.22-.7,1.82-1.14,.61-.44,1.14-.9,1.58-1.36,.47-.5,.7-.93,.7-1.31,0-.32-.06-.56-.17-.71-.1-.14-.24-.3-.42-.49l-.47-.33c-.07-.08-.18-.14-.32-.19-.11-.04-.2-.08-.26-.12-.17-.15-.36-.29-.58-.41-.46-.26-.94-.27-1.48,.05-.29,.17-.44,.4-.44,.69,0,.33,.07,.56,.2,.71,.13,.14,.26,.22,.4,.26h.04c.1,0,.18,.01,.24,.02,.07,.01,.13,.02,.19,.02,.14,.04,.21,.13,.21,.29,0,.01,0,.02,0,.02l-.13,.07c-.07,.04-.12,.07-.16,.12-.08,.08-.11,.14-.12,.23-.02,.03-.04,.07-.04,.13v.13c0,.17-.09,.36-.25,.56-.19,.23-.4,.44-.64,.63-.24,.19-.48,.35-.73,.46-.24,.11-.43,.16-.58,.16-.12,0-.14-.05-.15-.1v-.04s-.04-.07-.04-.24v-.04c-.03-.07-.04-.15-.04-.24v-.24c0-.67,.01-1.29,.04-1.86,.03-.57,.08-1.18,.16-1.8,.08-.35,.14-.78,.17-1.26,.03-.48,.05-.98,.08-1.5,.03-.53,.04-1.06,.04-1.57v-1.35c0-.66,0-1.18-.02-1.57-.01-.39-.08-.74-.19-1.04-.11-.3-.29-.61-.51-.92-.22-.31-.54-.7-.95-1.16l-.04-.03s-.06-.04-.21-.28l-.29-.31c-.31-.29-.55-.43-.75-.43-.25,0-.47,.07-.64,.2-.19,.14-.28,.33-.28,.55,0,.26,.08,.5,.23,.71,.14,.19,.29,.4,.46,.64,.07,.08,.14,.17,.21,.28,.08,.13,.2,.24,.35,.31,.08,.08,.16,.16,.24,.23,.07,.06,.13,.13,.18,.21l.02,.03c-.03,1.27-.05,2.54-.06,3.8-.01,1.3-.05,2.6-.1,3.86-.03,1.29-.1,2.58-.2,3.83-.11,1.25-.27,2.52-.49,3.78-.08,.41-.13,.86-.15,1.33-.01,.47-.02,.9-.02,1.31,0,.65-.07,1.28-.2,1.88-.14,.6-.31,1.19-.53,1.76-.19,.52-.44,1.12-.75,1.79-.31,.67-.64,1.36-1,2.06-.35,.69-.72,1.37-1.1,2.01-.38,.64-.75,1.18-1.09,1.61-.22,.26-.42,.48-.59,.67-.17,.18-.38,.33-.61,.46-.24,.06-.43,.15-.57,.27-.16,.13-.24,.34-.24,.61,0,.25,.04,.49,.11,.72,.09,.27,.29,.43,.57,.43,.2,0,.34,0,.42-.03,.08-.02,.16-.04,.22-.08,.07-.04,.12-.07,.16-.12l.04-.03v-.06l.04-.04v-.06s.02-.05,.04-.08l.04-.04v-.06s.02-.02,.11-.04l.25-.09,.06-.04s.06-.06,.11-.1c.05-.04,.11-.09,.16-.15l.31-.16c.1-.05,.21-.11,.34-.16,.08-.01,.16-.07,.18-.19,.05-.03,.1-.08,.15-.14,.16-.08,.28-.26,.33-.49,0-.02,.05-.09,.3-.35l.04-.04v-.06s.01-.06,.04-.09c.04-.06,.08-.13,.11-.21,.19-.15,.34-.33,.44-.52,.1-.19,.19-.4,.27-.63,.13-.2,.25-.4,.35-.59,.09-.18,.2-.36,.35-.54,.3-.57,.61-1.13,.92-1.64,.32-.53,.6-1.09,.85-1.66,.05-.11,.12-.25,.2-.41,.08-.16,.17-.33,.25-.5,.08-.18,.15-.34,.21-.49,.06-.16,.09-.29,.09-.4,0-.21,.02-.39,.07-.51,.06-.15,.11-.31,.17-.48v-.04c0-.08,.05-.16,.13-.25l.12-.13h.12v-.03c.08,.02,.17,.07,.27,.14,.12,.07,.21,.17,.28,.3,.13,.23,.26,.47,.38,.71,.13,.25,.26,.5,.39,.71,.11,.23,.21,.47,.3,.71,.1,.25,.22,.5,.35,.73,.11,.24,.26,.46,.46,.66,.05,.04,.09,.11,.11,.21v.07s.07,.03,.07,.03c.04,.02,.07,.05,.11,.09,.03,.06,.05,.1,.08,.14,0,0,.02,.04,.02,.21v.04l.02,.03c.06,.09,.14,.18,.25,.27,.08,.2,.18,.35,.3,.44,.08,.11,.14,.2,.2,.27,.06,.08,.12,.15,.17,.21,.13,.14,.3,.37,.5,.67,.19,.3,.31,.53,.37,.69,.01,.13,.11,.28,.32,.52,.19,.22,.4,.44,.62,.68,.22,.23,.45,.45,.69,.64,.32,.26,.46,.31,.54,.31,.06,.05,.14,.12,.24,.19,.11,.07,.19,.18,.27,.3l.05,.05c.13,.08,.23,.16,.3,.24,.09,.1,.2,.18,.35,.26,.12,.03,.21,.05,.28,.05,.12,0,.25,.01,.38,.04,.12,.02,.23,.06,.35,.11,.16,.22,.41,.34,.75,.37h.2c.06,0,.1,0,.14,.03l.33,.02c.09,0,.14,.01,.16,.03h.05c.2,.04,.38,.09,.54,.16,.16,.07,.3,.15,.43,.23l.03,.02c.19,.06,.36,.11,.53,.17l.49,.17c.36,.15,.72,.27,1.06,.35,.35,.09,.69,.13,1,.13,.07,0,.15-.02,.27-.05,.12-.04,.21-.1,.26-.18h0c.25-.11,.31-.27,.31-.39,0-.29-.26-.59-.79-.94Z"/>
        <path class="cls-1" d="M91.77,25.7c.17-.11,.3-.25,.39-.41,.06-.1,.1-.18,.14-.26,.02-.05,.05-.1,.09-.15,.07-.08,.12-.18,.14-.29,.01-.07,.03-.13,.05-.18l.05-.1-.7-.61c-.25-.22-.51-.44-.78-.67-.67-.6-1.21-.97-1.65-1.16-.28-.1-.47-.35-.57-.78-.02-.07-.03-.17-.03-.3v-3.79c.14-.05,.27-.09,.39-.13,.13-.04,.26-.08,.4-.11l.05-.02c.12-.08,.24-.13,.36-.15l.4-.08c.21-.03,.48-.04,.8-.02,.34,.02,.67,0,.98-.07,.32-.06,.59-.17,.8-.33,.23-.17,.34-.44,.34-.81,0-.7-.39-.96-.72-1.05-.94-.26-1.9-.26-2.67,.16-.12,.1-.2,.14-.23,.15-.07,.03-.14,.06-.2,.09-.09,.05-.18,.07-.26,.07-.31,0-.34-.12-.36-.16-.05-.16-.08-.3-.08-.43,0-.68-.09-1.24-.28-1.66-.19-.42-.54-.86-1.04-1.31-.17-.15-.41-.32-.74-.52-.34-.2-.64-.3-.91-.3-.14,0-.47,.06-.47,.58,0,.22,.04,.45,.14,.71l.12,.26,.02,.04c.07,.08,.15,.13,.23,.15,0,0,.01,.01,.03,.06l.02,.05c.14,.17,.29,.37,.45,.58,.14,.19,.22,.48,.22,.85,0,.14-.01,.31-.04,.52-.03,.21-.07,.43-.12,.67-.03,.22-.08,.43-.17,.63-.08,.18-.17,.3-.27,.34-.55,.23-1.1,.46-1.66,.69-.56,.23-1.12,.48-1.66,.74-.44,.17-.86,.36-1.26,.57-.4,.21-.8,.44-1.19,.71-.04,.03-.15,.08-.51,.17-.28,.07-.6,.14-.93,.19-.34,.06-.67,.11-.98,.15-.31,.04-.54,.06-.7,.06h-.14l-.03-.02c-.1-.06-.18-.23-.22-.47l-.02-.06c-.07-.1-.13-.21-.17-.31-.04-.12-.09-.25-.14-.37-.03-.15-.06-.27-.08-.38-.03-.1-.06-.2-.08-.29l-.02-.04c-.17-.25-.32-.37-.49-.37-.25,0-.42,.08-.48,.24-.05,.11-.08,.25-.11,.38-.03,.1-.05,.26-.05,.48v.48c0,.96,.21,1.7,.63,2.22,.42,.53,1.12,.79,2.06,.79,.59,0,1.25-.13,1.97-.38,.71-.25,1.38-.52,1.99-.81,.38-.2,.72-.39,1.01-.57,.28-.17,.52-.3,.72-.4,.61-.42,.78-.45,.82-.45,.15,0,.2,.02,.2,.01v.03c-.1,.69-.37,1.45-.78,2.27-.43,.86-.93,1.72-1.49,2.57-.56,.85-1.13,1.65-1.72,2.4-.58,.74-1.1,1.37-1.54,1.87-.08,.11-.23,.29-.44,.53-.22,.25-.46,.51-.72,.8-.26,.29-.5,.55-.73,.78-.2,.2-.35,.35-.44,.44-.11,.01-.24,.05-.39,.13-.08,.01-.14,.06-.17,.13-.04,.03-.06,.08-.06,.14,0,.16,.1,.33,.31,.52,.21,.19,.38,.28,.53,.28,.16,0,.36-.07,.61-.22,.22-.13,.45-.29,.66-.46,.22-.15,.44-.3,.66-.46,.21-.15,.38-.26,.5-.31l.06-.02,.02-.06c.04-.12,.14-.22,.29-.32,.19-.12,.35-.26,.49-.4,.32-.28,.53-.53,.64-.77,.05-.09,.12-.19,.19-.31,.06-.11,.13-.2,.18-.26,.09-.06,.18-.14,.27-.24l.25-.27c.33-.4,.64-.79,.94-1.15,.3-.36,.59-.72,.87-1.08,.14-.21,.27-.42,.38-.65,.11-.21,.22-.41,.36-.61l1.27-1.56,.03-.04v-.05s0-.07,.11-.29l.27-.56c.09-.19,.19-.36,.29-.5,.1-.13,.14-.16,.14-.16,.02,0,.04,0,.06,.1l.04,.09v.12c.03,.17,.04,.34,.04,.5v.61c.03,.94,.04,1.87,.04,2.77v8.01c-.03,.18-.03,.39-.02,.62,.01,.21,.02,.44,.02,.66v.65c0,.19-.01,.36-.04,.5-.02,.14-.06,.24-.12,.28-.08,.07-.16,.13-.26,.2-.07,.07-.1,.08-.1,.09-.1,0-.17,.01-.23,.03-.02,0-.06,.01-.09,.01h-.06c-.17,.08-.31,.23-.44,.44-.12,.21-.18,.6-.18,1.18,0,.24,.03,.51,.08,.79,.06,.29,.15,.55,.28,.8,.13,.24,.29,.46,.48,.64,.2,.2,.45,.3,.74,.3,.48,0,.8-.21,.94-.62,.14-.11,.25-.29,.3-.53,.03-.12,.05-.24,.06-.36,0-.08,.03-.14,.06-.18l.03-.03v-.04c.06-.31,.13-.58,.21-.8,.08-.23,.15-.49,.21-.75,.08-.36,.13-.89,.13-1.58,.14-1.73,.2-3.47,.19-5.16-.01-1.68,0-3.37,.06-5.01v-.35c0-.14,.01-.32,.04-.56v-.41l.08-.24v-.03c.41,0,.51,.19,.55,.33l.03,.06s.08,.09,.1,.14c.03,.07,.08,.14,.16,.23,.09,.07,.17,.2,.26,.41,.19,.26,.37,.5,.53,.72,.33,.43,.74,.49,1.16,.21Z"/>
        <path class="cls-1" d="M83.34,10.9c.24,0,.58-.1,1.03-.32,.42-.2,.87-.42,1.35-.66,.41-.29,.83-.56,1.26-.82,.42-.25,.75-.41,.99-.46l.05-.02c.26-.19,.6-.38,1.01-.55,.41-.17,.79-.28,1.15-.34l.33-.09c.12-.03,.24-.08,.36-.14l.04-.03c.15-.16,.29-.37,.41-.64,.13-.28,.2-.53,.2-.76,0-.34-.14-.78-.8-.99-.18-.21-.4-.33-.63-.36-.13-.03-.25-.06-.36-.08-.11-.03-.2-.06-.28-.08h-.05s-.05-.01-.14-.06l-.29-.15s-.09-.05-.13-.08c-.05-.03-.1-.06-.17-.1-.13-.06-.27-.12-.4-.19-.16-.09-.29-.13-.39-.13-.52,0-.59,.28-.59,.45l.07,.23,.07,.04,.02,.09h.12s.04,.03,.08,.03c.03,.06,.05,.12,.07,.18,.02,.09,.04,.22,.04,.38,0,.04-.02,.15-.23,.41-.18,.21-.37,.43-.58,.64-.21,.21-.43,.4-.66,.55-.26,.18-.4,.21-.47,.21-.1,0-.21,.06-.22,.24l-.07,.15-.02,.06v.03l-.31,.25c-.1,.08-.22,.14-.37,.19h-.04s-.03,.05-.03,.05c-.07,.1-.19,.19-.34,.28-.17,.1-.32,.18-.48,.25-.34,.24-.62,.5-.85,.76-.24,.29-.36,.58-.36,.87,0,.19,.09,.36,.26,.5,.17,.15,.28,.21,.38,.21Z"/>
        <path class="cls-1" d="M93.27,19.53c.07,.44,.1,.87,.1,1.26,0,.14-.01,.29-.04,.48-.03,.19-.04,.4-.04,.61v1.03c.09,.34,.22,.61,.38,.81,.18,.22,.48,.34,.91,.34s.6-.24,.65-.41c.12-.19,.22-.44,.3-.76,.08-.3,.15-.64,.21-.99,.06-.35,.1-.69,.12-1.01,.03-.33,.04-.57,.04-.75,0-.25-.07-.55-.22-.88-.15-.34-.29-.57-.45-.7h-.01c-.05-.12-.11-.27-.17-.46-.07-.2-.13-.38-.19-.53-.06-.17-.16-.31-.3-.44-.15-.14-.31-.21-.49-.21h-.04l-.03,.02c-.56,.34-.85,.75-.85,1.21s.04,.94,.1,1.39Z"/>
        <path class="cls-1" d="M128.59,6.38l.64,.67c.13,.08,.25,.17,.36,.25,.11,.09,.24,.17,.38,.23,.38,.31,.75,.63,1.11,.94,.37,.32,.71,.65,1.04,1l.49,.43c.16,.14,.31,.28,.44,.43l.04,.03c.12,.06,.22,.11,.31,.14,.1,.04,.22,.05,.38,.05,.46,0,.78-.14,.96-.41,.17-.25,.25-.6,.25-1.03,0-.46-.1-.86-.31-1.2-.2-.33-.45-.62-.75-.86-.3-.24-.64-.44-1.02-.59-.37-.15-.74-.26-1.1-.35-.11-.03-.24-.06-.38-.09-.12-.02-.24-.06-.37-.11-.11-.09-.24-.17-.39-.26-.15-.09-.3-.16-.43-.22-.38-.21-.75-.32-1.1-.32-.14,0-.29,.06-.47,.18-.24,.16-.29,.35-.29,.49,0,.17,.02,.29,.05,.38,.03,.09,.09,.17,.15,.24Z"/>
        <path class="cls-1" d="M150.82,35.96c-.34-.16-.73-.28-1.15-.34-.39-.06-.78-.09-1.15-.09h-.88c-.95,0-1.8-.04-2.53-.13-.73-.09-1.45-.22-2.14-.39-.69-.17-1.39-.4-2.09-.69-.71-.29-1.52-.62-2.41-1-.44-.2-.9-.38-1.37-.53-.45-.14-.89-.33-1.29-.56-.3-.14-.58-.29-.86-.43-.28-.15-.56-.29-.87-.44-1.01-.49-2.05-.93-3.09-1.31-1.02-.37-2.04-.82-2.99-1.32-.13-.1-.34-.19-.64-.28-.03-.01-.08-.05-.17-.14v-.04c.05-.1,.09-.12,.11-.14,.22-.17,.34-.22,.43-.25,.3-.15,.65-.34,1.02-.57,.37-.23,.73-.48,1.11-.75,.33-.29,.65-.55,.98-.8,.33-.25,.64-.49,.95-.72,.95-.75,1.89-1.52,2.77-2.28,.89-.77,1.77-1.58,2.61-2.41,.25-.23,.47-.48,.67-.73,.19-.25,.4-.52,.62-.8l.02-.04c.05-.13,.11-.25,.19-.36,.07-.1,.17-.19,.29-.27l.04-.03,.02-.04c.05-.13,.12-.25,.2-.35,.09-.11,.21-.24,.36-.41,.04-.07,.1-.13,.17-.18,.08-.06,.2-.15,.31-.25,.11-.06,.22-.13,.33-.21,.1-.07,.22-.17,.34-.27,.21-.13,.39-.31,.54-.55,.15-.24,.23-.54,.23-.88s-.15-.63-.44-.89c-.27-.24-.59-.45-.96-.61-.36-.16-.73-.29-1.09-.38-.37-.09-.65-.13-.85-.13-.25,0-.46,.08-.62,.24-.05,.02-.1,.05-.17,.07-.09,.03-.19,.08-.27,.14-.03,.02-.08,.03-.14,.03-.3,0-.59,.08-.89,.23-.17,.09-.3,.17-.37,.22-.05,.02-.09,.04-.13,.05-.06,.02-.12,.04-.17,.07-.26,.05-.5,.09-.72,.1-.25,.02-.5,.07-.75,.16-.36,.12-.69,.23-1.01,.35-.32,.12-.62,.23-.92,.35-.37,.14-.74,.26-1.09,.34-.36,.09-.7,.16-1.04,.22-.38,.14-.74,.27-1.1,.37-.35,.1-.71,.18-1.11,.24-.38,.12-.74,.22-1.09,.33-.33,.1-.68,.19-1.04,.28-.67,.17-1.35,.26-2.02,.26-.27,0-.55,0-.83-.02-.28-.01-.55-.05-.85-.11h-.23v.23c0,.23,0,.45-.02,.66-.01,.22-.02,.42-.02,.6,0,.27,.09,.49,.27,.65,.15,.13,.29,.25,.43,.37l.06,.03c.42,.09,.81,.13,1.18,.13,.81,0,1.6-.15,2.33-.44,.39-.09,.78-.22,1.15-.38,.37-.16,.74-.29,1.1-.4,.25-.06,.5-.11,.75-.15,.27-.05,.53-.11,.77-.2,.39-.09,.76-.19,1.1-.31,.34-.12,.69-.22,1.04-.3,.44-.11,.85-.22,1.25-.33,.39-.1,.76-.18,1.13-.24,.22-.06,.41-.12,.57-.18,.15-.06,.34-.13,.54-.21,.31-.08,.65-.13,.99-.13h.47s-.03,.06-.06,.11l-.21,.33c-.08,.14-.16,.28-.24,.41-.08,.12-.14,.21-.19,.27-.54,.66-1.08,1.27-1.59,1.82-.51,.54-1.05,1.05-1.59,1.51-.6,.49-1.2,.96-1.8,1.41-.6,.45-1.24,.92-1.95,1.43-.06,.06-.12,.14-.19,.23-.05,.07-.14,.13-.25,.17l-.05,.03c-.06,.06-.12,.13-.17,.21-.05,.06-.12,.13-.23,.22-.59,.54-1.27,1.06-2.01,1.55-.75,.49-1.48,.92-2.18,1.3l-.04,.03-.02,.04s-.02,.03-.14,.08c-.12,.04-.23,.09-.31,.15-.19,.03-.33,.09-.43,.18-.04,.02-.08,.06-.1,.12-.17,.02-.36,.04-.54,.04h-.64c-.25,0-.47,0-.67-.02-.21-.01-.41-.02-.6-.02h-1.33c-.49,.06-.93,.02-1.37,.13-.5,.13-.89,.43-1.16,.89l-.02,.03v.04s-.03,.06-.04,.07l-.04,.04v.06c0,.05,0,.08,0,.08-.05,.06-.08,.13-.08,.23,0,.07,.01,.17,.04,.29,.03,.13,.04,.2,.04,.23v.04c.07,.2,.27,.44,.61,.72,.34,.29,.64,.42,.89,.42,.05,0,.14-.01,.38-.1,.18-.06,.32-.16,.42-.29,.17-.1,.32-.18,.43-.24,.11-.05,.26-.09,.45-.12,.18-.05,.34-.08,.49-.08h.53c.37,0,.73,.01,1.07,.04,.73,.06,1.48,.06,2.1-.02,.32-.04,.67-.06,1.05-.06,1.01,0,2.03,.23,3.01,.68,.46,.23,.92,.47,1.37,.71,.45,.25,.92,.5,1.41,.76,.42,.24,.89,.43,1.4,.58,.5,.14,.96,.33,1.4,.56,.51,.23,1.01,.5,1.48,.79,.48,.31,1.01,.58,1.56,.81h.06s.02,.01,.05,.02c.04,.02,.12,.04,.24,.07h.04s.06,0,.05,0c.04,.02,.09,.04,.15,.04l.31,.16c.14,.06,.28,.11,.42,.16,.13,.04,.26,.09,.4,.15,.29,.11,.55,.23,.76,.34l.14,.07c.14,.07,.23,.12,.28,.15,.3,.14,.57,.28,.8,.39,.22,.11,.45,.24,.66,.38l.04,.02c.48,.14,.85,.3,1.11,.46l.04,.02c.39,.12,.83,.19,1.3,.22,.47,.03,1.03,.04,1.65,.04h3.73c.26,0,.48,.03,.67,.1,.22,.08,.45,.12,.68,.12,.34,0,.63-.11,.88-.34,.25-.23,.37-.51,.37-.84,0-.46-.19-.79-.57-.98Z"/>
        <path class="cls-1" d="M186.35,16.98s-.12-.08-.23-.07l-.04-.05h-.02s-.07-.07-.12-.08c-.08-.05-.15-.09-.19-.13l-.04-.05h-.06s-.03-.01-.06-.04c-.04-.05-.08-.09-.1-.14-.03-.07-.1-.16-.19-.25-.08-.09-.19-.13-.31-.13h-.06l-.04,.04h-.02c-.06,0-.13,0-.18,.04,0,0-.01,0-.03,0h-.04c-.23,.06-.47,.16-.69,.26-.27,.06-.52,.11-.76,.15-.33,.06-.42,.1-.45,.11-.37,.11-.75,.18-1.12,.21-.38,.03-.77,.07-1.16,.13-.63,.12-1.27,.24-1.93,.37-.66,.13-1.33,.27-2.02,.42-.3,.08-.59,.15-.86,.19-.29,.04-.6,.11-.89,.2-.69,.15-1.37,.33-2.04,.55-.66,.22-1.33,.38-1.96,.49-.59,.06-1.25,.02-1.86,.13-.41,.09-.81,.17-1.19,.26-.38,.09-.76,.16-1.16,.22-.42,.14-.84,.23-1.24,.28-.41,.04-.82,.11-1.19,.2-.45,.06-.9,.16-1.36,.31-.44,.14-.89,.26-1.37,.35-1.02,.31-1.92,.47-2.66,.47-.34,0-.39-.16-.39-.33v-.05s-.04-.04-.04-.04c0-.04,0-.09-.05-.14,0-.03-.02-.06-.04-.08v-.04c-.14-.32-.38-.39-.55-.39-.1,0-.19,.05-.29,.15-.06,.07-.13,.13-.19,.17-.14,.08-.25,.24-.35,.53-.14,.15-.24,.32-.3,.48-.06,.18-.11,.25-.13,.27l-.12,.25,.17,.09c.08,.14,.18,.26,.29,.37,.11,.1,.21,.21,.32,.32,.14,.15,.26,.27,.38,.38,.11,.1,.24,.21,.38,.34,.26,.18,.53,.33,.81,.45,.29,.12,.63,.19,1,.19s.75-.08,1.11-.23c.18-.06,.34-.15,.49-.26,.13-.1,.28-.18,.44-.26,.13-.03,.24-.05,.32-.06,.09-.02,.18-.04,.28-.07,.14-.06,.25-.11,.34-.16,.08-.04,.18-.09,.33-.15,.15-.08,.28-.14,.41-.17,.05-.03,.11-.05,.17-.08,.06-.03,.15-.05,.24-.08,.14-.03,.28-.06,.43-.09,.15-.03,.3-.06,.43-.09,.39-.06,.73-.03,1.11-.09l.57-.09c.2-.03,.41-.07,.64-.14,.37-.14,.78-.26,1.2-.34,.84-.14,1.66-.23,2.44-.26,.8-.03,1.6-.12,2.39-.26,.41-.06,.83-.14,1.23-.24,.4-.1,.8-.23,1.19-.38,.26-.11,.8-.25,1.59-.4,.8-.16,1.67-.32,2.58-.48,.91-.16,1.78-.29,2.6-.39,.81-.1,1.36-.15,1.62-.15,.14,0,.3,.04,.49,.12,.07,.02,.14,.07,.23,.13,.09,.07,.16,.13,.21,.18l.04,.03c.22,.12,.46,.23,.69,.33,.25,.11,.56,.16,.94,.16,.33,0,.66-.11,.98-.33,.34-.23,.51-.58,.51-1.03s-.18-.89-.53-1.25c-.33-.34-.65-.6-.96-.78Z"/>
        <path class="cls-1" d="M198.68,6.53c.06,.1,.16,.2,.26,.28,.04,.04,.08,.07,.12,.09,.01,0,.03,.01,.03,.02,.06,.09,.12,.18,.19,.29,.06,.09,.12,.21,.17,.34,.11,.28,.19,.56,.24,.82,.05,.27,.08,.56,.08,.86v.41c0,.2,.01,.39,.04,.58,.03,.12,.06,.23,.08,.31l.09,.29c.14,.24,.32,.29,.45,.29h.1l.04-.04h.08l.08-.09h.16l.04-.05c.16-.16,.27-.42,.36-.78,.08-.33,.15-.69,.21-1.09,.03-.36,.04-.72,.04-1.07s.01-.62,.04-.8v-.2l-.05-.04c-.14-.12-.35-.3-.63-.54-.28-.24-.58-.52-.88-.84l-.88-.85c-.42-.4-.58-.45-.69-.45h-.1l-.04,.04c-.13,.14-.2,.24-.22,.32-.02,.07-.02,.14-.02,.21,0,.52,.07,.89,.2,1.13,.13,.23,.27,.42,.39,.55Z"/>
        <path class="cls-1" d="M202.24,19.46c.06,.12,.13,.25,.22,.37,.08,.11,.16,.24,.25,.39,.16,.23,.3,.45,.42,.68,.11,.21,.17,.38,.17,.5,0,.1-.07,.21-.21,.32-.15,.12-.29,.19-.42,.19-.05,0-.12-.02-.2-.06-.05-.05-.11-.09-.17-.1-.05-.05-.12-.1-.25-.1-.26,0-.53,.12-.83,.38-.31,.26-.46,.53-.46,.8,0,.3,.11,.56,.33,.79,.22,.23,.47,.35,.76,.35h.45c.07,0,.14,0,.21-.02,.06-.01,.11-.02,.16-.02h.04c.26-.08,.52-.12,.76-.13,0,.51,0,1.02,.02,1.55,.01,.58,.02,1.17,.02,1.78,0,.32,0,.67-.02,1.06-.01,.39-.02,.79-.02,1.21,.03,.38,.06,.76,.1,1.16,.04,.41,.17,.79,.36,1.11,.05,.11,.09,.2,.12,.29l.15,.18s.09,.08,.16,.12l.21,.11,.1-.21c.12-.19,.21-.45,.27-.79,.06-.32,.1-.69,.12-1.1,.03-.4,.05-.86,.06-1.35,.01-.49,.02-.97,.02-1.43,.03-.5,.04-.98,.04-1.42s.01-.87,.04-1.28c.03-.83,.17-1.18,.29-1.33h.03s.04-.04,.04-.04c0,0,.05-.02,.22-.06h.04s.06-.04,.22-.04c.22,0,.49-.08,.84-.25,.32-.16,.54-.28,.67-.37,.14-.06,.3-.16,.47-.29,.16-.12,.34-.24,.57-.37,.28-.22,.58-.34,.88-.36l.05,.03s.04,.01,.05,.1c.01,.11,.02,.21,.02,.29,0,1.02-.13,1.82-.38,2.37-.25,.56-.53,1.02-.82,1.35l-.02,.03c-.04,.09-.1,.16-.16,.21-.09,.07-.17,.13-.23,.19-.22,.24-.35,.33-.41,.36l-.05,.04c-.27,.35-.4,.63-.4,.87,0,.55,.3,.78,.54,.87,.31,.12,.59,.18,.83,.18s.64-.1,1.24-.31c.57-.2,1.19-.44,1.85-.7,.65-.26,1.28-.52,1.85-.78l1.02-.46,.02,.05s.04,.1,.07,.27l.02,.05s.09,.17,.2,.59c.09,.19,.22,.36,.38,.5,.18,.15,.41,.23,.69,.23,.26,0,.47-.1,.63-.29,.13-.16,.25-.37,.37-.64,.06-.21,.1-.43,.13-.67,.03-.24,.04-.43,.04-.58,0-.16-.06-.44-.19-.85-.12-.39-.28-.81-.48-1.25-.19-.44-.4-.83-.63-1.17-.25-.38-.47-.56-.69-.56-.36,0-.62,.18-.75,.53-.11,.3-.17,.57-.17,.79,0,.07,.01,.17,.04,.29,.03,.13,.06,.22,.09,.29,.02,.05,.03,.08,.03,.09,0,.06,.01,.12,.04,.19,0,.04,.02,.07,.04,.09l.04,.06v.12s-.02,.05-.03,.08l-.05,.04s-.08,.07-.45,.18c-.29,.09-.6,.17-.94,.26-.34,.09-.67,.16-.96,.22-.4,.08-.56,.09-.61,.08,0-.05,0-.13,.02-.23,0-.08,.03-.14,.06-.18l.03-.04c.04-.08,.05-.15,.05-.21,0-.01,0-.04,.03-.09v-.03s.01-.28,.01-.28c.03-.38,.07-.88,.12-1.51,.08-.62,.19-1.13,.32-1.49,.04-.11,.1-.19,.17-.23,.09-.06,.19-.11,.28-.16,.04-.01,.14-.04,.36-.04h.05c.07-.03,.13-.04,.18-.04,.1,0,.2-.04,.28-.1,.21-.08,.44-.16,.67-.24,.22-.07,.47-.12,.72-.15h.8c.27,0,.54-.03,.79-.09,.13-.03,.28-.05,.43-.06,.17-.01,.34-.05,.5-.11,.13,0,.28,0,.44-.02,.16-.01,.32-.02,.48-.02,.29,0,.65,.05,1.07,.15,.38,.09,.6,.27,.67,.53,0,.14,.06,.26,.17,.34,0,.03,.02,.06,.04,.08v.11h.05s0,.03,.01,.05c0,.03,.01,.07,.01,.11v.06s.04,.09,.04,.16c0,.37-.04,.84-.12,1.39-.08,.56-.17,1.14-.27,1.73-.1,.6-.21,1.19-.33,1.75-.12,.56-.22,1.04-.3,1.44l-.02,.02c-.15,.19-.25,.41-.31,.66-.11,.4-.21,.76-.31,1.06-.09,.3-.2,.57-.32,.8-.12,.24-.27,.47-.44,.69-.16,.21-.38,.45-.64,.7-.06-.05-.12-.11-.19-.18-.13-.13-.28-.25-.44-.36-.07-.13-.17-.22-.29-.29-.1-.05-.19-.11-.25-.15l-.11-.11-.03-.07-.11-.13h-.23c-.37,0-.56,.18-.65,.33-.12,.2-.19,.43-.19,.68,0,.21,.12,.48,.35,.84,.22,.34,.48,.68,.77,1.01,.29,.34,.61,.63,.93,.87,.34,.25,.6,.38,.8,.38,.11,0,.26-.06,.47-.2,.18-.12,.36-.25,.55-.4,.18-.15,.36-.3,.52-.46,.17-.17,.29-.3,.35-.4,.22-.38,.46-.94,.71-1.65,.24-.7,.48-1.47,.7-2.27,.22-.79,.42-1.57,.6-2.33,.18-.76,.31-1.37,.39-1.83l.16-.83h0c.06-.16,.1-.31,.13-.45,.03-.14,.04-.32,.04-.53,0-.12,.03-.25,.09-.37,.07-.15,.13-.3,.18-.42,.06-.1,.1-.18,.14-.26,.02-.06,.06-.13,.12-.23l.21-.43v-.19s-.01-.04-.01-.04c-.19-.29-.41-.58-.65-.84-.23-.26-.47-.52-.71-.77-.23-.3-.47-.56-.72-.78-.24-.21-.47-.46-.68-.74l-.04-.06h-3.56c-.41,0-.86,0-1.34,.02-.49,.02-.98,.1-1.44,.24-.15,.03-.27,.07-.38,.12-.09,.04-.19,.07-.34,.1-.23,.08-.45,.12-.65,.12-.03-.04-.07-.09-.12-.15-.03-.08-.05-.15-.08-.22-.02-.06-.03-.1-.03-.14v-.83c0-.2,.06-.39,.2-.6,.04-.11,.12-.2,.25-.27,.09-.05,.28-.11,.73-.11,.22,0,.43,.05,.65,.17,.06,.02,.13,.06,.2,.12,.05,.04,.07,.12,.07,.22v.1l.08,.08c.16,.17,.42,.26,.76,.26,.22,0,.39-.1,.47-.26,.06-.06,.12-.13,.17-.21,.06-.08,.11-.18,.15-.29,.11-.4,.19-.67,.25-.83,.05-.2,.11-.37,.16-.51,.06-.15,.1-.34,.13-.53,.06-.18,.09-.35,.11-.51,.01-.13,.04-.29,.08-.42,.19-.32,.37-.68,.52-1.06,.15-.38,.28-.8,.4-1.23,.08-.32,.17-.65,.27-1,.1-.35,.17-.69,.22-.99,.08-.22,.15-.44,.2-.64l.18-.31c.04-.08,.09-.19,.15-.35l.25-.7c.09-.25,.13-.51,.13-.79,0-.3-.1-.55-.29-.75-.04-.04-.06-.07-.07-.11-.02-.08-.07-.16-.14-.24l-.24-.14s-.02-.07-.03-.1c-.02-.07-.04-.13-.07-.2l-.03-.04s-.09-.12-.14-.22c-.12-.3-.32-.5-.54-.58-.1-.07-.28-.13-.55-.18-.25-.04-.5-.09-.76-.13-.26-.04-.52-.07-.77-.09-.25-.01-.42-.02-.5-.02-.38,0-.83,.04-1.33,.11-.49,.07-1,.16-1.5,.26-.52,.1-1.02,.22-1.49,.35-.47,.13-.9,.25-1.28,.36-.12,0-.26,.05-.43,.13-.09,0-.2,.06-.3,.21-.09,.19-.1,.24-.1,.28,0,.35,.22,.64,.65,.86,.41,.22,.71,.32,.93,.32,.15,0,.25,.03,.3,.1,.07,.09,.13,.2,.19,.35,.07,.13,.12,.28,.15,.45,.03,.18,.04,.34,.04,.48v.74c0,.32-.02,.45-.03,.51-.1,.15-.21,.27-.32,.36-.11,.08-.3,.12-.57,.12-.16,0-.31-.01-.45-.04-.07-.01-.17-.04-.2-.09-.02-.03-.06-.14-.2-.51-.05-.13-.07-.26-.07-.38,0-.16-.03-.33-.08-.5-.06-.33-.13-.67-.21-1.01-.09-.36-.2-.66-.35-.87-.12-.19-.24-.33-.36-.43l-.31-.25c-.07-.07-.15-.13-.24-.18-.1-.05-.12-.08-.13-.08l-.04-.03s-.09-.06-.14-.09c-.06-.04-.14-.09-.24-.15-.12-.15-.32-.36-.61-.64-.12-.13-.26-.24-.42-.33-.17-.1-.34-.15-.5-.15-.1,0-.19,.04-.27,.13-.08,.08-.12,.18-.12,.27,0,.26,.06,.48,.16,.66,.1,.16,.22,.34,.35,.51,.14,.21,.29,.39,.43,.52,.13,.12,.23,.25,.32,.41,.15,.16,.31,.41,.47,.72,.16,.32,.26,.62,.32,.91,.05,.16,.1,.45,.16,.84,.05,.41,.1,.84,.14,1.3,.04,.46,.07,.9,.1,1.32,.03,.43,.04,.74,.04,.97,0,.25-.01,.5-.04,.74-.03,.25-.04,.51-.04,.78,0,.24,.01,.51,.04,.8,.03,.29,.07,.59,.13,.9,.09,.28,.23,.54,.42,.76,.21,.25,.48,.38,.83,.38,.28,0,.58-.03,.87-.09,.25-.05,.5-.08,.75-.08,0,.18,0,.36,.02,.54,.01,.21,.02,.44,.02,.66s-.03,.46-.08,.71c-.05,.23-.13,.41-.26,.55-.09,.12-.22,.2-.38,.25-.19,.06-.4,.11-.64,.17-.13,.03-.25,.05-.34,.06-.1,.01-.22,.04-.36,.07h-.04c-.1,.07-.2,.11-.3,.13-.12,.03-.24,.08-.33,.13-.11,.03-.23,.07-.34,.11-.13,.05-.23,.11-.3,.19-.12,.13-.26,.21-.46,.28-.11,.06-.25,.13-.43,.22-.16,.08-.36,.12-.61,.12,0,0-.03,0-.1-.03v-.18c-.07-.16-.22-.38-.46-.67-.24-.28-.5-.56-.79-.82-.29-.26-.59-.5-.9-.69-.32-.2-.56-.31-.77-.35h-.1l-.25,.26v.06c0,.1,.02,.22,.07,.35,.04,.13,.1,.24,.15,.32Zm6.82-4.33c-.02-.06-.04-.11-.07-.14,0-.05-.02-.09-.03-.12,0,0,0-.02,0-.07v-.06s-.04-.08-.06-.32c-.01-.19-.03-.4-.04-.65-.01-.25-.03-.48-.04-.7-.01-.21-.02-.38-.02-.49v-.24s.08-.11,.08-.22c.01,0,.03-.01,.05-.01,.03,.02,.06,.04,.12,.04l.04,.04h.18c.14,0,.24-.01,.32-.04,.06,0,.11-.01,.16-.03,.03,0,.06-.01,.1-.01h.05l.04-.03c.14-.1,.28-.15,.41-.15,0,0,.05,0,.19,.1,.12,.09,.12,.16,.12,.19v1.09c0,.44-.05,.8-.14,1.06-.08,.23-.35,.43-.79,.59-.08,.03-.14,.05-.19,.06-.05,.01-.11,.04-.16,.06-.06,0-.11,.01-.16,.03,0,0-.03,.01-.13,.01Zm3.54-2.14c.08-.51,.11-1.03,.09-1.57h.49c.27,0,.55-.01,.89-.05,.16-.06,.31-.1,.45-.12,.16-.03,.31-.08,.42-.14,.41-.17,.5-.43,.5-.61,0-.25-.17-.52-.52-.84-.35-.32-.63-.47-.86-.47-.19,0-.35,.01-.47,.04-.06,0-.12,.01-.17,.03l-.17,.06c-.11,.03-.22,.06-.34,.09-.11,.03-.23,.04-.36,.04-.04,0-.07,0-.11-.07-.02-.22-.04-.45-.04-.7,0-.26-.01-.55-.04-.9-.06-.29-.12-.58-.19-.85-.06-.25-.14-.47-.24-.67h.05s.04-.04,.04-.04c0,0,.05-.03,.28-.1,.35-.11,.67-.18,.96-.21,.38-.06,.74-.13,1.06-.22,.41-.11,.52-.12,.56-.12,.43,0,.81,.11,1.13,.32,.3,.21,.45,.52,.45,.97,0,.1-.02,.22-.06,.35-.04,.14-.07,.26-.1,.34-.06,.18-.09,.34-.11,.46-.01,.11-.03,.25-.06,.41-.03,.08-.05,.19-.05,.34,0,.13-.01,.25-.04,.36-.05,.26-.14,.61-.24,1.06-.11,.44-.23,.9-.37,1.38-.14,.47-.28,.92-.43,1.31-.15,.39-.29,.69-.4,.86-.06,.06-.12,.13-.17,.21-.03,.04-.05,.05-.05,.05-.22,0-.42,.02-.6,.05-.17,.03-.34,.08-.51,.15-.07,.05-.14,.09-.2,.11-.07,.03-.15,.07-.23,.13-.25,.07-.35,.08-.39,.08h-.01c.03-.52,.08-1.03,.16-1.53Z"/>
        <path class="cls-1" d="M225.71,38.37c-.25-.09-.55-.16-.89-.2-.33-.04-.65-.09-.98-.15-.66-.09-1.31-.14-1.94-.15-.63-.01-1.03-.02-1.19-.02-.33,0-.65,0-.93,.02-.59,.03-1.2,.05-1.85-.08-.34-.07-.68-.15-.99-.23-.68-.23-1.35-.51-2.01-.82-.09-.03-.2-.06-.32-.07-.1-.01-.21-.03-.31-.06h-.04c-.07,0-.22-.02-.55-.09-.15-.03-.31-.07-.48-.14-.17-.07-.36-.13-.55-.19-.36-.23-.73-.4-1.09-.51-.35-.1-.71-.23-1.1-.41-.35-.11-.68-.25-.98-.4-.32-.16-.62-.31-.93-.46-.44-.17-.88-.32-1.33-.44-.42-.11-.84-.27-1.26-.47-.93-.35-1.79-.67-2.59-.96-.86-.26-1.81-.4-2.83-.4h-.12c.07-.09,.13-.17,.18-.26,.09-.14,.2-.28,.33-.41l.03-.04c.2-.48,.3-.94,.3-1.36,0-.3-.04-.58-.11-.82-.07-.24-.15-.46-.23-.66v-.04s-.04-.02-.04-.02c-.1-.08-.18-.16-.24-.25-.06-.09-.12-.2-.17-.31l-.04-.05c-.2-.16-.37-.35-.5-.57l-.02-.03c-.35-.34-.64-.71-.88-1.1-.23-.38-.35-.84-.35-1.36,0-.13,.03-.36,.1-.66,.07-.31,.15-.65,.26-1.01l.31-1.02c.11-.37,.2-.54,.26-.63,.11-.22,.15-.31,.17-.34,.02-.01,.03-.01,.03-.01,.06,0,.12-.03,.15-.08,.05-.03,.07-.08,.07-.13,.03-.16,.04-.46,.04-.94,0-.2-.01-.48-.04-.84-.03-.35-.08-.72-.15-1.1-.07-.38-.18-.75-.32-1.07-.15-.35-.35-.59-.58-.71l-.74-.52-.05-.02c-.1-.03-.2-.06-.3-.12l-.31-.16c-.09-.09-.19-.17-.31-.23-.09-.05-.15-.1-.19-.17l-.02-.03-.03-.02s-.03-.02-.06-.08c-.03-.09-.09-.17-.17-.26-.01,0-.08-.07-.15-.35l-.02-.04c-.06-.09-.13-.2-.23-.35-.11-.16-.23-.28-.36-.35l-.15-.02-.07,.02c-.15,.08-.24,.2-.28,.35-.03,.13-.05,.22-.05,.29v1.56c0,.18,.09,.37,.26,.55,.16,.17,.34,.32,.55,.47,.21,.15,.43,.27,.64,.36,.22,.1,.4,.14,.53,.14h.04c.07,0,.12-.02,.15-.04,.13,.02,.26,.23,.37,.58,.05,.22,.09,.44,.1,.65,.01,.21,.02,.36,.02,.45,0,.25-.02,.5-.06,.74-.04,.24-.09,.5-.13,.73-.11,.26-.21,.52-.31,.76-.1,.25-.19,.49-.26,.71-.22,.5-.4,.99-.54,1.47-.14,.49-.21,1-.21,1.54,0,.68,.13,1.2,.39,1.55,.06,.16,.13,.27,.22,.34,.06,.05,.11,.11,.16,.19,.09,.13,.18,.23,.27,.31,.08,.07,.14,.13,.2,.19,.32,.34,.59,.71,.82,1.1,.22,.38,.33,.9,.33,1.54,0,.22-.01,.44-.04,.66-.03,.21-.07,.42-.11,.59-.07,.16-.17,.3-.28,.42-.1,.1-.23,.15-.41,.15h-.02c-.23-.06-.38-.09-.47-.09-.11,0-.22,.01-.31,.04h-.16v.09c-.36,.03-.76,.1-1.18,.19l-1.26,.28c-.42,.12-.79,.28-1.09,.47-.3,.2-.6,.51-.87,.91l-.08,.09c-.11,.11-.16,.23-.16,.36,0,.19,.12,.38,.36,.57,.44,.34,.76,.29,.99,.22,.11-.03,.22-.08,.32-.14,.15-.06,.27-.12,.37-.18,.08-.05,.18-.09,.32-.12,.62-.23,1.26-.4,1.92-.51,.66-.11,1.32-.17,1.96-.17,1.46,0,2.81,.17,4.02,.52,1.22,.34,2.51,.81,3.85,1.39,.17,.06,.37,.11,.58,.14,.18,.03,.35,.09,.52,.21,.59,.23,1.19,.51,1.76,.84,.59,.33,1.18,.63,1.75,.9,.2,.09,.38,.16,.56,.2l.56,.15c.14,.06,.29,.11,.45,.16,.14,.04,.29,.1,.45,.19,.93,.43,1.88,.8,2.83,1.09,.95,.29,1.94,.44,2.93,.44,.63,0,1.27-.02,1.9-.07,.63-.04,1.26-.06,1.88-.06,.22,0,.45,0,.69,.02,.25,.02,.52,0,.79-.02,.25,0,.5,0,.77-.02,.27-.02,.52-.05,.73-.11,.21-.03,.37-.08,.48-.15,.14-.09,.21-.28,.21-.6,0-.36-.3-.63-.87-.79Z"/>
      </g>
      <g>
        <path class="cls-1" d="M286.68,31.79c-.27-.09-.57-.16-.88-.22-.31-.06-.66-.1-1.05-.13h-1c-.33,0-.65-.03-.94-.08-.3-.06-.6-.1-.89-.13-.28-.03-.57-.07-.85-.12-.28-.09-.57-.15-.87-.18-.29-.03-.61-.04-.94-.04-.45,0-.86,.05-1.22,.13-.35,.09-.73,.17-1.13,.26,.05-.83,.11-1.64,.16-2.43,.05-.8,.11-1.61,.16-2.45,.05-.5,.08-.96,.08-1.38s.03-.87,.08-1.37v-.03h.04s.12-.05,.69-.11c.42-.04,.88-.08,1.36-.11,.22-.03,.44-.05,.67-.06,.24-.01,.43-.04,.55-.06,.2,0,.35-.03,.45-.09h.13c.12-.05,.22-.16,.29-.33,.06-.15,.09-.31,.09-.47,0-.27-.12-.54-.36-.81-.23-.25-.46-.46-.68-.61l-.03-.02c-.1-.03-.21-.05-.33-.05h-.33c-.09,0-.22,.01-.41,.05-.18,.03-.38,.07-.6,.11-.22,.04-.41,.08-.59,.11-.17,.03-.3,.06-.39,.09-.05,0-.09,.02-.11,.04-.05,0-.09,.02-.12,.04,0,0-.01,0-.03,0-.1,0-.14-.04-.16-.09l-.02-.03s0,0,0-.04v-.22c-.03-.07-.04-.14-.04-.22v-.22c0-.4,.01-.81,.04-1.21,.03-.41,.04-.83,.04-1.23v-.3c0-.11-.02-.2-.04-.24-.03-.17-.16-.38-.38-.63-.21-.24-.47-.47-.76-.69-.29-.22-.59-.41-.9-.58-.33-.17-.59-.25-.8-.25-.12,0-.24,.06-.35,.17-.11,.11-.16,.25-.16,.4,0,.17,.04,.34,.14,.54,.08,.17,.16,.37,.25,.61,.06,.12,.11,.23,.17,.33,.05,.1,.12,.2,.21,.29,.05,.13,.08,.24,.11,.33,.03,.1,.05,.21,.08,.31,.05,.37,.08,.74,.08,1.11v1.13c0,.14,0,.3-.02,.49-.01,.17-.04,.33-.08,.43-.2,.29-.53,.5-.98,.62-.48,.13-.99,.22-1.51,.28-.53,.11-1.04,.07-1.45,.13-.23,0-.41,.02-.56,.05-.14,.03-.26,.06-.35,.1-.18,.08-.32,.28-.43,.63-.1,.32-.15,.59-.15,.8,0,.75,.4,1.14,1.17,1.14,.24,0,.49-.06,.74-.18,.16-.05,.31-.1,.45-.12,.16-.03,.32-.07,.5-.14,.35-.14,.69-.26,1.01-.37,.31-.1,.62-.15,.9-.15,.12,0,.28,.04,.41,.37,.05,.07,.08,.16,.1,.26l.08,.33c.03,.29,.04,.55,.04,.79v.59c0,.22-.01,.55-.04,1.01-.03,.45-.06,.91-.1,1.39-.04,.47-.09,.92-.16,1.34-.07,.41-.14,.71-.21,.9h0c-.11,0-.21,.01-.3,.03-.09,.02-.19,.04-.29,.07-.14,.03-.26,.06-.36,.09-.08,.02-.17,.04-.29,.04-.44,.06-.88,.14-1.31,.24-.43,.1-.86,.21-1.3,.33-.41,.12-.82,.21-1.22,.28-.4,.07-.83,.11-1.29,.11h-.53c-.1,0-.18,.05-.23,.13-.13,.09-.23,.25-.32,.51-.09,.26-.13,.47-.13,.63,0,.25,.17,.52,.52,.82,.35,.31,.61,.45,.81,.45,.04,0,.14,0,.48-.09,.24-.06,.52-.11,.84-.18,.29-.11,.56-.2,.8-.25,.25-.06,.43-.1,.57-.13l.05-.02s.15-.09,.39-.15c.2-.06,.43-.11,.67-.17,.22-.06,.44-.13,.64-.23,.21-.1,.35-.18,.41-.25,.05-.05,.08-.08,.09-.09,.05,0,.08-.02,.11-.04,.04,0,.15,0,.26-.02,.07-.01,.15-.02,.25-.02,.16-.03,.31-.04,.45-.04h.31c.46,0,.91,0,1.35,.02,.44,.01,.88,0,1.32-.02,.23,0,.45-.02,.67-.07,.19-.04,.4-.06,.61-.06,.32,0,.78,.04,1.38,.11,.6,.07,1.21,.15,1.84,.24,.62,.09,1.23,.19,1.82,.3,.58,.11,1.02,.22,1.31,.3,1,.4,1.8,.46,2.46,.2,.22-.09,.48-.29,.48-.76,0-.35-.11-.69-.33-1.01-.22-.32-.48-.56-.79-.73Z"/>
        <path class="cls-1" d="M265.76,20.32c.1-.16,.19-.29,.27-.37l.03-.04c.06-.12,.1-.23,.15-.33,.04-.1,.09-.23,.14-.35,.08-.14,.15-.29,.21-.43,.05-.12,.11-.23,.2-.36,.44-.9,.87-1.8,1.27-2.67,.41-.88,.83-1.8,1.23-2.71h.02c.53-.09,1.09-.16,1.65-.22,.57-.06,1.13-.16,1.68-.31,.55-.14,1.06-.27,1.55-.39,.5-.12,.99-.22,1.44-.3,.14,0,.38-.02,.72-.07,.33-.04,.68-.09,1.07-.15,.3-.06,.6-.11,.9-.15,.38-.06,.52-.11,.59-.17,.22-.09,.41-.21,.57-.34,.18-.16,.27-.35,.27-.56,0-.1-.02-.2-.04-.29-.03-.14-.11-.25-.23-.32-.08-.21-.16-.35-.24-.43-.06-.15-.14-.26-.24-.33-.08-.06-.18-.12-.28-.18-.25-.15-.75-.13-1.18-.01-.2,.06-.42,.12-.65,.18-.3,.11-.64,.23-1.02,.34l-1.14,.35c-.35,.09-.72,.17-1.11,.26-.37,.08-.74,.13-1.13,.13h0s-.11-.09-.23-.09c-.15,0-.26,.03-.34,.09-.11,0-.18,.03-.23,.07-.15,.08-.2,.12-.21,.13-.14,.1-.3,.15-.49,.15h-.21s-.06,0-.06,0c-.04-.02-.08-.03-.14-.04-.04-.04-.11-.12-.11-.34,0-.03,0-.11,.04-.3,.03-.15,.06-.29,.12-.45,.05-.23,.09-.38,.11-.45,.02-.05,.05-.1,.07-.14,0,0,.02-.02,.09-.05l.06-.02,.02-.06c.06-.15,.1-.31,.13-.46,.03-.14,.07-.29,.12-.46,.05-.17,.11-.34,.16-.5,.06-.16,.11-.36,.17-.6,.08-.34,.19-.68,.32-1,.13-.32,.28-.6,.44-.82l.03-.04v-.05s0-.03,.01-.07c.02-.06,.03-.12,.03-.19v-.7c0-.08-.01-.14-.03-.19,0,0,0-.02,0-.07v-.06l-.08-.09v-.04l-.04-.04s-.14-.13-.56-.41c-.3-.2-.62-.41-.97-.63-.34-.22-.65-.41-.93-.57-.41-.24-.5-.26-.56-.26-.18,0-.32,.02-.42,.05l-.07,.03-.02,.08c-.03,.13-.05,.27-.05,.42,0,.28,.05,.53,.16,.72,.1,.18,.21,.35,.32,.5l.17,.1s.06,.03,.11,.06l.13,.14c.12,.18,.18,.33,.18,.44,0,.23-.02,.34-.04,.4-.06,.27-.11,.38-.16,.47-.14,.41-.27,.96-.39,1.63-.12,.66-.29,1.34-.51,2.02-.22,.66-.46,1.27-.73,1.83-.26,.54-.59,.92-.96,1.13-.2,.11-.57,.19-1.1,.24-.54,.06-1.09,.1-1.63,.13-.59,.03-1.18,.04-1.74,.04s-.99,.01-1.25,.04c-.15,0-.51,.06-.51,.62,0,.44,.24,.76,.7,.96,.42,.18,.96,.31,1.59,.4,.33,.06,.65,.1,.94,.11,.29,.01,.58,.04,.87,.06l.72,.09c.21,.03,.38,.08,.5,.16v.09c0,.21-.05,.46-.17,.75-.12,.3-.27,.64-.41,.99-.22,.29-.42,.61-.58,.92-.09,.12-.16,.25-.22,.37-.05,.11-.1,.21-.16,.29l-.02,.05c-.02,.13-.06,.23-.1,.3-.05,.08-.1,.15-.15,.2l-.03,.03v.04c-.04,.11-.06,.21-.09,.29-.03,.08-.06,.18-.11,.28-.3,.55-.62,1.08-.96,1.6-.34,.52-.69,1.04-1.06,1.59-.13,.31-.28,.61-.43,.9-.15,.29-.31,.58-.47,.87-.02,.05-.05,.1-.07,.14-.03,.04-.05,.09-.08,.15-.08,.09-.13,.12-.15,.13l-.04,.03c-.07,.08-.12,.18-.14,.29,0,.06-.03,.11-.07,.14-.07,.07-.12,.15-.17,.25-.03,.07-.07,.13-.14,.2-.32,.51-.66,1.03-1.02,1.56-.35,.52-.69,1.02-1.02,1.5-.14,.13-.32,.34-.53,.65-.14,.15-.28,.3-.41,.46-.14,.16-.27,.31-.41,.46-.14,.18-.26,.35-.37,.51-.11,.16-.22,.31-.31,.44-.09,.09-.12,.14-.13,.17,0,0-.01,.03-.08,.09l-.12,.13v.06c0,.19,.06,.34,.19,.45,.13,.12,.23,.17,.32,.17,.2,0,.42-.11,.68-.35,.13-.14,.24-.24,.33-.31,.1-.08,.18-.15,.24-.21,.13-.14,.27-.28,.4-.41,.14-.13,.28-.26,.46-.42,.19-.2,.3-.25,.34-.26h.04s.03-.04,.03-.04c.03-.03,.05-.04,.06-.04h.06l.04-.04s.04-.04,.04-.04l.07-.03c.15-.12,.26-.25,.34-.38,.07-.12,.14-.25,.21-.37,.12-.12,.19-.24,.23-.34,.12-.18,.19-.26,.24-.29l.03-.03c.14-.17,.27-.34,.39-.5,.12-.15,.25-.3,.38-.45,.06-.07,.12-.15,.17-.25,.04-.08,.08-.16,.14-.25,.05-.08,.11-.17,.18-.25,.06-.08,.12-.15,.2-.23,.08-.14,.24-.38,.46-.71,.23-.33,.51-.68,.83-1.05,.14-.15,.28-.3,.41-.46,.14-.16,.27-.31,.41-.45l.27-.29c.05-.03,.11-.07,.16-.11,.03-.02,.05-.03,.08-.03,0,0,.03,0,.09,.05,.04,.03,.07,.06,.09,.08v.2c0,.89-.03,1.8-.1,2.7-.07,.91-.13,1.82-.18,2.71-.03,.23-.04,.49-.04,.76,0,.25-.01,.49-.04,.72-.16,1.62-.34,3.28-.53,4.93-.19,1.63-.29,3.31-.29,4.99v.35c0,.16,.03,.29,.1,.37,.07,.22,.2,.39,.41,.52,.09,.1,.19,.16,.29,.2h.03c.05,.05,.12,.05,.18,.05,.27,0,.5-.14,.71-.43,.19-.26,.31-.5,.37-.71,.06-.16,.1-.35,.11-.58,.01-.21,.03-.44,.06-.65,.06-.24,.09-.48,.09-.71v-.58c.03-.74,.07-1.49,.14-2.21,.07-.72,.13-1.45,.18-2.17,.05-.63,.09-1.26,.1-1.85,.01-.59,.03-1.22,.06-1.89,.03-.67,.05-1.3,.06-1.89,.01-.58,.03-1.18,.06-1.81,.03-.06,.04-.15,.04-.32v-.55c.03-.13,.04-.31,.04-.55,0-.05,0-.08,0-.08l.04-.04v-.11c.19-.41,.29-.82,.29-1.2,0-.45-.05-.83-.15-1.15-.1-.31-.2-.57-.31-.78-.06-.13-.13-.24-.2-.33-.06-.08-.1-.14-.13-.19l-.12-.14s-.05-.08-.09-.1l-.02-.03c0-.08,.02-.14,.04-.18,.04-.06,.08-.12,.14-.19Z"/>
        <path class="cls-1" d="M304.38,19.96c.2,.18,.4,.34,.61,.47,.23,.15,.41,.22,.55,.22,.23,0,.47-.03,.71-.09,.23-.06,.46-.12,.7-.18,.43-.2,.87-.34,1.32-.42,.34-.06,.65-.14,.95-.24,.28-.1,.57-.18,.86-.23,.3-.06,.58-.11,.86-.15,.28-.04,.55-.09,.81-.15,.5-.06,1.05-.03,1.64-.09,.29-.03,.52-.19,.68-.46,.15-.25,.23-.51,.23-.77,0-.53-.19-.97-.56-1.3-.37-.33-.81-.49-1.3-.49-.16,0-.35,.05-.59,.14-.22,.09-.45,.21-.67,.35-.14,.06-.26,.12-.37,.17-.11,.06-.23,.11-.37,.17-.22,.11-.39,.2-.52,.25-.37,.14-.75,.24-1.12,.3-.39,.06-.79,.16-1.2,.32-.37,.22-.76,.38-1.19,.46l-.57,.15c-.28,.07-.71,.09-1.03,0-.17-.05-.34-.07-.49-.07-.59,0-.68,.36-.68,.58,0,.15,.08,.32,.24,.52,.14,.18,.31,.36,.51,.54Z"/>
        <path class="cls-1" d="M315.9,23.6c-.16-.08-.31-.17-.44-.25l-.42-.27c-.11-.06-.23-.12-.35-.18-.12-.05-.21-.11-.29-.16l-.04-.03h-.05s-.05,0-.19-.09c-.04-.04-.09-.07-.12-.08-.04-.03-.1-.05-.18-.05-.18,0-.35,.02-.53,.07l-.6,.16c-.29,.14-.59,.24-.91,.29-.3,.06-.62,.12-.96,.17-.35,.06-.68,.13-.97,.22-.44,.09-.87,.17-1.29,.24-.43,.07-.87,.18-1.3,.33-.26,.06-.51,.16-.75,.3-.23,.13-.45,.23-.69,.33-.21,.14-.42,.25-.65,.33-.22,.08-.44,.14-.66,.17-.13,.03-.33,.06-.58,.08l-.78,.09c-.26,.03-.51,.05-.75,.06-.24,.01-.43,.02-.57,.02h-.1l-.08,.09-.03,.04c-.03,.06-.04,.1-.05,.13-.01,.01-.03,.03-.05,.05-.05,.06-.08,.13-.08,.23v.17c0,.48,.18,.85,.53,1.09,.34,.23,.7,.35,1.09,.35,.48,0,.83-.01,1.08-.04,.25-.03,.49-.07,.72-.13,.23-.06,.44-.14,.64-.23,.18-.08,.47-.19,.9-.35,.35-.14,.82-.3,1.4-.47,.57-.17,1.19-.33,1.84-.48,.63-.14,1.25-.27,1.84-.37,.58-.1,1.06-.15,1.43-.15h.31c.08,.02,.1,.05,.1,.05l.03,.16v.06s.04,.09,.04,.16c0,.62-.11,1.21-.33,1.81l-.04,.34c-.14,.72-.31,1.4-.53,2.04-.22,.66-.37,1.36-.46,2.1-.03,.35-.15,.69-.4,1.03-.06,.12-.1,.22-.13,.29-.03,.07-.07,.16-.1,.25-.12,.16-.21,.35-.27,.57-.05,.23-.11,.44-.18,.64-.07,.21-.13,.43-.18,.65-.06,.15-.11,.32-.17,.51-.05,.18-.13,.37-.24,.58-.05,.14-.13,.33-.24,.55-.1,.22-.25,.46-.44,.73-.14,.24-.26,.49-.36,.76-.1,.28-.15,.49-.15,.66s.04,.33,.12,.49c.06,.14,.21,.3,.56,.3,.54,0,1.01-.28,1.41-.82,.37-.51,.71-1.06,1.03-1.67,.21-.65,.47-1.24,.78-1.78,.24-.68,.4-.87,.48-.93l.06-.06,.03-.05c.33-.84,.62-1.7,.87-2.55,.25-.86,.51-1.73,.78-2.59,.06-.24,.1-.47,.13-.69,.03-.21,.07-.43,.12-.66,.08-.33,.24-.75,.49-1.25,.02-.05,.06-.15,.19-.33,.12-.17,.21-.32,.29-.46,.29-.47,.43-.78,.43-.99,0-.35-.11-.66-.32-.92-.2-.24-.42-.46-.7-.69Z"/>
        <path class="cls-1" d="M328.98,21.19c-.19-.32-.49-.48-.88-.48-.01,0-.09-.01-.44-.14-.27-.1-.57-.22-.9-.35-.33-.13-.64-.26-.92-.39-.29-.13-.48-.21-.54-.23-.41-.23-.85-.51-1.32-.83l-.53-.28c-.2-.1-.4-.19-.57-.23-.19-.12-.38-.23-.56-.33-.18-.1-.37-.2-.56-.28-.67-.37-1.3-.79-1.87-1.25-.56-.45-1.14-.95-1.7-1.46-.41-.49-.84-.85-1.29-1.06-.09-.12-.2-.22-.33-.29-.12-.07-.22-.13-.3-.19-.13-.08-.25-.17-.36-.25-.11-.09-.24-.16-.38-.23-.53-.53-1.05-1.08-1.55-1.65-.51-.57-1.07-1.11-1.66-1.59-.06-.06-.09-.1-.11-.13-.03-.05-.08-.11-.14-.17l-.06-.04c-.07-.03-.16-.07-.28-.13-.11-.05-.2-.11-.25-.17-.07-.09-.14-.17-.19-.23l-.04-.03c-.09-.05-.18-.14-.28-.28-.11-.16-.24-.32-.36-.45-.2-.34-.44-.59-.71-.75-.1-.05-.19-.12-.28-.2-.04-.04-.1-.1-.1-.15,0-.23,.1-.53,.31-.89,.11-.23,.19-.38,.24-.46l.08-.38c.02-.08,.02-.17,.02-.26,0-.44-.18-.81-.53-1.1-.1-.13-.25-.23-.45-.29-.15-.09-.31-.15-.46-.18-.16-.06-.29-.11-.37-.15-.13-.11-.32-.16-.54-.16-.19,0-.35,.11-.49,.33-.12,.2-.19,.38-.19,.55,0,.08,.01,.15,.03,.19l.05,.11c0,.08,.04,.15,.09,.22,.04,.05,.07,.1,.09,.15,.03,.06,.08,.13,.15,.22,0,.04,.02,.08,.04,.12v.04s-.02,.15-.19,.69c-.08,.21-.15,.4-.19,.56-.05,.19-.08,.27-.1,.32-.16,.49-.31,.88-.43,1.16-.12,.28-.25,.52-.38,.72-.14,.23-.28,.46-.43,.69-.15,.24-.33,.55-.52,.93-.22,.44-.44,.89-.66,1.35-.22,.45-.47,.9-.78,1.35-.08,.16-.18,.33-.31,.49l-.4,.51c-.14,.15-.28,.33-.42,.54l-.41,.6c-.48,.66-1.01,1.36-1.58,2.08-.55,.72-1.14,1.43-1.74,2.12-.6,.69-1.22,1.35-1.86,1.97-.64,.62-1.29,1.18-1.95,1.68-.04,.04-.09,.07-.15,.09-.1,.04-.19,.09-.26,.17-.05,.05-.11,.1-.18,.16-.09,.06-.16,.14-.22,.23-.38,.23-.58,.56-.58,.97,0,.34,.15,.45,.26,.48,.1,.03,.2,.05,.29,.05h.39v-.1c.07-.03,.14-.06,.21-.08,.1-.03,.22-.07,.36-.14l.05-.03c.09-.1,.19-.17,.29-.2l.33-.12c.44-.23,.92-.53,1.41-.88,.49-.35,.99-.72,1.48-1.11,.49-.39,.97-.8,1.4-1.2,.44-.41,.84-.8,1.19-1.17,.2-.18,.37-.38,.5-.6,.12-.2,.25-.4,.4-.62,.11-.23,.22-.45,.33-.67,.1-.21,.22-.4,.36-.58,.13-.22,.27-.42,.4-.57,.14-.16,.3-.34,.5-.55,.13-.17,.29-.34,.46-.51,.18-.18,.36-.39,.53-.63,.22-.32,.42-.67,.59-1.02,.16-.34,.35-.67,.56-.98,.14-.2,.25-.39,.36-.58,.09-.17,.21-.36,.34-.56,.11-.17,.23-.36,.35-.57,.12-.2,.23-.4,.31-.6,.06-.07,.1-.14,.12-.22,.01-.05,.02-.06,.03-.06l.25-.27c.2-.24,.35-.47,.43-.69,.05-.13,.11-.23,.17-.3l.03-.03v-.04c.03-.14,.08-.14,.11-.14,0,0,.04,0,.15,.05,.07,.09,.16,.17,.26,.22,.62,.43,1.19,.86,1.69,1.27,.5,.41,1.03,.91,1.56,1.48,.14,.18,.34,.39,.6,.63,.11,.08,.21,.17,.3,.25,.09,.08,.2,.15,.32,.21,.03,.07,.08,.14,.18,.16,.05,.11,.13,.2,.24,.25,.22,.13,.37,.26,.44,.38l.04,.05c.07,.05,.12,.09,.14,.11,.02,.03,.06,.06,.11,.12,.02,.05,.05,.11,.07,.16,.03,.09,.09,.17,.16,.25,.36,.32,.7,.63,1.05,.93,.35,.31,.72,.61,1.09,.89,.35,.32,.71,.63,1.07,.92,.35,.28,.71,.59,1.05,.9,.08,.09,.18,.19,.29,.29,.1,.1,.19,.2,.27,.3l.04,.04c.12,.08,.24,.17,.34,.28,.12,.13,.26,.23,.4,.29,.25,.14,.54,.32,.88,.54,.34,.22,.71,.44,1.09,.67,.35,.23,.68,.46,.98,.69,.31,.24,.58,.41,.82,.5,.25,.09,.51,.16,.75,.22,.24,.06,.47,.14,.73,.26,.21,.06,.41,.13,.58,.23l.63,.33c.23,.09,.45,.16,.67,.22,.23,.06,.46,.09,.69,.09,.71,0,1.09-.38,1.09-1.1,0-.19-.04-.38-.11-.57-.07-.19-.19-.34-.33-.44Z"/>
        <path class="cls-1" d="M364.79,32.14c-.2-.06-.42-.08-.64-.09-.23-.03-.43-.04-.61-.04h-2.83c-.81,0-1.62,.04-2.4,.13-.24,0-.42,.02-.56,.07l-.44,.16c-.13,.06-.27,.11-.4,.15-.14,.04-.29,.1-.45,.15-.18,.05-.36,.09-.54,.1-.19,.02-.4,.04-.6,.06h-.51c-.22,0-.43,.03-.6,.09-.45,.03-.91,.12-1.36,.26-.22,.03-.43,.05-.65,.06-.22,.01-.43,.02-.65,.02h-.29c-.1,0-.2-.01-.29-.04-.22-.06-.22-.14-.22-.17,0-.66,.02-1.34,.06-2.01,.04-.68,.06-1.38,.06-2.07v-1.67c0-.53,.01-1.09,.04-1.66,.03-.04,.04-.09,.04-.13,.02-.03,.03-.05,.03-.08,.04-.06,.05-.11,.05-.15h0c.06-.04,.14-.07,.23-.1,.13-.04,.29-.08,.49-.11,.21-.06,.42-.1,.62-.13,.2-.03,.35-.04,.45-.04h.37c.12,0,.25,.01,.41,.04,.12,0,.23,.02,.34,.06,.11,.04,.2,.07,.25,.1l.12,.06s.11,.04,.2,.04c.14,.06,.41,.06,.59,0h.2v-.05c.06,0,.12-.02,.17-.04,.07,0,.12-.01,.16-.04,0,0,.02,0,.06,0h.05l.04-.03c.12-.1,.21-.18,.27-.26,.07-.1,.11-.23,.11-.41,0-.81-.27-1.36-.79-1.65-.5-.27-1.04-.41-1.61-.41-.39,0-.78,.04-1.16,.11-.36,.07-.74,.11-1.14,.11-.36,0-.51-.17-.51-.55,0-1.01,.04-1.99,.12-2.94,.08-.9,.14-1.86,.2-2.85,0,0,.02-.01,.03-.02h.08l.36-.12c.13-.05,.25-.1,.34-.15,.21-.06,.44-.1,.68-.13,.25-.03,.43-.04,.56-.04,.51,0,1.01,.05,1.49,.15,.5,.1,1.03,.16,1.59,.16,.26,0,.53-.13,.83-.41,.3-.27,.46-.55,.46-.82s-.11-.37-.21-.42c-.32-.5-.68-.8-1.07-.89-.09-.03-.18-.05-.27-.07-.09-.02-.21-.02-.35-.02h-.62c-.14,0-.38,0-.72,.02-.35,.02-.73,.04-1.14,.09-.41,.04-.81,.09-1.21,.13-.3,.03-.56,.08-.76,.14l.04-3.83,.08-1.39c.03-.47,.04-.96,.04-1.44,0-.41-.02-.78-.06-1.1-.04-.34-.18-.68-.41-1.02-.28-.41-.65-.84-1.11-1.28-.48-.46-.99-.69-1.51-.69-.28,0-.46,.09-.52,.27-.05,.13-.07,.28-.07,.44,0,.29,.09,.56,.27,.77,.05,.09,.11,.19,.18,.3,.07,.12,.18,.26,.31,.4,.13,.25,.26,.57,.39,.96,.13,.39,.2,.92,.2,1.56v4.39c0,.22-.01,.45-.04,.69,0,.31,0,.58-.02,.79-.01,.16-.02,.27-.02,.33-.02,.02-.07,.07-.18,.14l-.39,.25c-.12,.05-.26,.08-.41,.1-.18,.02-.34,.06-.47,.11-.28,.06-.58,.15-.9,.27-.31,.11-.61,.21-.9,.3-.3,.06-.6,.12-.89,.2-.27,.07-.59,.1-.93,.1-.14,0-.29-.05-.46-.15h-.01c0-.3,.09-.6,.27-.91,.19-.33,.4-.7,.63-1.13,.08-.22,.17-.41,.29-.57,.13-.18,.22-.39,.28-.62,.23-.28,.34-.64,.34-1.06,0-.29-.08-.56-.25-.8-.15-.22-.34-.41-.56-.56-.07-.12-.17-.23-.29-.32-.12-.08-.2-.15-.22-.17-.09-.16-.18-.28-.28-.36-.07-.06-.13-.13-.17-.18-.07-.17-.13-.27-.21-.32-.09-.08-.22-.12-.42-.12-.3,0-.53,.12-.69,.37-.15,.23-.23,.47-.23,.73,0,.1,0,.19,.02,.26l.06,.33,.02,.04c.07,.13,.14,.31,.2,.55,.08,.21,.16,.38,.23,.53,.06,.13,.09,.28,.09,.46,0,.41-.15,.98-.46,1.68-.31,.71-.69,1.45-1.12,2.2-.43,.74-.89,1.46-1.35,2.12-.46,.67-.83,1.19-1.1,1.56-.16,.2-.34,.4-.53,.6-.19,.2-.36,.41-.49,.61-.12,.1-.21,.24-.27,.41-.05,.06-.1,.12-.13,.19l-.08,.16c-.16,.27-.32,.5-.5,.66l-.03,.03v.04s-.03,.06-.04,.06h-.14s0,.13,0,.13c0,0,0,.04-.07,.17l-.02,.03v.03l-.08,.07v.06s-.04,.09-.04,.17c0,.13,.01,.21,.05,.27,.02,.09,.1,.18,.26,.18h.49c.26,0,.6-.19,1.06-.58,.43-.36,.87-.79,1.32-1.27,.45-.48,.87-.96,1.24-1.42,.37-.47,.62-.81,.74-1.03,.05-.11,.11-.22,.18-.34,.06-.11,.13-.2,.21-.28l.03-.04c.1-.23,.21-.38,.35-.45l.04-.02,.02-.04c.06-.11,.1-.14,.09-.14l.05,.04v.04h.07s.01,0,.03,.03c.05,.06,.11,.1,.19,.14,.14,.06,.3,.11,.47,.16,.17,.05,.38,.07,.61,.07,.37,0,.74-.05,1.12-.13,.37-.09,.73-.19,1.08-.32,.15-.08,.31-.14,.46-.18,.17-.05,.36-.11,.58-.2,.37-.11,.72-.18,1.03-.21h.29c.13,0,.27-.03,.36-.09,.11-.03,.19-.05,.26-.06,.03,0,.08-.01,.16-.02-.02,.25-.01,.5,.01,.76,.03,.3,.04,.6,.04,.88v.49c-.08,.22-.12,.51-.12,.86-.06,.24-.09,.49-.11,.74-.01,.24-.03,.5-.06,.77,0,.54-.03,1.02-.08,1.41-.07,.5-.18,.57-.22,.59-.61,.4-1.35,.7-2.19,.92-.86,.22-1.65,.4-2.32,.54-.06,0-.14,0-.23,.02-.08,.02-.19,.04-.3,.06-.12,0-.3,.03-.53,.09l-.06,.03c-.17,.15-.34,.35-.5,.59-.17,.25-.25,.51-.25,.77,0,.21,.05,.38,.15,.5,.09,.12,.21,.21,.33,.28,.13,.07,.27,.1,.42,.1h.35c.42,0,.85-.06,1.29-.18,.43-.12,.85-.26,1.25-.43,.22-.06,.44-.13,.65-.2,.21-.07,.42-.15,.62-.23,.37-.08,.73-.13,1.08-.13h.17s.03,0,.12,.08c.03,.08,.07,.26,.1,.62,.03,.35,.05,.71,.06,1.1,.01,.39,.02,.77,.02,1.15v.83c0,.48-.01,.89-.04,1.23-.03,.31-.08,.67-.15,1.07-.12,.08-.18,.2-.18,.35v.4l.09,.03c.08,.03,.11,.05,.11,.05h0s.05,.06,.09,.1c0,.03,.02,.07,.03,.11v.07s.05,.03,.05,.03c.01,.05,.05,.09,.08,.12l.05,.03c.15,.06,.26,.14,.31,.22-.06,.02-.12,.04-.2,.07-.26,.06-.58,.09-.96,.11-.39,.02-.79,.08-1.17,.2-.54,.09-1.15,.22-1.8,.39-.39,0-.78,.05-1.15,.13-.62,.08-1.27,.19-1.93,.3-.66,.12-1.29,.25-1.88,.39-.3,.03-.57,.05-.82,.06-.25,.02-.51,.05-.77,.11l-.57,.17c-.19,.06-.37,.12-.53,.17-.22,.06-.42,.1-.6,.13-.45,.07-.91,.05-1.4,0-.27-.03-.51-.08-.71-.15-.03-.03-.07-.09-.13-.18l-.05-.04c-.39-.2-.79-.1-1.1,.27-.2,.24-.3,.5-.3,.76,0,.36,.12,.66,.37,.9,.23,.23,.52,.42,.85,.55,.32,.13,.65,.23,.97,.29,.33,.06,.58,.09,.78,.09,.58,0,1.13-.04,1.64-.14,.4-.11,.86-.2,1.37-.26,.22-.03,.42-.05,.61-.06,.2-.02,.4-.05,.59-.11,.29-.06,.52-.14,.71-.24,.06-.05,.17-.08,.31-.11,.17-.03,.35-.07,.55-.13,.34-.11,.65-.17,.96-.17,.46-.06,.94-.1,1.41-.13,.49-.03,.97-.1,1.44-.22,.21-.06,.42-.1,.62-.13,.21-.03,.46-.07,.72-.13l.68-.09c.23-.03,.45-.04,.66-.04,.47,0,.9-.01,1.3-.04,.4-.03,.81-.09,1.21-.17,.79-.06,1.55-.12,2.28-.17,.73-.06,1.46-.16,2.17-.31,.26-.06,.53-.09,.8-.11,.28-.01,.56-.05,.83-.11,.2-.03,.4-.08,.6-.16,.19-.07,.37-.14,.52-.19,.19-.06,.37-.1,.54-.13,.17-.03,.35-.04,.53-.04,.15,0,.36,.03,.63,.08,.26,.06,.49,.03,.78,.09,1.04,.23,2.06,.35,3.03,.35,.14,0,.33,0,.56-.02,.24-.01,.49-.05,.74-.11h.03c.22-.13,.43-.25,.63-.39,.23-.16,.35-.42,.35-.79,0-.56-.21-1.06-.6-1.47-.07-.12-.22-.21-.45-.28Z"/>
        <path class="cls-1" d="M389.76,3.17c.04,.07,.07,.14,.08,.21,.02,.11,.06,.21,.12,.31,.08,.14,.18,.29,.31,.29h0c.19,.03,.34,.08,.44,.16,.12,.1,.27,.22,.45,.36,.13,.22,.28,.45,.44,.68,.16,.22,.31,.46,.43,.66,.05,.14,.1,.3,.14,.48,.04,.19,.09,.4,.14,.63h0c.2,.62,.29,.8,.34,.87,.07,.14,.2,.24,.39,.3,.16,.05,.32,.07,.47,.07,.24,0,.55-.13,.67-.71,.06-.18,.09-.39,.11-.62,.01-.22,.02-.4,.02-.55,0-.22-.04-.43-.11-.62-.07-.18-.17-.36-.28-.5-.06-.09-.11-.16-.15-.22-.04-.06-.09-.13-.16-.23l-.23-.24c-.06-.06-.11-.14-.16-.24l-.04-.05c-.13-.11-.24-.22-.33-.34-.1-.13-.22-.28-.34-.4-.09-.16-.21-.3-.37-.41-.13-.09-.24-.21-.36-.36-.25-.24-.54-.44-.85-.61-.32-.17-.65-.25-.97-.25-.12,0-.21,.01-.28,.05-.11,.02-.19,.1-.19,.23,0,.04,0,.13,.04,.41,.03,.21,.09,.43,.18,.66Z"/>
        <path class="cls-1" d="M380.8,28.37c0-.84,0-1.66-.02-2.46-.01-.8-.02-1.61-.02-2.45v-1.22c0-.48,.04-.91,.12-1.27,.05-.22,.12-.43,.22-.62,.09-.19,.2-.35,.34-.5,.14-.2,.27-.4,.39-.59,.12-.19,.25-.37,.38-.53,.31-.35,.56-.7,.75-1.02,.21-.35,.31-.64,.31-.9,0-.17-.1-.27-.27-.27-.28,0-.53,.09-.76,.27-.21,.16-.38,.33-.52,.5-.11,.06-.21,.14-.3,.23l-.21,.22-.03,.04s-.03,.05-.02,.05h0s-.08,.05-.12,.09l-.03,.05s0,.03-.07,.03c-.13,0-.21-.05-.26-.17-.06-.16-.09-.28-.09-.38v-.83c0-.4,.03-.82,.08-1.26,0-.4,.03-.78,.08-1.13,.05-.31,.13-.54,.23-.66,.04-.02,.08-.03,.13-.04,.07-.01,.13-.04,.19-.06,.14,0,.25-.02,.32-.05,.15-.03,.29-.08,.41-.14,.13-.07,.27-.21,.41-.42,.09-.09,.15-.19,.19-.28,.13-.14,.18-.24,.18-.34,0-.2-.08-.38-.23-.52-.11-.27-.22-.44-.33-.54-.1-.09-.21-.15-.31-.16-.09-.06-.21-.09-.38-.09-.07,0-.14,0-.2-.02l-.29-.06s-.06-.05-.07-.1c-.05-.34-.1-.76-.12-1.25-.03-.48-.04-.99-.04-1.51v-2.61l-.03-.04c-.17-.2-.34-.41-.52-.61-.18-.2-.36-.41-.56-.61-.21-.22-.4-.45-.56-.66-.16-.22-.31-.44-.46-.69-.05-.05-.15-.19-.37-.52-.17-.17-.35-.26-.55-.26-.09,0-.17,.07-.23,.13-.08,.09-.12,.23-.12,.45,0,.17,.06,.37,.18,.61,.11,.22,.25,.49,.4,.79,.06,.15,.14,.31,.24,.46,.09,.14,.16,.27,.21,.41,.06,.15,.11,.28,.17,.39,.05,.09,.09,.19,.11,.3,.08,.28,.12,.58,.14,.9,.01,.33,.02,.64,.02,.93v1.41l-.08,.24c-.03,.09-.06,.21-.09,.39,0,.25,.02,.44,.07,.57,.04,.1,.05,.19,.05,.26v.04c.03,.07,.04,.16,.04,.26,0,.64-.1,1.16-.31,1.54-.21,.39-.5,.72-.86,.99-.16,.11-.34,.24-.55,.37-.21,.13-.42,.25-.63,.36-.22,.12-.43,.22-.63,.32-.21,.11-.42,.24-.6,.37-.16,.09-.22,.13-.24,.16,0,.01-.03,.03-.09,.06l-.04,.03c-.13,.14-.19,.18-.21,.19l-.04,.03c-.11,.12-.26,.17-.47,.17-.36,0-.63-.04-.8-.12-.18-.08-.35-.18-.49-.27-.09-.09-.22-.2-.37-.3-.11-.12-.23-.18-.35-.18-.27,0-.43,.17-.43,.45,0,.17,.04,.35,.13,.57,.09,.22,.2,.42,.34,.62,.14,.19,.29,.37,.45,.52,.17,.16,.34,.26,.53,.3h.37c.73,0,1.38-.11,1.93-.31,.28-.09,.57-.2,.86-.33,.28-.13,.59-.25,.92-.37,.21-.08,.42-.15,.63-.19,.19-.04,.39-.08,.61-.13l-.08,5.34c-.37,.39-.72,.8-1.04,1.21-.33,.42-.66,.83-.98,1.23-.35,.4-.72,.8-1.08,1.19-.36,.38-.74,.75-1.11,1.09-.3,.23-.65,.47-1.06,.73-.39,.25-.77,.39-1.11,.41-.29,0-.48,.06-.61,.2-.06,.1-.13,.28-.2,.54-.07,.25-.13,.51-.19,.79-.06,.28-.1,.55-.13,.82-.03,.26-.04,.47-.04,.62,0,.22,.24,.34,.32,.39,.18,.1,.36,.15,.52,.15,.4,0,.94-.32,1.68-.99,.7-.64,1.43-1.39,2.16-2.22,.36-.38,.71-.76,1.03-1.13,.34-.39,.65-.73,.94-1.04,.24-.29,.46-.52,.64-.68l.03-.05s.02-.04,.02-.04c.03-.02,.07-.04,.1-.08,.04-.03,.08-.06,.11-.1h.02c.03,.72,.05,1.43,.06,2.14,.01,.71,.02,1.42,.02,2.15v1.3c0,.66-.03,1.38-.08,2.17-.03,.74-.09,1.45-.18,2.09-.11,.72-.27,.95-.37,1.03h-.04c-.14,0-.3-.11-.47-.35-.05-.06-.11-.11-.16-.17-.04-.04-.07-.09-.09-.16l-.03-.06c-.07-.07-.14-.2-.23-.41-.17-.27-.35-.51-.55-.72-.22-.23-.49-.35-.8-.35-.1,0-.35,.04-.35,.45,0,.16,.03,.37,.08,.64,.06,.27,.13,.54,.23,.8,.1,.26,.21,.52,.34,.76,.13,.24,.25,.43,.34,.56,.03,.07,.06,.12,.09,.17,.03,.05,.07,.1,.13,.16,.03,.06,.07,.12,.12,.17,.03,.03,.06,.07,.09,.13,.05,.07,.08,.16,.11,.24,.03,.12,.09,.23,.18,.32,.06,.04,.11,.11,.16,.2,.06,.13,.12,.23,.19,.3,.33,.35,.75,.52,1.25,.52,.16,0,.27-.02,.36-.06,.09-.04,.16-.09,.23-.16l.08-.09h.03v-.07s0-.02,.06-.08c.04-.07,.12-.14,.24-.22l.09-.09s.03-.03,.05-.08c.02,0,.03-.01,.04-.02l.05-.02c.07-.04,.14-.09,.2-.16l.13-.14-.17-.09s0-.01,0-.05c0-.13,.01-.25,.04-.36,.03-.11,.07-.25,.12-.44,.03-.14,.05-.26,.08-.36,.03-.1,.05-.19,.08-.29,.25-1.1,.39-2.24,.43-3.37,.04-1.13,.06-2.24,.06-3.31Z"/>
        <path class="cls-1" d="M405.02,28.1c-.61,0-1.23,.05-1.87,.15-.62,.1-1.27,.18-1.9,.24-.07,0-.19,.03-.38,.1-.16,.06-.35,.11-.56,.17-.37,.08-.45,.08-.46,.08l-.12,.04h-.19c0-.07-.04-.13-.1-.19-.02-.04-.06-.13-.06-.4v-1.54c0-.26,.03-.5,.08-.75,.03,0,.06,0,.08,.01,.04,.02,.1,.02,.16,.03,.06,.05,.14,.09,.24,.13,.23,.06,.42,.09,.57,.09,.26,0,.54-.16,.86-.48,.32-.32,.47-.59,.47-.84,0-.33-.12-.6-.36-.79-.21-.16-.43-.31-.67-.43-.14-.06-.27-.11-.39-.14-.1-.03-.22-.07-.35-.12h-.08c-.05-.07-.11-.09-.15-.1-.05-.02-.1-.05-.13-.09,0,0-.04-.05-.04-.29v-.26c0-.13,.01-.25,.04-.39,0-.06,.02-.14,.06-.21,.02-.04,.06-.08,.16-.08,.04,0,.07,.01,.1,.04l.09,.06s.03,.04,.05,.08l.19,.21h.18c.07,0,.14-.04,.23-.13l.04-.04v-.22s.04-.06,.04-.08l.03-.04s.04-.07,.07-.11c.03-.01,.06-.04,.08-.07h.06l.04-.04c.06-.07,.11-.12,.14-.18,.03-.05,.06-.14,.06-.44,0-.52-.12-.85-.37-1.03-.22-.16-.49-.27-.79-.32-.15-.05-.26-.11-.33-.16l-.05-.02c-.13-.03-.28-.07-.42-.12-.26-.13-.45-.33-.57-.64v-.07c.04-.07,.13-.13,.26-.19,.17-.07,.36-.13,.58-.19,.21-.05,.41-.08,.6-.08h.96c.1,0,.2-.02,.32-.05,.11-.03,.19-.06,.26-.09,.38-.07,.59-.32,.59-.7,0-.35-.15-.7-.44-1.05-.3-.35-.63-.53-.97-.53-.14,0-.31,.01-.49,.05-.17,.03-.35,.04-.55,.04l-.04-.05h-.17s-.04-.1-.04-.25c0-.28-.08-.59-.24-.91-.16-.32-.36-.61-.62-.88-.25-.26-.52-.5-.8-.69-.3-.2-.59-.31-.86-.31-.18,0-.34,.08-.48,.25-.13,.16-.2,.33-.2,.5,0,.26,.11,.54,.33,.84,.05,.05,.09,.11,.13,.16,.04,.06,.1,.13,.16,.19,.04,.04,.07,.1,.09,.16,.03,.11,.09,.2,.14,.26,.07,.1,.12,.2,.14,.28,.03,.1,.07,.22,.12,.33,.02,.13,.04,.26,.06,.38,.01,.13,.03,.26,.06,.38-.38,.22-.86,.48-1.45,.76-.59,.28-1.13,.42-1.6,.42h-.71c.12-.21,.25-.38,.37-.52,.14-.16,.28-.37,.42-.59,.12-.16,.24-.4,.37-.73,.12-.32,.25-.67,.37-1.05,.12-.38,.23-.74,.31-1.1,.09-.36,.13-.63,.13-.81,0-.16-.04-.34-.11-.53-.07-.17-.13-.34-.18-.51-.06-.22-.15-.41-.27-.59-.09-.13-.16-.25-.21-.37,.66-.14,1.31-.24,1.95-.29,.65-.06,1.33-.09,2-.09h.59c.19,0,.38-.01,.55-.04,.17,0,.42-.08,.58-.48,.12-.28,.18-.5,.18-.66,0-.84-.47-1.15-.86-1.27-.52-.15-1.03-.22-1.54-.22-.31,0-.65,.04-1.03,.11-.38,.08-.71,.19-.95,.33-.14,.06-.32,.14-.55,.24-.21,.09-.39,.14-.54,.14l-.06-.04h-.18c-.12,0-.3,.03-.53,.09-.22,.06-.45,.12-.7,.2-.25,.07-.48,.16-.69,.24-.21,.09-.37,.16-.5,.24-.32,.25-.74,.51-1.22,.76-.51,.14-1.01,.25-1.48,.32-.48,.07-.97,.18-1.46,.34-.17,.09-.3,.16-.4,.22-.1,.06-.19,.14-.28,.22-.04,.02-.08,.03-.11,.04-.06,.02-.13,.04-.19,.08l-.04,.02-.02,.04s-.07,.11-.22,.14h-.04c-.09,.06-.16,.08-.22,.08l-.07,.02s-.07,.03-.1,.03c-.06,0-.11,.02-.14,.04h-.03c-.18,.07-.34,.15-.48,.24-.13,.08-.26,.15-.38,.2-.17,.06-.33,.13-.49,.2-.13,.06-.28,.09-.45,.09-.01,0-.08,0-.26-.13-.03-.06-.07-.11-.14-.18-.01-.05-.04-.09-.07-.12-.09-.09-.18-.17-.27-.24-.11-.07-.24-.11-.41-.11-.21,0-.35,.14-.35,.36,0,.11,.03,.24,.09,.42,.06,.17,.13,.33,.21,.5,.09,.17,.18,.32,.28,.45,.13,.18,.23,.25,.34,.25,.15,0,.31-.02,.51-.07,.15-.04,.27-.03,.38,.01h.06c.11,.01,.22,.05,.35,.14,.11,.07,.16,.2,.16,.38,0,.07,0,.14,.02,.21,.01,.06,.04,.14,.06,.23l.03,.05s.08,.07,.11,.09c0,0,.01,.01,.03,.05l.02,.04s.03,.04,.04,.05c.02,.05,.06,.1,.11,.15,.09,.15,.14,.29,.14,.4,0,.26-.09,.56-.26,.87-.11,.15-.21,.29-.29,.42-.08,.13-.16,.26-.2,.36-.17,.24-.3,.48-.39,.71-.08,.21-.17,.41-.29,.63-.08,.22-.17,.45-.28,.68-.1,.22-.25,.44-.44,.67-.32,.45-.72,.83-1.19,1.14-.26,.17-.39,.42-.39,.73,0,.63,.35,.97,1,.97,.2,0,.41-.02,.62-.07,.19-.04,.4-.06,.61-.06h.41c.17,0,.36,.01,.56,.04,.09,.06,.18,.1,.28,.13,.07,.02,.13,.05,.16,.09l.05,.03c.21,.08,.24,.2,.24,.3,0,.11-.04,.19-.14,.25h-.04c-.08,0-.14,.04-.17,.11h-.06v.16c-.07,.07-.08,.14-.08,.17l-.03,.03v.04c-.03,.12-.07,.21-.14,.28l-.03,.04c-.22,.48-.48,1.01-.79,1.57-.31,.55-.64,1.03-1,1.44-.12,.18-.28,.33-.45,.44l-.03,.02c-.08,.08-.17,.16-.29,.24-.13,.09-.24,.19-.32,.27-.42,.35-.63,.78-.63,1.28,0,.28,.13,.52,.38,.72,.24,.19,.51,.29,.79,.29,.13,0,.27-.03,.4-.1l.32-.17c.15-.07,.29-.16,.4-.27,.08-.09,.18-.15,.3-.2l.04-.02c.24-.2,.51-.38,.8-.55,.28-.16,.64-.24,1.07-.24,0,0,.02,0,.09,.03,.07,.03,.14,.05,.21,.05,.1,.05,.1,.09,.1,.12,0,.12-.03,.26-.09,.4-.07,.16-.16,.33-.26,.54-.11,.22-.21,.43-.32,.62-.1,.18-.19,.31-.27,.39l-.03,.05c-.06,.15-.1,.28-.13,.38-.03,.1-.06,.21-.08,.31-.13,.37-.4,.86-.81,1.47-.4,.61-.87,1.24-1.38,1.85-.51,.62-1.04,1.19-1.57,1.7-.52,.51-.97,.87-1.35,1.07-.14,.09-.28,.2-.41,.32-.15,.14-.23,.31-.23,.5,0,.4,.24,.62,.68,.62,.16,0,.29-.03,.39-.08,.08-.04,.16-.1,.22-.16,.07-.03,.16-.1,.2-.24,.04-.03,.08-.05,.11-.08,0,0,.02-.02,.06-.04,.04,0,.08-.02,.12-.04l.13-.05c.29-.09,.73-.39,1.34-.92,.59-.51,1.19-1.09,1.79-1.73,.6-.64,1.15-1.26,1.63-1.85,.5-.62,.76-1.06,.79-1.37v-.03c.06-.07,.08-.13,.08-.18,0-.02,.02-.05,.04-.08l.03-.04s.06-.1,.12-.16l.18-.2,.03-.04s.05-.08,.14-.18h.03v-.07s0-.02,.05-.06l.04-.04v-.06c0-.15,.04-.32,.11-.49,.08-.18,.18-.35,.32-.52,.06-.1,.11-.2,.15-.3,.04-.1,.07-.17,.1-.23,.09-.2,.14-.34,.14-.45h0c.19-.32,.38-.67,.56-1.04,.19-.4,.36-.8,.5-1.21,.03-.09,.05-.19,.07-.28,.01-.09,.02-.21,.02-.35,.03-.09,.04-.2,.04-.34,.03-.07,.04-.13,.04-.18,0-.01,0-.04,.03-.09,.03-.06,.06-.13,.09-.21,.02-.05,.05-.1,.09-.15l.03-.04c.02-.05,.05-.1,.07-.14,.02-.04,.06-.08,.11-.13l.02-.04c.05-.1,.1-.18,.16-.25,.09-.1,.14-.24,.14-.42,0-.2-.08-.43-.25-.67-.15-.22-.32-.46-.51-.72-.08-.12-.17-.24-.27-.36-.09-.11-.16-.2-.21-.29-.24-.4-.27-.54-.27-.58,0-.07,.01-.09,0-.09l.04-.03s.05-.06,.06-.09c0,0,.01,0,.02-.01l.09-.03s.07,.04,.13,.04h0c.07,.03,.15,.04,.24,.04,.28,0,.52-.09,.71-.25,.18-.16,.32-.34,.45-.57,.02-.05,.05-.1,.07-.14,.02-.04,.06-.08,.11-.13l.03-.04c.03-.06,.05-.12,.07-.17,0-.02,.02-.04,0-.03,.09-.06,.17-.13,.26-.2,.06-.05,.11-.07,.15-.07,.18,0,.25,.08,.29,.14,.07,.13,.12,.27,.15,.43v.04c.04,.07,.08,.21,.08,.5v.39c0,.83-.03,1.68-.08,2.53l-.16,2.54c-.05,1-.09,2.05-.1,3.11-.01,1.05-.05,2.14-.1,3.24,0,.14,0,.34-.02,.58-.01,.25-.04,.5-.08,.77-.04,.28-.08,.54-.1,.79-.03,.29-.08,.43-.1,.48-.17,.28-.28,.57-.33,.88-.04,.3-.06,.61-.06,.93,0,.18,.01,.39,.04,.62,.03,.24,.1,.48,.21,.72,.12,.76,.5,.93,.79,.93,.56,0,.95-.35,1.14-1.04,.18-.63,.29-1.42,.31-2.34,.06-.44,.08-.88,.08-1.32v-1.16c.03-.39,.06-.73,.1-1.01,.04-.25,.1-.44,.19-.55,.1-.11,.36-.28,1.05-.51,.57-.19,1.21-.36,1.89-.52,.7-.16,1.38-.3,2-.41,.64-.11,1.1-.19,1.38-.22,.14-.03,.28-.06,.43-.09,.16-.03,.31-.08,.43-.13,.6-.13,1.28-.11,1.99,.04,.42,.09,.86,.13,1.3,.13,.14,0,.31,0,.52-.02,.22-.02,.43-.07,.6-.16,.14-.06,.29-.14,.42-.23,.16-.11,.25-.3,.25-.55,0-.47-.2-.9-.6-1.28-.39-.37-.81-.56-1.23-.56Zm-16.13-10.73c.01,.06,.05,.13,.1,.19l.07,.15c.05,.1,.07,.21,.07,.33,0,.16-.03,.38-.1,.64-.07,.27-.15,.55-.24,.84-.09,.28-.2,.55-.32,.78-.11,.23-.23,.4-.35,.5-.12,.1-.25,.17-.4,.21-.15,.04-.29,.06-.41,.06-.29,0-.58-.03-.85-.08-.27-.05-.55-.1-.85-.13,.08-.12,.27-.41,.59-.87,.35-.52,.73-1.09,1.11-1.7,.38-.61,.73-1.19,1.03-1.72,.43-.77,.47-.92,.47-1s-.03-.18-.1-.32c-.03-.07-.09-.15-.17-.24-.12-.24-.24-.42-.38-.53-.14-.11-.27-.19-.39-.22-.09-.03-.21-.05-.34-.05-.05-.03-.11-.05-.16-.06-.02,0-.04-.02-.06-.03h.08v-.1h0s.03-.03,.05-.04c.03-.01,.05-.03,.08-.05,.07-.01,.15-.04,.25-.1l.04-.03,.02-.04h.06l.29-.31c.13-.14,.24-.25,.32-.32,.05-.04,.14-.1,.36-.17,.45-.14,.92-.23,1.39-.28,.48-.04,.97-.13,1.4-.24,.08,0,.18-.03,.29-.1l.27-.1c.2-.1,.35-.16,.5-.16l.94-.22,.11-.05v-.11s.01,0,.06,0c.02,0,.09,0,.16,.22,.02,.05,.04,.11,.05,.2,.01,.11,.05,.22,.11,.31,.02,.22,.04,.42,.04,.6v.39c0,.24-.04,.49-.12,.75-.02,.07-.08,.23-.26,.6-.15,.3-.32,.63-.51,.97-.19,.34-.38,.65-.57,.92-.22,.31-.35,.42-.44,.45-.08,.04-.14,.1-.18,.16,0,0-.02,.02-.11,.06l-.25,.13-.03,.02c-.07,0-.13-.02-.18-.03-.08-.03-.17-.07-.25-.11-.11-.09-.23-.17-.34-.25-.11-.07-.23-.14-.32-.19-.52-.39-1-.59-1.44-.59s-.51,.17-.51,.32c0,.26,.11,.5,.34,.72Zm-2.05,8.89c.14-.1,.25-.24,.33-.44,.14-.1,.25-.22,.32-.34,.05-.05,.1-.1,.15-.14,.06-.05,.11-.09,.16-.14,.17-.26,.31-.52,.42-.75l.19-.41c.18-.18,.27-.2,.29-.2,.06,0,.12,.02,.17,.07,.04,.09,.06,.18,.06,.26v.04c.03,.07,.04,.16,.04,.24v.85c0,.11,0,.2-.02,.28-.01,.08-.03,.17-.05,.27-.1,.15-.2,.28-.31,.39-.1,.1-.27,.17-.49,.23-.09,.02-.18,.03-.27,.02-.13-.02-.26,0-.41,.04-.13,.07-.17,.07-.18,.07l-.07,.02s-.06,.03-.22,.03c-.03,0-.08,0-.19-.04-.04-.01-.04-.02-.04-.04,0-.06,.01-.1,.04-.13,.04-.05,.07-.11,.1-.16Zm4.36-7.16s.1,0,.1,.2c0,.11-.03,.12-.1,.12-.19,0-.19-.07-.19-.12,0-.17,.07-.2,.19-.2Zm2.29-.45c.06-.08,.12-.11,.19-.11v.03s.08,.04,.08,.04c0,0,.02,0,.02,.01,.01,.03,.03,.05,.05,.07,.02,.05,.05,.11,.07,.17,.03,.09,.09,.17,.13,.22,.25,.43,.5,.64,.78,.64,.06,0,.14,0,.23-.02,.08-.01,.19-.04,.35-.07,.08-.03,.16-.05,.24-.06,.12-.02,.23-.06,.3-.12,.5-.2,.9-.29,1.18-.29,.06,0,.23,0,.38,.35,.14,.34,.17,.51,.17,.6,0,.12-.02,.23-.07,.34-.04,.11-.1,.17-.18,.2-.11,.04-.22,.06-.34,.06h-.06l-.04,.05s-.05,.04-.06,.04c-.07,0-.13,.01-.2,.04-.14,0-.25,.02-.32,.06-.04,.02-.09,.04-.13,.05l-.3,.08-.03,.04c-.07,.1-.15,.19-.24,.26-.14,.06-.27,.14-.38,.23-.08,.07-.21,.1-.36,.1s-.19-.07-.21-.13c-.04-.16-.07-.3-.1-.45-.06-.28-.17-.52-.31-.71-.14-.18-.28-.34-.42-.49l-.16-.17c-.06-.07-.08-.09-.08-.1l-.06-.13-.04-.05c-.1-.09-.15-.24-.15-.46,0-.12,.03-.22,.1-.31Zm1.01,11.21c0-.43,.02-.85,.06-1.27,.04-.4,.07-.81,.1-1.24h.31c.12,0,.27-.02,.41-.04,.17,0,.4-.03,.66-.09,.11,0,.22-.03,.35-.1l.05-.04c.09-.13,.14-.16,.13-.16,.11-.03,.21-.06,.3-.09,.13-.05,.34-.06,.39,.04,.03,.09,.06,.17,.09,.23,.02,.04,.03,.08,.03,.14,.03,.14,.04,.25,.04,.34v.59c0,.13-.01,.27-.04,.43,0,.04-.01,.09-.03,.14-.03,.07-.05,.15-.05,.21-.03,.06-.05,.12-.06,.17,0,.03-.02,.06-.05,.09-.05,.02-.17,.08-.48,.2-.29,.12-.59,.24-.92,.37-.33,.13-.62,.25-.88,.35-.21,.08-.31,.12-.35,.13,0-.01,0-.04,0-.06,0-.06-.02-.11-.04-.14v-.21Zm1.82-4.87c-.11,.03-.22,.07-.33,.11-.11,.05-.23,.1-.34,.16-.25,.13-.46,.2-.63,.2-.13,0-.16-.05-.17-.1-.04-.13-.07-.25-.1-.35-.02-.13-.03-.26-.02-.39,.01-.15,.02-.26,.02-.32,0-.28,.06-.48,.17-.6,.04-.04,.1-.08,.18-.13,.1,0,.22-.04,.4-.1,.03-.01,.08-.04,.18-.05,.11-.02,.23-.06,.35-.12,.06-.03,.12-.07,.19-.12,.05-.04,.09-.07,.14-.09l.16-.08v-.06c.1-.05,.2-.1,.31-.15,.21-.1,.44-.1,.64,0,.12,.05,.12,.1,.12,.13,0,.63-.08,1.08-.24,1.33-.16,.25-.5,.5-1.02,.75Z"/>
        <path class="cls-1" d="M440.23,8.21c-.42-.09-.87-.13-1.34-.13h-2.34c-.4,0-.82,.01-1.24,.04-.41,.03-.82,.07-1.22,.11-.4,.04-.79,.13-1.16,.25-.16,.06-.32,.1-.49,.12-.18,.03-.36,.06-.56,.09-.33,.06-.73,.02-1.02,.13l-2.13,.35c-.38,.06-.75,.11-1.1,.15-.35,.04-.7,.06-1.05,.06-.16,0-.25-.01-.31-.02,0-.05-.02-.09-.04-.14,0-.16,.05-.45,.16-.85,.11-.41,.19-.71,.24-.88,.11-.32,.23-.73,.37-1.22l.41-1.48c.14-.52,.25-1.03,.35-1.53,.1-.5,.15-.92,.15-1.24,0-.2-.05-.38-.14-.5-.06-.13-.19-.28-.38-.46-.18-.16-.38-.33-.58-.48-.21-.16-.42-.3-.62-.4-.21-.11-.38-.17-.52-.17-.17,0-.34,.07-.49,.21-.15,.14-.23,.3-.23,.45,0,.14,.03,.28,.1,.41l.02,.04s.03,.04,.04,.05c.02,.04,.05,.09,.09,.12,.04,.04,.08,.07,.11,.09,0,0,.01,.01,.03,.05l.02,.04c.1,.11,.19,.23,.26,.38,.07,.14,.11,.34,.11,.61,0,.33-.05,.75-.16,1.23-.11,.48-.24,.98-.39,1.47-.15,.5-.31,.98-.47,1.43-.16,.46-.31,.83-.45,1.13-.02,.06-.06,.17-.16,.37-.08,.18-.17,.39-.24,.6-.11,.2-.21,.39-.31,.56-.11,.2-.17,.29-.18,.3-.05,.03-.15,.09-.37,.15-.18,.06-.38,.1-.6,.15-.22,.04-.42,.07-.6,.08-.19,.01-.33,.02-.44,.02-.3,0-.61,.02-.9,.07-.29,.04-.58,.08-.89,.11-.31,.06-.65,.08-1,.08h-1.03c-.07,0-.14,0-.21,.03-.06,.01-.11,.02-.15,.02l-.07,.02s-.05,.03-.04,.03c-.04,0-.08,.01-.14,.04h-.19l-.05,.05s-.05,.02-.07,.03l-.05,.02c-.09,.05-.19,.07-.3,.07h-.06c-.12,.06-.26,.1-.43,.11-.19,.02-.39,.05-.6,.11-.38,.06-.76,.1-1.12,.13-.45,.04-.63,.04-.71,.04-.16,0-.34-.05-.53-.15-.03-.03-.09-.07-.22-.14-.16-.08-.39-.12-.56,.14l-.02,.03v.35c0,.51,.09,.95,.26,1.3,.19,.38,.55,.58,1.07,.58,.3,0,.61-.02,.9-.07,.54-.08,1.17-.05,1.6-.11,.21-.03,.43-.07,.65-.13l.66-.17c.22-.06,.46-.11,.72-.17,.87-.12,1.71-.07,2.58-.13,.22-.03,.43-.05,.65-.06,.22-.01,.43-.02,.65-.02,.1,0,.19,.01,.29,.04h.04s.06,.01,.06,0c.05,.06,.07,.08,.08,.08,0,.19-.04,.23-.04,.24l-.03,.04c-.02,.05-.05,.1-.07,.14-.03,.04-.05,.09-.08,.15-.03,.03-.05,.07-.07,.11,0,.02-.02,.03-.04,.05h-.03v.07s0,.02-.05,.06l-.28,.57c-.11,.28-.2,.47-.27,.58l-.25,.39c-.04,.06-.11,.16-.28,.34-.08,.11-.16,.22-.24,.32-.09,.11-.17,.24-.26,.4-.09,.18-.16,.37-.23,.55-.07,.18-.14,.36-.22,.53-.18,.36-.41,.69-.67,.97-.14,.15-.27,.32-.37,.51-.09,.17-.19,.32-.3,.47-.22,.35-.44,.69-.65,1.02-.22,.33-.45,.66-.69,.97-.65,.83-1.34,1.61-2.06,2.33-.72,.72-1.42,1.49-2.08,2.27-.11,.14-.23,.3-.37,.48-.13,.17-.28,.34-.45,.52-.13,.17-.29,.33-.45,.48-.17,.15-.31,.25-.43,.3-.14,.06-.29,.14-.46,.25-.14,.14-.2,.28-.2,.4s.06,.25,.18,.38c.13,.14,.23,.2,.33,.2,.22,0,.47-.1,.74-.28,.22-.15,.43-.29,.61-.43,.14-.09,.28-.19,.4-.29,.13-.1,.26-.23,.39-.37,.14-.12,.27-.23,.39-.35,.12-.11,.25-.23,.38-.34,.3-.23,.59-.48,.87-.72,.27-.24,.54-.48,.81-.71,.3-.23,.6-.48,.87-.72,.27-.25,.55-.5,.83-.77,.22-.24,.45-.49,.68-.77l.68-.8c.22-.26,.43-.52,.64-.79,.21-.26,.42-.54,.63-.82,.14-.15,.3-.34,.47-.59,.09-.16,.22-.32,.39-.47,.06,.2,.11,.39,.14,.54,.04,.18,.06,.39,.06,.64,0,.27-.02,.42-.03,.46-.03,.07-.06,.16-.07,.26-.01,.07-.03,.13-.05,.19-.06,.15-.1,.31-.13,.46-.03,.15-.04,.31-.04,.46,0,.13,.03,.28,.08,.46,0,.04,.02,.09,.04,.15v.06s.04,.09,.04,.16c0,.1-.01,.13,0,.12l-.03,.05v.04s-.04,.1-.04,.15c-.11,.24-.19,.55-.24,.92-.03,.18-.05,.35-.06,.51-.01,.15-.03,.3-.06,.44-.08,.5-.14,.99-.17,1.45-.03,.46-.04,.95-.04,1.44,0,.33-.04,.66-.12,.97-.03,.15-.06,.31-.08,.48-.03,.17-.05,.33-.08,.47-.06,.29-.09,.58-.1,.87-.01,.27-.05,.56-.1,.87-.06,.32-.1,.67-.12,1.03-.03,.35-.08,.69-.16,.98-.06,.15-.1,.31-.13,.46-.03,.14-.04,.29-.04,.44-.05,.18-.09,.36-.1,.55-.01,.18-.05,.35-.1,.53l-.12,.65c-.06,.3-.08,.51-.08,.63,0,.35,.14,.71,.42,1.07,.29,.37,.61,.55,.95,.55,.18,0,.31-.04,.39-.13,.06-.07,.13-.17,.18-.28,.17-.27,.3-.66,.39-1.14,.08-.46,.15-.96,.21-1.49,.05-.52,.1-1.04,.12-1.55,.03-.5,.07-.93,.12-1.25l.25-.93c.03-.17,.05-.33,.08-.47,.03-.15,.04-.31,.04-.46,0-.28,.02-.63,.06-1.03,.04-.39,.12-.72,.25-.99,.19-.36,.49-.53,.9-.53,.37,0,.7-.05,1-.14,.08-.04,.31-.1,.91-.19,.49-.07,1.03-.14,1.61-.19,.59-.06,1.14-.12,1.66-.17,.52-.06,.84-.09,.97-.09,.22,0,.51,0,.88,.02,.37,.02,.76,.04,1.14,.09,.38,.04,.76,.1,1.11,.17,.33,.07,.57,.17,.7,.28,.03,.03,.04,.06,.04,.08v.04s.03,.04,.03,.04c0,0,.01,.03,.01,.13v.04c.03,.07,.04,.16,.04,.24,0,.11,.02,.23,.04,.33v1.04c0,.6-.01,1.22-.04,1.86l-.07,1.61v.76c-.01,.26-.02,.56-.05,.86-.03,.15-.05,.3-.06,.45-.01,.14-.03,.27-.06,.4-.03,.07-.05,.14-.05,.2,0,.01,0,.03-.02,.07-.06,.06-.09,.07-.08,.07-.28,0-.6-.1-.98-.31-.39-.21-.78-.45-1.17-.72-.21-.11-.41-.23-.58-.34-.19-.12-.36-.22-.51-.3-.33-.22-.61-.33-.86-.33s-.59,.11-.71,.63v.06s.02,.05,.02,.05c.14,.24,.39,.54,.76,.9,.36,.35,.77,.73,1.23,1.13,.22,.2,.44,.4,.66,.59,.22,.19,.43,.38,.66,.59,.46,.4,.78,.71,.97,.95,.22,.23,.45,.35,.68,.35,.17,0,.32-.05,.47-.16,.12-.09,.25-.17,.39-.26,.23-.15,.43-.34,.6-.54,.07-.08,.13-.2,.2-.4l.12-.38c.14-.33,.24-.59,.31-.82,.07-.22,.13-.45,.19-.68,.06-.24,.09-.48,.11-.72,.01-.24,.02-.55,.02-.92,0-.75-.02-1.52-.06-2.29-.04-.76-.06-1.54-.06-2.32,0-2.42,.01-4.86,.04-7.25,.03-2.4,.07-4.82,.12-7.21v-.06s-1.6-1.69-1.6-1.69h-.62c-.18,0-.38,.02-.55,.04-.42,0-.81,.05-1.16,.14-.13,.05-.27,.1-.43,.15-.17,.05-.33,.1-.47,.16-.12,.05-.24,.08-.37,.08-.17,0-.33,.03-.47,.09-.18,.05-.35,.09-.5,.1-.17,.02-.33,.04-.44,.06h-.49c-.18,0-.36,.03-.56,.1-.04,.02-.1,.04-.16,.05-.1,.02-.19,.06-.26,.13-.14,.06-.27,.13-.4,.21-.37,.19-.81,.34-1.31,.42-.51,.09-.96,.13-1.33,.13h-1.46c-.14,0-.22-.02-.28-.05,.21-.34,.4-.69,.55-1.04,.08-.14,.17-.28,.26-.43,.1-.15,.2-.31,.3-.47,.11-.15,.21-.29,.29-.42,.09-.14,.16-.28,.22-.45,.06-.18,.1-.33,.12-.43,.03-.08,.05-.16,.08-.23,.03-.07,.05-.13,.06-.16,.07-.1,.15-.19,.25-.26,.31-.13,.68-.23,1.11-.29,.45-.06,.9-.09,1.37-.09,.22-.03,.44-.04,.68-.04h.72c.46-.06,.85-.02,1.2-.13,1.2-.23,2.4-.44,3.56-.63,1.16-.19,2.37-.28,3.59-.28,.48,0,.99,.01,1.51,.04,.51,.03,1.01,.11,1.48,.25l.37,.13h.05c.07,0,.14,.01,.19,.03,.37,.08,.65-.03,.86-.29,.16-.2,.24-.42,.24-.65,0-.53-.15-.93-.46-1.19-.29-.25-.67-.42-1.13-.51Zm-16.9,15.25c.29-.17,.78-.33,1.46-.48,.69-.16,1.44-.29,2.22-.39,.78-.1,1.57-.18,2.33-.24,.76-.06,1.35-.09,1.75-.09h.53c.21,0,.42,.01,.62,.04,.22,.06,.43,.13,.64,.21,.19,.07,.31,.17,.37,.26,.05,.16,.08,.35,.08,.6,.02,.11,.04,.21,.04,.29v.28c0,.1,.03,.25,.09,.43,.05,.16,.08,.31,.08,.43,0,.35-.09,.56-.29,.65-.23,.11-.48,.16-.76,.16-.22,0-.49-.01-.81-.04-.32-.03-.59-.07-.8-.13-.22-.06-.38-.09-.5-.09-.27-.09-.49-.11-.76-.06-.09,.01-.17,.02-.24,.02h-.04c-.22,.06-.39,.11-.52,.13-.48,.09-.96,.17-1.43,.24-.5,.07-.98,.15-1.41,.24-.16,0-.31,.03-.42,.1l-.36,.13c-.26,.08-.55,.14-.85,.17-.31,.03-.6,.04-.87,.04-.34,0-.59-.07-.72-.2-.13-.13-.2-.38-.2-.74,0-.23,0-.47,.02-.73,.01-.25,.03-.5,.06-.76,.13-.06,.25-.13,.36-.22,.1-.08,.22-.17,.35-.25Zm10-4.34c0,.32-.06,.47-.11,.54-.11,.06-.15,.06-.16,.06l-.07,.02s-.07,.03-.1,.03c-.07,0-.14,.02-.21,.05-.42,.06-.85,.09-1.25,.1-.43,.01-.87,.05-1.32,.11-.2,.05-.41,.08-.62,.08-.23,0-.46,.03-.69,.09-.22,.06-.43,.12-.64,.17-.2,.06-.42,.12-.62,.17-.37,.06-.76,.03-1.15,.09-.17,.03-.34,.07-.5,.11-.16,.04-.33,.08-.5,.1-.17,0-.34,.02-.52,.05-.17,.03-.34,.08-.5,.13-.31,.08-.63,.13-.95,.13-.11,0-.31-.01-.33-.11-.04-.13-.06-.29-.06-.48,0-.14,0-.34,.02-.58,.01-.24,.05-.5,.1-.8,.03-.25,.07-.5,.14-.74,.06-.21,.14-.35,.25-.42,.12-.08,.33-.15,.63-.22,.31-.07,.64-.13,.97-.17,.33-.04,.67-.07,.99-.09,.33-.01,.57-.02,.73-.02,.23,0,.49-.03,.77-.09h.04c.12-.08,.19-.1,.23-.11,.09-.02,.17-.06,.24-.13,.05-.02,.1-.05,.15-.07,.07-.03,.14-.06,.2-.09,.25-.13,.55-.2,.88-.2,.17,0,.4-.02,.7-.07,.29-.04,.59-.09,.91-.15,.32-.06,.63-.13,.91-.2,.28-.07,.5-.13,.67-.19h.04c.18,.05,.34,.19,.5,.42,.16,.24,.24,.46,.24,.66v1.82Z"/>
        <path class="cls-1" d="M469.74,20.22c.05-.5,.08-.97,.08-1.41v-2.91c0-.53-.04-.99-.13-1.38-.14-.59-.32-1.08-.53-1.47-.21-.39-.52-.77-.9-1.12-.08-.08-.15-.17-.21-.26-.1-.14-.23-.21-.38-.21-.33,0-.56,.11-.7,.33-.12,.2-.19,.41-.19,.64,0,.43,.12,.85,.36,1.26,.28,.38,.45,.85,.51,1.38,.05,.56,.08,1.04,.08,1.44,0,1.52-.14,3-.41,4.42-.27,1.43-.47,2.9-.58,4.37l-.53-.08c-.2-.03-.41-.04-.64-.04-.41,0-.64,.22-.64,.62,0,.23,.08,.5,.24,.84,.15,.32,.35,.65,.59,.96,.24,.31,.48,.58,.74,.8,.28,.24,.51,.36,.71,.36,.66,0,1.12-.29,1.35-.85,.18-.29,.27-.51,.26-.65,.03-.13,.04-.25,.04-.38,0-.1,.02-.21,.08-.35,.03-.09,.05-.17,.06-.23,.01-.05,.02-.11,.02-.16,.06-.09,.1-.24,.12-.47,.03-.23,.05-.51,.08-.83,.03-.3,.04-.57,.04-.82v-.58c.03-.57,.09-1.12,.2-1.65,.11-.54,.19-1.08,.25-1.6Z"/>
        <path class="cls-1" d="M475.26,18.48c-.27-.31-.5-.56-.69-.73-.21-.19-.52-.33-.96-.43-.09,0-.1-.03-.11-.06l-.02-.06-.06-.03s-.04-.04-.05-.08c-.03-.08-.03-.1-.03-.1v-.06l-.04-.04c-.16-.17-.42-.28-.8-.35-.7-.12-1.13-.1-1.43-.04l-.05,.02c-.2,.14-.31,.31-.31,.51,0,1,.49,1.27,.89,1.31,.25,.05,.47,.15,.66,.3,.19,.15,.36,.31,.49,.48,.4,.51,.74,1.09,1.01,1.75l.03,.04s.07,.09,.11,.21c.05,.13,.13,.27,.23,.4,.04,.08,.09,.14,.15,.19,.02,.01,.04,.04,.06,.08l.03,.17h.18c.19,0,.39-.06,.58-.17,.19-.11,.37-.25,.54-.41,.17-.16,.31-.34,.43-.53,.13-.2,.19-.38,.19-.55,0-.05-.01-.15-.11-.42-.07-.2-.15-.36-.24-.49-.13-.19-.24-.37-.32-.53-.09-.18-.21-.3-.37-.38Z"/>
        <path class="cls-1" d="M463.94,31.7c.2,.33,.43,.62,.7,.88,.26,.24,.45,.44,.57,.56,.13,.2,.26,.41,.38,.64,.12,.23,.22,.45,.3,.68l.02,.04c.16,.23,.31,.44,.43,.62,.14,.21,.3,.36,.48,.46,.12,.06,.23,.11,.33,.12,.09,.02,.2,.02,.35,.02,.23,0,.47-.12,.71-.34,.25-.23,.37-.44,.37-.63,0-.1-.04-.27-.13-.53-.08-.23-.17-.48-.27-.74-.1-.26-.2-.5-.29-.71-.14-.3-.22-.38-.29-.41h-.04c-.25-.07-.51-.23-.77-.47-.11-.18-.25-.35-.41-.52-.14-.15-.29-.32-.43-.5-.39-.41-.78-.78-1.16-1.1-.41-.34-.75-.51-1.03-.51-.25,0-.68,.1-.68,.79,0,.2,.09,.45,.27,.75,.17,.28,.36,.58,.57,.89Z"/>
        <path class="cls-1" d="M460.12,14.99c-.31,.59-.47,1.05-.47,1.39,0,.08,.04,.26,.35,.27,.06,.03,.13,.04,.2,.04h.16c.23,0,.51-.16,.84-.5,.31-.31,.61-.67,.92-1.08,.39-.53,.71-1,.95-1.4,.24-.4,.43-.69,.57-.87,.1-.16,.21-.32,.32-.47,.11-.15,.21-.3,.3-.45,.14-.26,.25-.48,.35-.65,.08-.15,.23-.3,.43-.43l.03-.02,.02-.04s.03,0,.03,0l.04,.08h.09c.07,0,.1,0,.1,0,.04,.02,.08,.03,.12,.04,.17,.06,.31,.09,.44,.09,.24,0,.43-.03,.59-.1,.14-.06,.29-.13,.48-.23,.09-.06,.16-.12,.24-.18,.04-.04,.13-.1,.29-.19,.12-.03,.21-.06,.28-.1,.02-.01,.09-.04,.28-.08,.14-.06,.26-.11,.37-.15,.1-.04,.21-.09,.31-.14,.13,0,.26,0,.37-.02,.13-.01,.27-.04,.44-.07h.04c.05-.04,.11-.07,.17-.1l.33-.14c.1-.06,.2-.14,.25-.24,.16-.08,.21-.09,.24-.09,.27-.06,.59-.12,.94-.2,.35-.07,.67-.11,.96-.11h.34s-.01,.06-.01,.06c-.06,.12-.11,.27-.15,.44-.04,.14-.13,.3-.29,.51-.08,.14-.18,.3-.28,.47-.11,.18-.22,.4-.3,.63-.22,.49-.4,.89-.53,1.19-.22,.48-.22,.56-.22,.6,0,.19,.09,.36,.26,.48,.16,.12,.34,.18,.54,.18,.29,0,.64-.21,1.08-.65,.41-.41,.83-.9,1.24-1.45,.41-.55,.77-1.1,1.06-1.62,.3-.55,.45-.95,.45-1.24,0-.27-.13-.54-.39-.8-.24-.24-.54-.45-.87-.63-.33-.18-.69-.32-1.05-.42-.37-.11-.67-.16-.9-.16-.08,0-.25,.02-.71,.21-.33,.13-.71,.25-1.14,.37l-1.25,.39c-.36,.11-.62,.21-.79,.3-.09,0-.21,.03-.37,.07-.18,.05-.34,.12-.47,.2-.13,.05-.29,.1-.49,.14-.26,.06-.34,.06-.36,.06-.07,0-.1-.01-.1-.12,0-.05,0-.08,0-.08l.08-.08v-.06c0-.08,.04-.16,.12-.25,.07-.08,.12-.16,.14-.24,0-.03,.03-.07,.08-.13,.04-.07,.11-.13,.2-.2,.13-.09,.23-.23,.3-.42,.04-.06,.06-.13,.06-.24,0-.06,.02-.12,.06-.18l.02-.04v-.24c0-.05,0-.1,.03-.13v-.05h.05v-.04c.19-.02,.23-.27,.24-.37,.03-.13,.04-.28,.04-.44v-.46c0-.39-.07-.74-.2-1.04-.13-.29-.38-.56-.74-.8l-.07-.14-.19-.21h-.1c-.09,0-.13,0-.14,0v-.03h-.07s0,0-.03-.02c-.11-.38-.45-.66-1.01-.84-.55-.18-1.05-.27-1.5-.27-.54,0-.59,.34-.59,.49,0,.31,.12,.55,.35,.69,.14,.09,.24,.15,.32,.19,.1,.03,.2,.05,.29,.05,.04,0,.14,.01,.3,.07,.28,.16,.53,.38,.74,.66,.2,.26,.3,.72,.3,1.35,0,.36-.1,.79-.3,1.29-.2,.51-.45,1.03-.73,1.55-.28,.52-.58,1.01-.88,1.47-.3,.46-.56,.85-.78,1.17-.38,.55-.79,1.15-1.21,1.78-.43,.64-.79,1.27-1.09,1.87-.19,.29-.44,.73-.75,1.29Z"/>
        <path class="cls-1" d="M481.12,32.1c-.07-.41-.21-.75-.42-1-.15-.19-.53-.48-1.16-.9-.61-.4-1.28-.82-2-1.24-.72-.42-1.4-.79-2.04-1.09-.67-.32-1.11-.47-1.35-.47-.18,0-.33,.08-.46,.23-.12,.14-.18,.32-.18,.53v.04c0,.2,.1,.32,.16,.36,.06,.06,.12,.12,.18,.17,.04,.03,.09,.09,.13,.16l.03,.04c.19,.14,.34,.27,.46,.38,.12,.11,.19,.18,.23,.22,.14,.12,.28,.23,.44,.35,.15,.12,.27,.21,.35,.26h.03c.13,.07,.23,.12,.3,.17,.07,.05,.14,.13,.21,.23l.04,.04c.42,.28,.85,.62,1.28,1.01,.05,.08,.16,.14,.35,.2,.06,.09,.15,.19,.26,.31,.18,.24,.31,.47,.39,.69,0,.06,.05,.13,.16,.18,.08,.04,.19,.06,.35,.06h.29s.06,0,.06,0l.04,.04h.06s.04,0,.05,0c.03,.04,.06,.08,.1,.11v.11c.05,.09,.12,.15,.2,.2,.06,.03,.15,.07,.29,.12,.14,.05,.32,.07,.56,.07,.16,0,.28-.02,.36-.05,.06-.03,.12-.05,.17-.08,.07-.01,.12-.06,.13-.13,.03-.06,.05-.16,.05-.31,0-.27-.03-.6-.1-1Z"/>
        <path class="cls-1" d="M455.18,32.58c-.13-.22-.26-.42-.41-.59-.17-.19-.32-.29-.48-.29h-.08l-.11,.18c-.13,.13-.2,.29-.2,.46-.03,.07-.05,.15-.06,.25-.01,.11-.04,.17-.04,.18-.06,.09-.11,.18-.15,.28-.03,.07-.09,.15-.16,.22-.13,.14-.2,.32-.2,.54-.05,.12-.08,.24-.08,.36,0,.1-.02,.15-.03,.18-.03,.07-.06,.13-.07,.2,0,.02-.01,.03-.03,.04l-.08,.07h-.08l-.03,.1c-.03,.1-.05,.22-.05,.35,0,.1-.01,.19-.03,.25-.06,.15-.1,.31-.13,.46-.02,.12-.06,.21-.13,.28l-.03,.04c-.06,.14-.1,.26-.1,.37,0,.06-.02,.15-.08,.26-.02,.07-.05,.13-.08,.18-.04,.06-.09,.13-.16,.25-.05,.13-.1,.24-.16,.31-.08,.1-.15,.24-.21,.44v.04c0,.06-.03,.15-.07,.24-.06,.13-.09,.26-.1,.4-.03,.15-.04,.28-.04,.38v.37c0,.38,.22,.67,.66,.87,.4,.18,.78,.27,1.13,.27,.54,0,.64-.85,.67-1.11,.08-.32,.16-.62,.23-.91,.07-.28,.12-.47,.17-.58v-.04c.04-.18,.1-.38,.2-.58,.11-.22,.21-.46,.3-.7,.05-.23,.11-.46,.18-.69,.07-.23,.13-.43,.19-.63,.03-.19,.04-.34,.04-.46,0-.1,.03-.23,.08-.39v-.04s.01-.08,.04-.17c.02-.05,.06-.09,.14-.13l.08-.04v-.17c0-.13-.04-.32-.13-.57-.08-.24-.19-.47-.32-.7Z"/>
        <path class="cls-1" d="M463.79,21.32c.03-.15,.05-.3,.06-.45,.01-.14,.03-.26,.06-.36,.05-.18,.11-.36,.17-.57,.05-.2,.11-.37,.17-.54,.03-.2,.05-.4,.06-.59,.01-.19,.02-.36,.02-.51,0-.29-.11-.62-.33-1-.23-.41-.51-.62-.84-.62-.3,0-.45,.4-.5,.52-.03,.07-.06,.14-.07,.2,0,.03-.03,.07-.07,.11l-.03,.05c-.03,.1-.05,.19-.05,.28,0,.04,0,.05,0,.05l-.03,.03v.04c-.04,.12-.1,.36-.21,.73-.11,.38-.23,.76-.35,1.15s-.24,.75-.35,1.08c-.13,.38-.17,.51-.19,.56-.14,.17-.24,.33-.31,.46-.07,.13-.14,.27-.23,.42-.11,.24-.19,.45-.22,.62-.03,.17-.04,.31-.04,.44,0,.26,.11,.57,.33,.96,.23,.41,.48,.62,.76,.62,.29,0,.56-.17,.81-.49,.22-.29,.43-.65,.63-1.04,.19-.4,.36-.8,.5-1.21,.14-.42,.22-.72,.25-.93Z"/>
        <path class="cls-1" d="M458.56,24.59c.01-.64,.02-1.26,.02-1.86,.03-.69,.05-1.33,.08-1.91,.03-.57,.08-1.1,.16-1.61v-.09s0-.03,.01-.07c.02-.06,.03-.12,.03-.19,0-.14,0-.26,.02-.37,.01-.12,.02-.29,.02-.49v-4.27l-.04-.04c-.06-.06-.16-.16-.32-.29-.15-.13-.29-.25-.41-.35-.14-.18-.29-.36-.46-.55-.14-.16-.21-.3-.21-.41,0-.05,.02-.19,.17-.5,.12-.25,.27-.49,.46-.72,.16-.23,.36-.5,.59-.8,.23-.31,.46-.64,.67-.97,.6-.76,1.12-1.48,1.53-2.17,.42-.7,.64-1.32,.64-1.83,0-.33-.09-.58-.28-.74-.17-.15-.41-.25-.71-.31-.32-.14-.75-.42-1.28-.85-.11-.08-.21-.17-.3-.25-.1-.09-.2-.16-.32-.23l-.07-.07h-.01s-.07-.04-.13-.04h-.04c-.42,0-.51,.17-.51,.32,0,.26,.06,.45,.19,.57l.07,.15c.03,.07,.08,.13,.14,.17,.04,.07,.07,.11,.11,.13,0,0,.01,.01,.05,.08,.13,.17,.26,.35,.38,.55,.11,.18,.16,.36,.16,.53,0,.36-.1,.77-.3,1.22-.2,.47-.45,.94-.73,1.39-.28,.46-.59,.89-.91,1.29-.32,.4-.62,.73-.91,1.01-.16,.23-.25,.38-.29,.48-.02,.02-.05,.05-.09,.07-.07,.06-.13,.13-.16,.2l-.08,.17c-.03,.06-.06,.14-.09,.23-.05,.14-.12,.32-.2,.52-.08,.19-.15,.34-.23,.44-.11,.14-.3,.39-.57,.74-.28,.35-.58,.71-.9,1.08-.33,.38-.64,.73-.94,1.06-.3,.33-.51,.55-.63,.65-.16,.11-.3,.21-.42,.28-.13,.08-.27,.18-.41,.29-.12,.1-.23,.22-.34,.38-.11,.17-.17,.38-.17,.64,0,.04,0,.08-.01,.11-.02,.06-.03,.11-.03,.15s0,.14,.1,.49c.08,.17,.21,.26,.38,.26h.1l.18-.19s.04-.02,.06-.03c.06,0,.12-.03,.18-.06,.04-.02,.06-.03,.06-.03h.1c.25-.03,.57-.22,1-.58,.4-.33,.81-.72,1.22-1.16,.41-.43,.79-.87,1.14-1.31,.35-.44,.59-.78,.71-.99l.04-.05c.09-.01,.18-.06,.24-.13l.03-.03v-.04c.02-.09,.06-.1,.11-.1s.07,.02,.09,.06c.04,.1,.09,.19,.15,.26,.02,.06,.03,.17,.05,.35,.01,.19,.03,.38,.06,.56,.05,.28,.09,.54,.1,.78,.01,.24,.02,.41,.02,.49,0,1.06-.05,2.14-.14,3.2-.1,1.06-.17,2.1-.23,3.09-.03,.44-.05,.84-.06,1.2-.01,.36-.05,.74-.1,1.14l-.08,.87c-.03,.29-.04,.57-.04,.84,0,.45,.07,.85,.19,1.2,.15,.39,.5,.59,1.06,.59,.44,0,.75-.25,.9-.71,.12-.41,.22-.81,.27-1.2,.05-.49,.09-1.06,.1-1.71Z"/>
        <path class="cls-1" d="M476.01,36.84l-.02-.04c-.14-.2-.23-.34-.28-.43-.06-.09-.12-.17-.18-.24-.04-.04-.11-.09-.23-.09-.03,0-.05,0-.08-.02-.06-.06-.14-.11-.21-.14-.01,0-.06-.03-.11-.15l-.02-.03-.03-.02c-.07-.05-.13-.12-.19-.2-.07-.11-.15-.21-.24-.3l-.03-.03h-.04s-.12-.03-.19-.28c-.03-.07-.07-.12-.11-.15l-.04-.06s-.07-.11-.09-.19v-.04s-.04-.03-.04-.03c-.04-.04-.13-.15-.36-.45-.19-.24-.39-.53-.62-.86-.3-.32-.55-.57-.74-.76-.28-.27-.39-.33-.44-.35-.08-.04-.17-.06-.27-.06-.62,0-.72,.36-.72,.58,0,.19,.06,.48,.17,.89,.11,.41,.24,.71,.4,.91,.13,.14,.17,.2,.19,.24,.13,.22,.21,.33,.27,.39,0,.06,.03,.16,.08,.32v.04s.05,.03,.05,.03c.1,.08,.22,.2,.35,.37,.14,.18,.31,.37,.48,.55,.13,.23,.24,.44,.32,.65,.08,.2,.11,.39,.11,.58s-.12,.33-.37,.46c-.29,.15-.6,.28-.92,.36-.72,.23-1.27,.34-1.64,.34-.13,0-.26-.01-.4-.04-.16-.03-.31-.05-.46-.05-.33,0-.67,0-1.01,.02-.33,.02-.7,0-1.12-.07-.07,0-.15-.02-.26-.06-.11-.04-.2-.08-.27-.13l-.06-.02h-.05s-.09-.07-.13-.08c-.06-.04-.14-.05-.26-.05-.3,0-.65-.11-1.04-.33-.4-.23-.79-.51-1.16-.85-.38-.34-.74-.71-1.08-1.1-.34-.38-.6-.73-.78-1.04-.13-.25-.32-.69-.55-1.29-.23-.61-.5-1.21-.8-1.79-.3-.67-.63-1.24-.96-1.7-.37-.5-.65-.73-.89-.73-.18,0-.34,.08-.46,.23-.12,.14-.18,.33-.18,.57,0,.13,.03,.35,.08,.68,.06,.33,.16,.67,.29,1.01,.11,.38,.22,.71,.33,.99,.11,.27,.19,.48,.25,.63,.3,.79,.61,1.48,.91,2.08,.3,.6,.65,1.16,1.04,1.67,.39,.51,.84,.99,1.33,1.43,.5,.44,1.09,.89,1.81,1.37,.38,.14,.76,.3,1.12,.45,.38,.16,.75,.29,1.09,.37,.28,.12,.61,.2,.98,.25,.36,.04,.67,.08,.96,.11h2.67c.14,0,.27,0,.39-.02,.11-.02,.24-.04,.38-.07,.26-.06,.62-.21,1.1-.45,.46-.23,.94-.5,1.41-.79,.47-.29,.88-.6,1.23-.9,.38-.34,.56-.62,.56-.87,0-.16-.02-.34-.06-.57-.04-.22-.09-.44-.15-.64Z"/>
      </g>
    </g>
  </g>
</svg>