<?xml version="1.0" encoding="UTF-8"?>
<svg id="_圖層_2" data-name="圖層 2" xmlns="http://www.w3.org/2000/svg" viewBox="0 0 661.09 31.82">
  <defs>
    <style>
      .cls-1 {
        fill: #fff;
      }
    </style>
  </defs>
  <g id="_圖層_2-2" data-name="圖層 2">
    <g>
      <path class="cls-1" d="M5.39,23.73c-.07,.2-.29,.34-.68,.31-.68,2.18-1.75,4.66-2.96,6.19-.43-.31-1.21-.71-1.75-.95,1.18-1.46,2.18-3.88,2.82-6.22l2.57,.68Zm27.74,4.56v1.94h-14.03v1.46h-2.21v-14.72c-.61,.78-1.25,1.53-1.89,2.14-.36-.37-1.14-.92-1.64-1.22,.96,1.46,1.79,3.09,2.18,4.25l-1.86,.75c-.14-.48-.36-1.02-.64-1.6-1.36,.03-2.68,.1-4,.14v10.27h-2.21v-10.2c-2.11,.07-4,.14-5.5,.17-.04,.27-.25,.41-.54,.44L.11,19.68l3.93-.03c.64-.61,1.32-1.29,2.04-2.01-1.29-1.36-3.43-3.03-5.28-4.25l1.32-1.36,1.71,1.12c1.11-1.36,2.32-3.09,3.11-4.45H2.5V1.43H30.81v7.28H7.28l2.04,1.02c-.11,.2-.39,.27-.71,.24-.82,1.26-2.14,2.96-3.32,4.28,.82,.65,1.61,1.29,2.18,1.9,1.54-1.7,2.96-3.47,4-4.93l2.32,1.22c-.18,.2-.46,.27-.75,.24-1.68,2.07-4.14,4.79-6.39,6.94l5.5-.03c-.5-.95-1.11-1.9-1.71-2.72l1.75-.65c.39,.51,.79,1.05,1.14,1.63,2.21-2.07,4.46-5.58,5.82-8.98l2.68,.78c-.11,.2-.36,.34-.79,.31-.54,1.22-1.14,2.45-1.86,3.64h4.43c.75-1.39,1.61-3.23,2.07-4.56l2.64,.82c-.11,.2-.36,.31-.71,.31-.46,.99-1.11,2.28-1.79,3.43h6.75v1.94h-6.53v3.03h5.68v1.77h-5.68v3.06h5.68v1.8h-5.68v3.09h7.11ZM4.82,3.23v3.67h6.21V3.23H4.82ZM13.21,29.34c-.36-1.53-1.46-3.94-2.57-5.75l1.82-.61c1.18,1.77,2.32,4.15,2.71,5.64l-1.96,.71Zm.04-26.11v3.67h6.43V3.23h-6.43Zm10.6,15.33v-3.03h-4.75v3.03h4.75Zm0,4.83v-3.06h-4.75v3.06h4.75Zm-4.75,1.8v3.09h4.75v-3.09h-4.75ZM21.92,3.23v3.67h6.5V3.23h-6.5Z"/>
      <path class="cls-1" d="M55.44,21.11v2.07h-17.96v-2.07h3.54V6.77h-3v-2.07h3V.37l2.89,.2c-.04,.2-.21,.37-.68,.44v3.67h7.25V.37l2.93,.2c-.04,.2-.21,.37-.68,.44v3.67h2.43v2.07h-2.43v14.35h2.71Zm-9.96,3.74c-.11,.24-.36,.31-.75,.31-1.25,2.21-3.25,4.62-5.14,6.15-.43-.41-1.25-.99-1.79-1.33,1.82-1.39,3.75-3.71,4.89-6.02l2.79,.88Zm5-18.09h-7.25v3.37h7.25v-3.37Zm-7.25,5.27v3.43h7.25v-3.43h-7.25Zm0,5.3v3.77h7.25v-3.77h-7.25Zm27.64-5.75v2.11h-3.64V31.62h-2.29V13.7h-5.75v1.46c0,4.9-.54,11.59-4.53,16.35-.32-.48-1.14-1.22-1.71-1.5,.29-.34,.57-.71,.82-1.09l-1.57,.92c-.75-1.33-2.39-3.43-3.82-4.93l1.86-.99c1.36,1.36,3,3.3,3.78,4.62,2.61-4.15,2.93-9.28,2.93-13.46V3.3l1.89,.58c3.5-.92,7.21-2.14,9.35-3.33l2.25,1.8c-.11,.1-.39,.17-.68,.1-2.54,1.19-6.75,2.41-10.57,3.33v5.81h11.68Z"/>
      <path class="cls-1" d="M86.65,6.39l1.57,.88c-.11,.14-.25,.27-.46,.31-1.11,2.75-2.75,5.44-4.61,7.85,1.46,1.05,4.36,3.33,5.18,3.94l-1.39,2.04c-.82-.92-2.68-2.55-4.14-3.81v14.01h-2.36v-13.05c-1.39,1.43-2.86,2.72-4.32,3.74-.25-.61-.89-1.6-1.29-2.01,3.86-2.55,7.93-7.04,10.14-11.69h-9.57v-2.11h5.03V.03l3.04,.17c-.04,.24-.21,.41-.68,.48V6.49h3.43l.43-.1Zm1.21-5.17h20.21V3.23h-20.21V1.22Zm.79,30.39v-15.09h18.35v14.96h-2.36v-1.5h-13.71v1.63h-2.29Zm2.11-25.91h14.21V14.04h-14.21V5.71Zm5.82,12.82h-5.64v3.74h5.64v-3.74Zm-5.64,9.48h5.64v-3.81h-5.64v3.81Zm11.78-15.84V7.58h-9.78v4.59h9.78Zm1.93,10.1v-3.74h-5.82v3.74h5.82Zm-5.82,5.75h5.82v-3.81h-5.82v3.81Z"/>
      <path class="cls-1" d="M141.66,3.5l1.57,.71c-.04,.17-.21,.27-.32,.37-1.14,3.37-2.96,6.32-5.18,8.87,2.29,2.18,5.11,4.08,8.43,5.3-.5,.41-1.18,1.29-1.5,1.87-.5-.2-1-.44-1.5-.68v11.56h-2.32v-1.33h-9.53v1.43h-2.25v-11.35c-.75,.41-1.54,.78-2.29,1.09-.32-.54-.93-1.39-1.43-1.8l1-.41h-4.96v6.6l5.82-1.29,.21,1.94c-4.96,1.22-10.21,2.48-13.53,3.26-.04,.27-.21,.44-.46,.51l-1-2.48,1.93-.41V15.33l2.71,.2c-.04,.2-.21,.37-.64,.44v10.84l2.79-.61V12h-4.96V1.56h11.64V10.84c2.79-2.45,5.28-6.56,6.75-10.84l2.82,.82c-.11,.24-.39,.34-.75,.31-.32,.82-.68,1.67-1.04,2.48h7.57l.43-.1Zm-25.24,.07v6.39h7.21V3.57h-7.21Zm10.32,13.53v1.87c2.86-1.29,5.64-3.2,8.03-5.61-1.5-1.73-2.71-3.57-3.64-5.27-1.14,1.7-2.39,3.2-3.71,4.39-.36-.37-1.04-.92-1.54-1.29v.82h-4.5v5.1h5.36Zm15.1,2.14c-2.11-1.22-3.93-2.69-5.53-4.28-1.68,1.67-3.54,3.09-5.43,4.28h10.96Zm-10.53,8.91h9.53v-6.9h-9.53v6.9Zm1-22c.93,1.87,2.21,3.84,3.86,5.68,1.61-1.87,2.93-3.94,3.86-6.22h-7.39l-.32,.54Z"/>
      <path class="cls-1" d="M150.87,26.72h31.38v2.31h-31.38v-2.31Zm2.07-23.36h27.31v2.31h-27.31V3.37Zm2.32,11.32h22.21v2.31h-22.21v-2.31Z"/>
      <path class="cls-1" d="M192.53,23.42c3.04-.51,6.46-1.12,9.82-1.7l.14,1.97c-3.43,.68-7,1.36-9.96,1.9v6.02h-2.29v-5.58l-1.54,.31c-.04,.24-.25,.41-.46,.48l-.96-2.58,2.96-.44V2.72l1.79,.58c3.11-.92,6.46-2.11,8.36-3.26l2.32,1.77c-.18,.14-.43,.17-.71,.1-2.29,1.12-6.03,2.35-9.46,3.23v4.08h8.57v2.18h-8.57v4.45h8.89v2.14h-8.89v5.44Zm24.64-8.19l1.57,.65c-.07,.17-.18,.27-.32,.34-1.21,3.77-3.25,6.87-5.86,9.32,2.32,1.84,5.11,3.2,8.32,4.05-.54,.51-1.21,1.39-1.57,2.01-3.29-.99-6.14-2.52-8.53-4.56-2.64,2.07-5.78,3.6-9.07,4.62-.29-.58-.86-1.5-1.36-2.01,3.14-.85,6.18-2.24,8.78-4.18-2-2.14-3.57-4.66-4.68-7.55l1.75-.48h-3.25v-2.11h13.78l.43-.1Zm-9.82-11.69v3.13c0,2.82-.68,6.26-4.18,8.53-.32-.48-1.14-1.29-1.64-1.56,3.14-2.01,3.57-4.69,3.57-7V1.5h10.6V10.03c0,1.09,.04,1.33,.82,1.33h1.14c1.29,0,1.29-.14,1.39-3.84,.43,.37,1.25,.71,1.86,.88-.07,1.36-.18,2.89-.36,3.4-.36,.88-1.11,1.43-2.68,1.43h-1.82c-2.64,0-2.64-1.5-2.64-3.4V3.54h-6.07Zm-.75,13.9c1,2.48,2.43,4.69,4.25,6.56,1.96-1.84,3.54-4.01,4.61-6.56h-8.85Z"/>
      <path class="cls-1" d="M228.2,15.23c1.21-1.7,3.39-3.13,6.25-3.13,4.53,0,7.57,3.23,7.57,8.13s-3,8.91-8.21,8.91-8.71-4.11-8.71-10.71,3.36-13.97,12.03-15.33c1-.14,1.89-.24,2.5-.24l.04,2.35c-7.43,0-10.96,5.13-11.57,10.03h.11Zm10.82,5.2c0-3.91-2.21-6.19-5.43-6.19s-5.53,2.92-5.53,4.83c.04,4.66,2.11,7.85,5.82,7.85,3.11,0,5.14-2.65,5.14-6.49Z"/>
      <path class="cls-1" d="M251.86,15.23c-2.89-1.33-4.18-3.57-4.18-5.75,0-3.94,3.25-6.63,7.57-6.63,4.86,0,7.18,3.13,7.18,6.19,0,2.18-1.21,4.56-4.39,6.02v.14c3.29,1.33,5.32,3.6,5.32,6.66,0,4.32-3.71,7.28-8.43,7.28-5.11,0-8.25-3.09-8.25-6.77,0-3.3,2.07-5.68,5.18-7v-.14Zm8.46,6.94c0-3.2-2.25-4.83-5.78-5.92-3.14,.99-4.82,3.16-4.82,5.68,0,2.89,2.04,5.1,5.25,5.1,3.43,0,5.36-2.21,5.36-4.86Zm-9.82-12.95c-.04,2.72,2,4.22,4.96,5.07,2.32-.85,4.07-2.58,4.07-5,0-2.14-1.25-4.35-4.39-4.35s-4.64,2.07-4.64,4.28Z"/>
      <path class="cls-1" d="M278.46,18.63l1.29,.2-.11,.71c-.57,7.41-1.14,10.23-2.14,11.22-.82,.88-1.86,.92-3.25,.92-.75,0-1.68-.03-2.61-.1-.04-.58-.29-1.46-.68-2.01,1.54,.14,2.93,.14,3.54,.14,.54,0,.89-.07,1.18-.34,.68-.65,1.21-2.96,1.68-8.7h-5.28c-.21,.82-.43,1.6-.64,2.24-1.71-.31-1.93-.37-2.18-.41,.61-1.87,1.32-4.69,1.86-7.07h-3.21v-2.04h13.57v2.04h-8.1c-.25,1.05-.54,2.18-.79,3.26h5.39l.5-.07Zm1.39-17.27V10.81h-10.25V1.36h10.25Zm-2.29,7.51V3.3h-5.82v5.58h5.82Zm7.14-.07v6.9c0,4.79-.54,11.52-3.89,16.11-.39-.41-1.29-1.05-1.82-1.29,3.14-4.35,3.5-10.37,3.5-14.82V6.87h7.21V0l3,.17c-.04,.24-.21,.41-.68,.48v1.84h7.36v1.94h-7.36v2.45h7.96l1.18,.03c0,.51-.75,4.45-1.32,6.29l-1.86-.41c.25-1.02,.5-2.52,.71-3.98h-14Zm6,11.08c-.07,.24-.29,.37-.68,.44-.39,4.45-1.36,8.74-5.28,11.25-.32-.51-.96-1.19-1.46-1.5,3.43-2.11,4.32-6.02,4.61-10.44l2.82,.24Zm1.25-4.42c0,.71,.14,.82,1.18,.82h3.53c.82,0,1-.24,1.11-2.28,.46,.31,1.29,.58,1.89,.71-.21,2.65-.82,3.33-2.71,3.33h-4.03c-2.5,0-3.14-.48-3.14-2.55v-1.56l-3.89,.37-.25-1.7,4.14-.41v-3.06l2.86,.17c-.04,.2-.25,.37-.68,.44v2.24l4.61-.44,.21,1.67-4.82,.48v1.77Zm3.36,12.48c0,1.02,.04,1.33,1.07,1.33h1.43c1.61,0,1.61-.31,1.71-4.05,.43,.37,1.14,.71,1.71,.92-.11,3.6-.14,4.93-3.32,4.93h-2c-.71,0-1.57-.17-2.11-.54-.54-.41-.71-.92-.71-2.86v-8.19l2.89,.17c-.04,.24-.21,.37-.68,.44v7.85Z"/>
      <path class="cls-1" d="M359.68,6.02c-.79-.48-2.5-1.19-4.78-1.19-3.78,0-5.21,2.21-5.21,4.08,0,2.55,1.64,3.84,5.28,5.3,4.39,1.77,6.64,3.91,6.64,7.62,0,4.11-3.14,7.28-9,7.28-2.46,0-5.14-.71-6.5-1.63l.82-2.35c1.46,.92,3.64,1.6,5.86,1.6,3.64,0,5.78-1.87,5.78-4.66,0-2.55-1.46-4.11-5-5.47-4.11-1.46-6.89-3.74-6.89-7.31,0-3.94,3.36-6.83,8.32-6.83,2.57,0,4.53,.61,5.57,1.22l-.89,2.35Z"/>
      <path class="cls-1" d="M378.74,16.32c2.11,.65,3.36,2.58,4,5.41,.86,3.74,1.46,6.02,2,7h-3.07c-.43-.75-1.04-3.03-1.75-6.26-.79-3.6-2.29-5.2-5.5-5.2h-3.32v11.46h-2.96V3.2c1.68-.34,4.03-.54,6.18-.54,3.54,0,5.86,.68,7.46,2.11,1.29,1.12,2.04,2.89,2.04,4.83,0,3.43-2.18,5.64-5.07,6.63v.1Zm-4.14-1.22c3.78,0,6.21-2.04,6.21-5.17,0-3.84-3.04-5.03-6.36-5.03-1.61,0-2.75,.14-3.36,.27V15.09h3.5Z"/>
      <path class="cls-1" d="M408.34,27.95c-1.25,.58-3.68,1.16-6.78,1.16-7,0-12.64-4.32-12.64-13.09s5.46-13.56,13.43-13.56c3.25,0,5.14,.65,6,1.05l-.79,2.38c-1.25-.58-3-1.05-5.14-1.05-6.18,0-10.39,3.94-10.39,11.08s3.86,10.81,10.21,10.81c2.07,0,4.11-.44,5.46-1.05l.64,2.28Z"/>
      <path class="cls-1" d="M423.97,7.31v4.18h8.68v2.11h-8.68v3.4h7.28v9.59c0,2.21-1,2.38-5.32,2.38-.07-.61-.36-1.39-.64-1.94,.79,0,1.46,.03,2.04,.03,1.54,0,1.71,0,1.71-.48v-7.48h-5.07v12.48h-2.29v-12.48h-4.86v9.82h-2.21v-11.93h7.07v-3.4h-9v-2.11h9V7.31h-4.78c-.46,1.56-1,3.03-1.57,4.11-.5-.34-1.39-.68-1.96-.92,1.14-2.24,2.07-6.05,2.68-9.59l2.86,.68c-.07,.24-.29,.37-.75,.37-.18,1.02-.39,2.11-.68,3.2h4.21V.03l3,.2c-.04,.24-.21,.37-.71,.44V5.17h7.32v2.14h-7.32Zm13.43-2.96c-.04,.24-.21,.41-.68,.44V23.19h-2.29V4.18l2.96,.17Zm4.57-3.67l3,.17c-.04,.24-.21,.41-.68,.48V28.63c0,2.92-1.61,3.06-7.18,2.99-.14-.58-.5-1.56-.82-2.24,1.32,.03,2.54,.07,3.46,.07,1.89,0,2.21,0,2.21-.82V.68Z"/>
      <path class="cls-1" d="M469.1,23.7c1,1.16,2.32,2.14,3.82,2.99,1.86-.71,4.18-1.84,5.57-2.72l2.04,1.26c-.07,.17-.18,.17-.64,.17-1.32,.68-3.39,1.53-5.14,2.18,2.54,1.12,5.53,1.9,8.75,2.31-.46,.41-1,1.19-1.29,1.77-6.71-1.09-12.35-3.77-15.39-7.96h-4.36v5.07c2.78-.14,5.89-.34,8.96-.54l-.07,1.63c-5.07,.44-10.46,.85-13.78,1.09-.04,.24-.21,.41-.46,.44l-.86-2.24,3.78-.2v-5.24h-4.46c-.46,2.69-1.54,5.51-3.93,7.65-.32-.41-1.21-1.16-1.71-1.43,3.25-2.89,3.71-6.83,3.71-9.86v-4.79h27.96v1.7h-25.74v3.13c0,.61-.04,1.26-.07,1.9h27.31v1.7h-14Zm-15.39-16.79v4.28h-2.18V5.34h13.93V3.26h-11.89V1.46h26.35v1.8h-12.1v2.07h14.21v5.85h-2.29V6.9h-11.93v7.48h-2.36V6.9h-11.75Zm1.11,6.56v-1.43h8.71v1.43h-8.71Zm.79-4.66h7.89v1.43h-7.89v-1.43Zm23.78,11.42h-21.49v-1.56h21.49v1.56Zm-9.6-11.42h8.11v1.43h-8.11v-1.43Zm0,4.66v-1.43h9.03v1.43h-9.03Z"/>
      <path class="cls-1" d="M544.35,28.73h-15.82v-1.73l2.61-2.62c6.36-6.12,9.57-9.83,9.57-13.97,0-2.72-1.25-5.24-5.11-5.24-2.14,0-4.07,1.12-5.36,2.11l-1-1.97c1.64-1.39,4.07-2.48,6.93-2.48,5.39,0,7.53,3.74,7.53,7.24,0,4.79-3.53,8.87-9.07,14.18l-2.11,2.11v.07h11.82v2.31Z"/>
      <path class="cls-1" d="M563.45,16.69c-1.46,1.77-3.53,2.82-6.14,2.82-4.57,0-7.39-3.4-7.39-7.72,0-4.66,3.21-8.94,8.46-8.94s8.18,4.15,8.18,10.64c0,8.47-4.5,14.35-11.35,15.37-1.25,.2-2.39,.27-3.18,.24v-2.35c.75,.07,1.61-.03,2.75-.17,4.5-.61,7.89-4.08,8.78-9.89h-.11Zm-10.53-5.07c0,3.43,2.04,5.75,5.11,5.75,2.89,0,5.53-2.11,5.53-4.15,0-4.9-1.89-8.19-5.43-8.19-3.11,0-5.21,2.79-5.21,6.6Z"/>
      <path class="cls-1" d="M570.94,17.27h9.75v2.18h-9.75v-2.18Z"/>
      <path class="cls-1" d="M588.19,15.23c1.21-1.7,3.39-3.13,6.25-3.13,4.53,0,7.57,3.23,7.57,8.13s-3,8.91-8.21,8.91-8.71-4.11-8.71-10.71,3.36-13.97,12.03-15.33c1-.14,1.89-.24,2.5-.24l.04,2.35c-7.43,0-10.96,5.13-11.57,10.03h.11Zm10.82,5.2c0-3.91-2.21-6.19-5.43-6.19s-5.53,2.92-5.53,4.83c.04,4.66,2.11,7.85,5.82,7.85,3.11,0,5.14-2.65,5.14-6.49Z"/>
      <path class="cls-1" d="M621.75,3.26v2.35h-9.6l-1.11,7.21c.57-.07,1.14-.14,2.07-.14,4.75,0,9,2.69,9,7.82s-3.93,8.64-9.21,8.64c-2.68,0-4.93-.75-6.14-1.5l.86-2.21c1,.65,2.96,1.43,5.28,1.43,3.36,0,6.25-2.35,6.21-6.02,0-3.5-2.36-5.95-7.36-5.95-1.43,0-2.54,.1-3.43,.24l1.68-11.86h11.75Z"/>
      <path class="cls-1" d="M635.28,10.71v10.91c1.64-.51,3.32-1.05,5-1.56l.36,2.01c-4.14,1.46-8.53,2.99-11.35,3.88,0,.31-.21,.51-.43,.58l-1.18-2.62c1.46-.41,3.28-.95,5.28-1.56V10.71h-4.68v-2.21h4.68V.34l3.04,.17c-.04,.24-.21,.41-.71,.48v7.51h4.57v2.21h-4.57Zm25.82,6.15v2.18h-9.82v12.58h-2.36v-12.58h-10.18v-2.18h10.18V4.01h-8.89V1.87h20.1v2.14h-8.85v12.85h9.82Zm-17.28-1.43c-.29-2.38-1.39-6.02-2.64-8.77l2.04-.58c1.36,2.79,2.46,6.36,2.79,8.74l-2.18,.61Zm15.92-8.47c-.07,.2-.36,.27-.75,.27-.79,2.48-2.14,6.12-3.28,8.43-.04-.03-1.82-.71-1.82-.71,1.11-2.38,2.43-6.29,3.11-8.98l2.75,.99Z"/>
    </g>
  </g>
  <g id="_圖層_1-2" data-name="圖層 1">
    <g>
      <path class="cls-1" d="M317.81,6.02V24.97h-2.64V6.02h2.64Z"/>
      <path class="cls-1" d="M512.55,6.02V24.97h-2.64V6.02h2.64Z"/>
    </g>
  </g>
</svg>