<?xml version="1.0" encoding="UTF-8"?>
<svg id="_圖層_2" data-name="圖層 2" xmlns="http://www.w3.org/2000/svg" viewBox="0 0 221.38 53.09">
  <defs>
    <style>
      .cls-1 {
        fill: #fff;
      }

      .cls-2 {
        fill: #e50003;
      }
    </style>
  </defs>
  <g id="_圖層_1-2" data-name="圖層 1">
    <g>
      <path class="cls-1" d="M53.09,26.54c0,14.66-11.88,26.54-26.54,26.54S0,41.2,0,26.54,11.88,0,26.54,0s26.54,11.88,26.54,26.54"/>
      <path class="cls-1" d="M124.05,12.21c0-.31-.24-.57-.56-.57h-5.28c.29-.49,.58-1.04,.93-1.62l.24-.4h3.6v-2.09c0-.32-.26-.57-.58-.57h-8.86c-.23-.66-.52-1.39-.84-1.96l-3.35,.61c.17,.4,.35,.9,.49,1.36h-9.81v2.66h4.06c.06,.11,.14,.27,.21,.43,.2,.46,.43,1.04,.58,1.59h-5.82v2.66h25v-2.09Zm-9.37-.57h-6.35c-.17-.61-.49-1.39-.81-2.02h7.96c-.2,.61-.52,1.36-.81,2.02"/>
      <path class="cls-1" d="M115.38,29.27h-6.05c-1.3,0-1.76-.09-1.76-.84v-2.44c0-.31-.25-.57-.57-.57h-2.79v3.04c0,2.72,1.12,3.55,4.76,3.55h7.66c2.69,0,3.25-1.82,3.27-4.82h-3.14c-.14,2.02-.32,2.08-1.39,2.08"/>
      <path class="cls-1" d="M121.6,24.16V15.92s0,0,0-.01c0-.31-.25-.56-.56-.57h-19.62v8.82h8.46l-.95,1.16c1.64,1.01,3.33,2.66,4.4,3.55l2.4-2.11c-.73-.58-2.5-1.86-3.87-2.59h9.74Zm-16.95-6.68h13.54v1.24h-13.54v-1.24Zm0,3.21h13.54v1.3h-13.54v-1.3Z"/>
      <path class="cls-1" d="M98.05,30.67h3.78c.69-1.54,1.43-4.07,1.83-5.24h-3.1c-.71,1.64-1.91,4.26-2.51,5.24"/>
      <path class="cls-1" d="M121.6,24.79l-2.15,1.34c1.12,1.29,3.23,3.72,3.89,4.68l2.43-2.13c-.63-.81-3.44-3.26-4.16-3.89"/>
      <path class="cls-1" d="M86.93,10.46h0c0-.32-.26-.57-.57-.58h-2.66V26.01h3.24V10.46Z"/>
      <path class="cls-1" d="M91.77,6c0-.32-.26-.58-.58-.58h-2.72V28.17c0,.49-.2,.64-.66,.64s-1.97,0-3.44-.03l1.01,3.44c2.31,0,3.96-.12,4.97-.69,1.07-.55,1.42-1.47,1.42-3.32V6h0Z"/>
      <path class="cls-1" d="M81.35,24.63h-10.15c.06-.29,.09-.85,.14-1.14h10.03V14.99h0c0-.32-.26-.58-.58-.58h-12.29v3.32c0,3.38-.23,8.77-2.52,12.44h3.66c.51-1.16,.91-2.64,1.2-3.95v5.61h11.07v-6.65c0-.31-.26-.57-.57-.57m-9.66-6.89v-1.06h6.56v1.23h-6.56v-.17Zm-.06,2.09h6.62v1.29h-6.68c.03-.4,.06-.91,.06-1.29m7.29,9.47h-5.2v-2.45h5.2v2.45Z"/>
      <path class="cls-1" d="M77.34,5.93l-2.12-1.13c-.39-.2-.59-.24-1.02,.28-2.1,2.57-4.58,5.23-8.2,8.65h4.39c.55-.51,1.21-1.11,1.65-1.65v1.36h7.02v-1.49c1.08,.84,2.02,1.58,2.31,1.82l1.66-2.87c-1.33-1-4.08-2.9-6.22-4.21,.17-.24,.35-.49,.52-.76m.9,5.38h-5.51c.67-.7,1.6-1.75,2.25-2.45,.43,.29,1.86,1.37,3.27,2.45"/>
      <path class="cls-1" d="M220.15,13.36h-4.57V5.94s0,0,0,0c0-.3-.24-.55-.54-.57h-2.76v7.99h-5.09v8.92c0,2.75-.46,7.43-1.76,9.77h3.38c.38-1.16,1-3.8,1.16-5.06,.57-.21,5.37-1.38,7.66-1.97v3.52c0,.38-.14,.52-.58,.52-.43,.03-1.82,.03-3.15-.06l.95,3.18c2.11,0,3.49-.03,4.5-.55,1.07-.52,1.36-1.44,1.36-3.04V13.94s0,0,0,0c0-.31-.25-.57-.56-.57m-2.52,8.83c-2.8,.64-5.38,1.27-7.43,1.68,.01-.28,.01-2.32,0-4.25,0,0,0,0,0,0v-.02c0-1.83,0-3.34,0-3.34h7.43v5.93Z"/>
      <path class="cls-1" d="M205.54,27.58l-3.33,.53v-7.47h3.38v-2.92h-3.38v-2.33h2.34s0-2.12,0-2.12c.52,.51,.94,.92,1.12,1.07l1.49-2.56c-1.12-1.03-2.56-2.46-4.63-4.14,.09-.12,.43-.66,.59-.88l-1.88-1.13c-.45-.24-.64-.33-1.1,.21-1.65,2.18-3.87,4.66-6.85,7.79h3.03v1.76h3.12v2.33h-4.02v2.92h4.02v7.93c-1.37,.21-2.95,.4-4.02,.56v3.22c2.81-.65,6.74-1.38,10.24-2.22l-.11-2.56Zm-7.26-14.89c.93-1.01,2.24-2.44,2.63-2.86,.44,.3,1.86,1.68,3.04,2.86h-5.67Z"/>
      <path class="cls-1" d="M202.73,26.53l2.03,.62c.48-1.21,1.04-3.07,1.61-4.71l-2.59-.65c-.26,1.54-.65,3.33-1.04,4.73"/>
      <path class="cls-1" d="M198.76,27.06c-.21-1.35-.69-3.47-1.17-5.09l-2.3,.6c.42,1.62,.87,3.74,1.02,5.18l2.46-.69Z"/>
      <path class="cls-1" d="M211.36,11.65c-.37-1.23-1.16-3.48-2.12-5.05l-2.75,1.24c1.35,2.3,1.84,4.41,2.05,4.94l2.82-1.13Z"/>
      <path class="cls-1" d="M221.38,7.8l-2.9-1.03c-.55,1.72-1.14,3.47-1.95,4.98l2.86,1.08c.8-1.53,1.43-3.12,1.99-5.03"/>
      <path class="cls-1" d="M217.4,19.65c-1.33-.78-3.9-1.68-5.9-2.08l-1.29,2.04v.02c1.99,.55,4.45,1.53,5.72,2.34l1.47-2.31Z"/>
      <path class="cls-1" d="M188.23,14.49h-14.53v3.27h7.58v10.51c0,.43-.2,.55-.72,.55-.52,.03-2.43,.03-4.08-.06l1.04,3.5c2.57,0,4.47-.06,5.68-.58,1.27-.52,1.62-1.47,1.62-3.32v-10.59h3.96v-2.7c0-.31-.25-.56-.56-.56"/>
      <path class="cls-1" d="M188.29,7.78h0c0-.31-.25-.57-.57-.58h-13.48v3.27h14.05v-2.69Z"/>
      <path class="cls-1" d="M171.41,11.44c-.54-.22-.76-.3-1.15,.24,0,0,0,0-.01,.01-2.41,3.33-5.42,6.74-8.32,9.67h4.45v10.79h3.44v-14.36c1.18-1.55,3.03-3.94,3.9-5.41l-2.29-.94Z"/>
      <path class="cls-1" d="M166.59,13.55c1.4-1.58,3.57-4.32,4.99-6.33l-2.24-.92-.16-.07c-.27-.1-.51-.14-.86,.32-.03,.03-.05,.06-.07,.09-1.82,2.39-4.36,5.09-6.09,6.91h4.44Z"/>
      <path class="cls-1" d="M151.13,20.81c1.27-.87,2.83-2,3.98-2.9l-2.13-1.89c-.42-.36-.66-.21-.92,.02-1.4,1.31-3.43,2.84-5.22,4.04-.58-1.24-1.42-2.46-2.54-3.5,.64-.4,1.21-1.01,1.73-1.48h6.29v-2.23s0,0,0,0c0-.31-.25-.57-.56-.57h-15.47v2.81h5.08c-2.75,1.38-6.15,2.66-9.42,3.33l1.76,2.69c2.72-.72,5.52-1.7,8.04-3.03,.24,.23,.6,.71,.78,1.06-2.51,1.68-7.22,3.39-10.78,4.14l1.7,2.66c3.3-1.01,7.48-2.87,10.37-4.69,.17,.38,.38,.83,.5,1.18-3.27,2.55-8.44,4.81-13.01,5.79l1.79,2.86c3.84-1.16,8.46-3.36,11.76-5.62,0,1.39-.42,2.5-.86,3.02-.47,.56-.93,.66-1.62,.66s-1.59-.03-2.6-.14l.93,3.27c.84,.03,1.71,.06,2.34,.03,1.5-.03,2.42-.31,3.49-1.29,1.4-1.29,2.12-4.61,1.31-8.07,.33-.22,.58-.41,.87-.62,1.43,3.5,3.56,6.43,6.36,8.24l2.84-2.49c-2.92-1.6-5.17-4.02-6.78-7.26"/>
      <path class="cls-1" d="M134.96,10.58h18.49v3.57h3.28v-5.8c0-.31-.26-.56-.57-.57h-9.72c-.29-.84-.78-1.96-1.24-2.74l-3.64,1.04c.23,.43,.49,1.15,.69,1.7h-10.46v6.36h3.18v-3.57Z"/>
      <path class="cls-2" d="M19.26,15.36c7.57-7.18,16.94-12.01,22.18-10.78C37.19,1.69,32.07,0,26.54,0,11.88,0,0,11.88,0,26.55c0,6.27,2.17,12.02,5.8,16.56-2.13-7.01,5.02-19.75,13.45-27.75"/>
      <path class="cls-2" d="M44.92,7.4c1.41,3.22-.28,8.43-6.14,14.72-7.03,7.55-12.23,10.93-15.61,8.85-3.38-2.08,4.94-13.02,7.55-14.57,2.6-1.56,1.56,3.12,1.56,3.12,0,0,11.45-7.03,8.07-10.93-2.18-2.52-13.28,5.46-19.26,13.27-5.98,7.81-9.27,15.76-5.72,19.52,4.42,4.69,14.57-1.57,23.16-8.07,3.12-2.34,3.12-.78,2.08,.78,0,0-15.69,19.84-29.68,13.91,4.39,3.2,9.79,5.09,15.63,5.09,14.66,0,26.54-11.88,26.54-26.54,0-7.53-3.14-14.32-8.17-19.15"/>
      <path class="cls-1" d="M110.63,39.26h-7.28v1.27h3.07v7.34h2.07v-7.34h2.89v-.48c0-.48-.1-.79-.75-.79"/>
      <path class="cls-1" d="M121.07,41.2c-.2-.33-.45-.62-.74-.88-.29-.26-.61-.48-.96-.67-.35-.18-.73-.32-1.14-.42-.41-.1-.84-.15-1.28-.15s-.88,.05-1.28,.15c-.41,.1-.79,.24-1.14,.42-.35,.18-.67,.4-.96,.67-.29,.26-.53,.56-.74,.89-.2,.33-.36,.68-.47,1.07-.11,.39-.17,.8-.17,1.24s.06,.86,.17,1.26c.11,.4,.27,.76,.47,1.1,.2,.34,.45,.64,.74,.91,.29,.27,.61,.5,.96,.69,.35,.19,.73,.34,1.14,.44,.41,.1,.84,.15,1.28,.15s.88-.05,1.28-.15c.41-.1,.79-.24,1.14-.43,.35-.19,.67-.42,.96-.68,.29-.27,.53-.57,.74-.91,.2-.34,.36-.71,.47-1.11,.11-.4,.17-.83,.17-1.29s-.05-.84-.17-1.23c-.11-.39-.27-.74-.47-1.07m-1.66,3.79c-.11,.45-.28,.84-.49,1.17-.22,.33-.49,.59-.81,.77-.32,.19-.69,.28-1.11,.28s-.8-.09-1.12-.28c-.32-.18-.59-.44-.81-.77-.22-.33-.38-.72-.49-1.17s-.17-.95-.17-1.48,.06-1.01,.17-1.45c.11-.44,.27-.81,.49-1.13,.22-.31,.48-.56,.81-.74,.32-.18,.69-.26,1.12-.26s.79,.09,1.11,.26c.32,.18,.59,.42,.81,.74,.22,.32,.38,.69,.49,1.13,.11,.44,.17,.92,.17,1.45s-.05,1.03-.17,1.48"/>
      <path class="cls-1" d="M128.74,43.39c.24-.14,.45-.31,.62-.49,.17-.18,.31-.38,.4-.6,.09-.22,.14-.45,.14-.69,0-.34-.07-.65-.21-.94-.14-.29-.35-.53-.63-.74-.28-.21-.63-.37-1.04-.49-.42-.12-.91-.18-1.46-.18h-2.01c-.58,0-1.05,.47-1.05,1.05v7.55h1.94v-3.9h.37l2.89,3.9h2.29l-3.06-4.12c.29-.09,.56-.21,.8-.35m-1.17-1.08c-.09,.2-.22,.36-.38,.5-.16,.13-.35,.24-.57,.31-.22,.07-.46,.11-.72,.11h-.46v-3.13h.86c.21,0,.39,.04,.57,.12,.17,.08,.32,.18,.44,.32,.13,.14,.22,.3,.29,.49,.07,.19,.11,.4,.11,.62,0,.25-.05,.47-.14,.66"/>
      <path class="cls-1" d="M86.73,40.32h0v7.55h6.25v-1.42h-4.31v-2.35h3.58v-1.27h-3.58v-2.31h4.59v-1.27h-5.48c-.58,0-1.05,.47-1.05,1.05"/>
      <path class="cls-1" d="M82.87,43.39c.24-.14,.45-.31,.62-.49,.17-.18,.31-.38,.4-.6,.09-.22,.14-.45,.14-.69,0-.34-.07-.65-.21-.94-.14-.29-.35-.53-.63-.74-.28-.21-.63-.37-1.04-.49-.42-.12-.91-.18-1.46-.18h-2.01c-.58,0-1.05,.47-1.05,1.05v7.55h1.94v-3.72h.51l2.76,3.72h2.29l-3.06-4.12c.29-.09,.56-.21,.8-.35m-1.17-1.08c-.09,.2-.22,.36-.38,.5-.16,.13-.35,.24-.57,.31-.22,.07-.46,.11-.72,.11h-.46v-3.13h.86c.21,0,.39,.04,.57,.12,.17,.08,.32,.18,.44,.32,.12,.14,.22,.3,.29,.49,.07,.19,.11,.4,.11,.62,0,.25-.05,.47-.14,.66"/>
      <path class="cls-1" d="M194.61,39.26h-7.29v1.27h3.07v7.34h2.07v-7.34h2.89v-.67c0-.38-.19-.59-.74-.59"/>
      <path class="cls-1" d="M198.66,39.26h-1.36v8.6h2.11v-7.93c-.02-.42-.15-.68-.74-.68"/>
      <path class="cls-1" d="M181.07,44.1h3.58v-1.27h-3.58v-2.31h4.49v-1.27h-5.37c-.58,0-1.05,.47-1.05,1.05,0,0,0,0,0,0v7.54h6.59v-1.42h-4.66v-2.35Z"/>
      <path class="cls-1" d="M165.63,43.39c.24-.14,.45-.31,.62-.49,.17-.18,.31-.38,.4-.6,.09-.22,.14-.45,.14-.69,0-.34-.07-.65-.21-.94-.14-.29-.35-.53-.63-.74-.28-.21-.63-.37-1.04-.49-.42-.12-.91-.18-1.46-.18h-2.01c-.58,0-1.05,.47-1.05,1.05v7.55h1.94v-3.72h.51l2.76,3.72h2.29l-3.06-4.12c.29-.09,.56-.21,.8-.35m-1.17-1.08c-.09,.2-.22,.36-.38,.5-.16,.13-.35,.24-.57,.31-.22,.07-.46,.11-.72,.11h-.46v-3.13h.86c.21,0,.39,.04,.57,.12,.17,.08,.32,.18,.44,.32,.13,.14,.22,.3,.29,.49,.07,.19,.11,.4,.11,.62,0,.25-.05,.47-.14,.66"/>
      <path class="cls-1" d="M154.61,39.04h-.61c-.15,0-.24,.13-.3,.26-.95,2.16-4.04,8.57-4.04,8.57h1.81l1.1-2.35h3.17l1.07,2.35h1.98s-2.89-6.44-3.88-8.57c-.07-.14-.11-.26-.31-.26m-1.54,5.41l1.15-2.44,1.05,2.44h-2.19Z"/>
      <path class="cls-1" d="M99.34,39.04h-.61c-.15,0-.24,.13-.3,.26-.95,2.16-4.04,8.57-4.04,8.57h1.81l1.1-2.35h3.17l1.07,2.35h1.98s-2.89-6.44-3.88-8.57c-.07-.14-.11-.26-.31-.26m-1.54,5.41l1.15-2.44,1.05,2.44h-2.19Z"/>
      <path class="cls-1" d="M71.72,40.58c1.19,0,2.03,.77,2.42,1.22,.14,.17,.32,.27,.55,.11,0,0,.74-.53,.74-.53-.46-.9-1.61-2.43-4.17-2.43s-4.64,2.04-4.64,4.55,2.08,4.55,4.64,4.55c1.67,0,3.15-.77,3.97-2.06,.06-.09,.12-.19,.17-.29l-.74-.57c-.22-.17-.42-.09-.58,.07-1.95,1.98-4.42,1.12-5.05-.77-.67-2.03,1-3.87,2.69-3.87"/>
      <path class="cls-1" d="M220.46,43.7h-2.98v.74h1.41v1.54c-1.67,1.22-4.46,.6-4.46-2.43,0-2.48,1.78-3.15,2.73-3.15,1.21,0,2.1,.85,2.52,1.35,0,0,.02,.03,.02,.03,.19,.22,.36,.21,.55,.02l.68-.66c-.17-.27-.39-.53-.66-.78-.26-.25-.56-.48-.89-.68-.33-.2-.69-.35-1.08-.47-.39-.12-.79-.18-1.22-.18-.48,0-.93,.05-1.36,.15-.43,.1-.82,.25-1.18,.44-.36,.19-.69,.42-.98,.7-.29,.28-.54,.58-.74,.93-.2,.35-.36,.72-.47,1.13-.11,.41-.17,.85-.17,1.3,0,.66,.12,1.26,.37,1.79,.24,.54,.58,.99,1.02,1.38,.44,.38,.96,.68,1.56,.89,.43,.15,.88,.24,1.37,.29,1.27,.07,3.17-.05,4.44-1.45v-2.35c0-.42-.19-.53-.46-.54"/>
      <path class="cls-1" d="M146.14,39.72l-2.7,5.41-2.77-5.47c-.12-.23-.26-.39-.66-.41h-1.59v8.6h1.34v-5.67l2.91,5.67h.82l2.81-5.61v5.61h2.02v-8.6h-1.46c-.44,.01-.56,.2-.69,.46"/>
      <path class="cls-1" d="M209.95,39.26h-1.24v5.82l-4.17-5.55c-.13-.15-.27-.26-.55-.27h-1.71v8.6h2.04v-5.89l4.61,6.03h1.7v-8.15c0-.35-.17-.58-.68-.58"/>
      <path class="cls-1" d="M172.97,43.01l3.87-3.74h-1.85l-3.38,3.13v-2.54c0-.35-.17-.59-.64-.59h-1.37v8.6h2.01v-3.58l3.73,3.58h2.56l-4.92-4.86Z"/>
    </g>
  </g>
</svg>