<?xml version="1.0" encoding="UTF-8"?>
<svg id="_圖層_2" data-name="圖層 2" xmlns="http://www.w3.org/2000/svg" viewBox="0 0 733.36 34.65">
  <defs>
    <style>
      .cls-1 {
        fill: #fff;
        stroke-width: 0px;
      }
    </style>
  </defs>
  <g id="_圖層_1-2" data-name="圖層 1">
    <g>
      <path class="cls-1" d="M17.51,34.5v-16.64c-.85.81-1.75,1.52-2.68,2.11.8.74,1.19,1.52,1.16,2.33-.03.74-.34,1.24-.93,1.52-.65.3-1.31.17-1.98-.37-.05-.67-.21-1.31-.47-1.92-.23.05-.62.12-1.16.22-.62.12-1.1.22-1.44.3v11.69c0,.1-.25.23-.74.41-.62.22-1.31.33-2.06.33h-.5v-8.54c-.29.17-.61.25-.97.22-1.29,2.93-3,5.2-5.12,6.8l-.58-.33c1.42-2.17,2.45-4.94,3.07-8.32l3.61,1v-2.66c-1.37.27-2.82.53-4.35.78-.23.4-.57.64-1.01.74l-1.36-3.25c1.79,0,3.34-.01,4.66-.04,2.33-2.51,4.54-5.34,6.64-8.47l3.73,2.29c-.34.44-.88.57-1.63.37-2.07,2.02-4.44,3.96-7.1,5.81.57,0,1.45-.02,2.64-.07,1.48-.02,2.59-.05,3.34-.07-.47-.94-1.01-1.74-1.63-2.4l.43-.22c1.32.39,2.37.86,3.14,1.41,2.17-2.74,3.87-6.1,5.09-10.09l4.54,1.7c-.23.52-.73.74-1.48.67-.49.89-1.15,1.87-1.98,2.96l1.05.41h3.15c.54-1.68,1-3.43,1.36-5.25l4.62,1.22c-.13.49-.61.73-1.44.7-.98,1.21-2.01,2.32-3.07,3.33h3.92l1.83-2.15c.41.3.82.59,1.2.89.91.69,1.62,1.27,2.13,1.74-.08.39-.4.59-.97.59h-6.21v4.22h1.79l1.71-2.03c.36.3.72.58,1.09.85.83.67,1.49,1.22,1.98,1.66-.08.39-.4.59-.97.59h-5.59v4.25h1.71l1.79-2.14c.39.3.78.59,1.17.89.88.69,1.57,1.27,2.06,1.74-.1.39-.43.59-.97.59h-5.75v4.33h2.56l1.94-2.37c1.17.94,2.33,1.89,3.49,2.85-.08.39-.41.59-1.01.59h-14.02v1.26c0,.17-.26.38-.78.63-.6.27-1.28.41-2.06.41h-.58ZM4.12,17.79c-.23-.71-.69-1.49-1.36-2.33-.65-.76-1.33-1.42-2.06-1.96l.39-.3c1.35.15,2.49.42,3.42.81.62-1.18,1.33-2.69,2.14-4.51-.16.2-.53.39-1.13.59-.65.22-1.28.33-1.9.33h-.5V.48l3.88,1.52h21.82l1.75-1.81,3.84,2.7c-.29.37-.83.63-1.63.78v5.69c-.03.12-.39.28-1.09.48-.75.22-1.4.33-1.94.33h-.58v-1.26H6.68v.48l.16-.37,4.27,1.81c-.26.47-.76.65-1.51.55-1.4,1.28-2.74,2.37-4.04,3.25.75.57,1.14,1.2,1.17,1.89.03.62-.22,1.07-.74,1.37-.57.32-1.19.28-1.86-.11ZM6.68,7.84h5.16V3.03h-5.16v4.81ZM14.75,31.23c-.6.21-1.2.03-1.83-.54-.08-1.85-.74-3.88-1.98-6.1l.47-.19c1.66.84,2.86,1.79,3.61,2.85.65.89.91,1.74.78,2.55-.1.74-.45,1.21-1.05,1.42ZM15.14,7.84h5.32V3.03h-5.32v4.81ZM20.93,20.41h3.77v-4.22h-3.77v4.22ZM20.93,25.74h3.77v-4.25h-3.77v4.25ZM20.93,31.14h3.77v-4.33h-3.77v4.33ZM23.76,7.84h5.4V3.03h-5.4v4.81Z"/>
      <path class="cls-1" d="M40.57,34.35l-.43-.41c1.14-1.06,2.23-2.4,3.26-4.03,1.06-1.7,1.92-3.5,2.56-5.4l4.58,2.15c-.29.49-.82.67-1.59.52-2.1,3.25-4.89,5.65-8.39,7.17ZM69.54,34.46V13.57h-4.5v2.37c0,4.14-.4,7.43-1.2,9.87-1.16,3.57-3.37,6.43-6.6,8.58l-.5-.44c2.3-2.64,3.78-6.03,4.43-10.17-.1.02-.26.04-.47.04h-20l-.31-1.04h3.81V7.14h-3.11l-.31-1.07h3.42V.55l4.7.48c-.08.49-.49.8-1.24.92v4.1h5.71V.55l4.85.48c-.08.54-.53.88-1.36,1v4.03l1.55-2.26c.93.91,1.85,1.82,2.76,2.74-.1.4-.43.59-.97.59h-3.34v15.64h.04l1.71-2.48c.91.84,1.8,1.68,2.68,2.51.23-1.9.35-4.19.35-6.88V2.92l3.73,1.22c3.11-1.38,5.58-2.74,7.42-4.07l4.04,3.29c-.42.37-1.14.38-2.17.04-2.79.74-5.99,1.32-9.59,1.74v7.4h6.45l2.06-2.63c1.27,1.01,2.52,2.03,3.77,3.07-.1.4-.45.59-1.05.59h-3.18v19.93c-.03.17-.3.36-.82.55-.62.27-1.33.41-2.14.41h-.58ZM47.64,11.17h5.71v-4.03h-5.71v4.03ZM47.64,16.57h5.71v-4.33h-5.71v4.33ZM47.64,22.78h5.71v-5.14h-5.71v5.14ZM55.29,30.95c-.21-.94-.67-1.96-1.4-3.07-.67-1.01-1.41-1.89-2.21-2.63l.39-.3c2.12.42,3.74,1.08,4.85,2,.93.76,1.42,1.59,1.48,2.48.03.81-.27,1.39-.89,1.74-.67.37-1.41.3-2.21-.22Z"/>
      <path class="cls-1" d="M86.66,34.39v-16.01c-1.81,1.63-3.69,3.01-5.63,4.14l-.43-.37c2.02-1.8,3.95-3.97,5.79-6.51,1.84-2.51,3.22-4.91,4.15-7.17h-8.5l-.35-1.04h5.09V.15l4.81.44c-.08.57-.56.9-1.44,1v5.84h.47l2.14-1.92,3.26,3.22c-.26.22-.84.37-1.75.44-.96,1.73-2.28,3.57-3.96,5.55,1.71.54,2.99,1.25,3.84,2.11.72.72,1.07,1.44,1.05,2.18,0,.69-.29,1.16-.85,1.42s-1.18.15-1.83-.31c-.29-1.28-1.07-2.72-2.37-4.33v17.53c0,.17-.26.38-.78.63-.65.3-1.35.44-2.1.44h-.62ZM95.67,3.85l-.31-1.07h16.19l2.06-2.48c.44.35.88.69,1.32,1.04,1.01.76,1.8,1.41,2.37,1.92-.08.4-.41.59-1.01.59h-20.62ZM95.63,34.32v-18.01l3.84,1.48h12.85l1.75-1.92,3.46,2.55c-.23.32-.74.54-1.51.67v14.13c0,.12-.27.28-.82.48-.62.25-1.32.37-2.1.37h-.62v-2.29h-13.39v1.66c0,.17-.26.36-.78.55-.6.22-1.28.33-2.06.33h-.62ZM97.53,15.94V5.69l3.81,1.44h9.2l1.67-1.81,3.38,2.4c-.26.32-.72.54-1.4.67v6.47c0,.1-.27.23-.82.41-.62.22-1.32.33-2.1.33h-.62v-1.33h-9.75v.85c0,.15-.25.32-.74.52-.57.2-1.24.3-2.02.3h-.62ZM99.09,23.96h5.01v-5.14h-5.01v5.14ZM99.09,30.69h5.01v-5.66h-5.01v5.66ZM100.91,13.2h9.75v-5.03h-9.75v5.03ZM107.39,23.96h5.09v-5.14h-5.09v5.14ZM107.39,30.69h5.09v-5.66h-5.09v5.66Z"/>
      <path class="cls-1" d="M123.27,33.87l-1.67-3.92c.16-.02.43-.07.82-.15.62-.1,1.11-.19,1.48-.26v-13.16l3.96.37c-.08.44-.43.7-1.05.78v11.43l2.02-.44v-15.79h-1.63v.7c0,.15-.25.33-.74.55-.6.27-1.27.41-2.02.41h-.54V1.29l3.8,1.4h4.81l1.63-1.66,3.57,2.55c-.29.32-.8.55-1.55.7v8.76c-.03.12-.35.28-.97.48-.67.22-1.26.33-1.75.33h-.54v-1.15h-.82v5.88h.97l1.79-2.51c.39.35.79.69,1.2,1.04.88.79,1.57,1.44,2.06,1.96-.1.39-.44.59-1.01.59h-5.01v8.13c1.29-.27,3.31-.73,6.06-1.37l.12.52c-4.19,1.95-8.88,3.96-14.06,6.03-.18.52-.49.81-.93.89ZM127.2,11.65h5.71V3.77h-5.71v7.88ZM138.96,34.43v-13.87c-1.35.59-2.76,1.11-4.23,1.55l-.27-.52c4.32-1.92,7.96-4.56,10.91-7.91-1.04-1.38-1.99-3-2.87-4.84-1.71,2.05-3.64,3.7-5.79,4.96l-.47-.37c1.48-1.55,2.81-3.5,4-5.84,1.24-2.39,2.2-4.91,2.87-7.54l4.89,1.55c-.23.52-.74.76-1.51.74-.23.57-.63,1.37-1.2,2.4h4.89l2.06-1.92,3.46,2.96c-.26.3-.8.48-1.63.55-1.35,2.83-3.07,5.34-5.16,7.51,2.67,1.8,5.97,3.13,9.9,3.99l-.08.37c-1.48.44-2.34,1.48-2.6,3.11-1.45-.54-2.55-1.01-3.3-1.41l2.76,2c-.31.32-.8.53-1.48.63v10.98c0,.12-.27.28-.82.48-.67.22-1.4.33-2.17.33h-.66v-2.55h-8.04v1.81c0,.17-.26.35-.78.52-.6.22-1.29.33-2.1.33h-.58ZM142.88,21.23h7.45l1.63-1.81c-1.86-1.04-3.52-2.31-4.97-3.81-2.17,1.85-4.53,3.35-7.07,4.51l2.95,1.11ZM142.42,30.69h8.04v-8.39h-8.04v8.39ZM146.65,12.13c1.55-2.02,2.74-4.13,3.57-6.32h-5.55c-.47.76-.97,1.5-1.51,2.22.93,1.5,2.1,2.87,3.49,4.1Z"/>
      <path class="cls-1" d="M163.3,31.02l-.31-1.07h29.16l2.56-3.07c.54.39,1.1.8,1.67,1.22,1.24.94,2.24,1.71,2.99,2.33-.1.39-.47.59-1.09.59h-34.98ZM165.44,5.55l-.31-1.07h25.2l2.45-2.96c.54.39,1.09.79,1.63,1.18,1.24.91,2.21,1.66,2.91,2.26-.1.39-.45.59-1.05.59h-30.83ZM168.12,17.68l-.31-1.07h19.26l2.45-2.85c1.48,1.11,2.94,2.22,4.39,3.33-.08.39-.44.59-1.09.59h-24.69Z"/>
      <path class="cls-1" d="M207.33,34.43v-6.4l-1.2.48c-.16.42-.45.73-.89.92l-2.1-4.1c1.04-.15,2.43-.39,4.19-.74V2.55l3.38,1.52c1.79-1.21,3.46-2.51,5.01-3.92l4.19,3.03c-.26.32-.74.39-1.44.22-2.41.76-4.96,1.44-7.65,2.03v5.21h2.49l1.94-2.44c1.19.96,2.37,1.94,3.53,2.92-.1.39-.45.59-1.05.59h-6.91v5.69h2.56l1.98-2.51c.41.35.84.69,1.28,1.04.96.79,1.72,1.44,2.29,1.96-.1.37-.45.55-1.05.55h-7.07v5.47c.52-.1,1.31-.26,2.37-.48,3.13-.64,5.5-1.13,7.1-1.48l.12.52c-2.8,1.33-5.99,2.72-9.59,4.18v6.73c-.03.2-.27.41-.74.63-.62.27-1.38.41-2.29.41h-.47ZM214.71,34.43l-.27-.55c4.94-1.63,8.98-4.01,12.11-7.14-1.79-2.42-3.09-5.36-3.92-8.84h-2.72l-.35-1.07h12.42l2.1-1.96,3.53,3.07c-.23.25-.76.41-1.59.48-1.37,3.25-3.24,6.04-5.59,8.36,2.72,1.8,6.07,3.17,10.06,4.1l-.08.44c-1.53.22-2.6,1.21-3.22,2.96-3.75-1.41-6.76-3.27-9.01-5.58-3.49,2.69-7.99,4.6-13.47,5.73ZM218.36,16.05l-.35-.44c1.63-1.31,2.77-2.91,3.42-4.81.44-1.33.66-2.98.66-4.96V1.26l4.08,1.44h3.61l1.79-1.81,3.3,2.66c-.23.27-.66.46-1.28.55v6.32c0,.2.04.33.14.39.09.06.28.09.56.09h2.6c.29,0,.49-.11.62-.33.31-.64.7-1.82,1.17-3.55h.43l.12,3.62c.72.32,1.09.78,1.09,1.37,0,.67-.38,1.15-1.13,1.44-.78.3-2.07.44-3.88.44h-2.14c-1.27,0-2.1-.2-2.48-.59-.34-.34-.5-1.06-.5-2.14V3.77h-4.58v2.07c0,4.83-2.41,8.23-7.22,10.21ZM228.15,24.96c1.73-2.12,3.04-4.47,3.92-7.06h-8.66c1.01,2.74,2.59,5.09,4.74,7.06Z"/>
      <path class="cls-1" d="M259.83,28.69c-1.56,2.04-3.58,3.05-6.07,3.05-2.33,0-4.45-1.14-6.37-3.43-1.91-2.28-2.87-5.32-2.87-9.12,0-4.89,1.85-9.08,5.56-12.58,3.31-2.93,7.03-4.4,11.16-4.4l.1.69c-1.66.32-3.08.75-4.28,1.3s-2.27,1.31-3.21,2.29c-.97,1-1.87,2.26-2.72,3.8s-1.43,3.06-1.75,4.57c.82-.53,1.53-.91,2.13-1.16,1.06-.44,2.12-.66,3.2-.66,2.11,0,3.87.76,5.3,2.28s2.15,3.7,2.15,6.52c0,2.53-.78,4.82-2.33,6.85ZM257.69,18.53c-.93-2.38-2.5-3.57-4.73-3.57-2.05,0-3.42.64-4.09,1.91-.4.75-.6,1.99-.6,3.74,0,2.26.46,4.46,1.38,6.62.92,2.16,2.37,3.24,4.36,3.24,1.58,0,2.72-.7,3.44-2.11.71-1.4,1.07-3.05,1.07-4.93s-.28-3.47-.83-4.9Z"/>
      <path class="cls-1" d="M269.36,13.61c-.98-1.33-1.47-2.8-1.47-4.4,0-1.83.72-3.38,2.17-4.65,1.45-1.27,3.33-1.91,5.65-1.91,2.13,0,3.83.6,5.08,1.81,1.26,1.2,1.89,2.6,1.89,4.2s-.64,3.07-1.93,4.36c-.74.73-1.94,1.58-3.59,2.53,2.25,1.74,3.86,3.26,4.84,4.56.97,1.29,1.46,2.82,1.46,4.58,0,1.99-.72,3.67-2.15,5.02-1.44,1.36-3.36,2.03-5.77,2.03-2.16,0-4.01-.63-5.55-1.88-1.54-1.25-2.31-2.9-2.31-4.95,0-1.76.54-3.31,1.61-4.65.7-.87,1.92-1.92,3.65-3.14-1.75-1.47-2.94-2.64-3.57-3.51ZM279.19,29.23c.78-.88,1.17-1.99,1.17-3.32,0-1.51-.41-2.73-1.24-3.66-.83-.93-2.53-2.35-5.09-4.24-1.14.75-1.97,1.71-2.48,2.9-.52,1.19-.77,2.34-.77,3.44,0,1.89.47,3.4,1.4,4.52.93,1.12,2.12,1.68,3.57,1.68,1.52,0,2.67-.44,3.46-1.33ZM278.57,12.42c.82-1.06,1.23-2.35,1.23-3.86,0-1.31-.39-2.43-1.16-3.35-.77-.92-1.95-1.38-3.53-1.38-1.22,0-2.22.4-3.02,1.2-.79.8-1.19,1.78-1.19,2.92,0,1.3.47,2.51,1.4,3.62.93,1.11,2.16,2.16,3.68,3.14,1.25-.91,2.11-1.68,2.58-2.3Z"/>
      <path class="cls-1" d="M294.9,34.39c0-1.01-.21-1.7-.62-2.07-.47-.44-1.35-.79-2.64-1.04l.04-.55c.16,0,.44.02.85.07,1.58.1,2.55.15,2.91.15.54,0,.94-.11,1.2-.33.96-.74,1.61-3.78,1.94-9.13h-4.12l-.54,1.92c-.83.54-1.98.59-3.46.15.78-1.95,1.42-4.36,1.94-7.25h-2.91l-.31-1.07h9.82l1.82-2.37c.41.32.82.64,1.2.96.91.76,1.62,1.39,2.14,1.89-.08.4-.42.59-1.01.59h-7.38c-.29,1.28-.63,2.65-1.05,4.1h3.53l1.71-1.66,3.34,2.59c-.26.3-.78.49-1.55.59-.18,3.35-.5,5.94-.97,7.77-.47,1.77-1.13,2.98-1.98,3.62-1.06.71-2.37,1.07-3.92,1.07ZM291.06,13.5V1.15l3.34,1.29h4.08l1.67-1.66,3.57,2.55c-.29.37-.83.63-1.63.78v7.91c-.03.15-.35.32-.97.52-.65.22-1.22.33-1.71.33h-.54v-1.55h-4.62v1.26c0,.17-.29.36-.85.55-.62.25-1.24.37-1.86.37h-.47ZM294.24,10.28h4.62V3.51h-4.62v6.77ZM301.5,34.39l-.47-.37c1.63-2.29,2.74-5.09,3.34-8.39.41-2.29.62-5.31.62-9.06V6.66l3.92,1.4h3.42V.07l4.74.44c-.08.54-.53.86-1.36.96v2.81h3.53l1.9-2.33c.41.32.84.64,1.28.96.93.74,1.67,1.36,2.21,1.85-.1.39-.44.59-1.01.59h-7.92v2.7h4.93l1.75-1.63,3.15,2.85c-.26.22-.75.35-1.48.37-1.09.94-2.24,1.75-3.46,2.44l-.54-.26c.23-.67.49-1.57.78-2.7h-12.5v5.03l3.96-.37v-3.96l4.12.41c-.05.47-.43.76-1.13.89v2.37l2.72-.26,1.24-1.85c.98.62,1.95,1.25,2.91,1.89-.05.44-.35.69-.89.74l-5.98.55v1.92c0,.22.06.37.17.44.12.07.39.11.83.11h2.41c1.24,0,1.98-.01,2.21-.04.31,0,.54-.07.7-.22.28-.3.62-1.04,1.01-2.22h.43l.16,2.22c.72.27,1.09.65,1.09,1.15,0,.59-.4,1-1.2,1.22-.83.22-2.39.33-4.7.33h-2.87c-1.35,0-2.23-.17-2.64-.52-.39-.32-.58-.96-.58-1.92v-2.18l-3.8.37-.16-.37v1.7c0,3.77-.34,6.84-1.01,9.21-1.06,3.57-3,6.45-5.82,8.62ZM305.97,34.39l-.31-.48c3.6-2.61,5.32-6.9,5.16-12.87l4.7.74c-.1.54-.58.85-1.44.92-.31,2.61-.98,4.78-2.02,6.51-1.35,2.24-3.38,3.97-6.1,5.18ZM319.17,33.98c-1.16,0-1.93-.2-2.29-.59-.31-.32-.47-1-.47-2.03v-10.46l4.27.41c-.05.47-.43.78-1.13.92v8.36c0,.22.04.37.12.44.08.07.25.11.5.11h1.09c.57,0,.91-.01,1.01-.04.23,0,.41-.12.54-.37.23-.39.61-1.73,1.13-3.99h.47l.12,4.14c.65.27.97.7.97,1.29,0,1.21-1.5,1.81-4.5,1.81h-1.83Z"/>
      <path class="cls-1" d="M353.25,7.07v18.93h-2.63V7.07h2.63Z"/>
      <path class="cls-1" d="M379.81,22.73c.69,1.91,1.49,3.43,2.42,4.57,1.61,1.98,3.62,2.97,6.01,2.97,1.3,0,2.42-.43,3.36-1.29s1.42-2.06,1.42-3.59c0-1.38-.48-2.59-1.43-3.61-.62-.65-1.93-1.63-3.92-2.93l-3.47-2.26c-1.04-.69-1.88-1.39-2.5-2.1-1.15-1.34-1.73-2.82-1.73-4.44,0-2.15.68-3.93,2.05-5.36,1.36-1.43,3.17-2.14,5.42-2.14.93,0,2.04.24,3.35.72s2.05.72,2.23.72c.5,0,.85-.12,1.04-.37.19-.25.34-.6.45-1.06h.83l.89,9.05h-.97c-.66-2.73-1.72-4.63-3.19-5.71-1.46-1.08-2.91-1.62-4.34-1.62-1.11,0-2.08.34-2.91,1.03-.83.69-1.24,1.64-1.24,2.85,0,1.09.32,2.03.95,2.8.63.79,1.62,1.61,2.96,2.47l3.57,2.3c2.24,1.44,3.81,2.76,4.73,3.97.9,1.22,1.36,2.66,1.36,4.32,0,2.23-.8,4.09-2.41,5.59-1.61,1.49-3.66,2.24-6.17,2.24-1.26,0-2.57-.25-3.94-.75-1.37-.5-2.15-.75-2.35-.75-.48,0-.8.15-.96.46-.17.3-.27.63-.33.98h-.89l-1.21-9.05h.93Z"/>
      <path class="cls-1" d="M402.3,30.49c1.56-.15,2.54-.47,2.92-.95.38-.48.58-1.6.58-3.37V7.76c0-1.5-.21-2.47-.65-2.94s-1.38-.76-2.85-.88v-.79h11.26c2.34,0,4.3.31,5.86.93,2.97,1.18,4.45,3.34,4.45,6.49,0,2.12-.66,3.74-1.98,4.87-1.32,1.13-3.11,1.88-5.37,2.24l8.38,10.79c.52.66,1.03,1.14,1.55,1.44.52.3,1.18.49,1.99.58v.79h-6.55l-10.17-13.1-1.79.1v8.38c0,1.57.23,2.57.69,2.99.46.42,1.45.7,2.99.84v.79h-11.3v-.79ZM416.2,15.75c2.16-.93,3.24-2.67,3.24-5.22s-.97-4.14-2.9-5.04c-1.03-.48-2.4-.73-4.11-.73-1.15,0-1.86.09-2.12.26-.26.17-.39.58-.39,1.21v10.47c2.93-.11,5.02-.43,6.28-.96Z"/>
      <path class="cls-1" d="M450.59,3.33c1.55.46,2.42.69,2.6.69.38,0,.75-.11,1.09-.33.34-.22.58-.57.71-1.04h.85l.38,9.55h-.93c-.54-1.9-1.25-3.43-2.12-4.59-1.67-2.19-3.91-3.28-6.73-3.28s-5.17,1.18-6.98,3.53c-1.81,2.35-2.71,5.59-2.71,9.72,0,3.79.95,6.82,2.85,9.08s4.31,3.4,7.22,3.4c2.11,0,4.04-.53,5.82-1.58,1.02-.59,2.14-1.5,3.36-2.7l.75.79c-.9,1.19-2.02,2.24-3.36,3.14-2.28,1.52-4.75,2.28-7.41,2.28-4.37,0-7.84-1.46-10.41-4.38-2.37-2.7-3.56-6.07-3.56-10.11s1.25-7.61,3.75-10.42c2.63-2.95,6.06-4.42,10.29-4.42,1.47,0,2.98.23,4.53.69Z"/>
      <path class="cls-1" d="M470.81,34.39v-15.46h-4.19v11.76c0,.17-.3.38-.89.63-.65.27-1.29.41-1.94.41h-.54v-15.27l3.61,1.44h3.96v-4.4h-9.24l-.31-1.04h9.55v-4.88h-4.66c-1.14,1.65-2.34,3.03-3.61,4.14l-.58-.33c1.4-2.79,2.47-6.16,3.22-10.13l4.81,1.29c-.18.52-.66.78-1.44.78-.49,1.08-1.06,2.14-1.71,3.18h3.96V.3l4.85.48c-.13.57-.61.91-1.44,1.04v4.7h3.46l1.98-2.51c.44.35.88.69,1.32,1.04,1.01.79,1.8,1.44,2.37,1.96-.08.39-.43.59-1.05.59h-8.08v4.88h4.43l2.02-2.51c1.27.99,2.52,1.97,3.77,2.96-.1.39-.45.59-1.05.59h-9.16v4.4h3.88l1.59-1.81,3.84,2.66c-.29.37-.83.63-1.63.78v8.06c0,1.28-.22,2.18-.66,2.7-.54.69-1.64,1.11-3.3,1.26-.05-1.13-.21-1.9-.47-2.29-.29-.47-.89-.79-1.82-.96v-.55c.75.02,1.5.06,2.25.11.39,0,.58-.2.58-.59v-8.32h-4.27v14.24c0,.25-.3.5-.89.78-.62.3-1.24.44-1.86.44h-.66ZM485.48,26.51V3.03l4.62.44c-.08.54-.53.88-1.36,1v21.04c0,.2-.29.41-.85.63-.6.25-1.19.37-1.79.37h-.62ZM491.11,34.43c-.08-1.13-.35-1.94-.81-2.4-.6-.57-1.66-.95-3.18-1.15v-.55c1.53.07,3.04.16,4.54.26.54,0,.82-.25.82-.74V.74l4.85.48c-.13.57-.6.9-1.4,1v27.88c0,1.4-.27,2.39-.82,2.96-.67.71-2.01,1.17-4,1.37Z"/>
      <path class="cls-1" d="M510.64,34.54l-1.79-3.66c.78-.05,2.35-.19,4.74-.41v-5.99h-3.77c-.8,4.36-3.24,7.59-7.3,9.69l-.39-.37c1.81-1.8,3.07-3.97,3.77-6.51.49-1.8.74-4.02.74-6.66v-5.66l4.08,1.52h20.38l1.9-2.18c.41.3.83.59,1.24.89.96.72,1.72,1.31,2.29,1.77-.1.4-.45.59-1.05.59h-25.35v3.03c0,.99-.05,1.92-.16,2.81h21.98l1.98-2.26c1.22.91,2.43,1.82,3.65,2.74-.08.39-.4.59-.97.59h-4.58l3.34,1.96c-.29.35-.76.43-1.44.26-1.58.74-3.64,1.46-6.17,2.15,2.59.99,6.15,1.63,10.68,1.92v.41c-1.42.39-2.3,1.45-2.64,3.18-3.96-.72-7.05-1.77-9.28-3.18-2.51-1.55-4.38-3.78-5.59-6.69h-3.84v5.62c1.11-.12,2.86-.32,5.24-.59.57-.07,1-.12,1.28-.15l.08.59c-3.62,1.23-7.65,2.5-12.07,3.81-.21.44-.53.7-.97.78ZM518.37,15.46V7.1h-10.6c.1,1.09-.05,2.05-.47,2.88-.36.76-.88,1.32-1.55,1.66-.6.27-1.18.35-1.75.22-.6-.15-.98-.48-1.17-1-.31-.96.14-1.75,1.36-2.37.67-.32,1.23-.85,1.67-1.59.49-.79.69-1.61.58-2.48l.62-.04c.26.62.44,1.16.54,1.63h10.76v-2.66h-11.49l-.31-1.04h22.99l2.02-2.33c.44.32.89.63,1.36.92,1.01.74,1.81,1.36,2.41,1.85-.08.39-.43.59-1.05.59h-12.31v2.66h11.03l1.94-1.85,3.38,3.11c-.21.2-.7.33-1.47.41-1.27,1.26-2.63,2.28-4.08,3.07l-.47-.26v-.04c-.16.17-.43.26-.82.26h-8.08l-.31-1.07h5.01l1.55-1.66c.34.22.66.46.97.7.75.54,1.36,1.01,1.83,1.4.16-.54.39-1.45.7-2.74.03-.12.05-.21.08-.26h-11.26v7.54c0,.12-.26.28-.78.48-.65.22-1.38.33-2.21.33h-.62ZM507.85,14.2l-.31-1.07h5.71l1.55-1.63c.96.69,1.92,1.39,2.87,2.11-.1.39-.44.59-1.01.59h-8.81ZM508.62,10.72l-.31-1.07h4.89l1.51-1.63c.93.69,1.85,1.39,2.76,2.11-.08.39-.4.59-.97.59h-7.88ZM511.5,20.97l-.31-1.07h17.82l1.86-2c.39.27.79.54,1.2.81.91.64,1.64,1.2,2.21,1.66-.1.39-.44.59-1.01.59h-21.78ZM526.68,28.36c1.68-1.16,3.21-2.45,4.58-3.88h-9.43c1.11,1.6,2.73,2.9,4.85,3.88ZM523.34,14.2l-.31-1.07h6.02l1.63-1.74c1.01.74,2.01,1.48,2.99,2.22-.1.39-.44.59-1.01.59h-9.32Z"/>
      <path class="cls-1" d="M566.31,7.07v18.93h-2.63V7.07h2.63Z"/>
      <path class="cls-1" d="M591.46,30.81c4.85-5.26,8.14-9.12,9.87-11.58,1.74-2.46,2.6-4.86,2.6-7.2,0-2.05-.53-3.61-1.59-4.68-1.06-1.07-2.32-1.61-3.79-1.61-1.81,0-3.28.69-4.41,2.07-.62.76-1.22,1.93-1.79,3.51l-.85-.19c.66-3.18,1.78-5.39,3.37-6.63,1.58-1.24,3.28-1.86,5.09-1.86,2.24,0,4.05.74,5.43,2.21,1.38,1.47,2.08,3.27,2.08,5.4,0,2.27-.75,4.45-2.25,6.56-1.5,2.1-4.75,5.84-9.76,11.22h9.12c1.27,0,2.17-.16,2.68-.48.52-.32,1.1-1.09,1.75-2.32l.52.25-2.21,5.79h-15.87v-.48Z"/>
      <path class="cls-1" d="M628.96,6.29c1.59,2.43,2.38,5.14,2.38,8.13,0,2.1-.38,4.24-1.13,6.42-.75,2.17-1.85,4.11-3.3,5.81-1.68,1.97-3.81,3.43-6.4,4.38-1.44.54-3.26.96-5.46,1.25l-.2-.83c1.38-.33,2.53-.69,3.44-1.06,1.64-.68,2.96-1.51,3.96-2.49,1.41-1.4,2.53-2.96,3.37-4.68.84-1.72,1.37-3.17,1.58-4.33l-.7.54c-.98.77-2.13,1.3-3.46,1.58-.69.17-1.32.25-1.89.25-2.25,0-4.04-.83-5.36-2.5-1.32-1.67-1.98-3.65-1.98-5.96,0-2.95.78-5.37,2.35-7.28,1.57-1.91,3.58-2.86,6.03-2.86,2.91,0,5.16,1.21,6.75,3.64ZM625.57,18.6c.96-.53,1.51-.97,1.64-1.33.05-.14.1-.65.14-1.55.04-.89.06-1.62.06-2.17,0-2.88-.46-5.22-1.39-7.02-.93-1.8-2.29-2.7-4.08-2.7-1.3,0-2.35.62-3.15,1.85-.8,1.23-1.2,3.07-1.2,5.52,0,2.02.38,3.89,1.12,5.61.75,1.72,2.11,2.58,4.07,2.58.9,0,1.83-.26,2.8-.79Z"/>
      <path class="cls-1" d="M636.58,20.36h10.05v2.66h-10.05v-2.66Z"/>
      <path class="cls-1" d="M667.26,28.69c-1.56,2.04-3.58,3.05-6.07,3.05-2.33,0-4.45-1.14-6.37-3.43-1.91-2.28-2.87-5.32-2.87-9.12,0-4.89,1.85-9.08,5.56-12.58,3.31-2.93,7.03-4.4,11.16-4.4l.1.69c-1.66.32-3.08.75-4.28,1.3s-2.27,1.31-3.21,2.29c-.97,1-1.87,2.26-2.72,3.8s-1.43,3.06-1.75,4.57c.82-.53,1.53-.91,2.13-1.16,1.06-.44,2.12-.66,3.2-.66,2.11,0,3.87.76,5.3,2.28s2.15,3.7,2.15,6.52c0,2.53-.78,4.82-2.33,6.85ZM665.12,18.53c-.93-2.38-2.5-3.57-4.73-3.57-2.05,0-3.42.64-4.09,1.91-.4.75-.6,1.99-.6,3.74,0,2.26.46,4.46,1.38,6.62.92,2.16,2.37,3.24,4.36,3.24,1.58,0,2.72-.7,3.44-2.11.71-1.4,1.07-3.05,1.07-4.93s-.28-3.47-.83-4.9Z"/>
      <path class="cls-1" d="M678.95,28.82c1.23.89,2.17,1.34,2.83,1.34,1.53,0,2.86-.7,4-2.11,1.14-1.4,1.71-3.13,1.71-5.18,0-3.58-1.83-6.17-5.49-7.75-2.03-.87-3.92-1.31-5.67-1.31-.29,0-.47-.01-.55-.03-.07-.02-.16-.09-.27-.22.03-.11.05-.2.07-.28.02-.08.04-.15.07-.22l4.33-9.93h8.52c.42,0,.75-.08.98-.23s.53-.44.9-.85l.32.29-1.53,3.84c-.05.12-.2.2-.44.24-.24.03-.5.05-.78.05h-7.7l-1.69,3.63c2.17.39,3.76.75,4.77,1.1,1.66.58,3.04,1.44,4.16,2.57.96.98,1.68,2.09,2.17,3.31s.74,2.52.74,3.89c0,3.06-1.04,5.61-3.13,7.66-2.09,2.05-4.73,3.07-7.92,3.07-1.3,0-2.35-.13-3.14-.39-1.33-.43-1.99-1.2-1.99-2.31,0-.42.14-.78.43-1.09s.73-.47,1.32-.47c.76,0,1.75.45,2.97,1.34Z"/>
      <path class="cls-1" d="M698.22,30.28l-2.02-4.14c.96-.22,2.69-.73,5.2-1.52v-12.35h-4.43l-.31-1.07h4.74V1.48l5.01.44c-.1.57-.58.9-1.44,1v8.28h.7l1.82-2.74c1.06,1.06,2.12,2.13,3.18,3.22-.08.39-.41.59-1.01.59h-4.7v11.2c.57-.17,1.45-.46,2.64-.85,1.27-.42,2.21-.73,2.83-.92l.19.44c-3.99,2.64-7.83,5-11.53,7.1-.13.52-.43.86-.89,1.04ZM718.22,34.65v-14.46h-10.56l-.31-1.07h10.87V4.44h-9.28l-.31-1.07h17.78l2.17-2.66c.47.35.93.7,1.4,1.07,1.06.81,1.89,1.5,2.49,2.07-.1.39-.45.59-1.05.59h-9.51v14.68h5.12l2.25-2.81c.49.37.98.75,1.47,1.15,1.11.86,1.98,1.58,2.6,2.14-.08.39-.43.59-1.05.59h-10.41v13.46c-.03.17-.31.37-.85.59-.65.27-1.38.41-2.21.41h-.62ZM714.86,17.03c-.71.33-1.46.12-2.23-.65.03-2.61-.69-5.79-2.13-9.54l.5-.18c1.92,1.4,3.31,2.91,4.19,4.51.75,1.36,1.06,2.61.93,3.77-.13,1.06-.55,1.76-1.26,2.09ZM724.04,17.38l-.58-.26c1.11-3.06,2.08-6.61,2.91-10.65l5.2,1.55c-.23.52-.72.78-1.47.78-1.99,3.6-4.01,6.46-6.06,8.58Z"/>
    </g>
  </g>
</svg>