<svg xmlns="http://www.w3.org/2000/svg" viewBox="0 0 678.65 31.99"><defs><style>.cls-1{fill:#fff;}</style></defs><title>資產 23</title><g id="圖層_2" data-name="圖層 2"><g id="圖層_2-2" data-name="圖層 2"><path class="cls-1" d="M3.78,24.55c.85,3.12.17,5.5-.9,6.59-.71.71-2.21.85-2.71,0A1.69,1.69,0,0,1,1,28.93,6.46,6.46,0,0,0,3.2,24.51Zm-3.72-3a4.93,4.93,0,0,0,1-.3,31.92,31.92,0,0,0,6.1-5.07c-1.5.41-3.32.89-5.17,1.29a1.05,1.05,0,0,1-.65.51L.06,15.2A3.37,3.37,0,0,0,.78,15c2-1.06,4.35-4.12,5.21-5.71l4,1.63c-.11.3-.54.61-1.32.51A32.64,32.64,0,0,1,3,15.23c1.54-.07,3.4-.14,5.29-.24a26.67,26.67,0,0,0,2.53-3.23l3.47,2.62a1.29,1.29,0,0,1-1.4.2,50.15,50.15,0,0,1-9.67,7l7.21-.64a13,13,0,0,0-.93-2.62l.43-.17c6,3.2,2.93,7.45.82,5.27a7.32,7.32,0,0,0-.14-1.77c-2.14.65-5.21,1.63-8.53,2.52a1.68,1.68,0,0,1-.75.54Zm28.6,4.9s2,1.46,3.18,2.52c-.11.37-.46.54-.93.54H17.63V30.8a3.2,3.2,0,0,1-2.57.92h-.57V17.3a18,18,0,0,1-2.15,1.64l-.46-.31a30.14,30.14,0,0,0,4.57-9.52H5.31v.38c0,.27-1.5,1-2.78,1H2.06V.75L5.63,2.18H25.45L27.09.48,30.55,3a2.54,2.54,0,0,1-1.46.68V9.28a4.7,4.7,0,0,1-2.71.92h-.57V9.11H17.09l3.65,1.33c-.15.4-.61.68-1.36.61a28.61,28.61,0,0,1-1.75,2.72l.46.17h8.18L27.88,12s1.89,1.36,3.07,2.35c-.11.37-.43.54-.93.54H24.41v3.84h1.68l1.47-1.83s1.75,1.29,2.82,2.27c-.11.38-.43.55-.93.55h-5v3.87H26l1.57-1.9S29.41,23,30.52,24a.87.87,0,0,1-.93.54H24.41v3.94H27ZM5.31,8.13h4.75v-5H5.31ZM6.42,24.07C11.38,28.49,8,33,6,30.46a14.28,14.28,0,0,0-.11-6.29Zm3-.68c6.75,3.43,4,8.23,1.68,6.09a12.58,12.58,0,0,0-2.14-5.89ZM13.09,3.16v5h5v-5Zm4.54,11.73v3.84h3.82V14.89Zm3.82,4.83H17.63v3.87h3.82Zm-3.82,8.8h3.82V24.58H17.63ZM21,9.21c6.21,1.94,3.14,6.09.92,4.08a7.86,7.86,0,0,0-1.32-3.91Zm.1-6.05v5h4.72v-5Z"/><path class="cls-1" d="M36,31.34a21.82,21.82,0,0,0,5.35-8.66l4.22,2a1.32,1.32,0,0,1-1.47.47,17.57,17.57,0,0,1-7.71,6.6ZM66.68,9.25s2.15,1.66,3.47,2.82c-.11.37-.47.54-1,.54H66.26V30.94a3.49,3.49,0,0,1-2.72.88H63V12.61H58.86v2.18c0,5.95-.53,12.58-7.17,17l-.47-.41A18,18,0,0,0,55.29,22a2,2,0,0,1-.43,0H36.48l-.29-1h3.5V6.7H36.83l-.28-1h3.14V.65L44,1.09c-.07.41-.36.71-1.14.85V5.71h5.25V.65l4.46.44c-.07.44-.36.78-1.25.92v3.7l1.43-2.07s1.6,1.49,2.53,2.51c-.1.38-.43.55-.89.55H51.33V21.08h0l1.57-2.28s1.42,1.26,2.46,2.31a52.44,52.44,0,0,0,.32-6.32v-12l3.43,1.12A42.76,42.76,0,0,0,66,.2l3.71,3a2.15,2.15,0,0,1-2,0,71.21,71.21,0,0,1-8.82,1.6v6.8h5.93ZM42.87,6.7v3.7h5.25V6.7Zm0,8.67h5.25v-4H42.87Zm0,5.71h5.25V16.35H42.87Zm4.07,2c8.46,1.67,6,7.48,3,5.51a11.53,11.53,0,0,0-3.32-5.23Z"/><path class="cls-1" d="M82.14,15.06c7,2.72,4.68,7.21,2.28,5.37A12.46,12.46,0,0,0,82.14,16V30.63c0,.27-1.07,1.05-2.64,1.05H79V18.12a31.58,31.58,0,0,1-5.21,3.77l-.36-.34A36.08,36.08,0,0,0,82.64,8.43H74.46l-.32-1h8.39l2-1.77,3.22,3c-.32.3-.75.37-1.61.44a28.56,28.56,0,0,1-4,5.81ZM78,.24c8.39,1.94,5.17,7.48,2.25,5.17a12.63,12.63,0,0,0-2.54-5Zm9.1,3.64-.28-1h14.74l2-2.38s2.21,1.63,3.57,2.82c-.11.38-.47.55-1,.55ZM103.56,15.4,107,17.92a2.79,2.79,0,0,1-1.5.71v12a5,5,0,0,1-2.68.85h-.53v-2H90.46v1.23c0,.3-1.36.95-2.64.95h-.5v-16l3.32,1.36h11.28Zm-2.89-.68V13.5H92.31v.71c0,.27-1.42.95-2.67.95h-.47V5.71L92.46,7h7.85l1.61-1.66,3.5,2.51a2.83,2.83,0,0,1-1.5.72v5.37a5.47,5.47,0,0,1-2.72.78ZM90.46,18.09v4.55H95V18.09Zm0,10.47H95V23.63H90.46Zm10.21-16V8H92.31v4.52Zm-2.82,5.58v4.55h4.43V18.09Zm4.43,10.47V23.63H97.85v4.93Z"/><path class="cls-1" d="M120.52,25.7c1.78-.37,3.67-.81,5.57-1.26l.1.48c-2.92,1.36-7.14,3.23-12.92,5.54a1.22,1.22,0,0,1-.86.82l-1.53-3.61c.53-.1,1.25-.2,2.1-.37V15.2l3.64.34c-.07.37-.32.64-1,.71V26.76l1.86-.41V11.83H116v.65c0,.2-1,.88-2.54.88H113v-12l3.5,1.29h4.43l1.5-1.53,3.28,2.34a2.67,2.67,0,0,1-1.43.65v8.06a4.74,4.74,0,0,1-2.49.74h-.5V11.83h-.75v5.41h.89l1.64-2.32s1.93,1.64,3,2.76c-.11.37-.43.54-.93.54h-4.6ZM116,10.84h5.25V3.6H116Zm26.2-5.4c-.28.34-.64.44-1.49.51a25.93,25.93,0,0,1-4.75,6.9,26.17,26.17,0,0,0,9.1,3.67l-.07.34a3.2,3.2,0,0,0-2.39,2.86c-1.07-.41-2.11-.82-3-1.29l2.54,1.83a2,2,0,0,1-1.36.58v10.1a4,4,0,0,1-2.75.74h-.61V29.34H130V31c0,.24-1,.79-2.64.79h-.53V19a31.27,31.27,0,0,1-3.9,1.43l-.25-.48a29.14,29.14,0,0,0,10-7.28,23.53,23.53,0,0,1-2.64-4.45,20.82,20.82,0,0,1-5.33,4.56l-.42-.34A29.29,29.29,0,0,0,130.66.17l4.49,1.43c-.17.41-.6.71-1.39.68a22.74,22.74,0,0,1-1.1,2.21h4.49l1.9-1.77ZM138.8,18a19.32,19.32,0,0,1-4.57-3.5,28.83,28.83,0,0,1-6.5,4.15l2.71,1h6.86Zm-1.4,10.37V20.64H130v7.71ZM132.08,5.47a18.29,18.29,0,0,1-1.39,2,16.24,16.24,0,0,0,3.22,3.78,24.07,24.07,0,0,0,3.28-5.82Z"/><path class="cls-1" d="M175.75,27.67l2.35-2.82s2.65,1.91,4.29,3.27c-.11.37-.47.54-1,.54H149.22l-.29-1ZM174.07,4.25l2.25-2.72s2.6,1.87,4.18,3.16c-.11.38-.47.55-1,.55H151.18l-.28-1Zm-3,11.15,2.25-2.62s2.5,1.8,4,3.06c-.07.38-.46.55-1,.55h-22.7l-.29-1Z"/><path class="cls-1" d="M201.7,20.64c-2.11,1-5,2.34-8.75,3.91V30.8c0,.24-.89,1-2.78,1h-.43V25.87l-1,.41a1.6,1.6,0,0,1-.85.85l-2-3.74c.93-.14,2.21-.37,3.86-.71V2.48L193.09,4A54.37,54.37,0,0,0,198,.31l3.82,2.82c-.25.3-.58.34-1.29.17A63,63,0,0,1,193,5.2V9.89h2.82l1.79-2.21s2,1.57,3.25,2.65c-.11.38-.43.55-1,.55H193v5.23h2.89l1.82-2.31s2.08,1.6,3.29,2.76c-.11.37-.43.54-.93.54H193V22c2.61-.54,5.64-1.19,8.64-1.87Zm15.92-4.05c-.25.31-.6.41-1.46.48a23.4,23.4,0,0,1-5.28,7.71,26.39,26.39,0,0,0,9.28,3.88l-.07.37a3.8,3.8,0,0,0-3,2.76,22.6,22.6,0,0,1-8.29-5.24,31.64,31.64,0,0,1-12.42,5.3l-.25-.47a28.6,28.6,0,0,0,11.21-6.63,22.93,22.93,0,0,1-3.57-8.19h-2.29l-.32-1h11.29l2-1.8ZM200,14.52c3-2.66,3.39-6,3.39-8.88V1.26l3.68,1.36H211L212.66,1l3.18,2.48a2.59,2.59,0,0,1-1.32.51V9.66c0,.37.07.47.5.47h1.67a4,4,0,0,0,.58,0,2.59,2.59,0,0,0,.67-.14h.36l.14.07c.83.34,1.11.61,1.11,1.19,0,1.19-1.11,1.73-4.14,1.73h-1.54c-2.28,0-2.53-.68-2.53-2.48V3.6h-4.75v2c0,2.76-.64,6.9-6.21,9.28Zm4.46,2a16.34,16.34,0,0,0,4.32,6.59,21.16,21.16,0,0,0,3.75-6.59Z"/><path class="cls-1" d="M240,5.17c-7.25,1.6-11,5.44-11.75,11.22A8.38,8.38,0,0,1,234.11,14c4.32,0,7.15,3,7.15,7.41,0,5-3.36,8-8.29,8-5.46,0-8.82-3.84-8.82-10.41,0-7.48,5.86-13.73,15.64-14.78Zm-2.68,16.62c0-3.94-1.72-5.78-4.47-5.78a7,7,0,0,0-4.71,1.67,7.31,7.31,0,0,0,0,.81c0,6.46,1.89,9.56,4.89,9.56C235.54,28.05,237.33,26,237.33,21.79Z"/><path class="cls-1" d="M262.89,23c0,3.84-3.39,6.46-8.46,6.46s-8.11-2.18-8.11-5.85c0-2.79,2-4.73,5.79-6.29-3.47-1.73-5-4-5-6.7,0-3.91,3.39-6.35,7.64-6.35,4.5,0,7.07,2.44,7.07,5.64,0,2-1.25,4.08-4.92,5.88C261,17.64,262.89,19.72,262.89,23Zm-3.64.71c0-2.28-1.43-3.87-6.07-5.91-2.29,1.49-3.39,2.92-3.39,5.33,0,3.1,1.89,5,4.85,5A4.26,4.26,0,0,0,259.25,23.66Zm-3.5-8.4c2.07-1.63,2.82-3.16,2.82-5.27,0-2.48-1.39-4.38-3.93-4.38a4,4,0,0,0-4.18,3.88C250.46,11.52,251.5,13.36,255.75,15.26Z"/><path class="cls-1" d="M301.09,8.53c-.25.28-.64.34-1.32.38a15.71,15.71,0,0,1-3.29,2.1l-.42-.2c.17-.61.39-1.6.53-2.45h-12v7.86c0,5.16-.46,11.39-6.64,15.5l-.39-.38c3.6-4.24,4-9.72,4-15.12V13.94a2.62,2.62,0,0,1-.5.07h-6.65a45.56,45.56,0,0,1-1.32,4.38h3l1.61-1.56,3,2.41a2.11,2.11,0,0,1-1.42.51c-.4,5.78-1.36,8.84-2.9,9.93a6.22,6.22,0,0,1-3.64,1,2.34,2.34,0,0,0-.61-1.87,5.49,5.49,0,0,0-2.57-.95v-.51c1.15.07,3.11.2,3.79.2a1.58,1.58,0,0,0,1.11-.3c.82-.62,1.53-3.3,1.92-7.89H273.1l-1.4,1.36-2.85-2a5.06,5.06,0,0,1,1.28-.65c.43-1.22.93-2.89,1.22-4.11H268l-.28-1h9.6L279,10.91s1.46,1.16,2.61,2.14v-7l3.57,1.33h2.92V.17l4.43.37c-.07.48-.39.82-1.36,1V3.84h3.9l1.75-2.11s2,1.5,3.17,2.55c-.1.38-.46.55-1,.55h-7.86V7.38h5.18L298,5.75ZM272.53,11a3.92,3.92,0,0,1-2.57.85h-.43V1.16l3.14,1.25h3.75L278,.82l3.36,2.41a3,3,0,0,1-1.5.71V10.4a4.57,4.57,0,0,1-2.53.75h-.5V10.06h-4.25Zm0-7.55V9.08h4.25V3.4Zm9.14,27.91c4.75-2.82,5.39-7.51,4.89-12.14l4.5.85c-.18.51-.54.79-1.4.82-.28,4.25-1.21,8.53-7.74,11Zm16.85-15.84c.82.3,1.14.51,1.14,1,0,1.12-1.14,1.39-5.71,1.39h-2.89c-2.64,0-3.11-.54-3.11-2.31v-2l-2.75.24-.39-1,3.14-.27V8.94l3.86.38c0,.4-.4.67-1,.78v2.24l2.18-.17,1.39-1.87s1.86,1.12,3,1.94c0,.37-.43.61-.86.64l-5.71.48v1.8c0,.38.11.51,1,.51h2.47c1,0,1.89,0,2.28,0a4.53,4.53,0,0,0,.75,0,5.89,5.89,0,0,0,.79-.17h.28Zm1.57,12.61c.75.31.89.61.89,1.12,0,1.06-1.1,1.57-4.14,1.57h-1.71c-2.25,0-2.54-.68-2.54-2.38V19.48l3.93.37c-.07.45-.39.75-1,.85v7.11c0,.37.07.48.57.48h2a.65.65,0,0,0,.5-.31c.21-.44.61-1.94,1-3.43H300Z"/><path class="cls-1" d="M359.14,14.58c5.28,2,7.24,4.15,7.24,7.72,0,4.39-3.74,7.21-9.53,7.21a15.89,15.89,0,0,1-7.75-2l.22-5.4h2l1.21,5a8.5,8.5,0,0,0,4,.85c3.71,0,6.11-1.63,6.11-4.59,0-2.38-1.33-3.6-4.72-4.86l-1.53-.65c-4.25-1.7-6.86-3.87-6.86-7.64,0-4.42,3.82-6.94,9-6.94a11.22,11.22,0,0,1,6.57,2l-.21,5h-2l-1.21-4.76a6.32,6.32,0,0,0-3-.64c-3.18,0-5.4,1.46-5.4,4.28,0,2.38,1.54,3.74,4.29,4.79Z"/><path class="cls-1" d="M395,27.67V28.9a11,11,0,0,1-3.25.41c-2.68,0-3.89-.72-4.32-2.66L386,21c-.72-2.93-1.86-3.81-5-3.81h-2c0,3.5,0,6.83,0,10.13l3.61.37V28.9H371.2V27.67l3.54-.37c.07-3.3.07-6.66.07-10.06V15.5c0-3.33,0-6.73-.07-10.06l-3.54-.37V3.84h11.43c6,0,9.42,2.42,9.42,6.49,0,2.89-2.14,5.51-7,6.29,3.07.51,4.36,2,5.14,5l1.68,5.81ZM381.88,15.81c4.1,0,6.07-2.35,6.07-5.48s-1.86-5.09-5.89-5.09H379c0,3.33,0,6.66,0,10.57Z"/><path class="cls-1" d="M419.83,22l0,5.61a16.15,16.15,0,0,1-7.89,1.9c-7.85,0-13.5-5.07-13.5-13.12S404.33,3.23,412,3.23a15.85,15.85,0,0,1,7.5,1.84v5.67H417.4l-1.21-5.2a8.42,8.42,0,0,0-3.72-.81c-5.35,0-9.5,4-9.5,11.66S406.87,28,412.4,28a9.8,9.8,0,0,0,4.11-.82L417.72,22Z"/><path class="cls-1" d="M442.1,9.28s2.15,1.6,3.47,2.72c-.11.37-.47.54-1,.54h-8.42v4.05h3.57l1.46-1.67,3.54,2.45a2.64,2.64,0,0,1-1.5.72V25.5c0,2.11-.4,3.33-3.65,3.64a4.22,4.22,0,0,0-.42-2.11,2.23,2.23,0,0,0-1.68-.89v-.51s1.6.11,2.07.11.53-.14.53-.55V17.54h-3.92V30.63c0,.41-1.32,1.12-2.54,1.12H433V17.54h-3.85V28.35c0,.28-1.32,1-2.61,1h-.5v-14l3.32,1.33H433V12.54h-8.49l-.29-.95H433V7.11h-4.28a20,20,0,0,1-3.32,3.8l-.54-.3a38.71,38.71,0,0,0,3-9.32l4.42,1.19c-.14.41-.57.72-1.32.72a25.43,25.43,0,0,1-1.57,2.92H433V.41l4.47.44c-.11.48-.36.82-1.32,1V6.12h3.17l1.83-2.31s2.1,1.6,3.39,2.75c-.07.38-.47.55-1,.55h-7.42v4.48h4.07Zm7.43,14.31c0,.34-1.29.92-2.43.92h-.57V2.92l4.25.41c-.07.48-.36.78-1.25.92Zm7.89-22.33c-.11.47-.46.81-1.28.92V27.81c0,2.31-.5,3.6-4.43,4a3.37,3.37,0,0,0-.75-2.21A5,5,0,0,0,448,28.52V28s3.43.24,4.18.24c.57,0,.75-.2.75-.68V.82Z"/><path class="cls-1" d="M491.69,24.51c-.25.34-.57.48-1.35.27-1.15.58-2.75,1.26-4.36,1.87a34.17,34.17,0,0,0,8.39,1.91V29a3.36,3.36,0,0,0-2.5,2.75c-6.18-1.56-10.67-4.25-13-9.59h-3.64v5.75c1.75-.31,3.75-.68,5.79-1.06l.07.48c-1.54.78-4.43,2.24-7.71,3.7a2.71,2.71,0,0,1-.9.89l-2-3.43c1.28-.72,1.5-1,1.5-1.57V22.13H469a12.31,12.31,0,0,1-6.61,9.66l-.35-.38c3.39-3.74,3.75-8.33,3.75-12.37V13.26l3.92,1.43h18.39l1.82-2.28s2.15,1.56,3.4,2.72c-.08.37-.4.54-.93.54H469.2v2.25h17l1.61-1.87s1.85,1.29,3.07,2.31c-.11.37-.47.54-1,.54H469.2V19c0,.68,0,1.4-.07,2.15h19.42L490.44,19s2.11,1.53,3.5,2.62c-.1.37-.46.54-1,.54H479.7a12.48,12.48,0,0,0,5,3.95,29.37,29.37,0,0,0,3.53-3.81ZM466.31,6.32c.25,2-.47,3.37-1.5,3.95a1.82,1.82,0,0,1-2.61-.65,1.8,1.8,0,0,1,1.21-2.11,3.61,3.61,0,0,0,1.5-3.74l.58,0a8.09,8.09,0,0,1,.6,1.6h10.64V3h-10l-.28-1h19.45l1.75-2s2,1.39,3.25,2.45c-.1.37-.46.54-.92.54h-10V5.34h10.79l1.75-1.67,3.1,2.82a2,2,0,0,1-1.35.38,20.16,20.16,0,0,1-3.58,3l-.46-.23a25.83,25.83,0,0,0,.75-3.34h-11v6.94c0,.17-1.07.75-2.75.75h-.57V6.32Zm.6,4.73c1.57-.1,5.18-.51,8.75-1l.07.51c-1.5.61-3.75,1.5-6.75,2.55a1.08,1.08,0,0,1-.85.75Zm.65-3.5c8-1.09,8.49,2.78,6.17,2.65a26.59,26.59,0,0,0-6.35-2.07Zm13.49,2.75c9-.68,9.39,3.37,6.93,3.2a34.17,34.17,0,0,0-7.14-2.66Zm8.39-1.19a.9.9,0,0,1-1-.2,64.88,64.88,0,0,1-7.36.78L481,9.25a56.35,56.35,0,0,0,6.68-2.86Z"/><path class="cls-1" d="M560.13,25.7v3.2H543.6V26.45c2.14-2.11,4.21-4.22,6-5.92,4-4,5.61-6.69,5.61-9.82s-1.83-5.1-4.75-5.1a11.19,11.19,0,0,0-1.93.2l-.82,2.89c-.43,1.84-1.22,2.42-2.25,2.42a2.22,2.22,0,0,1-2-1.19c.47-3.78,4.07-5.71,8.18-5.71,5.14,0,7.53,2.65,7.53,6.45,0,3.27-2.17,6-8.35,11-1.11,1-2.75,2.42-4.57,4Z"/><path class="cls-1" d="M566.84,28.52c6.71-2.17,9.92-5.61,10.82-10.91a7.77,7.77,0,0,1-5.15,1.73c-4.35,0-7.71-2.72-7.71-7.34,0-4.83,3.72-7.78,8.54-7.78,5.35,0,8.57,3.8,8.57,9.92,0,7.31-4.9,13.33-14.82,15.47Zm11-12.34c0-.61.07-1.26.07-1.9,0-6.15-1.9-8.67-4.65-8.67-2.46,0-4.53,1.94-4.53,5.91s2.18,6,5.18,6A6,6,0,0,0,577.84,16.18Z"/><path class="cls-1" d="M587,18.32h9.43v2.25H587Z"/><path class="cls-1" d="M617.21,5.17c-7.25,1.6-11,5.44-11.74,11.22A8.38,8.38,0,0,1,611.32,14c4.32,0,7.14,3,7.14,7.41,0,5-3.35,8-8.28,8-5.46,0-8.82-3.84-8.82-10.41,0-7.48,5.85-13.73,15.64-14.78Zm-2.68,16.62c0-3.94-1.71-5.78-4.46-5.78a7,7,0,0,0-4.71,1.67,5.49,5.49,0,0,0,0,.81c0,6.46,1.89,9.56,4.89,9.56C612.75,28.05,614.53,26,614.53,21.79Z"/><path class="cls-1" d="M627.24,14.52a14.12,14.12,0,0,1,4.22-.58c5.32,0,8.81,2.68,8.81,7.48s-3.82,8-9.46,8c-4.21,0-6.89-1.91-7.53-5.37a2,2,0,0,1,1.93-1.26c1.17,0,1.78.61,2.21,2.41l.61,2.55a8.24,8.24,0,0,0,2.32.31c3.75,0,5.93-2.38,5.93-6.19s-2.29-6-5.9-6a13.24,13.24,0,0,0-3.89.51l-1-.38.82-11.28h13.21V7.92H627.71Z"/><path class="cls-1" d="M652.55,21.72c1.61-.51,3.32-1.08,5-1.63l.18.41C655.45,22,652,24.31,647.16,27a1.36,1.36,0,0,1-.82.95l-1.86-3.81c1-.24,2.72-.75,4.79-1.39V11.42H645.2l-.29-1h4.36V1.5l4.6.4c-.07.45-.35.82-1.32.92v7.62h.65l1.67-2.52s1.9,1.8,2.93,3c-.07.37-.43.54-.93.54h-4.32Zm22.35-6.59s2.36,1.77,3.75,3c-.07.38-.46.55-1,.55h-9.57V31.07c0,.21-1.11.92-2.82.92h-.57V18.7H655l-.29-1h10V4.22H656.2l-.29-1h16.35l2-2.45s2.25,1.67,3.57,2.89c-.1.38-.46.55-1,.55h-8.75V17.71h4.71ZM658.09,6.26c7.64,5.57,4.39,11.79,1.5,8.94a25.63,25.63,0,0,0-2-8.77Zm11.46,9.62a74,74,0,0,0,2.68-9.79L677,7.51a1.31,1.31,0,0,1-1.36.72,39.25,39.25,0,0,1-5.57,7.88Z"/></g></g></svg>