<?xml version="1.0" encoding="UTF-8"?>
<svg id="_圖層_2" data-name="圖層 2" xmlns="http://www.w3.org/2000/svg" viewBox="0 0 308.4 121.92">
  <defs>
    <style>
      .cls-1 {
        fill: #fbce00;
      }

      .cls-1, .cls-2 {
        stroke-width: 0px;
      }

      .cls-2 {
        fill: #fff;
      }
    </style>
  </defs>
  <g id="_圖層_1-2" data-name="圖層 1">
    <g>
      <g>
        <path class="cls-1" d="M62.81,113.89c1.04.22,1.83.58,2.34,1.07.72.68,1.08,1.51,1.08,2.5,0,.75-.24,1.46-.71,2.15-.47.68-1.12,1.18-1.95,1.5-.83.31-2.09.47-3.78.47h-7.11v-.41h.57c.63,0,1.08-.2,1.35-.6.17-.26.26-.81.26-1.65v-9.73c0-.93-.11-1.52-.32-1.77-.29-.33-.72-.49-1.29-.49h-.57v-.41h6.51c1.21,0,2.19.09,2.92.27,1.11.27,1.96.74,2.54,1.42.58.68.88,1.46.88,2.34,0,.76-.23,1.43-.69,2.03-.46.6-1.14,1.04-2.03,1.33ZM56.99,113.29c.27.05.59.09.94.12.35.03.74.04,1.16.04,1.08,0,1.89-.12,2.44-.35.54-.23.96-.59,1.25-1.07.29-.48.43-1.01.43-1.58,0-.88-.36-1.63-1.08-2.25-.72-.62-1.77-.93-3.14-.93-.74,0-1.41.08-2,.24v5.79ZM56.99,120.49c.86.2,1.71.3,2.54.3,1.34,0,2.36-.3,3.07-.91.7-.6,1.06-1.35,1.06-2.24,0-.58-.16-1.15-.48-1.69s-.84-.97-1.55-1.28c-.72-.31-1.61-.47-2.67-.47-.46,0-.85,0-1.18.02-.33.02-.59.04-.79.08v6.18Z"/>
        <path class="cls-1" d="M74.73,107.34v5.95h3.31c.86,0,1.43-.13,1.72-.39.38-.34.6-.94.64-1.8h.41v5.24h-.41c-.1-.73-.21-1.2-.31-1.41-.13-.26-.35-.46-.66-.61-.3-.15-.77-.22-1.4-.22h-3.31v4.96c0,.67.03,1.07.09,1.22s.16.26.31.34c.15.09.43.13.84.13h2.55c.85,0,1.47-.06,1.85-.18.38-.12.75-.35,1.11-.7.46-.46.93-1.15,1.41-2.08h.44l-1.3,3.78h-11.61v-.41h.53c.36,0,.69-.08,1.01-.26.24-.12.4-.3.48-.53.09-.24.13-.72.13-1.45v-9.78c0-.96-.1-1.54-.29-1.77-.27-.3-.71-.44-1.33-.44h-.53v-.41h11.61l.17,3.3h-.43c-.16-.79-.33-1.34-.52-1.63-.19-.3-.47-.52-.84-.68-.3-.11-.82-.17-1.57-.17h-4.13Z"/>
        <path class="cls-1" d="M97.21,106.52h5.25v.41h-.29c-.19,0-.47.08-.84.26s-.71.41-1.01.73c-.3.32-.68.84-1.12,1.55l-3.63,5.72v3.78c0,.93.1,1.5.31,1.73.28.31.73.47,1.33.47h.49v.41h-6.4v-.41h.53c.64,0,1.09-.19,1.35-.58.16-.24.24-.78.24-1.62v-3.57l-4.13-6.31c-.49-.74-.82-1.2-.99-1.39s-.54-.41-1.08-.67c-.15-.07-.36-.11-.64-.11v-.41h6.44v.41h-.33c-.35,0-.67.08-.96.24-.29.16-.44.41-.44.73,0,.27.23.75.68,1.44l3.14,4.85,2.95-4.64c.44-.7.67-1.21.67-1.55,0-.21-.05-.39-.16-.56-.11-.16-.26-.29-.46-.38-.2-.09-.5-.14-.9-.14v-.41Z"/>
        <path class="cls-1" d="M113.62,106.17c1.96,0,3.65.74,5.08,2.23,1.43,1.48,2.15,3.34,2.15,5.56s-.72,4.19-2.17,5.7c-1.44,1.51-3.19,2.27-5.24,2.27s-3.82-.74-5.23-2.21c-1.41-1.47-2.12-3.38-2.12-5.72s.81-4.34,2.44-5.85c1.41-1.31,3.11-1.97,5.08-1.97ZM113.41,106.98c-1.35,0-2.43.5-3.24,1.5-1.01,1.24-1.52,3.07-1.52,5.46s.53,4.35,1.58,5.68c.81,1.01,1.87,1.51,3.2,1.51,1.41,0,2.58-.55,3.5-1.65.92-1.1,1.38-2.84,1.38-5.22,0-2.58-.51-4.5-1.52-5.76-.81-1.01-1.94-1.51-3.38-1.51Z"/>
        <path class="cls-1" d="M123.93,106.52h4.09l9.21,11.29v-8.69c0-.93-.1-1.5-.31-1.73-.27-.31-.71-.47-1.3-.47h-.52v-.41h5.24v.41h-.53c-.64,0-1.09.19-1.35.58-.16.24-.24.78-.24,1.62v12.69h-.4l-9.93-12.13v9.27c0,.93.1,1.5.3,1.73.28.31.71.47,1.3.47h.53v.41h-5.24v-.41h.52c.64,0,1.1-.19,1.37-.58.16-.24.24-.78.24-1.62v-10.47c-.44-.51-.77-.85-.99-1.01s-.56-.31-.99-.46c-.21-.07-.54-.1-.98-.1v-.41Z"/>
        <path class="cls-1" d="M143.54,121.58v-.41h.57c.64,0,1.09-.2,1.35-.61.16-.24.24-.79.24-1.64v-9.73c0-.94-.1-1.53-.31-1.77-.29-.33-.72-.49-1.29-.49h-.57v-.41h6.13c2.25,0,3.96.26,5.14.77,1.17.51,2.12,1.36,2.83,2.55.71,1.19,1.07,2.57,1.07,4.13,0,2.1-.64,3.85-1.91,5.25-1.43,1.57-3.61,2.35-6.53,2.35h-6.73ZM147.84,120.49c.94.21,1.73.31,2.37.31,1.72,0,3.14-.6,4.28-1.81,1.13-1.21,1.7-2.84,1.7-4.91s-.57-3.72-1.7-4.92c-1.13-1.2-2.59-1.8-4.36-1.8-.67,0-1.43.11-2.28.32v12.81Z"/>
        <path class="cls-1" d="M183.02,106.52l.17,3.53h-.42c-.08-.62-.19-1.07-.33-1.33-.23-.43-.54-.75-.92-.95-.38-.2-.88-.31-1.51-.31h-2.12v11.51c0,.93.1,1.5.3,1.73.28.31.71.47,1.3.47h.52v.41h-6.39v-.41h.53c.64,0,1.09-.19,1.35-.58.16-.24.24-.78.24-1.62v-11.51h-1.81c-.7,0-1.2.05-1.5.16-.39.14-.71.41-.99.81s-.44.94-.49,1.62h-.42l.18-3.53h12.29Z"/>
        <path class="cls-1" d="M190.93,113.5h7v-4.31c0-.77-.05-1.28-.14-1.52-.07-.18-.23-.34-.47-.48-.32-.18-.66-.27-1.01-.27h-.53v-.41h6.44v.41h-.53c-.36,0-.69.08-1.01.26-.24.12-.4.3-.48.54-.08.24-.13.73-.13,1.47v9.72c0,.76.05,1.27.14,1.51.07.19.23.34.46.48.33.18.67.27,1.02.27h.53v.41h-6.44v-.41h.53c.61,0,1.06-.18,1.34-.54.19-.24.28-.81.28-1.71v-4.59h-7v4.59c0,.76.05,1.27.14,1.51.07.19.23.34.47.48.32.18.66.27,1.01.27h.54v.41h-6.45v-.41h.53c.62,0,1.07-.18,1.35-.54.18-.24.27-.81.27-1.71v-9.72c0-.77-.05-1.28-.14-1.52-.07-.18-.23-.34-.46-.48-.33-.18-.67-.27-1.02-.27h-.53v-.41h6.45v.41h-.54c-.36,0-.69.08-1.01.26-.23.12-.39.3-.48.54s-.13.73-.13,1.47v4.31Z"/>
        <path class="cls-1" d="M209.94,107.34v5.95h3.31c.86,0,1.43-.13,1.72-.39.38-.34.6-.94.64-1.8h.41v5.24h-.41c-.1-.73-.21-1.2-.31-1.41-.13-.26-.35-.46-.66-.61-.3-.15-.77-.22-1.4-.22h-3.31v4.96c0,.67.03,1.07.09,1.22s.16.26.31.34c.15.09.43.13.84.13h2.55c.85,0,1.47-.06,1.85-.18.38-.12.75-.35,1.11-.7.46-.46.93-1.15,1.41-2.08h.44l-1.3,3.78h-11.61v-.41h.53c.36,0,.69-.08,1.01-.26.24-.12.4-.3.48-.53.09-.24.13-.72.13-1.45v-9.78c0-.96-.1-1.54-.29-1.77-.27-.3-.71-.44-1.33-.44h-.53v-.41h11.61l.17,3.3h-.43c-.16-.79-.33-1.34-.52-1.63-.19-.3-.47-.52-.84-.68-.3-.11-.82-.17-1.57-.17h-4.13Z"/>
        <path class="cls-1" d="M238.09,106.17c1.96,0,3.65.74,5.08,2.23,1.43,1.48,2.15,3.34,2.15,5.56s-.72,4.19-2.17,5.7c-1.44,1.51-3.19,2.27-5.24,2.27s-3.82-.74-5.23-2.21c-1.41-1.47-2.12-3.38-2.12-5.72s.81-4.34,2.44-5.85c1.41-1.31,3.11-1.97,5.08-1.97ZM237.88,106.98c-1.35,0-2.43.5-3.24,1.5-1.01,1.24-1.52,3.07-1.52,5.46s.53,4.35,1.58,5.68c.81,1.01,1.87,1.51,3.2,1.51,1.41,0,2.58-.55,3.5-1.65.92-1.1,1.38-2.84,1.38-5.22,0-2.58-.51-4.5-1.52-5.76-.81-1.01-1.94-1.51-3.38-1.51Z"/>
        <path class="cls-1" d="M248.4,106.52h4.09l9.21,11.29v-8.69c0-.93-.1-1.5-.31-1.73-.27-.31-.71-.47-1.3-.47h-.52v-.41h5.24v.41h-.53c-.64,0-1.09.19-1.35.58-.16.24-.24.78-.24,1.62v12.69h-.4l-9.93-12.13v9.27c0,.93.1,1.5.3,1.73.28.31.71.47,1.3.47h.53v.41h-5.24v-.41h.52c.64,0,1.1-.19,1.37-.58.16-.24.24-.78.24-1.62v-10.47c-.44-.51-.77-.85-.99-1.01s-.56-.31-.99-.46c-.21-.07-.54-.1-.98-.1v-.41Z"/>
        <path class="cls-1" d="M272.38,107.34v5.95h3.31c.86,0,1.43-.13,1.72-.39.38-.34.6-.94.64-1.8h.41v5.24h-.41c-.1-.73-.21-1.2-.31-1.41-.13-.26-.35-.46-.66-.61-.3-.15-.77-.22-1.4-.22h-3.31v4.96c0,.67.03,1.07.09,1.22s.16.26.31.34c.15.09.43.13.84.13h2.55c.85,0,1.47-.06,1.85-.18.38-.12.75-.35,1.11-.7.46-.46.93-1.15,1.41-2.08h.44l-1.3,3.78h-11.61v-.41h.53c.36,0,.69-.08,1.01-.26.24-.12.4-.3.48-.53.09-.24.13-.72.13-1.45v-9.78c0-.96-.1-1.54-.29-1.77-.27-.3-.71-.44-1.33-.44h-.53v-.41h11.61l.17,3.3h-.43c-.16-.79-.33-1.34-.52-1.63-.19-.3-.47-.52-.84-.68-.3-.11-.82-.17-1.57-.17h-4.13Z"/>
      </g>
      <g>
        <g>
          <polygon class="cls-2" points="55.14 78.85 49.5 73.21 48.19 74.52 55.14 81.48 62.1 74.52 60.79 73.21 55.14 78.85"/>
          <rect class="cls-1" x="50.22" y="65.04" width="9.84" height="9.84" transform="translate(65.62 -18.5) rotate(45)"/>
        </g>
        <g>
          <path class="cls-2" d="M10.44,15.21H1.03l-.49-1.18h9.91V3.39l3.87.55c.61.08.84.34.84.59,0,.51-.49.76-1.41,1.18v34.43l-3.3.59v-11.1c-.61.51-1.1.89-1.75,1.35-.8.59-4.37,3.04-5.09,3.54-.19,1.01-.3,1.52-.76,1.52-.42,0-.68-.59-.76-.72l-1.67-4.09c5.43-1.35,7.1-1.9,10.03-2.95v-13.08ZM31.9,28.93l.91.04c-.04.55-.23,2.66-.23,3.42,0,2.49.72,2.78,1.63,3.12-.38,1.94-.76,3.71-3.49,3.71h-8.58c-2.09,0-2.73-1.22-2.73-3.08V3.44l3.76.51c.57.08,1.03.34,1.03.76,0,.51-.57.76-1.48,1.14v11.69c3.84-3.67,5.2-5.61,7.37-8.74l3.04,3.16c.15.13.49.55.49.89,0,.38-.42.51-.8.51-.11,0-.72-.04-1.06-.08-3.72,2.62-5.7,3.88-9.04,5.65v15.45c0,1.05.23,1.35,1.18,1.35h4.71c1.44,0,1.79-1.01,2.09-2.11l1.22-4.68Z"/>
          <path class="cls-2" d="M7.6,45.94c.19,0,.8.08.8.55,0,.42-.15.51-1.44,1.06v8.65h.87l1.6-2.4,2.7,2.62v.93h-5.17v12.58l1.22-.34c.42-.09.84-.21,1.22-.3l2.2-.63.23.76c-2.24,1.48-3.84,2.53-8.93,5.19-.27,1.06-.38,1.48-.8,1.48-.23,0-.49-.25-.61-.55l-1.48-4.05c2.05-.34,2.58-.46,3.72-.72v-13.42H.49l-.49-1.14h3.72v-10.68l3.87.42ZM29.85,53.45l1.63-2.19c-.95,0-1.18-.21-1.63-1.18-1.14-2.53-1.18-2.66-2.62-3.88l.19-.51c2.24.55,5.24,1.27,5.24,3.84,0,.68-.23,1.05-.76,1.56l2.89,2.57v.93h-8.62c.27,8.02.72,10.3,1.41,13.8,1.6-3.88,2.05-5.44,2.92-9.03l3.23,2.03c.34.21.53.55.53.76,0,.55-.53.59-1.33.63-1.82,5.19-2.58,6.63-4.18,9.37,1.14,2.78,1.67,3.59,2.85,4.81.99-1.9,1.41-2.78,2.2-5.11l.68.3-.49,2.83c-.15.72-.3,1.73-.3,2.78,0,1.73.65,2.7,1.22,3.59-.46.68-.87,1.18-1.79,1.18-1.44,0-3.87-1.98-6.42-7.43-3.42,3.93-5.39,5.44-9.61,7.68l-.3-.63c4.56-3.67,6.34-5.87,8.77-9.83-1.03-3.33-1.9-6.16-2.43-17.72h-7.75v7h3l.95-1.86,2.92,2.11c.23.13.49.42.49.68,0,.46-.38.63-1.14.97l-.08,2.4c-.08,1.44-.34,7.98-1.06,9.87-.8,1.98-3.04,1.98-3.23,1.98-.61,0-.61-.25-.65-1.14-.08-1.1-.68-1.22-2.35-1.65v-.76h3.49c.57-2.24.72-4.85.84-11.48h-3.19c-.04,3.46-.08,6.75-1.52,10.59-1.97,5.19-5.51,7.43-7.79,8.86l-.49-.63c1.48-1.27,3.15-2.74,4.67-6.25,1.67-3.88,1.98-6.79,1.98-13.55v-10.47l3.61,2.15h7.25c-.11-3.08-.15-4.3-.23-8.78l3.61.46c.27.04.68.25.68.63,0,.46-.23.55-1.1.93,0,3.12,0,4.05.08,6.75h3.72Z"/>
        </g>
        <g>
          <path class="cls-2" d="M99.86,34.6c.25.18,1.33.92,1.33,1.66,0,1.2-1.49,1.2-3.23,1.29-6.79,6.9-9.11,9.29-14,13.71,5.47-.18,6.54-.28,13.09-.28-1.33-2.21-1.74-2.85-3.64-4.88l.58-1.2c3.81,1.2,5.63,2.02,7.54,3.96.83.92,2.73,3.13,2.73,5.98s-1.82,3.87-2.9,3.87c-1.91,0-2.32-1.56-3.23-5.06-3.23.74-3.89.83-6.29,1.29v26.78l-6.63,1.38v-26.96l-3.15.55c-1.9.28-4.64.83-5.71.92-.75,1.38-1.24,2.21-1.82,2.21-.75,0-1.24-1.75-1.33-1.84l-2.07-6.63c3.89.09,4.64.09,9.36-.09,8.37-10.77,9.86-13.16,14.16-20.15l5.22,3.5ZM83.22,61.75c.58.18,1.49.92,1.49,1.38,0,.64-.83,1.01-2.32,1.56-2.48,6.07-4.06,9.29-8.86,16.47l-1.49-.83c2.07-5.8,3.15-9.11,4.89-20.52l6.29,1.93ZM85.87,20.61v1.56l5.88,3.31c.83.55,1.41,1.1,1.41,1.66,0,.83-.99,1.1-2.73,1.47-.75.83-1.82,1.84-2.32,2.39l-2.07,2.3c-.66.74-2.15,2.21-2.4,2.48,1.57,2.12,2.15,3.22,2.15,4.97,0,1.93-1.08,3.86-2.73,3.86-1.74,0-2.82-2.3-3.31-3.5-2.48-5.61-2.65-5.89-5.55-8.47l.41-1.2c2.98.55,3.89.83,6.87,2.48,2.32-5.8,2.65-6.9,4.06-11.23l-6.54,1.29V1.93l6.63,3.68h46.71l2.07-3.68,6.05,4.33c.08.09,1.49,1.01,1.49,1.75,0,.92-.83,1.29-2.4,2.02v12.33l-6.96,1.1v-2.85h-46.71ZM97.21,8.1h-11.35v10.03h11.35v-10.03ZM95.14,60.09c7.45,5.25,8.86,9.85,8.86,12.42,0,3.13-1.91,4.6-3.23,4.6-2.15,0-2.57-1.93-3.56-7.36-.5-3.22-1.9-6.07-2.98-8.47l.91-1.2ZM119.16,25.4c.33.18,1.74.83,1.74,1.75,0,1.2-1.08,1.38-3.06,1.56-1.57,3.13-2.24,4.33-4.31,7.64l.75.64h8.95c1.41-6.35,1.74-8.1,2.48-13.8l6.79,2.3c.25.09,1.49.55,1.49,1.47,0,1.1-1.08,1.38-2.98,1.75-.17.37-1.08,1.93-1.41,2.48l-1.49,2.85c-.33.64-1.08,1.93-1.66,2.94h8.7l3.4-4.79,6.54,5.89v1.29h-16.4v9.75h4.64l3.23-4.6,6.21,5.34v1.75h-14.08v9.75h4.39l3.64-5.15,6.13,5.71v1.93h-14.16v11.32h6.13l4.22-5.61,6.96,6.26v1.84h-31.64v3.77l-6.87,1.29v-38.1c-2.24,2.76-2.82,3.31-4.56,4.97l-1.33-1.2c5.88-9.75,9.03-19.79,10.77-26.14l6.79,3.13ZM114.69,18.13v-10.03h-10.93v10.03h10.93ZM122.31,39.39h-7.95v9.75h7.95v-9.75ZM122.31,51.63h-7.95v9.75h7.95v-9.75ZM122.31,63.87h-7.95v11.32h7.95v-11.32ZM132.58,18.13v-10.03h-11.26v10.03h11.26Z"/>
          <path class="cls-2" d="M174.59,63.04c.58.37,1.16.92,1.16,1.56,0,1.2-1.91,1.56-4.06,2.02-5.13,7.45-11.02,13.07-17.97,17.58l-1.16-1.38c9.03-10.49,11.84-17.85,14.25-24.48l7.79,4.69ZM188.42,13.99l3.31-4.51,5.3,5.06v1.93h-9.11v36.81h.99l3.56-5.34,5.3,5.06c.08-2.48.08-3.31.08-5.89V4.97l6.79,4.14c8.12-3.13,11.68-5.15,16.98-9.11l6.29,6.9c.33.37.5.74.5,1.1,0,.92-.91,1.01-1.33,1.01-.25,0-.41-.09-.58-.09l-2.65-.46-2.57.55c-8.2,1.84-11.51,2.21-16.07,2.67v18.87h13.58l4.31-6.26,6.96,6.63v2.12h-8.95v48.87l-6.96,1.38v-50.25h-8.95v11.5c0,6.17-1.16,18.04-6.38,26.6-4.22,6.81-9.11,9.85-13.42,12.61l-.99-1.66c3.48-3.22,4.31-4.14,6.38-6.9-1.99-.55-2.4-1.01-3.31-3.13-3.4-7.45-5.14-8.83-8.28-11.14l.66-1.66c4.89,1.1,11.84,2.67,14,10.49,2.07-5.15,2.65-7.36,3.64-13.99h-42.65l-1.08-2.48h7.95V16.47h-5.47l-1.33-2.48h6.79V.28l8.53,1.1c.5.09,1.57.37,1.57,1.2,0,.92-.33,1.1-3.23,2.76v8.65h12.42V.18l8.2,1.01c.25,0,1.66.18,1.66,1.2s-.33,1.2-2.98,2.48v9.11h.5ZM181.05,26.41v-9.94h-12.42v9.94h12.42ZM181.05,39.48v-10.58h-12.42v10.58h12.42ZM181.05,53.28v-11.32h-12.42v11.32h12.42Z"/>
          <path class="cls-2" d="M252.08,1.75c.91.09,1.74.64,1.74,1.38,0,1.2-1.08,1.66-3.48,2.58v13.44h3.06l2.15-3.86,6.87,5.43c.41.46.99,1.1.99,1.84,0,1.2-1.33,1.38-3.23,1.47-3.81,6.44-5.22,8.56-9.77,14.54v3.77c5.22,2.21,10.68,4.88,10.68,10.31,0,2.85-1.74,3.87-2.9,3.87-1.91,0-2.98-2.3-3.15-2.85l-1.33-3.4c-.75-1.93-1.41-3.04-3.31-5.25v37.55l-7.04,1.38v-37.09c-4.64,4.79-5.88,6.07-9.61,9.2l-1.41-1.38c9.52-10.67,16.15-22.73,20.29-32.94h-17.89l-.91-2.58h9.61V.55l8.61,1.2ZM296.22,7.55l4.06-6.07,7.62,6.44v2.12h-46.63l-.99-2.48h35.95ZM268.89,78.41v4.23l-6.96,1.38v-42.15l7.79,4.97h27.99l2.65-4.6,6.54,5.06c.41.28,1.49,1.2,1.49,2.02,0,1.01-.33,1.1-2.9,2.21v29.91l-7.12,1.47v-4.51h-29.49ZM274.52,19.69h18.06l2.15-4.14,6.79,4.79c.58.46,1.33,1.2,1.33,1.84,0,1.01-.33,1.1-2.73,2.21v14.08l-6.96,1.38v-3.31h-19.13v2.85l-6.87,1.38v-24.75l7.37,3.68ZM279.66,49.33h-10.77v11.32h10.77v-11.32ZM279.66,63.13h-10.77v12.79h10.77v-12.79ZM293.16,33.96v-11.78h-19.13v11.78h19.13ZM286.37,60.65h12.01v-11.32h-12.01v11.32ZM286.37,75.92h12.01v-12.79h-12.01v12.79Z"/>
        </g>
      </g>
    </g>
  </g>
</svg>