<?xml version="1.0" encoding="UTF-8"?>
<svg id="_圖層_2" data-name="圖層 2" xmlns="http://www.w3.org/2000/svg" viewBox="0 0 62.1 79.38">
  <defs>
    <style>
      .cls-1 {
        fill: #fff;
      }

      .cls-2 {
        fill: #fbce00;
      }
    </style>
  </defs>
  <g id="_圖層_1-2" data-name="圖層 1">
    <g>
      <g>
        <polygon class="cls-1" points="55.14 75.46 49.5 69.82 48.19 71.13 55.14 78.08 62.1 71.13 60.79 69.82 55.14 75.46"/>
        <rect class="cls-2" x="50.22" y="61.65" width="9.84" height="9.84" transform="translate(63.22 -19.5) rotate(45)"/>
      </g>
      <g>
        <path class="cls-1" d="M10.44,11.82H1.03l-.49-1.18H10.44V0l3.87,.55c.61,.08,.84,.34,.84,.59,0,.51-.49,.76-1.41,1.18V36.76l-3.3,.59v-11.1c-.61,.51-1.1,.89-1.75,1.35-.8,.59-4.37,3.04-5.09,3.54-.19,1.01-.3,1.52-.76,1.52-.42,0-.68-.59-.76-.72L.42,27.85c5.43-1.35,7.1-1.9,10.03-2.95V11.82Zm21.46,13.71l.91,.04c-.04,.55-.23,2.66-.23,3.42,0,2.49,.72,2.78,1.63,3.12-.38,1.94-.76,3.71-3.49,3.71h-8.58c-2.09,0-2.73-1.22-2.73-3.08V.04l3.76,.51c.57,.08,1.03,.34,1.03,.76,0,.51-.57,.76-1.48,1.14V14.14c3.84-3.67,5.2-5.61,7.37-8.74l3.04,3.16c.15,.13,.49,.55,.49,.89,0,.38-.42,.51-.8,.51-.11,0-.72-.04-1.06-.08-3.72,2.62-5.7,3.88-9.04,5.65v15.45c0,1.05,.23,1.35,1.18,1.35h4.71c1.44,0,1.79-1.01,2.09-2.11l1.22-4.68Z"/>
        <path class="cls-1" d="M7.6,42.54c.19,0,.8,.08,.8,.55,0,.42-.15,.51-1.44,1.06v8.65h.87l1.6-2.4,2.7,2.62v.93H6.95v12.58l1.22-.34c.42-.09,.84-.21,1.22-.3l2.2-.63,.23,.76c-2.24,1.48-3.84,2.53-8.93,5.19-.27,1.06-.38,1.48-.8,1.48-.23,0-.49-.25-.61-.55l-1.48-4.05c2.05-.34,2.58-.46,3.72-.72v-13.42H.49l-.49-1.14H3.72v-10.68l3.87,.42Zm22.26,7.51l1.63-2.19c-.95,0-1.18-.21-1.63-1.18-1.14-2.53-1.18-2.66-2.62-3.88l.19-.51c2.24,.55,5.24,1.27,5.24,3.84,0,.68-.23,1.05-.76,1.56l2.89,2.57v.93h-8.62c.27,8.02,.72,10.3,1.41,13.8,1.6-3.88,2.05-5.44,2.92-9.03l3.23,2.03c.34,.21,.53,.55,.53,.76,0,.55-.53,.59-1.33,.63-1.82,5.19-2.58,6.63-4.18,9.37,1.14,2.78,1.67,3.59,2.85,4.81,.99-1.9,1.41-2.78,2.2-5.11l.68,.3-.49,2.83c-.15,.72-.3,1.73-.3,2.78,0,1.73,.65,2.7,1.22,3.59-.46,.68-.87,1.18-1.79,1.18-1.44,0-3.87-1.98-6.42-7.43-3.42,3.93-5.39,5.44-9.61,7.68l-.3-.63c4.56-3.67,6.34-5.87,8.77-9.83-1.03-3.33-1.9-6.16-2.43-17.72h-7.75v7h3l.95-1.86,2.92,2.11c.23,.13,.49,.42,.49,.68,0,.46-.38,.63-1.14,.97l-.08,2.4c-.08,1.44-.34,7.98-1.06,9.87-.8,1.98-3.04,1.98-3.23,1.98-.61,0-.61-.25-.65-1.14-.08-1.1-.68-1.22-2.35-1.65v-.76h3.49c.57-2.24,.72-4.85,.84-11.48h-3.19c-.04,3.46-.08,6.75-1.52,10.59-1.97,5.19-5.51,7.43-7.79,8.86l-.49-.63c1.48-1.27,3.15-2.74,4.67-6.25,1.67-3.88,1.98-6.79,1.98-13.55v-10.47l3.61,2.15h7.25c-.11-3.08-.15-4.3-.23-8.78l3.61,.46c.27,.04,.68,.25,.68,.63,0,.46-.23,.55-1.1,.93,0,3.12,0,4.05,.08,6.75h3.72Z"/>
      </g>
    </g>
  </g>
</svg>