<?xml version="1.0" encoding="UTF-8"?>
<svg id="_圖層_2" data-name="圖層 2" xmlns="http://www.w3.org/2000/svg" xmlns:xlink="http://www.w3.org/1999/xlink" viewBox="0 0 136.79 27.12">
  <defs>
    <style>
      .cls-1 {
        filter: url(#drop-shadow-1);
      }

      .cls-2 {
        fill: none;
      }
    </style>
    <filter id="drop-shadow-1" filterUnits="userSpaceOnUse">
      <feOffset dx="4.14" dy="4.14"/>
      <feGaussianBlur result="blur" stdDeviation="4.14"/>
      <feFlood flood-color="#000" flood-opacity=".7"/>
      <feComposite in2="blur" operator="in"/>
      <feComposite in="SourceGraphic"/>
    </filter>
  </defs>
  <g id="_圖層_2-2" data-name="圖層 2">
    <g class="cls-1">
      <path class="cls-2" d="M0,23.73H27.62v1.94H0v-1.94ZM26.77,5.95v1.91H1.07v-1.91H12.67V.03l2.71,.17c-.03,.2-.18,.35-.61,.41V5.95h12ZM7.13,9.46c1.58,3.92,2.68,8.91,2.86,12.24-.21,0-.43,.03-2.1,.44-.12-3.28-1.22-8.33-2.71-12.21l1.95-.46Zm16.05,.38c-.09,.2-.37,.38-.76,.41-.91,3.83-2.62,9.49-4.05,12.68l-1.83-.49c1.34-3.31,2.89-9.14,3.68-13.2l2.96,.61Z"/>
      <path class="cls-2" d="M46.41,20.51c-.91-1.25-1.92-2.49-2.92-3.54l1.58-.84c2.25,2.35,4.66,5.51,5.7,7.63l-1.71,.96c-.37-.78-.94-1.74-1.58-2.73-3.72,1.13-7.52,2.26-9.99,2.96-.03,.23-.18,.38-.4,.46l-.91-2.29c.64-.15,1.37-.32,2.16-.52V1.65h10.93V15.08h-8.98v7.02l6.12-1.6Zm.94-17h-7.07v3.94h7.07V3.51Zm-7.07,9.75h7.07v-4.03h-7.07v4.03ZM63.13,1.65V19.61c0,2.49-1.31,2.55-5.67,2.55-.09-.55-.43-1.48-.73-2.03,1,.03,1.95,.06,2.65,.06,1.49,0,1.68,0,1.68-.61V3.6h-6.85V26.98h-2.07V1.65h11Z"/>
      <path class="cls-2" d="M85.81,10.88c-.64,1.86-1.67,4.76-2.77,6.73-1.16-.44-1.34-.49-1.52-.55,.58-1.16,1.25-2.9,1.83-4.5h-3.5v12.1c0,2.09-.91,2.35-5.39,2.29-.09-.52-.37-1.31-.64-1.83,.82,0,1.58,.03,2.19,.03,1.74,0,1.86,0,1.86-.52V12.56h-5.18v-1.77h8.01c-1.58-1.42-4.2-3.19-6.46-4.38l1.1-1.28c1.04,.52,2.13,1.16,3.17,1.8,1.22-1.02,2.47-2.44,3.41-3.74h-8.62V1.45h10.05l.33-.12,1.52,.93c-.09,.15-.3,.23-.46,.23-1.16,1.74-3.02,3.89-4.75,5.42,1.01,.73,1.92,1.42,2.53,2.06l-.67,.81h2.89l1.07,.09Zm5.7,12.21c-.09,.12-.27,.2-.58,.23-1.34,1.33-4.2,2.9-6.67,3.8-.3-.41-.94-1.02-1.37-1.36,2.47-.84,5.3-2.35,6.61-3.65l2.01,.99Zm-.37-16.97c.24-.93,.49-2,.67-2.93h-6.61V1.45h15.84v1.74h-7.07c-.21,.84-.52,1.94-.85,2.93h6.7v15.32h-13.37V6.12h4.69Zm6.7,4.61v-3.05h-9.47v3.05h9.47Zm0,4.55v-3.07h-9.47v3.07h9.47Zm0,4.58v-3.07h-9.47v3.07h9.47Zm2.01,7.19c-1.16-1.1-3.53-2.76-5.48-3.86l1.58-1.02c1.89,1.04,4.29,2.64,5.54,3.74l-1.64,1.13Z"/>
      <path class="cls-2" d="M113.4,17.32c-.06,.17-.24,.29-.61,.29-.49,2.47-1.34,5.25-2.38,6.96-.37-.23-1.1-.55-1.55-.75,1-1.62,1.77-4.41,2.25-7.05l2.28,.55ZM116.78,.93c-.15,.2-.4,.26-.64,.23-.94,1.68-2.47,4.03-3.75,5.69,.82,.75,1.58,1.51,2.13,2.18,1.49-1.97,2.92-4.03,3.93-5.71l2.19,.99c-.09,.17-.33,.23-.67,.23-1.71,2.52-4.39,5.95-6.76,8.47,1.95-.03,4.05-.06,6.18-.12-.61-.96-1.31-1.94-2.01-2.76,.85-.44,1.19-.58,1.49-.75,1.55,1.83,3.2,4.26,3.84,5.86l-1.58,.87c-.21-.49-.49-1.07-.85-1.71l-3.53,.17v12.42h-1.92V14.65c-1.89,.06-3.59,.15-4.93,.17-.06,.23-.24,.35-.46,.38l-.55-2.18h2.28c.73-.78,1.49-1.65,2.25-2.61-.97-1.25-2.71-2.87-4.2-4.03l1.01-1.25c.3,.23,.61,.46,.94,.7,1.19-1.68,2.59-4.09,3.38-5.8l2.22,.9Zm3.62,22.13c-.33-1.57-1.31-4-2.25-5.83l1.64-.55c.97,1.83,1.98,4.21,2.38,5.77l-1.77,.61Zm15.29-17.55l1.1,.12c0,.17-.03,.44-.06,.64-.49,13.6-.97,18.16-2.19,19.58-.82,.96-1.64,1.13-3.75,1.13-1.04,0-2.28-.03-3.5-.12-.06-.55-.27-1.33-.67-1.86,2.1,.17,4.02,.2,4.78,.2,.61,0,1-.09,1.34-.46,1-1.02,1.52-5.51,1.98-17.32h-9.56c-.82,1.8-1.77,3.42-2.74,4.67-.4-.29-1.16-.78-1.68-1.04,2.04-2.52,3.81-6.85,4.87-11.05l2.56,.64c-.06,.26-.33,.35-.67,.32-.43,1.54-.94,3.07-1.55,4.58h9.29l.46-.03Zm-9.96,6.41c1.77,2.12,3.66,4.93,4.39,6.82l-1.8,.93c-.7-1.86-2.53-4.79-4.26-6.93l1.67-.81Z"/>
    </g>
  </g>
</svg>