<?xml version="1.0" encoding="UTF-8"?>
<svg id="_圖層_2" data-name="圖層 2" xmlns="http://www.w3.org/2000/svg" viewBox="0 0 301.35 118.78">
  <defs>
    <style>
      .cls-1 {
        fill: #fbce00;
      }

      .cls-1, .cls-2 {
        stroke-width: 0px;
      }

      .cls-2 {
        fill: #3c3c3c;
      }
    </style>
  </defs>
  <g id="_圖層_2-2" data-name="圖層 2">
    <g>
      <path class="cls-2" d="M51.22,110.96c1.02.22,1.78.56,2.28,1.04.7.66,1.05,1.48,1.05,2.43,0,.73-.23,1.43-.69,2.1s-1.09,1.15-1.9,1.46c-.8.31-2.03.46-3.68.46h-6.93v-.4h.55c.61,0,1.05-.19,1.32-.58.17-.25.25-.79.25-1.62v-9.48c0-.91-.11-1.48-.31-1.72-.28-.32-.7-.48-1.26-.48h-.55v-.4h6.34c1.18,0,2.13.08,2.85.26,1.08.26,1.91.72,2.48,1.38s.85,1.42.85,2.28c0,.74-.22,1.39-.67,1.97-.45.58-1.11,1.01-1.98,1.29ZM45.55,110.37c.27.05.57.09.91.12.34.03.72.04,1.13.04,1.05,0,1.85-.11,2.38-.34.53-.23.94-.57,1.22-1.04.28-.47.42-.98.42-1.54,0-.86-.35-1.59-1.05-2.2-.7-.6-1.72-.91-3.06-.91-.72,0-1.37.08-1.95.24v5.64ZM45.55,117.39c.84.19,1.66.29,2.48.29,1.31,0,2.3-.29,2.99-.88s1.03-1.32,1.03-2.18c0-.57-.15-1.12-.47-1.65-.31-.53-.82-.94-1.51-1.25-.7-.3-1.57-.45-2.6-.45-.45,0-.83,0-1.15.02s-.57.04-.77.08v6.02Z"/>
      <path class="cls-2" d="M62.83,104.57v5.8h3.22c.84,0,1.4-.12,1.68-.38.37-.33.58-.91.63-1.75h.4v5.11h-.4c-.1-.71-.2-1.17-.3-1.37-.13-.25-.34-.45-.64-.6s-.75-.22-1.36-.22h-3.22v4.84c0,.65.03,1.04.09,1.19.06.14.16.25.3.34.14.08.42.12.82.12h2.49c.83,0,1.43-.06,1.81-.18.38-.11.74-.34,1.08-.68.45-.45.91-1.12,1.37-2.02h.43l-1.27,3.68h-11.31v-.4h.52c.35,0,.67-.08.98-.25.23-.12.39-.29.47-.52.08-.23.12-.7.12-1.42v-9.53c0-.93-.09-1.51-.28-1.72-.26-.29-.69-.43-1.3-.43h-.52v-.4h11.31l.16,3.21h-.42c-.15-.77-.32-1.3-.5-1.59-.18-.29-.46-.51-.82-.66-.29-.11-.8-.16-1.53-.16h-4.03Z"/>
      <path class="cls-2" d="M84.74,103.77h5.12v.4h-.28c-.19,0-.46.08-.82.25-.36.16-.69.4-.98.71-.3.31-.66.81-1.09,1.51l-3.54,5.57v3.68c0,.9.1,1.46.3,1.69.27.3.71.45,1.3.45h.48v.4h-6.23v-.4h.52c.62,0,1.06-.19,1.32-.56.16-.23.24-.76.24-1.58v-3.48l-4.03-6.14c-.48-.72-.8-1.17-.97-1.35s-.52-.4-1.06-.65c-.14-.07-.35-.11-.63-.11v-.4h6.28v.4h-.32c-.34,0-.65.08-.94.24-.28.16-.43.4-.43.71,0,.26.22.73.66,1.41l3.06,4.73,2.88-4.52c.43-.68.65-1.18.65-1.52,0-.2-.05-.38-.16-.54-.1-.16-.25-.29-.45-.38s-.49-.14-.88-.14v-.4Z"/>
      <path class="cls-2" d="M100.73,103.44c1.9,0,3.55.72,4.95,2.17,1.4,1.45,2.09,3.25,2.09,5.42s-.7,4.08-2.11,5.55c-1.41,1.47-3.11,2.21-5.11,2.21s-3.72-.72-5.09-2.15c-1.37-1.43-2.06-3.29-2.06-5.57s.79-4.23,2.38-5.7c1.38-1.28,3.03-1.91,4.95-1.91ZM100.52,104.23c-1.31,0-2.37.49-3.16,1.46-.99,1.21-1.48,2.99-1.48,5.32s.51,4.24,1.54,5.53c.79.98,1.82,1.47,3.12,1.47,1.38,0,2.52-.54,3.41-1.61s1.35-2.77,1.35-5.09c0-2.51-.49-4.38-1.48-5.62-.79-.98-1.89-1.47-3.29-1.47Z"/>
      <path class="cls-2" d="M110.77,103.77h3.98l8.97,11v-8.46c0-.9-.1-1.46-.3-1.69-.27-.3-.69-.45-1.27-.45h-.51v-.4h5.11v.4h-.52c-.62,0-1.06.19-1.32.56-.16.23-.24.76-.24,1.58v12.37h-.39l-9.67-11.82v9.04c0,.9.1,1.46.29,1.69.27.3.7.45,1.27.45h.52v.4h-5.11v-.4h.51c.63,0,1.07-.19,1.33-.56.16-.23.24-.76.24-1.58v-10.2c-.43-.5-.75-.83-.97-.99s-.54-.31-.97-.44c-.21-.06-.53-.1-.95-.1v-.4Z"/>
      <path class="cls-2" d="M129.89,118.45v-.4h.55c.62,0,1.06-.2,1.32-.59.16-.24.24-.77.24-1.6v-9.48c0-.91-.1-1.49-.3-1.72-.28-.32-.7-.48-1.26-.48h-.55v-.4h5.97c2.19,0,3.86.25,5,.75s2.06,1.33,2.76,2.49c.7,1.16,1.04,2.5,1.04,4.02,0,2.04-.62,3.75-1.86,5.12-1.39,1.53-3.51,2.29-6.36,2.29h-6.56ZM134.07,117.39c.92.2,1.68.3,2.3.3,1.67,0,3.06-.59,4.17-1.76,1.1-1.17,1.66-2.77,1.66-4.78s-.55-3.62-1.66-4.79c-1.1-1.17-2.52-1.75-4.25-1.75-.65,0-1.39.1-2.22.31v12.48Z"/>
      <path class="cls-2" d="M168.35,103.77l.16,3.44h-.41c-.08-.6-.19-1.04-.32-1.3-.22-.42-.52-.73-.89-.92s-.86-.3-1.47-.3h-2.07v11.21c0,.9.1,1.46.29,1.69.27.3.7.45,1.27.45h.51v.4h-6.22v-.4h.52c.62,0,1.06-.19,1.32-.56.16-.23.24-.76.24-1.58v-11.21h-1.76c-.69,0-1.17.05-1.46.15-.38.14-.7.4-.96.79s-.43.91-.48,1.58h-.41l.17-3.44h11.98Z"/>
      <path class="cls-2" d="M176.06,110.58h6.82v-4.2c0-.75-.05-1.24-.14-1.48-.07-.18-.22-.34-.45-.47-.31-.17-.64-.26-.98-.26h-.52v-.4h6.28v.4h-.52c-.35,0-.67.08-.98.25-.23.11-.39.29-.47.52-.08.24-.12.71-.12,1.43v9.47c0,.75.05,1.23.14,1.47.07.18.22.33.44.46.32.18.65.26,1,.26h.52v.4h-6.28v-.4h.52c.6,0,1.03-.18,1.31-.53.18-.23.27-.79.27-1.67v-4.47h-6.82v4.47c0,.75.05,1.23.14,1.47.07.18.22.33.45.46.31.18.64.26.98.26h.53v.4h-6.29v-.4h.52c.61,0,1.05-.18,1.32-.53.17-.23.26-.79.26-1.67v-9.47c0-.75-.05-1.24-.14-1.48-.07-.18-.22-.34-.44-.47-.32-.17-.65-.26-1-.26h-.52v-.4h6.29v.4h-.53c-.35,0-.67.08-.98.25-.22.11-.38.29-.47.52-.09.24-.13.71-.13,1.43v4.2Z"/>
      <path class="cls-2" d="M194.58,104.57v5.8h3.22c.84,0,1.4-.12,1.68-.38.37-.33.58-.91.63-1.75h.4v5.11h-.4c-.1-.71-.2-1.17-.3-1.37-.13-.25-.34-.45-.64-.6s-.75-.22-1.36-.22h-3.22v4.84c0,.65.03,1.04.09,1.19.06.14.16.25.3.34.14.08.42.12.82.12h2.49c.83,0,1.43-.06,1.81-.18.38-.11.74-.34,1.08-.68.45-.45.91-1.12,1.37-2.02h.43l-1.27,3.68h-11.31v-.4h.52c.35,0,.67-.08.98-.25.23-.12.39-.29.47-.52.08-.23.12-.7.12-1.42v-9.53c0-.93-.09-1.51-.28-1.72-.26-.29-.69-.43-1.3-.43h-.52v-.4h11.31l.16,3.21h-.42c-.15-.77-.32-1.3-.5-1.59-.18-.29-.46-.51-.82-.66-.29-.11-.8-.16-1.53-.16h-4.03Z"/>
      <path class="cls-2" d="M222,103.44c1.9,0,3.55.72,4.95,2.17,1.4,1.45,2.09,3.25,2.09,5.42s-.7,4.08-2.11,5.55c-1.41,1.47-3.11,2.21-5.11,2.21s-3.72-.72-5.09-2.15c-1.37-1.43-2.06-3.29-2.06-5.57s.79-4.23,2.38-5.7c1.38-1.28,3.03-1.91,4.95-1.91ZM221.8,104.23c-1.31,0-2.37.49-3.16,1.46-.99,1.21-1.48,2.99-1.48,5.32s.51,4.24,1.54,5.53c.79.98,1.82,1.47,3.12,1.47,1.38,0,2.52-.54,3.41-1.61s1.35-2.77,1.35-5.09c0-2.51-.49-4.38-1.48-5.62-.79-.98-1.89-1.47-3.29-1.47Z"/>
      <path class="cls-2" d="M232.05,103.77h3.98l8.97,11v-8.46c0-.9-.1-1.46-.3-1.69-.27-.3-.69-.45-1.27-.45h-.51v-.4h5.11v.4h-.52c-.62,0-1.06.19-1.32.56-.16.23-.24.76-.24,1.58v12.37h-.39l-9.67-11.82v9.04c0,.9.1,1.46.29,1.69.27.3.7.45,1.27.45h.52v.4h-5.11v-.4h.51c.63,0,1.07-.19,1.33-.56.16-.23.24-.76.24-1.58v-10.2c-.43-.5-.75-.83-.97-.99s-.54-.31-.97-.44c-.21-.06-.53-.1-.95-.1v-.4Z"/>
      <path class="cls-2" d="M255.42,104.57v5.8h3.22c.84,0,1.4-.12,1.68-.38.37-.33.58-.91.63-1.75h.4v5.11h-.4c-.1-.71-.2-1.17-.3-1.37-.13-.25-.34-.45-.64-.6s-.75-.22-1.36-.22h-3.22v4.84c0,.65.03,1.04.09,1.19.06.14.16.25.3.34.14.08.42.12.82.12h2.49c.83,0,1.43-.06,1.81-.18.38-.11.74-.34,1.08-.68.45-.45.91-1.12,1.37-2.02h.43l-1.27,3.68h-11.31v-.4h.52c.35,0,.67-.08.98-.25.23-.12.39-.29.47-.52.08-.23.12-.7.12-1.42v-9.53c0-.93-.09-1.51-.28-1.72-.26-.29-.69-.43-1.3-.43h-.52v-.4h11.31l.16,3.21h-.42c-.15-.77-.32-1.3-.5-1.59-.18-.29-.46-.51-.82-.66-.29-.11-.8-.16-1.53-.16h-4.03Z"/>
    </g>
    <g>
      <g>
        <polygon class="cls-2" points="53.73 76.82 48.23 71.32 46.95 72.6 53.73 79.37 60.5 72.6 59.23 71.32 53.73 76.82"/>
        <rect class="cls-1" x="48.94" y="63.36" width="9.58" height="9.58" transform="translate(63.93 -18.03) rotate(45)"/>
      </g>
      <g>
        <path class="cls-2" d="M10.18,14.81H1l-.48-1.15h9.66V3.3l3.77.54c.59.08.81.33.81.57,0,.49-.48.74-1.37,1.15v33.55l-3.22.58v-10.81c-.59.49-1.07.86-1.7,1.32-.78.57-4.26,2.96-4.96,3.45-.19.99-.3,1.48-.74,1.48-.41,0-.67-.57-.74-.7l-1.63-3.99c5.29-1.32,6.92-1.85,9.77-2.88v-12.75ZM31.08,28.17l.89.04c-.04.53-.22,2.59-.22,3.33,0,2.43.7,2.71,1.59,3.04-.37,1.89-.74,3.62-3.4,3.62h-8.36c-2.04,0-2.66-1.19-2.66-3V3.34l3.66.49c.55.08,1,.33,1,.74,0,.49-.56.74-1.44,1.11v11.39c3.74-3.58,5.07-5.47,7.18-8.51l2.96,3.08c.15.12.48.54.48.86,0,.37-.41.49-.78.49-.11,0-.7-.04-1.04-.08-3.63,2.55-5.55,3.78-8.81,5.51v15.05c0,1.03.22,1.32,1.15,1.32h4.59c1.41,0,1.74-.99,2.04-2.06l1.18-4.56Z"/>
        <path class="cls-2" d="M7.4,44.75c.19,0,.78.08.78.53,0,.41-.15.49-1.41,1.03v8.43h.85l1.55-2.34,2.63,2.55v.9h-5.03v12.25l1.18-.33c.41-.08.81-.21,1.18-.29l2.15-.62.22.74c-2.18,1.44-3.74,2.47-8.7,5.06-.26,1.03-.37,1.44-.78,1.44-.22,0-.48-.25-.59-.53l-1.44-3.95c2-.33,2.52-.45,3.63-.7v-13.08H.48l-.48-1.11h3.63v-10.4l3.77.41ZM29.09,52.06l1.59-2.14c-.92,0-1.15-.21-1.59-1.15-1.11-2.47-1.15-2.59-2.55-3.78l.19-.49c2.18.53,5.11,1.23,5.11,3.74,0,.66-.22,1.03-.74,1.52l2.81,2.51v.9h-8.4c.26,7.81.7,10.03,1.37,13.44,1.55-3.78,2-5.3,2.85-8.8l3.15,1.97c.33.21.52.54.52.74,0,.53-.52.57-1.3.62-1.78,5.06-2.52,6.46-4.07,9.13,1.11,2.71,1.63,3.49,2.78,4.69.96-1.85,1.37-2.71,2.15-4.97l.67.29-.48,2.76c-.15.7-.3,1.68-.3,2.71,0,1.69.63,2.63,1.18,3.49-.44.66-.85,1.15-1.74,1.15-1.41,0-3.77-1.93-6.25-7.24-3.33,3.82-5.26,5.3-9.36,7.48l-.3-.62c4.44-3.58,6.18-5.72,8.55-9.58-1-3.25-1.85-6-2.37-17.27h-7.55v6.83h2.92l.92-1.81,2.85,2.06c.22.12.48.41.48.66,0,.45-.37.62-1.11.95l-.07,2.34c-.07,1.4-.33,7.77-1.04,9.62-.78,1.93-2.96,1.93-3.15,1.93-.59,0-.59-.25-.63-1.11-.07-1.07-.67-1.19-2.29-1.6v-.74h3.4c.56-2.18.7-4.73.81-11.18h-3.11c-.04,3.37-.07,6.58-1.48,10.32-1.92,5.06-5.37,7.24-7.59,8.64l-.48-.62c1.44-1.23,3.07-2.67,4.55-6.09,1.63-3.78,1.92-6.62,1.92-13.2v-10.2l3.52,2.1h7.07c-.11-3-.15-4.19-.22-8.55l3.52.45c.26.04.67.25.67.62,0,.45-.22.53-1.07.9,0,3.04,0,3.95.07,6.58h3.63Z"/>
      </g>
      <g>
        <path class="cls-2" d="M97.3,33.71c.24.18,1.29.9,1.29,1.61,0,1.17-1.45,1.17-3.15,1.26-6.62,6.72-8.88,9.05-13.64,13.36,5.33-.18,6.38-.27,12.75-.27-1.29-2.15-1.69-2.78-3.55-4.75l.56-1.16c3.71,1.16,5.49,1.97,7.34,3.85.81.9,2.66,3.05,2.66,5.83s-1.78,3.76-2.83,3.76c-1.86,0-2.26-1.52-3.15-4.93-3.15.72-3.79.81-6.13,1.25v26.09l-6.45,1.34v-26.27l-3.07.54c-1.86.27-4.52.8-5.57.9-.73,1.34-1.21,2.15-1.77,2.15-.73,0-1.21-1.7-1.29-1.79l-2.02-6.45c3.79.09,4.52.09,9.12-.09,8.15-10.49,9.6-12.82,13.8-19.63l5.08,3.41ZM81.08,60.16c.56.18,1.45.9,1.45,1.34,0,.63-.81.99-2.26,1.52-2.42,5.92-3.95,9.06-8.63,16.05l-1.45-.81c2.02-5.65,3.07-8.87,4.76-19.99l6.13,1.88ZM83.66,20.08v1.52l5.73,3.23c.81.54,1.37,1.08,1.37,1.62,0,.81-.97,1.08-2.66,1.43-.73.81-1.78,1.79-2.26,2.33l-2.02,2.24c-.65.72-2.1,2.15-2.34,2.42,1.53,2.06,2.1,3.14,2.1,4.84,0,1.88-1.05,3.76-2.66,3.76-1.7,0-2.74-2.24-3.23-3.41-2.42-5.47-2.58-5.74-5.41-8.25l.4-1.17c2.9.54,3.79.81,6.7,2.42,2.26-5.65,2.58-6.72,3.95-10.94l-6.37,1.25V1.88l6.46,3.59h45.51l2.02-3.59,5.89,4.22c.08.09,1.45.99,1.45,1.7,0,.9-.81,1.25-2.34,1.97v12.01l-6.78,1.08v-2.78h-45.51ZM94.71,7.89h-11.05v9.77h11.05V7.89ZM92.7,58.54c7.26,5.11,8.63,9.59,8.63,12.11,0,3.05-1.86,4.48-3.15,4.48-2.1,0-2.5-1.88-3.47-7.17-.48-3.14-1.86-5.92-2.9-8.25l.89-1.17ZM116.1,24.74c.32.18,1.69.8,1.69,1.7,0,1.17-1.05,1.34-2.99,1.52-1.53,3.05-2.18,4.21-4.2,7.44l.73.63h8.71c1.37-6.19,1.7-7.89,2.42-13.45l6.62,2.24c.24.09,1.45.54,1.45,1.43,0,1.08-1.05,1.35-2.91,1.71-.16.36-1.05,1.88-1.37,2.42l-1.45,2.78c-.32.63-1.05,1.88-1.61,2.87h8.47l3.31-4.66,6.38,5.74v1.26h-15.98v9.5h4.52l3.15-4.48,6.05,5.2v1.7h-13.72v9.5h4.28l3.55-5.02,5.97,5.56v1.88h-13.8v11.03h5.97l4.12-5.47,6.78,6.1v1.79h-30.82v3.67l-6.7,1.26v-37.12c-2.18,2.69-2.74,3.23-4.44,4.84l-1.29-1.17c5.73-9.5,8.8-19.27,10.49-25.46l6.62,3.05ZM111.74,17.66V7.89h-10.65v9.77h10.65ZM119.17,38.37h-7.75v9.5h7.75v-9.5ZM119.17,50.29h-7.75v9.5h7.75v-9.5ZM119.17,62.22h-7.75v11.03h7.75v-11.03ZM129.17,17.66V7.89h-10.97v9.77h10.97Z"/>
        <path class="cls-2" d="M170.52,61.41c.56.36,1.13.9,1.13,1.52,0,1.17-1.86,1.52-3.95,1.97-5,7.26-10.73,12.73-17.51,17.12l-1.13-1.34c8.8-10.22,11.54-17.39,13.88-23.85l7.59,4.57ZM184,13.63l3.23-4.39,5.16,4.93v1.88h-8.88v35.86h.97l3.47-5.2,5.16,4.93c.08-2.42.08-3.23.08-5.74V4.84l6.62,4.04c7.91-3.05,11.38-5.02,16.54-8.87l6.13,6.72c.32.36.48.72.48,1.08,0,.9-.89.99-1.29.99-.24,0-.4-.09-.56-.09l-2.58-.45-2.5.54c-7.99,1.79-11.22,2.15-15.65,2.6v18.38h13.23l4.2-6.1,6.78,6.45v2.06h-8.71v47.6l-6.78,1.34v-48.95h-8.71v11.21c0,6.01-1.13,17.57-6.21,25.91-4.12,6.64-8.88,9.59-13.07,12.28l-.97-1.61c3.39-3.14,4.2-4.04,6.21-6.73-1.94-.54-2.34-.99-3.23-3.05-3.31-7.26-5-8.61-8.07-10.85l.65-1.61c4.76,1.08,11.54,2.6,13.64,10.22,2.02-5.02,2.58-7.17,3.55-13.63h-41.56l-1.05-2.42h7.75V16.05h-5.33l-1.29-2.42h6.62V.27l8.31,1.08c.48.09,1.53.36,1.53,1.17,0,.9-.32,1.08-3.15,2.69v8.43h12.1V.18l7.99.99c.24,0,1.62.18,1.62,1.17s-.32,1.17-2.91,2.42v8.88h.48ZM176.81,25.73v-9.68h-12.1v9.68h12.1ZM176.81,38.46v-10.31h-12.1v10.31h12.1ZM176.81,51.91v-11.03h-12.1v11.03h12.1Z"/>
        <path class="cls-2" d="M246.48,1.7c.89.09,1.69.63,1.69,1.34,0,1.17-1.05,1.62-3.39,2.51v13.09h2.99l2.1-3.77,6.7,5.29c.4.45.97,1.08.97,1.79,0,1.17-1.29,1.35-3.15,1.43-3.71,6.28-5.08,8.34-9.52,14.17v3.68c5.08,2.15,10.41,4.75,10.41,10.04,0,2.78-1.69,3.76-2.82,3.76-1.86,0-2.91-2.24-3.07-2.78l-1.29-3.32c-.73-1.88-1.37-2.96-3.23-5.11v36.58l-6.86,1.35v-36.13c-4.52,4.66-5.73,5.92-9.36,8.97l-1.37-1.34c9.28-10.4,15.74-22.14,19.77-32.09h-17.43l-.89-2.51h9.36V.54l8.39,1.17ZM289.49,7.35l3.95-5.92,7.42,6.27v2.06h-45.43l-.97-2.42h35.02ZM262.86,76.38v4.12l-6.78,1.34v-41.06l7.58,4.84h27.28l2.58-4.48,6.38,4.93c.4.27,1.45,1.17,1.45,1.97,0,.99-.32,1.08-2.82,2.15v29.13l-6.94,1.43v-4.39h-28.73ZM268.34,19.18h17.59l2.1-4.04,6.62,4.66c.56.45,1.29,1.17,1.29,1.79,0,.99-.32,1.08-2.66,2.15v13.72l-6.78,1.34v-3.23h-18.64v2.78l-6.7,1.34V15.6l7.18,3.59ZM273.35,48.05h-10.49v11.03h10.49v-11.03ZM273.35,61.5h-10.49v12.46h10.49v-12.46ZM286.5,33.08v-11.48h-18.64v11.48h18.64ZM279.88,59.08h11.7v-11.03h-11.7v11.03ZM279.88,73.96h11.7v-12.46h-11.7v12.46Z"/>
      </g>
    </g>
  </g>
</svg>