<?xml version="1.0" encoding="UTF-8"?>
<svg id="_圖層_2" data-name="圖層 2" xmlns="http://www.w3.org/2000/svg" xmlns:xlink="http://www.w3.org/1999/xlink" viewBox="0 0 67.54 67.54">
  <defs>
    <style>
      .cls-1 {
        fill: url(#_未命名漸層_57);
      }
    </style>
    <linearGradient id="_未命名漸層_57" data-name="未命名漸層 57" x1="1.82" y1="65.72" x2="65.72" y2="1.82" gradientUnits="userSpaceOnUse">
      <stop offset="0" stop-color="#c0b297"/>
      <stop offset=".48" stop-color="#e1cfb0"/>
      <stop offset=".79" stop-color="#d1bfa7"/>
      <stop offset="1" stop-color="#c5b693"/>
    </linearGradient>
  </defs>
  <g id="_圖層_1-2" data-name="圖層 1">
    <path class="cls-1" d="M58.5,36.56c.41,7.35-4.04,16.84-12.34,21.41-2.62-4.53-5.24-9.07-7.87-13.62,2.86-1.83,4.37-4.4,4.52-7.79h15.69Zm-30.23-3.02l3.35-2.88c-1.43,.53-2.62,1.55-3.35,2.88Zm6.89-5.92l7.47-6.42c1.18-2.05,2.36-4.09,3.53-6.12-7.39-4.58-17.8-4.39-24.75,.02,2.62,4.53,5.23,9.07,7.86,13.61,1.99-1.05,3.94-1.39,5.89-1.08Zm-10.42,8.96s0-.02,0-.03H9.03c-.14,3.69,.82,7.63,2.66,11.24l13.04-11.2Zm-8.65,17.34c1.56,1.59,3.34,2.97,5.32,4.03,2.62-4.53,5.23-9.07,7.86-13.62-.4-.24-.76-.51-1.11-.79l-12.08,10.38Zm23.36-20.07l-9.14,7.86c.98,.66,2.16,1.05,3.43,1.06,3.46,.02,6.29-2.76,6.32-6.2,0-.97-.22-1.89-.61-2.72ZM67.54,6.22V61.32c0,3.43-2.79,6.22-6.22,6.22H6.22c-3.43,0-6.22-2.79-6.22-6.22V6.22C0,2.79,2.79,0,6.22,0H61.32c3.43,0,6.22,2.79,6.22,6.22ZM3.42,6.22V57.73L64.06,5.62c-.27-1.26-1.39-2.2-2.73-2.2H6.22c-1.54,0-2.8,1.26-2.8,2.8Zm60.7,55.1V9.81L3.49,61.92c.27,1.26,1.39,2.2,2.73,2.2H61.32c1.54,0,2.8-1.26,2.8-2.8Z"/>
  </g>
</svg>