<?xml version="1.0" encoding="UTF-8"?>
<svg id="_圖層_2" data-name="圖層 2" xmlns="http://www.w3.org/2000/svg" xmlns:xlink="http://www.w3.org/1999/xlink" viewBox="0 0 67.54 67.54">
  <defs>
    <style>
      .cls-1 {
        fill: url(#_未命名漸層_57);
      }
    </style>
    <linearGradient id="_未命名漸層_57" data-name="未命名漸層 57" x1="1.82" y1="65.72" x2="65.72" y2="1.82" gradientUnits="userSpaceOnUse">
      <stop offset="0" stop-color="#c0b297"/>
      <stop offset=".48" stop-color="#e1cfb0"/>
      <stop offset=".79" stop-color="#d1bfa7"/>
      <stop offset="1" stop-color="#c5b693"/>
    </linearGradient>
  </defs>
  <g id="_圖層_1-2" data-name="圖層 1">
    <path class="cls-1" d="M60.85,55.03c-.41-1.55-1.42-2.61-3.01-3.15-.04-.02-.12-.11-.14-.18-.62-1.87-2.2-3.03-4.13-3.05-.86,0-1.72,0-2.57,0h-6.16c-.09-.15-.17-.29-.25-.43-.27-.48-.53-.94-.9-1.32-3.73-3.8-6.78-6.85-9.59-9.59-2.09-2.04-4.6-3.12-7.47-3.22-1.57-.06-3.16-.05-4.7-.04-.66,0-1.32,0-2.03,0-.14,0-.37-.02-.55,.14l-.14,.11c-.23,.19-.52,.42-.58,.77-.09,.53,.37,1.05,.46,1.14,.24,.26,.62,.28,.95,.28h1.07c1.48,.02,2.97,.03,4.45,0,2.89-.03,5.27,.94,7.33,3.03,1.94,1.97,3.9,3.92,5.86,5.87l2.76,2.75c.18,.18,.37,.36,.54,.56,.55,.64,.59,1.57,.08,2.26-.32,.44-.77,.7-1.28,.74-.56,.05-1.13-.18-1.58-.63-2.02-2.01-4.04-4.03-6.05-6.05-1.18-1.18-2.56-1.79-4.12-1.81-.74,.04-1.29,.46-1.32,1.16-.01,.35,.1,.67,.33,.9,.22,.24,.55,.37,.91,.38,.98,.02,1.81,.41,2.64,1.25,.83,.84,1.66,1.67,2.49,2.5,1.07,1.06,2.13,2.13,3.19,3.21,1.03,1.06,2.26,1.51,3.73,1.56,3.98-.02,7.96-.02,11.94-.01h3.19c.35,0,.63,.03,.88,.07,.47,.08,.89,.37,1.16,.78,.27,.41,.37,.91,.26,1.37-.21,.92-.9,1.44-1.88,1.44h-5.72c-4.16,0-8.32,0-12.47,0-1.01,.02-1.89-.2-2.79-.63-2.24-1.06-4.49-2.12-6.73-3.18-1.77-.83-3.54-1.67-5.31-2.5-1.39-.66-2.72-.93-4.07-.83-.47,.04-.93,.1-1.4,.17l-.12,.02v-15.43c0-1.16-.7-1.41-1.29-1.41-2.5-.01-6.29-.01-8.79,0-.81,0-1.29,.49-1.29,1.31,0,8.53,0,17.05,0,25.58,0,.52,.21,.94,.57,1.17,.18,.11,.38,.17,.6,.17s.45-.06,.68-.17c.81-.4,1.61-.8,2.41-1.2,.65-.33,1.3-.65,1.95-.98,.56-.28,.83-.73,.81-1.35,0-.28,0-.56,0-.84,0-.37,0-.74-.01-1.11,0-.14,0-.16,.17-.24,.27-.12,.95-.29,1.56-.43,.57-.14,1.11-.27,1.4-.38,.98-.38,1.39-1.06,1.21-2.08,0,0,.04-.04,.2-.08,1.48-.45,2.92-.34,4.37,.35l5.3,2.5c2.28,1.07,4.56,2.14,6.83,3.22,1.16,.55,2.34,.82,3.6,.82h.03c2.85-.01,5.7,0,8.56,0h5.7c1.46,0,2.93,0,4.39-.02,1.32-.02,2.43-.62,3.21-1.73,.25-.35,.42-.74,.58-1.12,.07-.16,.14-.31,.21-.47l.05-1.62-.07-.23-.04-.06ZM19.75,34.5h0s0,0,0,0c0,0,0,0,0,0Zm24.74,17.17c.08-.2,.15-.38,.21-.52,.03-.02,.1-.04,.14-.04,2.58-.01,5.15-.01,7.75,0,.45,0,.87,0,1.29,.05,.41,.05,.74,.22,1.01,.51h-10.4Zm-33.53,6.43c-.61,.28-1.2,.58-1.82,.89l-.09,.04v-22.52h2.12v3.95c0,5.76,0,11.53,.01,17.29,0,.22-.02,.25-.22,.34Zm4.34-4.58c-.1,.04-.53,.11-.85,.16-.32,.05-.59,.1-.82,.14v-17.3h1.89v3.3c0,4.43,0,8.86,.01,13.29,0,.3-.05,.33-.24,.4Zm12.67-23.12c1.67,.07,3.33,.05,4.76,.03,.4,0,.69,.11,1,.42,4.33,4.36,8.68,8.7,13.03,13.04,.75,.74,1.68,1.13,2.61,1.13,.66,0,1.31-.19,1.91-.58,1.42-.93,1.94-2.68,1.31-4.33,0-.03,0-.09,0-.1,.45-.47,.92-.94,1.38-1.4,.36-.36,.73-.73,1.09-1.09,.91-.93,1.08-2.25,.44-3.35-.65-1.11-1.88-1.6-3.14-1.25-.09,.03-.12,.02-.17-.03-.59-.62-1.2-1.23-1.85-1.84,0-.03,0-.12,.02-.2,.07-.49,.12-.97,0-1.43-.25-.95-.96-1.67-1.89-1.93-.95-.26-1.95,0-2.68,.69-.62,.6-1.22,1.21-1.84,1.84l-.55,.56c-.33-.33-.65-.67-.98-1-1.01-1.03-1.96-2.01-3.01-2.94-.88-.78-1.22-1.59-1.16-2.81,.1-1.85,.04-3.44-.18-4.86-.37-2.36-1.78-4.56-3.86-6.03-2.13-1.5-4.75-2.11-7.18-1.65-5.4,1.02-8.78,5.89-7.85,11.33,.72,4.18,4.57,7.59,8.77,7.77Zm17.64,1.48c.64-.66,1.29-1.33,1.96-1.98,.04-.04,.15-.14,.35,.04,.12,.11,.15,.2,.03,.39-.55,.9-.51,1.27,.22,2l2.8,2.81c.68,.67,1.13,.72,1.93,.21,.27-.17,.36-.07,.43,.01,.12,.13,.15,.24-.02,.42-.64,.65-1.28,1.29-1.93,1.93l-.38,.37-5.79-5.79,.39-.4ZM27.64,13.71c1.99-.3,4.04,.29,5.61,1.6,1.57,1.31,2.5,3.21,2.56,5.22,.02,.55,.01,1.1,0,1.65v.78s0,.79,0,.79c0,.62,0,1.23,0,1.85-.02,.59,.18,1.07,.62,1.5,4.49,4.47,8.97,8.94,13.43,13.44,.24,.24,.44,.61,.51,.93,.1,.49-.24,.84-.56,.99-.42,.19-.86,.12-1.19-.2-.53-.51-1.05-1.03-1.57-1.55l-2.57-2.57c-3.16-3.16-6.32-6.32-9.47-9.48-.47-.47-.96-.68-1.58-.68h-.05c-1.43,.03-2.86,.02-4.29,.01h-.54c-3.83-.02-7-3.16-7.05-6.99-.05-3.68,2.53-6.75,6.14-7.29Zm-2.65,6.84c-.18-.26-.35-.7-.25-1.07,.12-.41,.6-.65,.86-.72,.38-.11,.76-.14,1.13-.18h.12c.13-.03,.21-.06,.29-.24,.08-.18,.17-.36,.26-.53l.13-.25c.19-.41,.47-.95,1.14-.93,.67,0,.92,.52,1.06,.83,.08,.18,.12,.27,.16,.36,.08,.19,.16,.36,.26,.49,.09,.11,.24,.22,.36,.26,.22,.06,.45,.09,.69,.12,.15,.02,.29,.03,.44,.06,.65,.11,1.01,.55,1,1.2v.12s-.07,.1-.07,.1l-.39-.24h0s.35,.3,.35,.3c-.06,.11-.14,.27-.27,.41-.26,.28-.54,.56-.83,.81-.12,.11-.18,.21-.13,.46l.06,.26c.06,.29,.13,.59,.14,.9,0,.26-.07,.76-.4,1.02-.18,.14-.41,.19-.64,.19-.16,0-.32-.03-.46-.07-.36-.12-.67-.31-.98-.49-.3-.18-.43-.18-.62-.06-.34,.21-.71,.43-1.11,.56-.3,.1-.78,.1-1.08-.13-.38-.28-.4-.86-.4-.98,0-.32,.06-.67,.17-1.06,.09-.33,.04-.52-.22-.72-.26-.21-.55-.45-.76-.76ZM61.32,0H6.22C2.79,0,0,2.79,0,6.22V61.32c0,3.43,2.79,6.22,6.22,6.22H61.32c3.43,0,6.22-2.79,6.22-6.22V6.22c0-3.43-2.79-6.22-6.22-6.22Zm2.8,61.32c0,1.54-1.26,2.8-2.8,2.8H6.22c-1.54,0-2.8-1.26-2.8-2.8V6.22c0-1.54,1.26-2.8,2.8-2.8H61.32c1.54,0,2.8,1.26,2.8,2.8V61.32Z"/>
  </g>
</svg>