<?xml version="1.0" encoding="UTF-8"?>
<svg id="_圖層_2" data-name="圖層 2" xmlns="http://www.w3.org/2000/svg" xmlns:xlink="http://www.w3.org/1999/xlink" viewBox="0 0 67.55 67.54">
  <defs>
    <style>
      .cls-1 {
        fill: url(#_未命名漸層_57);
      }
    </style>
    <linearGradient id="_未命名漸層_57" data-name="未命名漸層 57" x1="1.82" y1="65.72" x2="65.72" y2="1.82" gradientUnits="userSpaceOnUse">
      <stop offset="0" stop-color="#c0b297"/>
      <stop offset=".48" stop-color="#e1cfb0"/>
      <stop offset=".79" stop-color="#d1bfa7"/>
      <stop offset="1" stop-color="#c5b693"/>
    </linearGradient>
  </defs>
  <g id="_圖層_1-2" data-name="圖層 1">
    <path class="cls-1" d="M24.34,40.18c8.92,0,16.15-7.24,16.14-16.16,0-8.88-7.26-16.14-16.14-16.13-8.89,0-16.15,7.26-16.15,16.13,0,8.92,7.25,16.17,16.14,16.17Zm9.81-7.07c-1.94,2.1-4.32,3.42-7.17,4.02,1.51-5.12,5.48-9.24,10.38-10.11-.53,2.34-1.61,4.36-3.21,6.09ZM22.99,10.75c7.07-.7,12.63,4.07,14.11,9.45-2.03,.61-3.96,1.45-5.83,2.58-.73-.74-1.45-1.48-2.18-2.22-1.67-1.67-3.34-3.34-5.01-5.01-.42-.42-.73-.42-1.15,0-2.57,2.57-5.14,5.14-7.71,7.71-.49,.49-.49,.76,0,1.26,2.43,2.43,4.87,4.87,7.25,7.25-.71,1.68-1.4,3.33-2.1,4.99-4.07-1.05-9.35-5.46-9.39-12.74-.03-6.81,5.21-12.58,12-13.26Zm38.23,26.64c0,2.16,0,4.32,0,6.48,0,.07-.03,.15-.06,.25-1.11,0-2.21,0-3.32,0-.32,0-.72-.1-.94,.05-.21,.15-.26,.55-.36,.85-.48,1.44-1.17,2.79-2.02,4.11,.99,.97,1.98,1.94,2.95,2.9-1.67,1.67-3.3,3.3-4.99,4.98-.95-.98-1.92-1.98-2.83-2.92-1.12,.54-2.13,1.09-3.2,1.54-.82,.34-1.7,.58-2.56,.81-.34,.09-.41,.22-.41,.54,.02,1.12,0,2.24,0,3.35v.44h-7v-4.1c-1.62-.58-3.17-1.14-4.79-1.72-.86,.99-1.78,2.07-2.74,3.18-1.77-1.53-3.53-3.04-5.3-4.56,.91-1.06,1.81-2.1,2.72-3.16-1.5-1.87-2.58-3.95-3.24-6.27h-4.43v-3.83c2.69,.91,5.43,1.15,8.24,.74,.6,4.21,2.65,7.5,6.27,9.73,2.68,1.65,5.63,2.22,8.73,1.74,6.39-.98,10.83-6.3,11.11-12.33,.31-6.96-4.86-12.9-11.71-13.65,.37-2.8,.13-5.53-.82-8.22h2.94v3.96c1.9,.41,3.68,1.08,5.36,2.06,.86-1,1.71-1.97,2.58-2.99,1.77,1.53,3.52,3.03,5.3,4.56-.9,1.04-1.77,2.06-2.67,3.11,1.77,2.42,2.86,5.11,3.28,8.11h1.4c.72,0,1.44,0,2.16,0,.21,0,.34,.03,.34,.29Zm-48.64-.83c1.3,1.2,2.71,2.17,4.3,2.95-.89,1.2-1.76,2.36-2.66,3.57-1.41-1.05-2.79-2.08-4.18-3.12,.85-1.14,1.69-2.26,2.54-3.4ZM61.33,0H6.22C2.79,0,0,2.79,0,6.22V61.32c0,3.43,2.79,6.22,6.22,6.22H61.33c3.43,0,6.22-2.79,6.22-6.22V6.22c0-3.43-2.79-6.22-6.22-6.22Zm2.8,61.32c0,1.54-1.26,2.8-2.8,2.8H6.22c-1.4,0-2.55-1.03-2.76-2.38,.03-.04,.07-.07,.09-.11,2.08-2.77,4.15-5.55,6.22-8.33,1.77-2.38,3.55-4.75,5.32-7.13,.27-.37,.76-.76,.74-1.12-.03-.39-.54-.74-.84-1.1-.02-.02-.04-.03-.09-.06-.16,.2-.33,.41-.5,.63-1.96-1.46-3.89-2.91-5.83-4.35,.17-.23,.31-.42,.5-.68-.36-.15-.69-.25-1-.41-.26-.13-.39-.06-.56,.16-1.37,1.83-2.73,3.67-4.1,5.5V6.22c0-1.54,1.26-2.8,2.8-2.8H61.33c1.54,0,2.8,1.26,2.8,2.8V61.32Z"/>
  </g>
</svg>