<?xml version="1.0" encoding="UTF-8"?>
<svg id="_圖層_2" data-name="圖層 2" xmlns="http://www.w3.org/2000/svg" xmlns:xlink="http://www.w3.org/1999/xlink" viewBox="0 0 67.54 67.54">
  <defs>
    <style>
      .cls-1 {
        fill: url(#_未命名漸層_57);
      }
    </style>
    <linearGradient id="_未命名漸層_57" data-name="未命名漸層 57" x1="1.82" y1="65.72" x2="65.72" y2="1.82" gradientUnits="userSpaceOnUse">
      <stop offset="0" stop-color="#c0b297"/>
      <stop offset=".48" stop-color="#e1cfb0"/>
      <stop offset=".79" stop-color="#d1bfa7"/>
      <stop offset="1" stop-color="#c5b693"/>
    </linearGradient>
  </defs>
  <g id="_圖層_1-2" data-name="圖層 1">
    <path class="cls-1" d="M61.32,0H6.22C2.79,0,0,2.79,0,6.22V61.32c0,3.43,2.79,6.22,6.22,6.22H61.32c3.43,0,6.22-2.79,6.22-6.22V6.22c0-3.43-2.79-6.22-6.22-6.22Zm-19.98,60.36c-2.19,1.67-4.65,2.93-7.26,3.77h-15.77c-.76-.24-1.52-.51-2.26-.83-1.68-.72-3.24-1.62-4.65-2.68l-1.44-1.08,32.84-.28-1.45,1.11Zm-7.41-4.8l-5.43,.05-.12-14.29,14.26-.12-.03-3.74-14.25,.12-.13-14.79,4.15-.04c4.39-.04,8.78-.08,13.16-.11,.16,0,.33,.04,.5,.11,.26,.11,.51,.3,.67,.51,2.98,3.88,4.77,8.24,5.31,12.95,.74,6.46-.78,12.54-4.53,18.07-.57,.85-1.25,1.21-2.25,1.21-3.78,0-7.55,.04-11.33,.07ZM9.92,19.13l1.4-1.1c6.52-5.13,16.87-6.22,25.15-2.66,1.52,.65,2.97,1.46,4.31,2.39l1.57,1.09-32.43,.28Zm10.69,3.72l2.35-.02c.14,0,.28,.01,.43,.03l.74,.06,.28,32.66-10.4,.09-.13-15.32-3.98,.03,.13,15.37h-.61c-.29,0-.57,.02-.84,.02-.66,.02-1.27,.03-1.89-.02-.14-.01-.28-.05-.43-.11h0c-.32-.14-.66-.41-.89-.72-.73-.96-1.37-1.95-1.94-2.97V26.65c.55-.97,1.15-1.93,1.84-2.86,.33-.45,.97-.79,1.48-.8,4.62-.07,9.24-.1,13.87-.14ZM3.42,61.32v-2.17c1.62,1.87,3.47,3.54,5.53,4.97h-2.73c-1.54,0-2.8-1.26-2.8-2.8Zm60.7,0c0,1.54-1.26,2.8-2.8,2.8h-17.92c7.91-5.52,13.08-14.72,12.99-25.09-.1-11.99-7.26-22.79-18.25-27.52-3.87-1.66-7.99-2.49-12.25-2.45-8.1,.08-15.67,3.29-21.31,9.04-.41,.42-.79,.85-1.17,1.28V6.22c0-1.54,1.26-2.8,2.8-2.8H61.32c1.54,0,2.8,1.26,2.8,2.8V61.32Z"/>
  </g>
</svg>