<?xml version="1.0" encoding="UTF-8"?>
<svg id="_圖層_2" data-name="圖層 2" xmlns="http://www.w3.org/2000/svg" xmlns:xlink="http://www.w3.org/1999/xlink" viewBox="0 0 67.54 67.54">
  <defs>
    <style>
      .cls-1 {
        fill: url(#_未命名漸層_57);
      }
    </style>
    <linearGradient id="_未命名漸層_57" data-name="未命名漸層 57" x1="1.82" y1="65.72" x2="65.72" y2="1.82" gradientUnits="userSpaceOnUse">
      <stop offset="0" stop-color="#c0b297"/>
      <stop offset=".48" stop-color="#e1cfb0"/>
      <stop offset=".79" stop-color="#d1bfa7"/>
      <stop offset="1" stop-color="#c5b693"/>
    </linearGradient>
  </defs>
  <g id="_圖層_1-2" data-name="圖層 1">
    <path class="cls-1" d="M57.34,54.88c0-1.75-.65-2.61-2.29-3v-.09c-.02-.23-.03-.46-.05-.69-.09-.89-.56-1.59-1.36-2.02-.15-.08-.17-.12-.17-.28v-9.29c0-3.48,0-6.97,.01-10.45,0-.07,.03-.17,.02-.17,1.07-.55,1.58-1.5,1.54-2.8,0-.02,0-.04,0-.05,.14,0,.28,0,.42,0,1.12-.03,1.88-.8,1.89-1.92,0-.38,0-.76,0-1.14v-.5c0-1.07-.37-1.63-1.35-2.03l-9.93-4.1c-3.66-1.51-7.32-3.03-10.98-4.55-.9-.37-1.73-.38-2.62,0-6.97,2.9-13.94,5.78-20.92,8.65-.65,.27-1.09,.7-1.34,1.32l-.02,2.83,.02,.1c.39,.96,1.14,1.41,2.29,1.35,0,.14,0,.26,0,.38,.03,1.08,.51,1.9,1.44,2.42,.04,.03,.11,.15,.11,.21,.01,6.59,.01,13.19,0,19.78,0,.05-.06,.16-.09,.18-1,.57-1.5,1.44-1.46,2.61q0,.26-.23,.3c-.86,.13-1.52,.67-1.89,1.54l-.18,.41-.02,3.5,1.25,1.25H56.04l.06-.03c.94-.46,1.36-1.25,1.25-2.34-.03-.3-.02-.61-.01-.93,0-.15,0-.3,0-.45ZM12.29,23.87v-.18c0-.41,0-.82,.01-1.22,.04-.03,.11-.07,.19-.1,3.1-1.29,6.2-2.58,9.3-3.86l3.05-1.26c2.79-1.15,5.57-2.3,8.36-3.46,.41-.17,.74-.17,1.17,.01,6.87,2.86,13.75,5.7,20.64,8.53,.24,.1,.26,.16,.25,.35-.02,.33-.02,.66-.01,1.01,0,.06,0,.12,0,.18H12.29Zm10.98,27.02c9.55,0,19.1,0,28.65-.01h0c.45,0,.73,.07,.85,.21,.11,.12,.14,.36,.09,.76H14.64c0-.18,0-.36,0-.53,.03-.26,.16-.39,.43-.42,.11,0,.22,0,.34,0h7.85Zm-7.06-2.17V29.16h7.14v19.55h-7.14Zm17.52-15.69h.04c1.63,.01,3.13,.64,4.23,1.77,1.1,1.13,1.7,2.66,1.68,4.31-.03,3.14-2.73,5.77-5.93,5.77h-.04c-3.32-.02-5.89-2.7-5.87-6.1,.02-3.13,2.71-5.75,5.88-5.75Zm-3.52-1.3v-2.57h7.11v2.56c-2.37-1.1-4.76-1.1-7.11,0Zm9.28-1.89v-.68h2.51v19.55h-2.51s0-.04,0-.05v-.55c0-1.1,0-2.21,0-3.31,0-.11,.06-.25,.13-.33,2.91-3.23,2.92-7.76,.01-11.01-.11-.12-.14-.21-.14-.24-.01-1.11-.01-2.23-.01-3.37Zm-2.18,16.32v2.56h-7.12v-2.57c2.37,1.11,4.76,1.11,7.12,0Zm-9.3-13.2c0,.19-.09,.42-.2,.54-2.85,3.19-2.82,7.8,.06,10.95,.12,.14,.14,.19,.14,.19h0c.01,1.14,.01,2.28,.01,3.44v.63h-2.52V29.16h2.52v1.5c0,.76,0,1.53-.01,2.29Zm16.14,15.76V29.15h7.14v19.56h-7.14Zm8.72-22.18c-.02,.27-.14,.41-.41,.45-.15,.02-.3,.02-.46,.02H15.47c-.13,0-.25,0-.37-.01-.31-.04-.44-.18-.46-.48,0-.14,0-.29,0-.45H52.89c0,.16,0,.32,0,.48Zm2.36,29.96H12.28v-.42c0-.52,0-1.04,0-1.55,0-.22,.07-.52,.58-.53H54.37c.77,0,.87,.1,.87,.88v1.63ZM61.32,0H6.22C2.79,0,0,2.79,0,6.22V61.32c0,3.43,2.79,6.22,6.22,6.22H61.32c3.43,0,6.22-2.79,6.22-6.22V6.22c0-3.43-2.79-6.22-6.22-6.22Zm2.8,61.32c0,1.54-1.26,2.8-2.8,2.8H6.22c-1.54,0-2.8-1.26-2.8-2.8V6.22c0-1.54,1.26-2.8,2.8-2.8H61.32c1.54,0,2.8,1.26,2.8,2.8V61.32Zm-31.4-20.39c-.09-.14-.16-.42-.21-.84h-1.43c-.01,.91,.29,1.56,.89,1.94,.34,.21,.86,.35,1.56,.43v.99h.51v-1c.55-.04,1.02-.18,1.42-.41,.65-.38,.98-.98,.98-1.81,0-.63-.24-1.12-.72-1.47-.29-.21-.86-.45-1.7-.72v-1.89c.35,.02,.6,.15,.73,.39,.08,.14,.13,.35,.16,.64h1.39c-.02-.79-.33-1.37-.93-1.72-.33-.22-.78-.35-1.36-.4v-.67h-.5v.66c-.36,.03-.63,.07-.82,.12-.31,.09-.59,.25-.84,.49-.19,.18-.35,.4-.45,.65-.11,.25-.16,.53-.16,.84,0,.47,.14,.86,.42,1.19,.28,.33,.75,.59,1.43,.77l.43,.12v2.12c-.4-.07-.67-.21-.81-.43Zm1.32-1.52c.3,.1,.51,.2,.63,.3,.21,.17,.31,.39,.31,.67,0,.37-.11,.64-.33,.79-.13,.09-.33,.15-.61,.18v-1.94Zm-1.08-1.75c-.22-.16-.33-.38-.33-.66,0-.25,.07-.45,.22-.6,.15-.15,.38-.22,.68-.23v1.74c-.26-.08-.45-.16-.57-.25Z"/>
  </g>
</svg>