<?xml version="1.0" encoding="UTF-8"?>
<svg id="_圖層_2" data-name="圖層 2" xmlns="http://www.w3.org/2000/svg" xmlns:xlink="http://www.w3.org/1999/xlink" viewBox="0 0 67.54 67.54">
  <defs>
    <style>
      .cls-1 {
        fill: url(#_未命名漸層_57);
      }
    </style>
    <linearGradient id="_未命名漸層_57" data-name="未命名漸層 57" x1="1.82" y1="65.72" x2="65.72" y2="1.82" gradientUnits="userSpaceOnUse">
      <stop offset="0" stop-color="#c0b297"/>
      <stop offset=".48" stop-color="#e1cfb0"/>
      <stop offset=".79" stop-color="#d1bfa7"/>
      <stop offset="1" stop-color="#c5b693"/>
    </linearGradient>
  </defs>
  <g id="_圖層_1-2" data-name="圖層 1">
    <path class="cls-1" d="M61.32,0H6.22C2.79,0,0,2.79,0,6.22V61.32c0,3.43,2.79,6.22,6.22,6.22H61.32c3.43,0,6.22-2.79,6.22-6.22V6.22c0-3.43-2.79-6.22-6.22-6.22Zm2.8,61.32c0,1.54-1.26,2.8-2.8,2.8H6.22c-1.54,0-2.8-1.26-2.8-2.8V6.22c0-1.54,1.26-2.8,2.8-2.8H61.32c1.54,0,2.8,1.26,2.8,2.8V61.32Zm-7.62-41.45c-.96-.83-1.93-1.65-2.89-2.48-1.59-1.37-3.23-1.24-4.57,.37-.38,.45-.76,.9-1.23,1.46,0-.32,0-.5,0-.68,0-1.88,.04-3.76-.04-5.64-.07-1.84-1.3-3.21-3.09-3.67-.07-.02-.14-.06-.2-.09H13.09c-1.04,.27-1.98,.71-2.59,1.63-.33,.51-.54,1.1-.8,1.66V53.98c.06,.16,.13,.31,.18,.47,.55,1.71,2.06,2.82,3.85,2.82,10.02,0,20.05,0,30.07,0,2.12,0,3.9-1.6,3.97-3.71,.09-2.52,.04-5.04,.05-7.56,0-3.51,0-7.02,.01-10.53,0-.26,.13-.58,.3-.78,2.91-3.41,5.84-6.79,8.76-10.19,1.39-1.62,1.26-3.2-.38-4.61Zm-10.62,32.92c-.01,1.46-.75,2.47-2.42,2.46-9.82-.02-19.64,0-29.47-.01-1.49,0-2.27-.77-2.27-2.25,0-13.19,0-26.38,0-39.57,0-1.51,.77-2.27,2.29-2.27,9.84,0,19.68,0,29.51,0,1.47,0,2.27,.8,2.27,2.26,0,2.58,0,5.17-.01,7.75,0,.22-.1,.49-.24,.66-1.9,2.23-3.82,4.44-5.73,6.66-.23,.27-.46,.39-.83,.39-7.6-.01-15.2-.01-22.79,0-.91,0-1.39,.6-1.13,1.38,.15,.44,.5,.66,1.13,.66,1.28,0,2.57,0,3.85,0,5.72,0,11.44,0,17.15,0h.54c-1.22,1.44-2.38,2.75-3.48,4.11-.36,.45-.73,.57-1.27,.57-5.5-.02-11-.01-16.5,0-.19,0-.38,0-.56,.02-.6,.07-.95,.47-.93,1.03,.02,.59,.41,.97,1.04,.97,.96,0,1.91,0,2.87,0,4.18,0,8.37,0,12.55,0h.57c-.23,.28-.42,.5-.6,.72-.2,.24-.4,.48-.61,.71-.83,.92-1.67,1.83-1.7,3.17-.79,0-1.5,0-2.2,0-3.6,0-7.21,0-10.81,0-.81,0-1.26,.59-1.04,1.33,.11,.36,.35,.59,.73,.64,.22,.03,.44,.04,.66,.04,3.82,0,7.64,0,11.47,0h.63c-.4,1.58-.79,3.1-1.19,4.68-.19,0-.39,0-.59,0-3.51,0-7.02,0-10.53,0-.91,0-1.38,.54-1.17,1.32,.13,.49,.47,.72,1.12,.72,2.76,0,5.51,0,8.27,0,1.07,0,2.13,.02,3.2-.01,.42-.01,.87-.09,1.26-.25,2.62-1.06,5.24-2.13,7.84-3.22,.35-.14,.69-.38,.93-.66,2.59-2.96,5.16-5.94,7.73-8.91,.13-.15,.27-.3,.46-.52,.02,.21,.03,.34,.03,.47,0,4.98,.03,9.96-.01,14.94Zm-11.13-6.66c-1.73,.7-3.4,1.37-5.18,2.09,.48-1.84,.93-3.58,1.39-5.38,1.28,1.11,2.5,2.18,3.78,3.29Zm1.82-1.12c-1.62-1.38-3.19-2.72-4.8-4.1,5.31-6.18,10.61-12.35,15.93-18.53,1.57,1.37,3.11,2.71,4.7,4.1-5.27,6.17-10.53,12.33-15.83,18.53Zm18.94-22.04c-.55,.65-1.11,1.3-1.69,1.98-1.57-1.37-3.11-2.71-4.7-4.1,.58-.71,1.11-1.39,1.67-2.05,.34-.4,.86-.44,1.26-.1,1.14,.96,2.27,1.92,3.39,2.9,.46,.4,.47,.9,.08,1.36ZM15.07,16.82c-.25-.76,.21-1.37,1.04-1.37,2.07,0,4.14,0,6.2,0,2.16,0,4.32,0,6.49,0,4.21,0,8.43,0,12.64,0,.81,0,1.28,.51,1.14,1.23-.1,.53-.5,.81-1.21,.81-2.05,0-4.1,0-6.16,0-6.3,0-12.59,0-18.89,0-.74,0-1.11-.2-1.26-.67Zm27.53,6.39c-.01,.52-.35,.91-.85,.96-.14,.02-.28,0-.42,0-4.18,0-8.36,0-12.55,0-4.23,0-8.46,0-12.69,0-.81,0-1.26-.58-1.03-1.33,.11-.36,.35-.59,.73-.64,.2-.03,.41-.04,.61-.04,8.27,0,16.54,0,24.81,0,.2,0,.41,0,.61,.04,.5,.08,.8,.47,.78,1.01Z"/>
  </g>
</svg>