<?xml version="1.0" encoding="UTF-8"?>
<svg id="_圖層_2" data-name="圖層 2" xmlns="http://www.w3.org/2000/svg" viewBox="0 0 56.99 72.85">
  <defs>
    <style>
      .cls-1 {
        fill: #fbce00;
      }

      .cls-2 {
        fill: #3c3c3c;
      }
    </style>
  </defs>
  <g id="_圖層_1-2" data-name="圖層 1">
    <g>
      <g>
        <polygon class="cls-2" points="50.6 69.25 45.42 64.07 44.22 65.27 50.6 71.66 56.99 65.27 55.78 64.07 50.6 69.25"/>
        <rect class="cls-1" x="46.09" y="56.57" width="9.03" height="9.03" transform="translate(58.02 -17.89) rotate(45)"/>
      </g>
      <g>
        <path class="cls-2" d="M9.58,10.84H.94l-.45-1.09H9.58V0l3.56,.5c.56,.08,.77,.31,.77,.54,0,.46-.45,.7-1.29,1.08v31.6l-3.03,.54v-10.18c-.56,.46-1.01,.81-1.6,1.24-.73,.54-4.01,2.79-4.67,3.25-.17,.93-.28,1.39-.7,1.39-.38,0-.63-.54-.7-.66l-1.53-3.76c4.98-1.24,6.52-1.74,9.2-2.71V10.84Zm19.69,12.59l.84,.04c-.03,.5-.21,2.44-.21,3.14,0,2.28,.66,2.56,1.5,2.87-.35,1.78-.7,3.41-3.21,3.41h-7.88c-1.92,0-2.51-1.12-2.51-2.83V.04l3.45,.47c.52,.08,.94,.31,.94,.7,0,.46-.52,.7-1.36,1.05V12.97c3.52-3.37,4.78-5.15,6.76-8.02l2.79,2.9c.14,.12,.45,.5,.45,.81,0,.35-.38,.46-.73,.46-.1,0-.66-.04-.98-.08-3.42,2.4-5.23,3.56-8.3,5.19v14.17c0,.97,.21,1.24,1.08,1.24h4.32c1.32,0,1.64-.93,1.92-1.94l1.12-4.3Z"/>
        <path class="cls-2" d="M6.97,39.04c.17,0,.73,.08,.73,.5,0,.39-.14,.46-1.32,.97v7.94h.8l1.46-2.21,2.47,2.4v.85H6.38v11.54l1.12-.31c.38-.08,.77-.19,1.12-.27l2.02-.58,.21,.7c-2.06,1.35-3.52,2.32-8.19,4.76-.24,.97-.35,1.35-.73,1.35-.21,0-.45-.23-.56-.5l-1.36-3.72c1.88-.31,2.37-.43,3.42-.66v-12.32H.45l-.45-1.05H3.42v-9.8l3.55,.39Zm20.42,6.89l1.5-2.01c-.87,0-1.08-.19-1.5-1.08-1.05-2.32-1.08-2.44-2.4-3.56l.17-.46c2.06,.5,4.81,1.16,4.81,3.52,0,.62-.21,.97-.7,1.43l2.65,2.36v.85h-7.91c.24,7.36,.66,9.45,1.29,12.66,1.46-3.56,1.88-5,2.68-8.29l2.96,1.86c.31,.19,.49,.5,.49,.7,0,.5-.49,.54-1.22,.58-1.67,4.76-2.37,6.08-3.83,8.6,1.05,2.56,1.53,3.29,2.61,4.41,.91-1.74,1.29-2.56,2.02-4.69l.63,.27-.45,2.6c-.14,.66-.28,1.59-.28,2.56,0,1.59,.59,2.48,1.12,3.29-.42,.62-.8,1.08-1.64,1.08-1.32,0-3.55-1.82-5.89-6.82-3.14,3.6-4.95,5-8.82,7.05l-.28-.58c4.18-3.37,5.82-5.38,8.05-9.02-.94-3.06-1.74-5.65-2.23-16.27h-7.11v6.43h2.75l.87-1.7,2.68,1.94c.21,.12,.45,.39,.45,.62,0,.43-.35,.58-1.05,.89l-.07,2.21c-.07,1.32-.31,7.32-.98,9.06-.73,1.82-2.79,1.82-2.96,1.82-.56,0-.56-.23-.59-1.05-.07-1.01-.63-1.12-2.16-1.51v-.7h3.21c.52-2.05,.66-4.45,.77-10.53h-2.93c-.03,3.18-.07,6.2-1.39,9.72-1.81,4.76-5.05,6.82-7.15,8.13l-.45-.58c1.36-1.16,2.89-2.52,4.29-5.73,1.53-3.56,1.81-6.23,1.81-12.43v-9.6l3.31,1.98h6.66c-.1-2.83-.14-3.95-.21-8.06l3.31,.43c.24,.04,.63,.23,.63,.58,0,.43-.21,.5-1.01,.85,0,2.87,0,3.72,.07,6.2h3.42Z"/>
      </g>
    </g>
  </g>
</svg>