<?xml version="1.0" encoding="UTF-8"?>
<svg id="_圖層_2" data-name="圖層 2" xmlns="http://www.w3.org/2000/svg" xmlns:xlink="http://www.w3.org/1999/xlink" viewBox="0 0 192.33 103.06">
  <defs>
    <style>
      .cls-1 {
        fill: url(#_未命名漸層_129);
      }
    </style>
    <linearGradient id="_未命名漸層_129" data-name="未命名漸層 129" x1="-.42" y1="82.09" x2="188.98" y2="40.79" gradientUnits="userSpaceOnUse">
      <stop offset="0" stop-color="#d59f54" stop-opacity="0"/>
      <stop offset=".41" stop-color="#b38423"/>
      <stop offset=".43" stop-color="#b58728"/>
      <stop offset=".45" stop-color="#bc9238"/>
      <stop offset=".48" stop-color="#c7a452"/>
      <stop offset=".51" stop-color="#d7bc75"/>
      <stop offset=".57" stop-color="#c2963e"/>
      <stop offset=".62" stop-color="#b47c16"/>
      <stop offset="1" stop-color="#8a642e" stop-opacity="0"/>
    </linearGradient>
  </defs>
  <g id="_圖層_1-2" data-name="圖層 1">
    <path class="cls-1" d="M129.45,101.4h-11.88c-.46,0-.84-.39-.84-.88V39.53c0-1.49-1.16-2.71-2.59-2.71h-1.83V5.2c0-1.49-1.16-2.71-2.59-2.71h-7.95c-.1-1.39-1.22-2.49-2.58-2.49h-11.76c-1.43,0-2.59,1.21-2.59,2.71V36.83h-3.83c-1.43,0-2.59,1.21-2.59,2.71v60.99c0,.48-.38,.88-.84,.88H0v1.66H78.87c1.43,0,2.59-1.21,2.59-2.71V38.05c0-.48,.38-.88,.84-.88h2.53v61.86c0,2.21,1.73,4.02,3.85,4.02h18.9s0,0,0,0h84.74v-1.66h-62.88ZM109.25,3.71V36.83h-7.48V2.84h6.64c.46,0,.84,.39,.84,.88Zm-20.53,97.68c-.46,0-.84-.39-.84-.88V1.22c0-.48,.38-.88,.84-.88h2.96c-.79,.46-1.33,1.35-1.33,2.36V99.04c0,1.01,.54,1.9,1.33,2.36h-2.96Zm4.3,0c-.46,0-.84-.39-.84-.88V1.22c0-.48,.38-.88,.84-.88h4.85c.46,0,.84,.39,.84,.88V41.73c0,.48-.38,.88-.84,.88h-.92s-.35,0-.35,0c-1.43,0-2.59,1.21-2.59,2.71v53.72c0,1.01,.54,1.9,1.33,2.36h-2.32Zm7.89,0h-3.01c-.46,0-.84-.39-.84-.88V43.84c0-.48,.38-.88,.84-.88h6.25c.46,0,.84,.39,.84,.88v55.2c0,1.01,.54,1.9,1.33,2.36h-5.41Zm7.97,0c-.46,0-.84-.39-.84-.88V45.32c0-1.49-1.16-2.71-2.59-2.71h-5.03c.8-.46,1.34-1.35,1.34-2.37v-3.07h11.06c.46,0,.84,.39,.84,.88v60.99c0,1.01,.54,1.9,1.33,2.36h-6.11Z"/>
  </g>
</svg>