<?xml version="1.0" encoding="UTF-8"?>
<svg id="_圖層_2" data-name="圖層 2" xmlns="http://www.w3.org/2000/svg" xmlns:xlink="http://www.w3.org/1999/xlink" viewBox="0 0 644.71 76.97">
  <defs>
    <style>
      .cls-1 {
        fill: url(#_未命名漸層_12);
      }

      .cls-2 {
        stroke: url(#_未命名漸層_10);
      }

      .cls-2, .cls-3, .cls-4 {
        fill: none;
        stroke-linecap: round;
        stroke-linejoin: round;
      }

      .cls-3 {
        stroke: #fff;
      }

      .cls-5 {
        fill: url(#_未命名漸層_10-2);
      }

      .cls-4 {
        stroke: url(#_未命名漸層_10-3);
      }
    </style>
    <linearGradient id="_未命名漸層_10" data-name="未命名漸層 10" x1="8861.58" y1="12934.82" x2="9026.02" y2="12934.82" gradientTransform="translate(9031.04 12962.98) rotate(-180)" gradientUnits="userSpaceOnUse">
      <stop offset="0" stop-color="#fff"/>
      <stop offset=".53" stop-color="#fff" stop-opacity=".54"/>
      <stop offset="1" stop-color="#fff" stop-opacity=".5"/>
    </linearGradient>
    <linearGradient id="_未命名漸層_10-2" data-name="未命名漸層 10" x1="0" y1="28.17" x2="9.44" y2="28.17" gradientTransform="matrix(1, 0, 0, 1, 0, 0)" xlink:href="#_未命名漸層_10"/>
    <linearGradient id="_未命名漸層_10-3" data-name="未命名漸層 10" x1="476.1" y1="28.17" x2="640.54" y2="28.17" gradientTransform="matrix(1, 0, 0, 1, 0, 0)" xlink:href="#_未命名漸層_10"/>
    <linearGradient id="_未命名漸層_12" data-name="未命名漸層 12" x1="635.27" y1="28.17" x2="644.71" y2="28.17" gradientUnits="userSpaceOnUse">
      <stop offset="0" stop-color="#fff" stop-opacity=".5"/>
      <stop offset=".47" stop-color="#fff" stop-opacity=".54"/>
      <stop offset="1" stop-color="#fff"/>
    </linearGradient>
  </defs>
  <g id="_圖層_2-2" data-name="圖層 2">
    <g>
      <g>
        <line class="cls-2" x1="168.97" y1="28.17" x2="5.53" y2="28.17"/>
        <circle class="cls-5" cx="4.72" cy="28.17" r="4.72"/>
      </g>
      <g>
        <line class="cls-4" x1="476.6" y1="28.17" x2="640.04" y2="28.17"/>
        <circle class="cls-1" cx="639.99" cy="28.17" r="4.72"/>
      </g>
      <g>
        <path class="cls-3" d="M294.68,50.96c-3.27-5.1-5.17-11.17-5.17-17.68,0-18.1,14.68-32.78,32.78-32.78s32.78,14.68,32.78,32.78c0,4.46-.89,8.71-2.51,12.59"/>
        <path class="cls-3" d="M347.08,62.63c.03-3.68-.07-7.38-.07-11.04,0-1.85-1.57-3.82-3.37-3.37-2.38,.6-3.36,6.33-3.36,8.18v-6.57c0-1.85-1.55-3.73-3.37-3.37-2.84,.57-3.37,6.33-3.37,8.18v-5.39c0-1.85-1.51-3.37-3.37-3.37s-3.37,1.51-3.37,3.37v-9.55c0-1.85-1.51-3.37-3.37-3.37s-3.37,1.51-3.37,3.37v16.91c-1.32-1.18-2.72-2.3-4.19-3.31-1.82-1.26-4.37-.68-5.52,1.09-1.16,1.78-.74,3.98,.78,5.04,3.25,2.25,6.1,4.98,8.47,8.11,.39,.57,4.82,7.03,4.95,8.92,0,0,21.48-1.2,21.48-1.2,.18,0,.51-3.44,.53-3.66,.35-2.97,.47-5.97,.49-8.97Z"/>
      </g>
    </g>
  </g>
</svg>