<?xml version="1.0" encoding="UTF-8"?>
<svg id="_圖層_2" data-name="圖層 2" xmlns="http://www.w3.org/2000/svg" xmlns:xlink="http://www.w3.org/1999/xlink" viewBox="0 0 1667.76 582.34">
  <defs>
    <style>
      .cls-1 {
        filter: url(#drop-shadow-7);
      }

      .cls-2 {
        fill: #fff;
      }

      .cls-3 {
        filter: url(#drop-shadow-4);
      }

      .cls-4 {
        filter: url(#drop-shadow-3);
      }

      .cls-5 {
        filter: url(#drop-shadow-1);
      }

      .cls-6 {
        filter: url(#drop-shadow-6);
      }

      .cls-7 {
        filter: url(#drop-shadow-5);
      }

      .cls-8 {
        filter: url(#drop-shadow-2);
      }

      .cls-9 {
        fill: #7f7f7f;
      }
    </style>
    <filter id="drop-shadow-1" filterUnits="userSpaceOnUse">
      <feOffset dx="5.96" dy="11.92"/>
      <feGaussianBlur result="blur" stdDeviation="3.57"/>
      <feFlood flood-color="#000" flood-opacity=".6"/>
      <feComposite in2="blur" operator="in"/>
      <feComposite in="SourceGraphic"/>
    </filter>
    <filter id="drop-shadow-2" filterUnits="userSpaceOnUse">
      <feOffset dx="5.96" dy="11.92"/>
      <feGaussianBlur result="blur-2" stdDeviation="3.57"/>
      <feFlood flood-color="#000" flood-opacity=".6"/>
      <feComposite in2="blur-2" operator="in"/>
      <feComposite in="SourceGraphic"/>
    </filter>
    <filter id="drop-shadow-3" filterUnits="userSpaceOnUse">
      <feOffset dx="5.96" dy="11.92"/>
      <feGaussianBlur result="blur-3" stdDeviation="3.57"/>
      <feFlood flood-color="#000" flood-opacity=".6"/>
      <feComposite in2="blur-3" operator="in"/>
      <feComposite in="SourceGraphic"/>
    </filter>
    <filter id="drop-shadow-4" filterUnits="userSpaceOnUse">
      <feOffset dx="5.96" dy="11.92"/>
      <feGaussianBlur result="blur-4" stdDeviation="3.57"/>
      <feFlood flood-color="#000" flood-opacity=".6"/>
      <feComposite in2="blur-4" operator="in"/>
      <feComposite in="SourceGraphic"/>
    </filter>
    <filter id="drop-shadow-5" filterUnits="userSpaceOnUse">
      <feOffset dx="5.96" dy="11.92"/>
      <feGaussianBlur result="blur-5" stdDeviation="3.57"/>
      <feFlood flood-color="#000" flood-opacity=".6"/>
      <feComposite in2="blur-5" operator="in"/>
      <feComposite in="SourceGraphic"/>
    </filter>
    <filter id="drop-shadow-6" filterUnits="userSpaceOnUse">
      <feOffset dx="5.96" dy="11.92"/>
      <feGaussianBlur result="blur-6" stdDeviation="3.57"/>
      <feFlood flood-color="#000" flood-opacity=".6"/>
      <feComposite in2="blur-6" operator="in"/>
      <feComposite in="SourceGraphic"/>
    </filter>
    <filter id="drop-shadow-7" filterUnits="userSpaceOnUse">
      <feOffset dx="5.96" dy="11.92"/>
      <feGaussianBlur result="blur-7" stdDeviation="3.57"/>
      <feFlood flood-color="#000" flood-opacity=".6"/>
      <feComposite in2="blur-7" operator="in"/>
      <feComposite in="SourceGraphic"/>
    </filter>
  </defs>
  <g id="_圖層_2-2" data-name="圖層 2">
    <g class="cls-5">
      <g>
        <path class="cls-2" d="M1192.5,178.76h0c-12.75,0-23.08-10.33-23.08-23.08V23.08c0-12.75,10.33-23.08,23.08-23.08h0c12.75,0,23.08,10.33,23.08,23.08V155.68c0,12.75-10.33,23.08-23.08,23.08Z"/>
        <g>
          <path class="cls-9" d="M1184.49,34.91c-.36-.67-.86-1.27-1.49-1.82,4.21-2.05,6.83-5.66,7.86-10.83h-7.44v-2.24h7.8c.14-1.34,.22-3.21,.25-5.61v-.82h2.12v.09c-.03,2.72-.13,4.83-.29,6.34h8.45v2.24h-7.65c.74,2.52,1.76,4.66,3.06,6.43,1.4,1.91,3.05,3.31,4.97,4.19-.59,.56-1.07,1.23-1.45,2.03-3.65-1.88-6.35-5.46-8.09-10.74-1.27,5-3.97,8.58-8.09,10.74Z"/>
          <path class="cls-9" d="M1184.92,60.6c-.2-.59-.57-1.25-1.13-1.98,3.33-.42,5.89-1.18,7.69-2.28-1.02-.45-2.19-.92-3.5-1.4l-.46,.91-2.03-.61c.71-1.27,1.59-3.03,2.64-5.26h-4.8v-2.07h5.77c.64-1.41,1.17-2.61,1.57-3.59l2.03,.49c-.42,.98-.87,2.01-1.36,3.1h10.44v2.07h-3.65c-.64,2.39-1.6,4.32-2.87,5.78,2.38,1.09,4.24,2.1,5.6,3.05l-1.53,1.77c-1.31-.98-3.22-2.07-5.7-3.28-1.99,1.54-4.89,2.64-8.7,3.31Zm-1.09-13.98v-5.15h7.61v-2.31h2.08v2.31h7.8v5.15h-2.08v-3.15h-13.42v3.15h-1.99Zm9.48,8.29c1.21-1.26,2.08-2.9,2.6-4.94h-5.53c-.48,1.04-.99,2.13-1.55,3.26,1.58,.51,3.07,1.07,4.49,1.68Z"/>
          <path class="cls-9" d="M1186.88,86.21v-5.45c-.99,1.96-2.1,3.38-3.31,4.26-.14-.51-.43-1.17-.86-1.98,1.34-.96,2.48-2.37,3.42-4.22h-2.94v-1.91h3.69v-2.63h1.82v2.63h2.91v1.91h-2.91v.44c1.43,1.06,2.4,1.81,2.94,2.26l-1.15,1.63c-.25-.31-.85-.94-1.78-1.89v4.94h-1.82Zm4.59-11.18v-5.22c-.88,1.12-1.92,2.12-3.1,3.02-1.19,.89-2.42,1.59-3.69,2.09-.38-.67-.78-1.22-1.22-1.65,1.15-.4,2.27-.95,3.38-1.65,1.1-.71,2.05-1.51,2.85-2.4h-5.37v-1.91h7.15v-2.52h1.95v2.52h7.44v1.91h-5.66c.84,.84,1.85,1.6,3.02,2.28,1.15,.68,2.32,1.2,3.52,1.56-.35,.34-.77,.93-1.26,1.77-1.33-.51-2.6-1.2-3.82-2.07-1.27-.9-2.36-1.9-3.25-3.01v5.29h-1.95Zm4.38,11.18v-5.92c-1.1,2.24-2.4,3.89-3.88,4.96-.32-.58-.73-1.1-1.22-1.58,.77-.48,1.52-1.16,2.24-2.03,.7-.84,1.31-1.78,1.82-2.82h-2.43v-1.91h3.46v-2.63h1.85v2.63h4.28v1.91h-3.33c.52,.95,1.12,1.83,1.8,2.66,.7,.84,1.39,1.51,2.08,2-.53,.48-.99,1.05-1.38,1.7-1.24-1.18-2.39-2.85-3.44-5.01v6.03h-1.85Z"/>
          <path class="cls-9" d="M1186.79,111.78v-10.41c-.96,2.83-1.99,4.94-3.06,6.34-.21-.62-.55-1.31-1.03-2.07,.75-.95,1.48-2.18,2.18-3.7,.69-1.51,1.22-3.02,1.59-4.54h-3.23v-2.05h3.54v-4.91h1.91v4.91h2.85v2.05h-2.85v.47c.29,.31,.87,1,1.72,2.07,.71,.9,1.24,1.58,1.57,2.03l-1.24,1.86c-.43-.81-1.12-1.92-2.05-3.33v11.3h-1.91Zm9.16,0v-10.44c-1.17,3.12-2.5,5.51-3.98,7.15-.2-.51-.57-1.17-1.13-1.98,.98-1.02,1.9-2.37,2.77-4.03,.84-1.63,1.5-3.33,1.99-5.1h-3.25v-2.05h3.61v-4.91h1.95v4.91h3.84v2.05h-3.38c.47,1.79,1.06,3.46,1.76,5.01,.73,1.65,1.48,2.95,2.26,3.91-.59,.48-1.08,1.05-1.49,1.7-1.05-1.54-2.05-3.8-3-6.8v10.58h-1.95Z"/>
          <path class="cls-9" d="M1184.51,127.37c-.55-.64-1.08-1.14-1.59-1.51,.92-.76,1.8-1.74,2.64-2.94,.8-1.13,1.41-2.26,1.82-3.38l2.14,.68c-.6,1.37-1.32,2.66-2.16,3.89-.92,1.35-1.87,2.44-2.85,3.26Zm15.33,10.23c-.21-.5-.52-1.13-.92-1.89-.31,.02-.76,.04-1.36,.07-6.6,.36-11.02,.58-13.27,.68l-.23-2.26,3-.09c.7-1.44,1.39-3.05,2.08-4.82,.71-1.85,1.27-3.5,1.68-4.96l2.28,.61c-1.2,3.28-2.49,6.31-3.86,9.09,1.09-.03,2.81-.1,5.16-.21,1.48-.06,2.59-.11,3.33-.14-.82-1.37-1.75-2.74-2.77-4.12l1.8-.95c.98,1.23,1.94,2.57,2.87,4.03,.94,1.46,1.66,2.73,2.16,3.82l-1.95,1.16Zm.8-10.67c-.98-.92-1.93-2.08-2.85-3.49-.88-1.34-1.65-2.76-2.31-4.26h-6.5v-2.12h7.88c.59,1.58,1.38,3.13,2.39,4.64,1.02,1.54,2.08,2.76,3.17,3.68-.69,.47-1.28,.99-1.78,1.56Z"/>
          <path class="cls-9" d="M1183.79,163.08v-20.43h17.49v20.43h-1.91v-.91h-13.75v.91h-1.82Zm1.82-2.87h13.75v-15.61h-13.75v15.61Zm5.7-.61v-2.96c-1.26,.9-2.64,1.67-4.15,2.31-.42-.62-.78-1.09-1.09-1.4,2.14-.75,3.89-1.68,5.24-2.82h-3.58v-3.94h9.64v3.52l1.03,.7c-.74,.67-1.55,1.27-2.41,1.82,.95,.57,1.93,1,2.94,1.28-.32,.3-.66,.75-1.03,1.37-1.87-.65-3.5-1.71-4.86-3.17v3.28h-1.72Zm-4.8-9.71v-1.28h5.05v-1.21h-3.94v-1.26h3.94v-1.17h1.76v1.17h4.15v1.26h-4.15v1.21h5.14v1.28h-11.95Zm2.85,3.68h6.29v-1.58h-6.29v1.58Zm5.53,2.54c.62-.45,1.18-.91,1.7-1.37h-3.12v.02c.36,.45,.84,.9,1.42,1.35Z"/>
        </g>
      </g>
      <polygon class="cls-2" points="1194.28 176.78 1192.5 219.05 1190.71 176.78 1194.28 176.78 1194.28 176.78"/>
    </g>
    <g class="cls-8">
      <g>
        <path class="cls-2" d="M913.91,119.33h0c12.74,0,23.08,10.34,23.08,23.08v168.09c0,12.74-10.34,23.08-23.08,23.08h0c-12.74,0-23.08-10.34-23.08-23.08V142.42c0-12.74,10.34-23.08,23.08-23.08Z"/>
        <g>
          <path class="cls-9" d="M905.15,161.1c-.06-.68-.23-1.35-.52-2,.96,.03,1.58,.03,1.85,0,.25,0,.38-.13,.38-.4v-5.89c-.13,.05-.32,.12-.59,.21-.78,.26-1.35,.46-1.7,.58l-.44-2.1c.46-.12,1.28-.37,2.45-.75,.13-.05,.22-.08,.27-.09v-4.43h-2.43v-2h2.43v-4.5h1.78v4.5h2.1v2h-2.1v3.84l1.91-.63,.25,1.98c-.24,.08-.6,.2-1.08,.37-.48,.17-.84,.3-1.08,.4v6.5c0,.54-.06,.97-.17,1.28-.11,.31-.31,.55-.59,.72-.46,.26-1.37,.4-2.73,.4Zm5.62,.09c-.38-.42-.87-.83-1.47-1.23,1.45-1.4,2.36-3.67,2.72-6.83l1.78,.26c-.11,.79-.24,1.53-.38,2.21,.57,1.35,1.44,2.28,2.6,2.8v-5.61h-4.09v-1.68h4.09v-1.61h-5.3v-1.7h5.3v-1.47h-4.09v-1.65h4.09v-1.3h-4.99v-1.75h4.99v-1.93h1.8v1.93h5.39v1.75h-5.39v1.3h4.49v3.12h1.38v1.7h-1.38v3.28h-4.49v1.72h4.65v1.72h-4.65v2.68c.66,.08,1.27,.12,1.85,.12,2.18,0,3.52,0,4.03-.02-.28,.54-.46,1.17-.55,1.86h-3.56c-1.65,0-2.98-.21-3.98-.63-1.16-.48-2.1-1.31-2.83-2.49-.52,1.4-1.19,2.55-2.01,3.45Zm7.07-13.39h2.68v-1.47h-2.68v1.47Zm0,3.31h2.68v-1.61h-2.68v1.61Z"/>
          <path class="cls-9" d="M905.17,186.54l-.98-2.12c.95-.73,1.86-1.51,2.73-2.35v-4.1h-2.47v-2h4.34v5.89c.91,1.54,2.59,2.35,5.05,2.45,1.26,.06,2.86,.08,4.82,.05,2.07-.03,3.75-.1,5.03-.21-.32,.65-.53,1.36-.63,2.12-2.91,.14-5.98,.16-9.23,.07-1.36-.06-2.49-.3-3.42-.7-.96-.43-1.78-1.09-2.43-1.98-.91,.98-1.85,1.94-2.81,2.89Zm2.68-12.18c-.31-.42-.79-.89-1.45-1.42-.62-.51-1.24-.96-1.89-1.35l1.26-1.35c.61,.33,1.24,.74,1.89,1.23,.66,.5,1.17,.96,1.53,1.37l-1.34,1.51Zm.57-4.61c-.62-.89-1.68-1.84-3.19-2.87l1.3-1.3c1.54,.95,2.63,1.86,3.27,2.73l-1.38,1.44Zm7.06,13.95v-1.91h-5.72v-1.63h5.72v-1.14h-4.38v-6.66h4.38v-1.16h-4.95v-1.56h4.95v-1.44h1.91v1.44h5.03v1.56h-5.03v1.16h4.53v6.66h-4.53v1.14h5.91v1.63h-5.91v1.91h-1.91Zm-5.43-14.51v-3.08h12.94v3.08h-1.8v-1.47h-9.41v1.47h-1.72Zm2.73,5.82h2.7v-1.26h-2.7v1.26Zm0,2.61h2.7v-1.3h-2.7v1.3Zm4.61-2.61h2.79v-1.26h-2.79v1.26Zm0,2.61h2.79v-1.3h-2.79v1.3Z"/>
          <path class="cls-9" d="M921.78,201.43c-.35-.67-.82-1.39-1.4-2.17-2.64,.14-6.48,.33-11.51,.56-1.82,.09-3.1,.16-3.86,.19l-.15-2.19,3.17-.12c1.33-2.24,2.43-4.53,3.31-6.87l2.18,.84c-.98,2.07-2.03,4.05-3.17,5.94,.57-.03,1.45-.07,2.64-.12,2.54-.11,4.46-.19,5.75-.26-.89-.99-1.7-1.82-2.41-2.49l1.53-1.26c1.12,1.01,2.18,2.08,3.19,3.21,1.12,1.26,1.94,2.35,2.45,3.28l-1.72,1.44Zm-14.55,10.9v-9.99h13.48v9.97h-2.1v-.95h-9.39v.98h-1.99Zm1.99-3.08h9.39v-4.85h-9.39v4.85Z"/>
          <path class="cls-9" d="M912.95,226.94v-5.1h-6.19v3.07h-1.74v-4.57h7.92v-1.19h-6.65v-1.65h15.26v1.65h-6.73v1.19h8.07v4.57h-1.8v-3.07h-6.27v5.1h-1.89Zm3.19,10.88c-1.3,0-2.17-.18-2.62-.54-.45-.36-.67-1.06-.67-2.1v-.44h-4.11v1.12h-1.87v-8.22h14.22v7.11h-6.37v.44c0,.4,.09,.66,.28,.78,.19,.12,.61,.17,1.27,.17h4.36c.52,0,.86-.16,1.03-.47,.17-.31,.29-1.01,.36-2.1,.46,.39,1.01,.62,1.66,.7-.13,1.41-.38,2.36-.78,2.83-.39,.47-1.11,.71-2.16,.71h-4.59Zm-8.81-11.35v-1.26h4.7v1.26h-4.7Zm.42-2.33v-1.26h4.26v1.26h-4.26Zm.98,6.38h4.11v-1.37h-4.11v1.37Zm0,2.68h4.11v-1.33h-4.11v1.33Zm5.98-2.68h4.47v-1.37h-4.47v1.37Zm0,2.68h4.47v-1.33h-4.47v1.33Zm1.09-9.06v-1.26h4.3v1.26h-4.3Zm0,2.33v-1.26h4.82v1.26h-4.82Z"/>
          <path class="cls-9" d="M905.91,263.56c-.36-.67-.86-1.27-1.49-1.82,4.21-2.05,6.83-5.66,7.86-10.83h-7.44v-2.24h7.8c.14-1.34,.22-3.21,.25-5.61v-.82h2.12v.09c-.03,2.72-.13,4.83-.29,6.34h8.45v2.24h-7.65c.74,2.52,1.76,4.66,3.06,6.43,1.4,1.91,3.05,3.31,4.97,4.19-.59,.56-1.07,1.23-1.45,2.03-3.65-1.88-6.35-5.46-8.09-10.74-1.27,5-3.97,8.58-8.09,10.74Z"/>
          <path class="cls-9" d="M907.23,289.21v-9.76c-.7,2.47-1.42,4.31-2.16,5.52-.18-.57-.49-1.2-.92-1.89,.59-.93,1.15-2.19,1.7-3.77,.52-1.51,.93-3.02,1.24-4.54h-2.47v-2h2.62v-4.91h1.78v4.91h2.16v2h-2.16v1.54c.7,1.09,1.49,2.42,2.37,4.01l-1.03,1.56c-.24-.67-.68-1.69-1.34-3.08v10.41h-1.78Zm4.36,.09c-.06-.23-.16-.51-.32-.84-.15-.33-.3-.58-.44-.77,2.35-.23,4.14-.57,5.37-1.02-.46-.16-1.14-.37-2.03-.65l-.17,.3-1.66-.54c.38-.59,.82-1.36,1.32-2.31h-2.6v-1.65h3.48c.11-.22,.28-.54,.5-.98,.04-.09,.08-.16,.11-.21h-3.08v-3.98h4.36v-1h-3.9v-2.33h-1.34v-1.63h1.34v-2.26h3.9v-1.58h1.8v1.58h4.07v2.26h1.38v1.63h-1.38v2.33h-4.07v1h4.47v3.98h-5.64c-.06,.11-.13,.27-.23,.49-.15,.31-.27,.54-.36,.7h7.21v1.65h-2.52c-.29,1.13-.73,2.04-1.3,2.73,1.4,.51,2.6,1.03,3.61,1.56l-1.13,1.51c-.87-.5-2.19-1.1-3.96-1.82-1.43,.88-3.69,1.5-6.79,1.84Zm2.2-10.04h2.64v-1.21h-2.64v1.21Zm.44-7.43h2.2v-1.07h-2.2v1.07Zm0,2.45h2.2v-1.12h-2.2v1.12Zm3.88,11.3c.55-.5,.96-1.2,1.26-2.1h-3.77l-.63,1.14c.73,.19,1.77,.5,3.15,.95Zm.13-13.74h2.33v-1.07h-2.33v1.07Zm0,2.45h2.33v-1.12h-2.33v1.12Zm0,4.99h2.66v-1.21h-2.66v1.21Z"/>
          <path class="cls-9" d="M904.74,312.48l-.4-2.17c.71-.14,2.01-.43,3.9-.86,.42-.09,.73-.16,.94-.21l-.06-.02c.53-2.84,.89-5.74,1.07-8.69l1.91,.37c-.39,3.23-.79,5.87-1.2,7.92l1.95-.49,.19,2c-2.36,.62-5.13,1.34-8.3,2.14Zm.02-12.53v-2.03h3.15v-4.15h1.82v4.15h3.04v2.03h-8.01Zm1.49,9.09c0-1.06-.08-2.33-.23-3.81-.15-1.48-.35-2.86-.59-4.13l1.59-.3c.56,2.76,.86,5.41,.9,7.94l-1.68,.3Zm6.96,5.78v-10.41h3.4v-10.95h1.99v4.57h4.99v2.07h-4.99v4.31h4.15v10.32h-1.97v-.98h-5.68v1.07h-1.89Zm1.89-3.1h5.68v-5.26h-5.68v5.26Z"/>
        </g>
      </g>
      <polygon class="cls-2" points="915.7 324.97 913.91 429.78 912.12 324.97 915.7 324.97 915.7 324.97"/>
    </g>
    <g class="cls-4">
      <g>
        <path class="cls-2" d="M397.71,325.37h0c-12.75,0-23.08-10.33-23.08-23.08v-117.35c0-12.75,10.33-23.08,23.08-23.08h0c12.75,0,23.08,10.33,23.08,23.08v117.35c0,12.75-10.33,23.08-23.08,23.08Z"/>
        <g>
          <path class="cls-9" d="M388.95,202.1c-.06-.68-.23-1.35-.52-2,.96,.03,1.58,.03,1.84,0,.25,0,.38-.13,.38-.4v-5.89c-.13,.05-.32,.12-.59,.21-.78,.26-1.35,.46-1.7,.58l-.44-2.1c.46-.12,1.28-.37,2.45-.75,.13-.05,.22-.08,.27-.09v-4.43h-2.43v-2h2.43v-4.5h1.78v4.5h2.1v2h-2.1v3.84l1.91-.63,.25,1.98c-.24,.08-.6,.2-1.08,.37-.48,.17-.84,.3-1.08,.4v6.5c0,.54-.06,.97-.17,1.28-.11,.31-.31,.55-.59,.72-.46,.26-1.37,.4-2.73,.4Zm5.62,.09c-.38-.42-.87-.83-1.47-1.23,1.45-1.4,2.36-3.67,2.73-6.83l1.78,.26c-.11,.79-.24,1.53-.38,2.21,.57,1.35,1.44,2.28,2.6,2.8v-5.61h-4.09v-1.68h4.09v-1.61h-5.3v-1.7h5.3v-1.47h-4.09v-1.65h4.09v-1.3h-4.99v-1.75h4.99v-1.93h1.8v1.93h5.39v1.75h-5.39v1.3h4.49v3.12h1.38v1.7h-1.38v3.28h-4.49v1.72h4.65v1.72h-4.65v2.68c.66,.08,1.27,.12,1.84,.12,2.18,0,3.52,0,4.03-.02-.28,.54-.46,1.17-.55,1.86h-3.56c-1.65,0-2.98-.21-3.98-.63-1.16-.48-2.1-1.31-2.83-2.49-.52,1.4-1.19,2.55-2.01,3.45Zm7.07-13.39h2.68v-1.47h-2.68v1.47Zm0,3.31h2.68v-1.61h-2.68v1.61Z"/>
          <path class="cls-9" d="M388.97,227.53l-.99-2.12c.95-.73,1.86-1.51,2.73-2.35v-4.1h-2.47v-2h4.34v5.89c.91,1.54,2.59,2.35,5.05,2.45,1.26,.06,2.87,.08,4.82,.05,2.07-.03,3.75-.1,5.03-.21-.32,.65-.53,1.36-.63,2.12-2.91,.14-5.98,.16-9.23,.07-1.36-.06-2.49-.3-3.42-.7-.96-.44-1.78-1.09-2.43-1.98-.91,.98-1.84,1.94-2.81,2.89Zm2.68-12.18c-.31-.42-.79-.89-1.45-1.42-.62-.51-1.24-.96-1.89-1.35l1.26-1.35c.61,.33,1.24,.74,1.89,1.23,.66,.5,1.17,.96,1.53,1.37l-1.34,1.51Zm.57-4.61c-.62-.89-1.68-1.84-3.19-2.87l1.3-1.3c1.54,.95,2.63,1.86,3.27,2.73l-1.38,1.44Zm7.07,13.95v-1.91h-5.72v-1.63h5.72v-1.14h-4.38v-6.66h4.38v-1.16h-4.95v-1.56h4.95v-1.44h1.91v1.44h5.03v1.56h-5.03v1.16h4.53v6.66h-4.53v1.14h5.91v1.63h-5.91v1.91h-1.91Zm-5.43-14.51v-3.08h12.94v3.08h-1.8v-1.47h-9.41v1.47h-1.72Zm2.73,5.82h2.7v-1.26h-2.7v1.26Zm0,2.61h2.7v-1.3h-2.7v1.3Zm4.61-2.61h2.79v-1.26h-2.79v1.26Zm0,2.61h2.79v-1.3h-2.79v1.3Z"/>
          <path class="cls-9" d="M390.6,253.37v-10.6h6.1v-4.61h-8.28v-2.12h8.28v-4.05h2.12v4.05h8.32v2.12h-8.32v4.61h6.14v10.51h-2.12v-1.07h-10.23v1.16h-2.01Zm2.01-3.24h10.23v-5.29h-10.23v5.29Z"/>
          <path class="cls-9" d="M388.59,261.29v-1.82h8.07v-1.96h2.03v1.96h8.26v1.82h-18.37Zm.15,11.79v-4.68h18.03v4.68h-1.8v-3.01h-14.49v3.01h-1.74Zm2.66-5.82v-4.8h12.79v4.8h-12.79Zm2.52,11.72h-.42c-.14-.68-.38-1.34-.71-1.96,1.58,.08,2.73,.09,3.46,.05,.22-.02,.37-.05,.44-.12,.07-.06,.1-.18,.1-.35v-3.28h-5.26v-1.77h12.52v1.77h-5.14v3.38c0,.61-.09,1.06-.26,1.36-.17,.3-.49,.52-.95,.66-.56,.17-1.82,.26-3.77,.26Zm-.59-13.23h8.81v-1.82h-8.81v1.82Z"/>
          <path class="cls-9" d="M388.53,302.22l-.4-2.17c.71-.14,2.01-.43,3.9-.86,.42-.09,.73-.16,.94-.21l-.06-.02c.53-2.84,.89-5.74,1.07-8.69l1.91,.37c-.39,3.23-.79,5.87-1.2,7.92l1.95-.49,.19,2c-2.36,.62-5.13,1.34-8.3,2.14Zm.02-12.53v-2.03h3.14v-4.15h1.82v4.15h3.04v2.03h-8.01Zm1.49,9.08c0-1.06-.08-2.33-.23-3.81-.15-1.48-.35-2.86-.59-4.13l1.59-.3c.56,2.76,.86,5.41,.9,7.94l-1.68,.3Zm6.96,5.78v-10.41h3.4v-10.95h1.99v4.57h4.99v2.07h-4.99v4.31h4.15v10.32h-1.97v-.98h-5.68v1.07h-1.89Zm1.89-3.1h5.68v-5.26h-5.68v5.26Z"/>
        </g>
      </g>
      <polygon class="cls-2" points="399.5 320.36 397.71 384.68 395.92 320.36 399.5 320.36 399.5 320.36"/>
    </g>
    <g class="cls-3">
      <g>
        <path class="cls-2" d="M814,192.79h0c-12.75,0-23.08-10.33-23.08-23.08v-59.64c0-12.75,10.33-23.08,23.08-23.08h0c12.75,0,23.08,10.33,23.08,23.08v59.64c0,12.75-10.33,23.08-23.08,23.08Z"/>
        <g>
          <path class="cls-9" d="M806.5,108.51v-1.33h6.5v-1h-8.07v-1.42h8.07v-1.3h1.97v1.3h8.24v1.42h-8.24v1h6.65v1.33h-15.12Zm-1.53,15.84v-1.51h8.03v-1.03h-6v-1.35h6v-.96c-1.01,.02-2.44,.03-4.3,.05-.99,.02-1.71,.02-2.16,.02l-.08-1.37,3.08,.02c.08-.12,.21-.31,.39-.55,.17-.24,.3-.42,.39-.52h-2.98v-1.26h13.29v1.26h-2.05c1.3,.68,2.39,1.38,3.27,2.1l-1.15,1.14c-.36-.33-.79-.66-1.28-1-.95,.03-2.39,.06-4.32,.09h-.13v.98h6.33v1.35h-6.33v1.03h8.2v1.51h-18.2Zm.27-7.36v-3.35h17.63v3.35h-1.85v-1.93h-14.03v1.93h-1.76Zm2.12-4.19v-3.42h13.46v3.42h-13.46Zm1.82-1.17h9.73v-1.12h-9.73v1.12Zm2.41,6.59h5.95c-.49-.29-.98-.55-1.49-.77l.36-.3h-3.9c-.34,.42-.64,.78-.92,1.07Z"/>
          <path class="cls-9" d="M805.28,149.75v-17.19h1.74c.35-1.2,.6-2.35,.75-3.47l2.14,.28c-.46,1.4-.85,2.46-1.15,3.19h2.91v6.64h-4.65v1.86h4.84v7.15h-4.84v1.54h-1.74Zm1.74-12.39h2.91v-2.96h-2.91v2.96Zm0,9.02h3.1v-3.45h-3.1v3.45Zm10,4.08v-13.77h-2.12v10.3h-1.78v-12.23h3.9v-2.52h-4.63v-1.98h11.15v1.98h-4.7v2.52h4.11v10.13c0,.95-.22,1.55-.65,1.82-.39,.22-1.17,.33-2.35,.33-.08-.67-.25-1.29-.5-1.86,.74,.03,1.22,.03,1.43,0,.18,0,.27-.1,.27-.3v-8.18h-2.31v13.77h-1.82Z"/>
          <path class="cls-9" d="M806,176.07c-.36-.67-.86-1.27-1.49-1.82,4.21-2.05,6.83-5.66,7.86-10.83h-7.44v-2.24h7.8c.14-1.34,.22-3.21,.25-5.61v-.82h2.12v.09c-.03,2.72-.13,4.83-.29,6.34h8.45v2.24h-7.65c.74,2.52,1.76,4.66,3.06,6.43,1.4,1.91,3.05,3.31,4.97,4.19-.59,.56-1.07,1.23-1.45,2.03-3.65-1.88-6.35-5.46-8.09-10.74-1.27,5-3.97,8.58-8.09,10.74Z"/>
        </g>
      </g>
      <polygon class="cls-2" points="815.79 185.97 814 280.05 812.22 185.97 815.79 185.97 815.79 185.97"/>
    </g>
    <g class="cls-7">
      <g>
        <rect class="cls-2" x="501.1" y="233.25" width="46.17" height="232.59" rx="23.08" ry="23.08"/>
        <g>
          <path class="cls-9" d="M518.46,269.53v-6.45c-.78,.26-1.78,.54-2.98,.82-.27-.78-.59-1.41-.96-1.91,2.91-.54,5.53-1.44,7.86-2.7-.95-.73-1.75-1.49-2.41-2.28-.85,.71-1.84,1.37-2.96,1.96-.35-.67-.78-1.2-1.3-1.61,1.38-.64,2.61-1.41,3.67-2.33,.95-.84,1.71-1.73,2.26-2.68l2.05,.47c-.25,.39-.52,.78-.82,1.19h5.45l.36-.09,1.28,.89c-.91,1.63-2.2,3.1-3.88,4.4,2.31,1.06,4.91,1.76,7.82,2.12-.41,.48-.82,1.18-1.26,2.1-.78-.12-1.62-.3-2.52-.54v6.62h-1.99v-.7h-7.78v.75h-1.91Zm-3.06-14.7v-4.66h7.78v-2h1.99v2h7.88v4.66h-1.99v-2.7h-13.75v2.7h-1.91Zm4.93,7.57h8.2c-1.59-.53-3.03-1.16-4.32-1.91-1.13,.7-2.43,1.34-3.88,1.91Zm.04,4.57h7.78v-2.77h-7.78v2.77Zm3.86-8.78c1.17-.81,2.12-1.65,2.83-2.54h-5.58l-.13,.12c.78,.92,1.74,1.72,2.87,2.42Z"/>
          <path class="cls-9" d="M522.59,295.23c-.55,0-1.15-.02-1.8-.07-.06-.81-.24-1.5-.55-2.07,.63,.08,1.28,.12,1.95,.12,.63,0,1.09-.16,1.38-.47,.32-.26,.55-.71,.67-1.35,.14-.67,.15-1.41,.02-2.21-1.13,.98-2.46,1.92-3.98,2.82-1.51,.9-2.96,1.6-4.36,2.1-.43-.87-.78-1.46-1.03-1.77,1.55-.45,3.15-1.13,4.8-2.05,1.68-.95,3.03-1.93,4.05-2.96-.17-.4-.36-.8-.57-1.19-.88,.68-1.94,1.37-3.17,2.05-1.2,.68-2.33,1.23-3.4,1.65-.25-.62-.58-1.18-.99-1.68,1.1-.33,2.28-.8,3.54-1.42,1.29-.64,2.32-1.27,3.1-1.91-.27-.33-.52-.6-.78-.82-1.51,.81-3.19,1.5-5.05,2.07-.34-.7-.68-1.26-1.03-1.68,2.78-.7,5.07-1.65,6.88-2.84h-3.86v-1.86h11.47v1.86h-3.08c.29,1.18,.66,2.3,1.11,3.35,1.37-.99,2.49-1.94,3.38-2.84l1.53,1.44c-1.27,1.12-2.63,2.13-4.09,3.03,1.31,2.39,3,4.06,5.05,5.01-.56,.54-1.01,1.17-1.36,1.89-3.54-1.89-6-5.85-7.38-11.88h-.04c-.56,.53-1.2,1.03-1.93,1.49,1.24,1.21,2.14,2.64,2.68,4.29,.49,1.46,.64,2.87,.46,4.24-.17,1.3-.6,2.24-1.3,2.8-.36,.33-.72,.55-1.07,.68-.35,.12-.78,.19-1.28,.19Zm-7.02-14.63v-4.85h7.63v-1.96h2.01v1.96h7.76v4.85h-1.97v-2.87h-13.5v2.87h-1.93Z"/>
          <path class="cls-9" d="M515.77,320.85c-.22-.62-.64-1.33-1.24-2.12,3.26-.99,5.95-2.44,8.07-4.33-1.96-2.38-3.53-5.4-4.72-9.06h-3.04v-2.1h8.37v-3.82h1.99v3.82h8.49v2.1h-3.12c-1.19,3.63-2.8,6.63-4.84,8.99,2.24,2.07,4.98,3.51,8.24,4.33-.5,.56-.97,1.27-1.4,2.14-3.34-.98-6.16-2.58-8.47-4.8-2.21,2.05-4.98,3.67-8.32,4.85Zm8.43-8.06c1.73-1.97,3.1-4.46,4.09-7.46h-8.26c.99,2.94,2.38,5.42,4.17,7.46Z"/>
          <path class="cls-9" d="M517.79,346.38v-12.46c-.77,1.07-1.58,2.05-2.43,2.94-.28-.76-.67-1.51-1.17-2.26,1.17-1.09,2.29-2.45,3.33-4.09,1.05-1.64,1.91-3.34,2.58-5.11l1.91,.7c-.64,1.68-1.4,3.27-2.26,4.77v15.52h-1.95Zm9.14-.28c-1.19,0-2-.25-2.42-.75-.43-.5-.64-1.45-.64-2.87v-16.89h1.95v8.34c2.39-1.48,4.33-2.97,5.83-4.5l1.4,1.89c-1.59,1.37-4,2.97-7.23,4.82v6.36c0,.67,.08,1.09,.24,1.28,.16,.19,.51,.28,1.06,.28h3.65c.53,0,.88-.27,1.05-.81,.15-.48,.27-1.59,.36-3.33,.55,.45,1.15,.76,1.82,.93-.13,2-.39,3.36-.8,4.08-.43,.78-1.2,1.16-2.31,1.16h-3.96Z"/>
          <path class="cls-9" d="M514.98,371.29v-2.12h8.18v-5.15h-6.23v-2.1h6.23v-4.64h-7.23v-2.12h8.81c-.95-1.13-2.08-2.21-3.38-3.24l1.59-1.24c.7,.53,1.41,1.13,2.14,1.79,.77,.72,1.36,1.34,1.78,1.86l-1.03,.81h6.67v2.12h-7.21v4.64h6.29v2.1h-6.29v5.15h8.26v2.12h-18.58Z"/>
          <path class="cls-9" d="M515.61,397.78c-.31-.59-.7-1.08-1.17-1.47,.96-1.3,1.49-3.77,1.57-7.38h1.59c-.03,.96-.08,1.83-.15,2.61,.35,.85,.8,1.55,1.34,2.07v-5.78h-4v-1.65h9.35v1.65h-3.67v2.19h3.29v1.63h-3.29v3.05c1.16,.48,3.02,.72,5.58,.72,4.35,0,7-.02,7.95-.05-.34,.61-.55,1.21-.65,1.82h-7.3c-2.35,0-4.14-.2-5.37-.61-1.51-.51-2.68-1.44-3.52-2.77-.32,1.69-.84,3.01-1.55,3.96Zm.29-13.14v-7.41h7.13v7.41h-7.13Zm1.72-4.43h3.61v-1.47h-3.61v1.47Zm0,2.91h3.61v-1.49h-3.61v1.49Zm6.79,11.95c-.53-.64-.96-1.07-1.28-1.3,1.47-.75,2.58-1.63,3.33-2.66l1.61,.56c-.45,.64-1.01,1.27-1.68,1.89-.67,.61-1.33,1.11-1.99,1.51Zm.34-4.26v-10.34h2.66c.1-.33,.23-.83,.4-1.51h-3.8v-1.61h9.52v1.61h-3.92c-.03,.08-.08,.21-.15,.4-.18,.51-.32,.89-.42,1.12h3.73v10.34h-8.03Zm1.76-7.36h4.44v-1.45h-4.44v1.45Zm0,2.89h4.44v-1.44h-4.44v1.44Zm0,2.94h4.44v-1.47h-4.44v1.47Zm5.98,5.68c-.75-1.06-1.8-2.1-3.12-3.12l1.36-.82c1.27,.9,2.33,1.89,3.17,2.96l-1.4,.98Z"/>
          <path class="cls-9" d="M516.19,413.22c-.55-.64-1.08-1.14-1.59-1.51,.92-.76,1.8-1.74,2.64-2.94,.8-1.13,1.4-2.26,1.82-3.38l2.14,.68c-.6,1.37-1.32,2.66-2.16,3.89-.92,1.35-1.87,2.44-2.85,3.26Zm15.33,10.23c-.21-.5-.52-1.13-.92-1.89-.31,.02-.76,.04-1.36,.07-6.6,.36-11.02,.58-13.27,.68l-.23-2.26,3-.09c.7-1.44,1.39-3.05,2.08-4.82,.71-1.85,1.27-3.5,1.68-4.96l2.28,.61c-1.2,3.28-2.49,6.3-3.86,9.08,1.09-.03,2.81-.1,5.16-.21,1.48-.06,2.59-.11,3.33-.14-.82-1.37-1.75-2.74-2.77-4.12l1.8-.96c.98,1.23,1.94,2.57,2.87,4.03s1.66,2.73,2.16,3.82l-1.95,1.17Zm.8-10.67c-.98-.92-1.93-2.08-2.85-3.49-.88-1.34-1.65-2.76-2.31-4.26h-6.5v-2.12h7.88c.59,1.58,1.38,3.13,2.39,4.64,1.02,1.54,2.08,2.77,3.17,3.68-.69,.47-1.28,.99-1.78,1.56Z"/>
          <path class="cls-9" d="M515.48,448.93v-20.43h17.49v20.43h-1.91v-.91h-13.75v.91h-1.82Zm1.82-2.86h13.75v-15.61h-13.75v15.61Zm5.7-.61v-2.96c-1.26,.9-2.64,1.67-4.15,2.31-.42-.62-.78-1.09-1.09-1.4,2.14-.75,3.89-1.68,5.24-2.82h-3.59v-3.94h9.64v3.52l1.03,.7c-.74,.67-1.54,1.27-2.41,1.82,.95,.58,1.93,1,2.93,1.28-.32,.29-.66,.75-1.03,1.37-1.87-.65-3.49-1.71-4.86-3.17v3.28h-1.72Zm-4.8-9.71v-1.28h5.05v-1.21h-3.94v-1.26h3.94v-1.16h1.76v1.16h4.15v1.26h-4.15v1.21h5.14v1.28h-11.95Zm2.85,3.68h6.29v-1.58h-6.29v1.58Zm5.54,2.54c.61-.45,1.18-.91,1.7-1.37h-3.12v.02c.36,.45,.84,.9,1.43,1.35Z"/>
        </g>
      </g>
      <polygon class="cls-2" points="525.97 461.95 524.18 519.87 522.39 461.95 525.97 461.95 525.97 461.95"/>
    </g>
    <g class="cls-6">
      <g>
        <path class="cls-2" d="M23.08,351.13h0c12.74,0,23.08,10.34,23.08,23.08v80.5c0,12.74-10.34,23.08-23.08,23.08h0C10.34,477.79,0,467.45,0,454.71v-80.5C0,361.47,10.34,351.13,23.08,351.13Z"/>
        <g>
          <path class="cls-9" d="M15.98,385.68v-10.6h6.1v-4.61H13.8v-2.12h8.28v-4.05h2.12v4.05h8.32v2.12h-8.32v4.61h6.14v10.51h-2.12v-1.07h-10.23v1.16h-2.01Zm2.01-3.24h10.23v-5.29h-10.23v5.29Z"/>
          <path class="cls-9" d="M13.96,393.61v-1.82h8.07v-1.96h2.03v1.96h8.26v1.82H13.96Zm.15,11.79v-4.68h18.03v4.68h-1.8v-3.01H15.85v3.01h-1.74Zm2.66-5.82v-4.8h12.79v4.8h-12.79Zm2.52,11.72h-.42c-.14-.68-.38-1.34-.71-1.96,1.58,.08,2.73,.09,3.46,.05,.22-.02,.37-.06,.44-.12,.07-.06,.1-.18,.1-.35v-3.29h-5.26v-1.77h12.52v1.77h-5.14v3.38c0,.61-.09,1.06-.26,1.36-.17,.3-.49,.52-.95,.66-.56,.17-1.82,.26-3.77,.26Zm-.59-13.23h8.81v-1.82h-8.81v1.82Z"/>
          <path class="cls-9" d="M17.17,426.24c-.95-.75-2.23-1.58-3.84-2.52l1.05-1.59c1.76,.93,3.05,1.7,3.88,2.31l-1.09,1.79Zm-1.59,10.39l-1.68-1.47c1.3-2.02,2.62-4.47,3.96-7.36l1.43,1.42c-1.15,2.55-2.38,5.02-3.71,7.41Zm9.73,.26c-.11-.7-.37-1.47-.78-2.31,1.51,.09,2.87,.12,4.09,.07,.24-.02,.41-.07,.5-.18,.1-.1,.15-.28,.15-.52v-14.91h-10.02v-.68l-1.13,1.65c-.73-.59-2.01-1.46-3.84-2.61l1.11-1.56c1.71,.98,2.99,1.79,3.86,2.42v-1.33h13.52v2.1h-1.55v14.93c0,.73-.09,1.29-.27,1.67-.18,.38-.5,.66-.94,.83-.42,.17-1.03,.29-1.82,.35-.63,.05-1.59,.07-2.87,.07Zm-4.97-4.94v-10.02h6.67v8.43h-4.91v1.58h-1.76Zm1.76-3.52h3.12v-4.54h-3.12v4.54Z"/>
          <path class="cls-9" d="M16.88,451.47c-.35-.37-.85-.78-1.51-1.22-.66-.44-1.3-.81-1.93-1.11l1.09-1.61c1.58,.7,2.75,1.42,3.5,2.17l-1.15,1.77Zm-1.24,10.76l-1.74-1.16c1.13-2.41,2.12-4.88,2.98-7.41l1.57,1.19c-.85,2.56-1.79,5.02-2.81,7.38Zm2.12-16.87c-.7-.81-1.81-1.64-3.33-2.49l1.11-1.54c1.55,.78,2.68,1.55,3.4,2.31l-1.17,1.72Zm13.67,17.19c-1.57-.99-3.07-1.83-4.51-2.51l1.01-1.1h-4.03l1.38,1.05c-.67,.51-1.52,1.01-2.54,1.49-.95,.43-1.89,.78-2.83,1.05-.41-.64-.76-1.13-1.07-1.47,.82-.25,1.67-.57,2.54-.95,.89-.4,1.61-.79,2.14-1.16h-2.62v-5.82c-.75,.19-1.31,.32-1.68,.4-.38-.78-.74-1.35-1.09-1.72,.82-.12,1.75-.3,2.77-.54v-.26h.98c1.05-.26,2.02-.57,2.91-.91v-2.7h-2.87v-1.54h7.82v1.54h-.13l1.61,.82c-1.09,1.06-2.5,1.99-4.21,2.8h4.36v7.94h-2.96c2.1,.99,3.58,1.76,4.45,2.31l-1.45,1.3Zm-11.49-11.79c-.36-.58-.73-1.02-1.09-1.33,1.4-.53,2.54-1.21,3.44-2.05l1.38,.93c-.92,1.01-2.17,1.82-3.73,2.45Zm-.61-3.91v-3.75h5.43v-1.96h1.93v1.96h5.74v3.75h-1.8v-2.12h-9.56v2.12h-1.74Zm3.38,6.38h6.79v-.95h-5.68c-.13,.03-.31,.09-.56,.16-.24,.08-.43,.14-.56,.19v.61Zm0,2.19h6.79v-.98h-6.79v.98Zm0,2.24h6.79v-1.02h-6.79v1.02Zm3.92-8.34c1.19-.57,2.17-1.22,2.93-1.93h-2.93v1.93Z"/>
        </g>
      </g>
      <polygon class="cls-2" points="24.87 475.05 23.08 582.34 21.3 475.05 24.87 475.05 24.87 475.05"/>
    </g>
    <g class="cls-1">
      <g>
        <path class="cls-2" d="M1644.68,217.46h0c-12.75,0-23.08-10.33-23.08-23.08v-56.43c0-12.75,10.33-23.08,23.08-23.08h0c12.75,0,23.08,10.33,23.08,23.08v56.43c0,12.75-10.33,23.08-23.08,23.08Z"/>
        <g>
          <path class="cls-9" d="M1637.17,139.63v-1.33h6.5v-1h-8.07v-1.42h8.07v-1.3h1.97v1.3h8.24v1.42h-8.24v1h6.65v1.33h-15.12Zm-1.53,15.84v-1.51h8.03v-1.03h-6v-1.35h6v-.96c-1.01,.02-2.44,.03-4.3,.05-.99,.02-1.71,.02-2.16,.02l-.08-1.37,3.08,.02c.08-.12,.21-.31,.39-.55,.17-.24,.3-.42,.39-.52h-2.98v-1.26h13.29v1.26h-2.05c1.3,.68,2.39,1.38,3.27,2.1l-1.15,1.14c-.36-.33-.79-.66-1.28-1-.95,.03-2.39,.06-4.32,.09h-.13v.98h6.33v1.35h-6.33v1.03h8.2v1.51h-18.2Zm.27-7.36v-3.35h17.63v3.35h-1.85v-1.93h-14.03v1.93h-1.76Zm2.12-4.19v-3.43h13.46v3.43h-13.46Zm1.82-1.17h9.73v-1.12h-9.73v1.12Zm2.41,6.59h5.95c-.49-.29-.98-.55-1.49-.77l.36-.3h-3.9c-.34,.42-.64,.78-.92,1.07Z"/>
          <path class="cls-9" d="M1636.67,196.7c-.36-.67-.86-1.27-1.49-1.82,4.21-2.05,6.83-5.66,7.86-10.83h-7.44v-2.24h7.8c.14-1.34,.22-3.21,.25-5.61v-.82h2.12v.09c-.03,2.72-.13,4.83-.29,6.34h8.45v2.24h-7.65c.74,2.52,1.76,4.66,3.06,6.43,1.4,1.91,3.05,3.31,4.97,4.19-.59,.56-1.07,1.23-1.45,2.03-3.65-1.88-6.35-5.46-8.09-10.74-1.27,5-3.97,8.58-8.09,10.74Z"/>
        </g>
      </g>
      <polygon class="cls-2" points="1646.46 214.67 1644.68 323.4 1642.89 214.67 1646.46 214.67 1646.46 214.67"/>
    </g>
  </g>
</svg>