<?xml version="1.0" encoding="UTF-8"?>
<svg id="_圖層_2" data-name="圖層 2" xmlns="http://www.w3.org/2000/svg" xmlns:xlink="http://www.w3.org/1999/xlink" viewBox="0 0 372.36 459.52">
  <defs>
    <style>
      .cls-1 {
        fill: url(#_未命名漸層_4);
      }

      .cls-2 {
        filter: url(#drop-shadow-1);
      }

      .cls-3 {
        fill: none;
      }
    </style>
    <linearGradient id="_未命名漸層_4" data-name="未命名漸層 4" x1="422.45" y1="35.9" x2="147.74" y2="426.53" gradientUnits="userSpaceOnUse">
      <stop offset="0" stop-color="#ad9d7a"/>
      <stop offset=".18" stop-color="#c1b590"/>
      <stop offset=".55" stop-color="#f5f2ca"/>
      <stop offset=".84" stop-color="#d0b890"/>
      <stop offset="1" stop-color="#c09f77"/>
    </linearGradient>
    <filter id="drop-shadow-1" filterUnits="userSpaceOnUse">
      <feOffset dx="4.14" dy="4.14"/>
      <feGaussianBlur result="blur" stdDeviation="4.14"/>
      <feFlood flood-color="#000" flood-opacity=".7"/>
      <feComposite in2="blur" operator="in"/>
      <feComposite in="SourceGraphic"/>
    </filter>
  </defs>
  <g id="_圖層_1-2" data-name="圖層 1">
    <path class="cls-1" d="M127.96,447.73l22.55-.33c14.81-1.77,26.64-5.03,35.49-9.78,8.84-4.75,14.92-12.99,18.24-24.71L296.82,78.6c1.54-5.52,2.7-10.22,3.48-14.1,.77-3.87,1.16-7.35,1.16-10.45,0-7.74-2.54-12.93-7.63-15.59-5.09-2.65-13.16-3.98-24.21-3.98l-32.5,1.66v-10.28l8.62-1.33c6.19-1.1,22.59-4.31,49.22-9.62,26.63-5.31,45.58-9.17,56.85-11.61l10.28-2.32,6.3-.99,3.98,2.32c0,1.33-.06,2.65-.17,3.98-.11,1.33-.39,2.65-.83,3.98l-110.45,406.27c-.45,1.77-.83,3.54-1.16,5.31-.33,1.77-.5,3.54-.5,5.31,0,9.07,3.98,14.82,11.94,17.25,7.96,2.44,23.32,3.98,46.1,4.64v9.95H127.96v-11.28Z"/>
    <g class="cls-2">
      <path class="cls-3" d="M24.22,459h-3.74l-10.96-17.22c-2.3-3.65-4.51-7.3-6.18-10.91l-.18,.04c.32,4.17,.36,7.99,.36,13.66v14.43H0v-32.73H3.92l11.1,17.22c2.44,3.91,4.42,7.3,6,10.7l.09-.04c-.36-4.55-.45-8.46-.45-13.62v-14.26h3.56v32.73Z"/>
      <path class="cls-3" d="M60.71,442.34c0,11.51-6.77,17.18-14.88,17.18-8.52,0-14.57-6.4-14.57-16.62s6.36-17.14,14.98-17.14,14.48,6.7,14.48,16.58Zm-25.53,.47c0,6.96,3.79,13.75,10.78,13.75s10.83-6.57,10.83-14.05c0-6.57-3.38-13.79-10.74-13.79s-10.87,7.13-10.87,14.09Z"/>
      <path class="cls-3" d="M66.13,456.81c0-1.63,1.13-2.79,2.71-2.79s2.66,1.16,2.66,2.79c0,1.55-1.04,2.71-2.71,2.71s-2.66-1.29-2.66-2.71Z"/>
    </g>
  </g>
</svg>